<?xml version="1.0" encoding="utf-8"?>
<!-- Generator: Adobe Illustrator 22.1.0, SVG Export Plug-In . SVG Version: 6.00 Build 0)  -->
<svg version="1.1" id="图层_1" xmlns="http://www.w3.org/2000/svg" xmlns:xlink="http://www.w3.org/1999/xlink" x="0px" y="0px"
	 viewBox="0 0 18 18" style="enable-background:new 0 0 18 18;" xml:space="preserve">
<style type="text/css">
	.st0{clip-path:url(#SVGID_2_);}
	.st1{clip-path:url(#SVGID_4_);}
</style>
<g>
	<defs>
		<path id="SVGID_1_" d="M3.1,14.6h11.8c0.2,0,0.3,0.1,0.3,0.3v0.6c0,0.2-0.1,0.3-0.3,0.3H3.1c-0.2,0-0.3-0.1-0.3-0.3v-0.6
			C2.8,14.8,2.9,14.6,3.1,14.6z M12.3,6.8H14c0.5,0,0.7,0.6,0.4,0.9l-5.1,5.6c-0.2,0.2-0.6,0.2-0.8,0L3.5,7.7
			C3.2,7.3,3.4,6.8,3.9,6.8h1.7V3.4c0-0.6,0.5-1.1,1.1-1.1h4.5c0.6,0,1.1,0.5,1.1,1.1V6.8z M11.8,7.9c-0.3,0-0.6-0.3-0.6-0.6V3.4
			H6.7v3.9c0,0.3-0.3,0.6-0.6,0.6h-1L9,12.1l3.8-4.2H11.8z"/>
	</defs>
	<clipPath id="SVGID_2_">
		<use xlink:href="#SVGID_1_"  style="overflow:visible;"/>
	</clipPath>
	<g class="st0">
		<defs>
			<rect id="SVGID_3_" x="-860" y="-479" width="1360" height="1059"/>
		</defs>
		<clipPath id="SVGID_4_">
			<use xlink:href="#SVGID_3_"  style="overflow:visible;"/>
		</clipPath>
		<rect x="-2.2" y="-2.8" class="st1" width="22.4" height="23.5"/>
	</g>
</g>
</svg>
