<?xml version="1.0" encoding="utf-8"?>
<!-- Generator: Adobe Illustrator 21.0.0, SVG Export Plug-In . SVG Version: 6.00 Build 0)  -->
<svg version="1.1" id="图层_1" xmlns="http://www.w3.org/2000/svg" xmlns:xlink="http://www.w3.org/1999/xlink" x="0px" y="0px"
	 viewBox="0 0 26 26" style="enable-background:new 0 0 26 26;" xml:space="preserve">
<style type="text/css">
	.st0{clip-path:url(#SVGID_2_);}
	.st1{clip-path:url(#SVGID_4_);}
</style>
<g>
	<defs>
		<path id="SVGID_1_" d="M3.5,22.5h19c0.3,0,0.5,0.2,0.5,0.5v0.9c0,0.3-0.2,0.5-0.5,0.5h-19c-0.3,0-0.5-0.2-0.5-0.5V23
			C3,22.7,3.2,22.5,3.5,22.5z M18.4,13h2.7c0.8,0,1.2-0.9,0.7-1.5l-8.2-9.1c-0.4-0.4-1-0.4-1.3,0l-8.2,9.1C3.6,12.1,4,13,4.8,13h2.7
			v5.4c0,1,0.8,1.8,1.8,1.8h7.2c1,0,1.8-0.8,1.8-1.8V13z M17.5,11.2c-0.5,0-0.9,0.4-0.9,0.9v6.3H9.3v-6.3c0-0.5-0.4-0.9-0.9-0.9H6.8
			L13,4.4l6.1,6.8H17.5z"/>
	</defs>
	<clipPath id="SVGID_2_">
		<use xlink:href="#SVGID_1_"  style="overflow:visible;"/>
	</clipPath>
	<g class="st0">
		<defs>
			<rect id="SVGID_3_" x="-45.5" y="-299.9" width="412.5" height="473.2"/>
		</defs>
		<clipPath id="SVGID_4_">
			<use xlink:href="#SVGID_3_"  style="overflow:visible;"/>
		</clipPath>
		<rect x="0.7" y="-0.1" class="st1" width="24.5" height="26.7"/>
	</g>
</g>
</svg>
