<?xml version="1.0" encoding="utf-8"?>
<!-- Generator: Adobe Illustrator 22.0.1, SVG Export Plug-In . SVG Version: 6.00 Build 0)  -->
<svg version="1.1" id="图层_1" xmlns="http://www.w3.org/2000/svg" xmlns:xlink="http://www.w3.org/1999/xlink" x="0px" y="0px"
	 viewBox="0 0 74 74" style="enable-background:new 0 0 74 74;" xml:space="preserve">
<title>Fill 1 Copy 3@2x</title>
<desc>Created with Sketch.</desc>
<g id="Page-1">
	<g id="已完成" transform="translate(-30.000000, -662.000000)">
		<path id="Fill-1-Copy" class="st0" d="M90.8,695.7c-0.8,0-1.6-0.2-2.3-0.6c0,0,0,0-0.1,0c-0.4-0.4-0.8-0.7-1.2-0.9
			c-0.3-0.3-0.6-0.7-0.8-1.1c-0.3-0.6-1-1-1.7-1h0c-0.7,0-1.4,0.4-1.7,1c-0.2,0.4-0.5,0.7-0.8,1c-0.4,0.2-0.8,0.5-1.2,0.9
			c0,0-0.1,0-0.2,0.1c-0.7,0.4-1.5,0.6-2.3,0.6c-0.8,0-1.6-0.2-2.3-0.6c0,0,0,0,0,0c-0.4-0.4-0.8-0.7-1.2-0.9
			c-0.3-0.3-0.6-0.7-0.8-1.1c-0.3-0.6-1-1-1.7-1c-0.7,0-1.4,0.4-1.7,1c-0.2,0.4-0.5,0.7-0.8,1c-0.4,0.2-0.8,0.5-1.2,0.9
			c0,0-0.1,0.1-0.2,0.1c-0.7,0.4-1.5,0.5-2.2,0.5c-0.8,0-1.6-0.2-2.3-0.6c0,0-0.1,0-0.1,0c-0.4-0.4-0.8-0.7-1.2-0.9
			c-0.3-0.3-0.6-0.7-0.8-1.1c-0.7-1.3-2.7-1.3-3.4,0c-0.2,0.4-0.5,0.7-0.8,1c-0.4,0.2-0.8,0.5-1.2,0.9c0,0-0.1,0.1-0.2,0.1
			c-0.7,0.4-1.5,0.6-2.3,0.6c-0.8,0-1.6-0.2-2.3-0.6c0,0-0.1,0-0.1,0c-0.4-0.4-0.8-0.7-1.2-0.9c-0.3-0.3-0.6-0.7-0.8-1.1
			c-0.3-0.6-1-1-1.7-1h0c-0.7,0-1.4,0.4-1.7,1c-0.2,0.4-0.5,0.7-0.8,1c-0.4,0.2-0.8,0.5-1.2,0.9c0,0,0,0,0,0
			c-0.8,0.4-1.6,0.6-2.6,0.6h0c-2.7-0.1-4.8-2.3-4.8-5c0-0.2,0-0.5,0-0.7c0.6-1.5,3.9-8.9,5.3-12.6c0.9-2.2,2.8-2.4,3.9-2.4l39.6,0
			c0.6,0,3.4,0.1,4.4,2.6l5.2,12.4c0,0.2,0,0.5,0,0.7C95.7,693.4,93.5,695.7,90.8,695.7L90.8,695.7z M89.1,724.7
			c0,0.7-0.6,1.3-1.3,1.3H59.2v-27.9c0.3-0.2,0.6-0.4,0.9-0.7c0.2,0,0.4,0,0.6,0c0.5,0.4,1.1,0.8,1.7,1.2c0.8,0.5,2.1,1,3.8,1
			c0.1,0,0.2,0,0.2,0c0.1,0,0.2,0,0.2,0c1.8,0,3-0.5,3.8-1c0.6-0.3,1.2-0.7,1.7-1.2c0.2,0,0.4,0,0.6,0c0.5,0.4,1.1,0.8,1.7,1.1
			c0.8,0.5,2.1,1,3.9,1c0.1,0,0.2,0,0.2,0c0.1,0,0.2,0,0.2,0c1.8,0,3-0.5,3.9-1c0.6-0.3,1.2-0.7,1.7-1.1c0.2,0,0.4,0,0.6,0
			c0.5,0.4,1.1,0.8,1.7,1.1c0.6,0.3,1.4,0.7,2.4,0.9c0,0.4,0,0.9,0,1.4L89.1,724.7L89.1,724.7z M43.8,724.7v-25.2
			c1-0.2,1.8-0.5,2.4-0.9c0.6-0.3,1.2-0.7,1.7-1.2c0.2,0,0.4,0,0.6,0c0.5,0.4,1.1,0.8,1.7,1.1c0.8,0.5,2.1,1,3.9,1
			c0.1,0,0.2,0,0.2,0c0.1,0,0.2,0,0.2,0c0.2,0,0.5,0,0.7,0v26.4H45.1C44.4,726.1,43.8,725.4,43.8,724.7L43.8,724.7z M99.7,690.6
			c0-0.5,0-1.1-0.1-1.6c0-0.1-0.1-0.3-0.1-0.4L94.1,676c-2-4.8-7-5-8.1-5h0l-39.3,0c-0.1,0-0.3,0-0.4,0c-2.6,0-5.9,1.3-7.3,4.9
			c-1.6,3.9-5.3,12.6-5.4,12.7c-0.1,0.1-0.1,0.3-0.1,0.5c-0.1,0.5-0.1,1.1-0.1,1.6c0,4.2,2.8,7.7,6.6,8.7l0,25.3
			c0,2.9,2.4,5.3,5.2,5.3h42.7c2.9,0,5.3-2.4,5.3-5.3V701c0-0.6,0-1.1,0-1.6C96.9,698.4,99.7,694.8,99.7,690.6L99.7,690.6z"/>
	</g>
</g>
</svg>
