<svg id="图层_1" data-name="图层 1" xmlns="http://www.w3.org/2000/svg" xmlns:xlink="http://www.w3.org/1999/xlink" viewBox="0 0 59.31 59.31"><defs><mask id="mask" x="0" y="15.82" width="59.31" height="43.49" maskUnits="userSpaceOnUse"><g transform="translate(-7.35 -8)"><g id="mask-2"><polygon id="path-1" class="cls-1" points="7.35 23.82 66.65 23.82 66.65 67.31 7.35 67.31 7.35 23.82"/></g></g></mask><mask id="mask-2-2" x="9.19" y="3.96" width="50.12" height="45.47" maskUnits="userSpaceOnUse"><g transform="translate(-7.35 -8)"><g id="mask-4"><polygon id="path-3" class="cls-1" points="16.54 11.96 66.65 11.96 66.65 57.42 16.54 57.42 16.54 11.96"/></g></g></mask></defs><title>账号限额</title><g id="Page-1"><g id="红包模板"><g id="Group-7"><g id="Page-1-2" data-name="Page-1"><g id="Group-3"><g class="cls-2"><path id="Fill-1" class="cls-3" d="M13.28,27.77a2,2,0,0,0-2,2V61.38a2,2,0,0,0,2,2H60.72a2,2,0,0,0,2-2V29.75a2,2,0,0,0-2-2ZM60.72,67.31H13.28a5.94,5.94,0,0,1-5.93-5.93V29.75a5.92,5.92,0,0,1,5.93-5.93H60.72a5.92,5.92,0,0,1,5.93,5.93V61.38A5.94,5.94,0,0,1,60.72,67.31Z" transform="translate(-7.35 -8)"/></g></g><g id="Group-9"><g id="Group-6"><g class="cls-4"><path id="Fill-4" class="cls-3" d="M18.51,27.77a2,2,0,0,1-1.71-3l5.71-9.89a5.94,5.94,0,0,1,8.1-2.17l3.42,2a5.89,5.89,0,0,1,2.72,3.43A2,2,0,0,1,33,19.29a2,2,0,0,0-.9-1.14l-3.43-2a2,2,0,0,0-2.7.73l-5.7,9.88A2,2,0,0,1,18.51,27.77Zm32.33,9.88a2,2,0,0,0-2,2V51.49a2,2,0,0,0,2,2H62.7V37.65ZM64.68,57.42H50.84a5.93,5.93,0,0,1-5.93-5.93V39.63a5.94,5.94,0,0,1,5.93-5.93H64.68a2,2,0,0,1,2,2V55.45A2,2,0,0,1,64.68,57.42Z" transform="translate(-7.35 -8)"/></g></g><path id="Fill-7" class="cls-3" d="M50.16,27.77a2,2,0,0,1-1.4-3.37l3.48-3.48a2,2,0,0,0,0-2.8l-5.6-5.59a2,2,0,0,0-2.79,0L29.19,27.19a2,2,0,0,1-3.32-.88,2,2,0,0,1,.53-1.91L41.05,9.74a5.93,5.93,0,0,1,8.39,0L55,15.33a6,6,0,0,1,0,8.39l-3.47,3.47a2,2,0,0,1-1.4.58" transform="translate(-7.35 -8)"/></g><path id="Fill-10" class="cls-3" d="M53.86,45.56a3,3,0,1,0,3-3,3,3,0,0,0-3,3" transform="translate(-7.35 -8)"/></g></g></g></g></svg>