<?xml version="1.0" encoding="utf-8"?>
<!-- Generator: Adobe Illustrator 22.0.1, SVG Export Plug-In . SVG Version: 6.00 Build 0)  -->
<svg version="1.1" id="图层_1" xmlns="http://www.w3.org/2000/svg" xmlns:xlink="http://www.w3.org/1999/xlink" x="0px" y="0px"
	 viewBox="0 0 74 74" style="enable-background:new 0 0 74 74;" xml:space="preserve">
<title>Fill 1 Copy 3@2x</title>
<desc>Created with Sketch.</desc>
<g id="Page-1">
	<g id="售后管理">
		<path id="Fill-1" class="st0" d="M32.7,25.7c4.7,0,8.5-3.8,8.5-8.5c0-4.7-3.8-8.5-8.5-8.5c-4.7,0-8.5,3.8-8.5,8.5
			C24.3,21.9,28,25.7,32.7,25.7z M32.7,11.5c3.1,0,5.7,2.5,5.7,5.7c0,3.1-2.5,5.7-5.7,5.7c-3.1,0-5.7-2.5-5.7-5.7
			C27.1,14.1,29.6,11.5,32.7,11.5z M51.1,42.7c4.7,0,8.5-3.8,8.5-8.5c0-4.7-3.8-8.5-8.5-8.5c-4.7,0-8.5,3.8-8.5,8.5
			C42.6,38.9,46.4,42.7,51.1,42.7z M51.1,29.2c2.7,0,5,2.2,5,5c0,2.7-2.2,5-5,5c-2.7,0-5-2.2-5-5C46.1,31.5,48.3,29.2,51.1,29.2z
			 M63.8,54.1c-0.5-2-2.9-5.7-7.7-5.7H44.3c0,0,0-0.1-0.1-0.1c-2.1-2.6-5.3-4.1-8.8-4.1h-5.3c-3.4-4.1-9-5.3-11.6-5.6V37
			c0-0.8-0.6-1.4-1.4-1.4H8.7c-0.8,0-1.4,0.6-1.4,1.4v25.4c0,0.8,0.6,1.4,1.4,1.4h8.5c0.8,0,1.4-0.6,1.4-1.4v-2
			c3.6,1.7,10.8,4.8,14.1,4.8h0c8.1,0,29.4-9.1,30.3-9.5C63.6,55.4,64,54.7,63.8,54.1z M32.7,61.9C32.7,61.9,32.7,61.9,32.7,61.9
			c-2.8,0-10.5-3.4-14.1-5.1V41.6c2.4,0.3,7.2,1.4,9.7,4.9c0.3,0.4,0.7,0.7,1.2,0.7h6c2.6,0,4.8,0.8,6.4,2.7
			c0.6,0.8,1.1,1.7,1.3,2.5H26.9c-0.8,0-1.4,0.6-1.4,1.4c0,0.8,0.6,1.4,1.4,1.4h18c0.8,0,1.4-0.6,1.4-1.4c0-1-0.1-1.6-0.4-2.5
			L56,51.5c2.5,0,3.6,1.2,4.2,2.3C55.5,55.8,39.1,61.9,32.7,61.9z"/>
		<polygon id="Path" class="st1" points="10.2,61 15.8,61 15.8,38.4 10.2,38.4 		"/>
	</g>
</g>
</svg>
