<?xml version="1.0" encoding="utf-8"?>
<!-- Generator: Adobe Illustrator 22.1.0, SVG Export Plug-In . SVG Version: 6.00 Build 0)  -->
<svg version="1.1" xmlns="http://www.w3.org/2000/svg" xmlns:xlink="http://www.w3.org/1999/xlink" x="0px" y="0px"
	 viewBox="0 0 74 74" style="enable-background:new 0 0 74 74;" xml:space="preserve">
<g id="图层_1" class="st0">
	<path class="st1" d="M61,19.7c-11.2,0-19.7-2.4-24-6.4c-4.5,4-12.8,6.4-24,6.4c-1.6,0-2.7-1.1-2.7-2.7c0-1.6,1.1-2.7,2.7-2.7
		c14.7,0,19.5-4,21.1-5.6c0,0,0.3-0.3,0.3-0.5V7.9V7.7C34.3,6.1,35.4,5,37,5c1.3,0,2.7,1.1,2.7,2.7v0.3c0.3,0.3,0.3,0.5,0.3,0.5
		c1.6,1.9,6.4,5.9,21.1,5.9c1.6,0,2.7,1.1,2.7,2.7C63.7,18.6,62.6,19.7,61,19.7z M38.3,68.7C37.8,69,37.5,69,37,69
		c-0.5,0-0.8,0-1.3-0.3c-1.6-0.5-2.9-1.1-4.3-1.6c-13.6-5.1-20.8-13.3-21.1-27.7V29c0-1.6,1.1-2.7,2.7-2.7s2.7,1.1,2.7,2.7v10.4
		c0.3,12,5.9,18.4,17.6,22.9c1.1,0.5,2.4,0.8,3.7,1.3c1.3-0.5,2.4-0.8,3.7-1.3c11.7-4.5,17.3-10.9,17.6-22.9V29
		c0-1.6,1.1-2.7,2.7-2.7s2.7,1.1,2.7,2.7v10.7c-0.3,14.4-7.5,22.7-21.1,27.7C41.3,67.7,39.9,68.2,38.3,68.7z"/>
	<path class="st1" d="M33.5,23.4l5.9-0.5c0.3,0.8,0.5,1.9,1.1,3.2h12.3v6.4h-4.8v-2.7H26.1v2.7h-4.8v-6.4h13.1
		C34.1,25,33.8,23.9,33.5,23.4z M23.7,51.1V33h10.9v-2.7h4.8V33h10.9v18.1h-4.5v-1.6h-6.4v6.7h-4.8v-6.7h-6.4v1.6H23.7z M45.8,36.7
		h-6.4v2.9h6.4C45.8,39.7,45.8,36.7,45.8,36.7z M28.2,39.7h6.4v-2.9h-6.4V39.7z M28.2,46.1h6.4v-2.9h-6.4V46.1z M39.4,46.1h6.4v-2.9
		h-6.4V46.1z"/>
</g>
<g id="图层_2">
	<g>
		<path class="st2" d="M37,68.4c-0.2,0-0.4,0-0.6-0.1c-17.8-5.8-23.7-17.4-25.6-26.1c-2-9.3,0.2-17.2,0.3-17.5
			c0.3-1.1,1.4-1.7,2.5-1.4c1.1,0.3,1.7,1.4,1.4,2.5c-0.3,1.2-7.7,28.6,22.7,38.6c1,0.3,1.6,1.5,1.3,2.5
			C38.6,67.9,37.8,68.4,37,68.4z"/>
	</g>
	<g>
		<path class="st2" d="M36.5,68.4c-0.8,0-1.6-0.5-1.9-1.4c-0.3-1,0.2-2.2,1.3-2.5c30.5-10,23-37.5,22.7-38.6
			c-0.3-1.1,0.3-2.2,1.4-2.5c1.1-0.3,2.2,0.3,2.5,1.4c0.1,0.3,2.3,8.2,0.3,17.5c-1.9,8.7-7.8,20.2-25.6,26.1
			C36.9,68.4,36.7,68.4,36.5,68.4z"/>
	</g>
	<g>
		<path class="st2" d="M35.1,25.8c-0.2-0.6-0.4-1.3-0.6-1.9c-0.2-0.7-0.4-1.3-0.6-1.8l3.7-1c0.1,0.6,0.3,1.4,0.5,2.2
			c0.2,0.8,0.4,1.7,0.6,2.5c3.4,0,6.1-0.1,8.2-0.1c2.1-0.1,3.7-0.1,4.9-0.2v6.3h-3.1v-3.5H25.4v4.1h-3.1v-7c0.6,0.1,1.3,0.1,1.9,0.2
			c0.7,0,1.5,0.1,2.4,0.1s2.1,0.1,3.4,0.1C31.4,25.8,33.1,25.8,35.1,25.8z M28.3,49.8H25c0.1-0.8,0.2-1.6,0.2-2.2
			c0-0.6,0.1-1.2,0.1-1.8v-9.3c0-1.2-0.1-2.4-0.3-3.4c0.9,0.1,2.2,0.2,3.9,0.2c1.6,0,3.9,0.1,6.7,0.1c0-0.9-0.1-1.7-0.2-2.4
			c-0.1-0.7-0.1-1.2-0.2-1.5c0.7,0.1,1.3,0.2,1.9,0.2c0.5,0,1.1,0,1.7,0c0.5,0,0.7,0,0.8,0.2c0.1,0.1-0.1,0.3-0.5,0.5
			c-0.1,0-0.2,0.1-0.3,0.2c-0.1,0.1-0.1,0.3-0.2,0.5c0,0.2-0.1,0.5-0.1,0.9c0,0.4,0,0.8,0,1.4c1.6,0,3,0,4.1,0s2.1,0,3-0.1
			c0.8,0,1.6-0.1,2.1-0.1c0.6,0,1.1-0.1,1.6-0.1c-0.1,0.5-0.2,1.1-0.3,1.7c0,0.7-0.1,1.2-0.1,1.7V45c0,0.6,0,1.1,0.1,1.8
			c0,0.6,0.1,1.3,0.2,2.1h-3.3v-1.6h-7.4c0,1,0,1.8,0,2.5s0,1.3,0,1.9c0,0.6,0.1,1.1,0.1,1.7s0.1,1.1,0.1,1.7h-3.5
			c0-0.6,0.1-1.2,0.1-1.8c0-0.5,0.1-1.1,0.1-1.7c0-0.6,0-1.2,0.1-1.9c0-0.7,0-1.5,0-2.5h-7.3V49.8z M28.3,35.7v3.6h7.3v-3.6H28.3z
			 M28.3,45.1h7.3v-3.6h-7.3V45.1z M45.9,35.7h-7.4v3.6h7.4V35.7z M45.9,41.5h-7.4v3.6h7.4V41.5z"/>
	</g>
	<g>
		<path class="st2" d="M10.8,20c-0.3,0-0.5,0-0.5,0c-1.1,0-2-0.9-2-2c0-1.1,0.9-2,2-2c6.3,0.1,23.1-1.3,24.7-9.1
			c0.2-1.1,1.3-1.8,2.4-1.6c1.1,0.2,1.8,1.3,1.6,2.4c-1.1,5.5-6.4,9.2-15.7,11.1C17.7,19.9,12.5,20,10.8,20z"/>
	</g>
	<g>
		<path class="st2" d="M62.7,20c-1.7,0-6.9-0.1-12.4-1.2C41,17,35.7,13.2,34.5,7.7c-0.2-1.1,0.5-2.1,1.6-2.4
			c1.1-0.2,2.1,0.5,2.4,1.6c1.6,7.8,18.3,9.2,24.7,9.1c1.1,0,2,0.9,2,2c0,1.1-0.9,2-2,2C63.2,20,63,20,62.7,20z"/>
	</g>
</g>
</svg>
