<?xml version="1.0" encoding="utf-8"?>
<!-- Generator: Adobe Illustrator 22.1.0, SVG Export Plug-In . SVG Version: 6.00 Build 0)  -->
<svg version="1.1" id="图层_1" xmlns="http://www.w3.org/2000/svg" xmlns:xlink="http://www.w3.org/1999/xlink" x="0px" y="0px"
	 viewBox="0 0 74 74" style="enable-background:new 0 0 74 74;" xml:space="preserve">
<title>自动回复</title>
<desc>Created with Sketch.</desc>
<g id="Page-1">
	<g id="个人号-回复管理-自动回复" transform="translate(-33.000000, -625.000000)">
		<g id="自动回复" transform="translate(33.000000, 625.000000)">
			<path id="Shape" class="st0" d="M22.1,22.2c2.1-3.8,5.6-6.6,9.7-7.7c4.1-1.2,8.5-0.6,12.2,1.6c2.6,1.5,4.7,3.7,6.1,6.4l1.2-2.2
				c0.2-0.4,0.6-0.8,1.1-0.9c0.5-0.1,1-0.1,1.4,0.2c0.9,0.5,1.2,1.7,0.7,2.6l-3.4,6c-0.2,0.4-0.6,0.7-1.1,0.9
				c-0.5,0.1-1,0.1-1.4-0.2l-5.8-3.5c-0.9-0.5-1.2-1.7-0.7-2.6c0.2-0.4,0.6-0.8,1.1-0.9c0.5-0.1,1-0.1,1.4,0.2l1.4,0.8
				c-1-1.5-2.4-2.7-3.9-3.6c-5.9-3.5-13.5-1.4-16.9,4.7c-0.2,0.4-0.6,0.7-1.1,0.9c-0.5,0.1-1,0.1-1.4-0.2
				C21.9,24.3,21.6,23.1,22.1,22.2z M19.6,38.7l3.4-6c0.2-0.4,0.6-0.8,1.1-0.9s1-0.1,1.4,0.2l5.8,3.5c0.9,0.5,1.2,1.7,0.7,2.6
				c-0.2,0.4-0.6,0.8-1.1,0.9c-0.5,0.1-1,0.1-1.4-0.2l-1.4-0.8c1,1.5,2.3,2.7,3.9,3.6c5.9,3.5,13.5,1.4,16.9-4.7
				c0.2-0.4,0.6-0.7,1.1-0.9c0.5-0.1,1-0.1,1.4,0.2c0.9,0.5,1.2,1.7,0.7,2.6c-2.1,3.8-5.6,6.6-9.7,7.7c-4.1,1.2-8.5,0.6-12.2-1.6
				c-2.6-1.5-4.7-3.7-6.1-6.4l-1.2,2.2c-0.2,0.4-0.6,0.8-1.1,0.9s-1,0.1-1.4-0.2C19.3,40.8,19,39.6,19.6,38.7z"/>
			<path id="Shape_1_" class="st0" d="M28.4,58.3H11.5c-1.7,0-3.4-0.7-4.6-1.9C5.7,55.1,5,53.4,5,51.7L5,6.4h57.5
				c3.6,0,6.5,3,6.5,6.6v45.2H48.8l-10.2,8.4L28.4,58.3z M8.5,9.9v41.8c0,1.7,1.4,3.1,3.1,3.1h18.1l8.9,7.4l8.9-7.4h18V13
				c0-1.7-1.3-3.1-3.1-3.1H8.5z"/>
		</g>
	</g>
</g>
</svg>
