<?xml version="1.0" encoding="utf-8"?>
<!-- Generator: Adobe Illustrator 22.1.0, SVG Export Plug-In . SVG Version: 6.00 Build 0)  -->
<svg version="1.1" id="图层_1" xmlns="http://www.w3.org/2000/svg" xmlns:xlink="http://www.w3.org/1999/xlink" x="0px" y="0px"
	 viewBox="0 0 74 74" style="enable-background:new 0 0 74 74;" xml:space="preserve">
<g>
	<g>
		<path class="st0" d="M42.3,68.5H11.4c-3.5,0-6.3-2.8-6.3-6.3V31.4c0-3.5,2.8-6.3,6.3-6.3h30.9c3.5,0,6.3,2.8,6.3,6.3V39
			c0,1.1-0.9,2-2,2s-2-0.9-2-2v-7.7c0-1.2-1-2.3-2.3-2.3H11.4c-1.2,0-2.3,1-2.3,2.3v30.9c0,1.2,1,2.3,2.3,2.3h30.9
			c1.2,0,2.3-1,2.3-2.3v-7.9c0-1.1,0.9-2,2-2s2,0.9,2,2v7.9C48.5,65.7,45.7,68.5,42.3,68.5z"/>
	</g>
	<g>
		<path class="st0" d="M62.6,48.9H31.7c-3.5,0-6.3-2.8-6.3-6.3v-7.9c0-1.1,0.9-2,2-2s2,0.9,2,2v7.9c0,1.2,1,2.3,2.3,2.3h30.9
			c1.2,0,2.3-1,2.3-2.3V11.7c0-1.2-1-2.3-2.3-2.3H31.7c-1.2,0-2.3,1-2.3,2.3v7.7c0,1.1-0.9,2-2,2s-2-0.9-2-2v-7.7
			c0-3.5,2.8-6.3,6.3-6.3h30.9c3.5,0,6.3,2.8,6.3,6.3v30.9C68.9,46.1,66.1,48.9,62.6,48.9z"/>
	</g>
</g>
</svg>
