<?xml version="1.0" encoding="utf-8"?>
<!-- Generator: Adobe Illustrator 22.1.0, SVG Export Plug-In . SVG Version: 6.00 Build 0)  -->
<svg version="1.1" id="图层_1" xmlns="http://www.w3.org/2000/svg" xmlns:xlink="http://www.w3.org/1999/xlink" x="0px" y="0px"
	 viewBox="0 0 74 64.8" style="enable-background:new 0 0 74 64.8;" xml:space="preserve">
<g id="Page-1">
	<g id="个人号-微信号管理" transform="translate(-32.000000, -671.000000)">
		<g id="快捷回复" transform="translate(32.000000, 671.000000)">
			<path id="Shape" class="st0" d="M53,58.3c-1.4,0-2.6-0.1-3.6-0.1c-0.6,0-1-0.1-1.3-0.1c-1.2,0-2.2-1-2.2-2.2s1-2.2,2.2-2.2
				c0.4,0,0.9,0,1.6,0.1c3.1,0.2,9.6,0.5,12.5-2.2c1-1,1.5-2.2,1.5-3.9V16.4c-4,4-9.7,9.6-9.7,9.6L50.9,23c0,0,11.2-11.2,13.4-13.4
				L68,5.9v41.8c0,2.9-1,5.3-2.9,7.1C62,57.8,57,58.3,53,58.3z M47.6,14.2H8.2C7,14.2,6,13.2,6,12s1-2.2,2.2-2.2h39.5
				c1.2,0,2.2,1,2.2,2.2S48.9,14.2,47.6,14.2z M40.7,36.3H8.8c-1.2,0-2.2-1-2.2-2.2s1-2.2,2.2-2.2h31.8c1.2,0,2.2,1,2.2,2.2
				S41.9,36.3,40.7,36.3z M36.6,58.3H9.4c-1.2,0-2.2-1-2.2-2.2s1-2.2,2.2-2.2h27.3c1.2,0,2.2,1,2.2,2.2
				C38.8,57.3,37.8,58.3,36.6,58.3z"/>
		</g>
	</g>
</g>
</svg>
