<?xml version="1.0" encoding="utf-8"?>
<!-- Generator: Adobe Illustrator 22.1.0, SVG Export Plug-In . SVG Version: 6.00 Build 0)  -->
<svg version="1.1" id="图层_1" xmlns="http://www.w3.org/2000/svg" xmlns:xlink="http://www.w3.org/1999/xlink" x="0px" y="0px"
	 viewBox="0 0 74 79.9" style="enable-background:new 0 0 74 79.9;" xml:space="preserve">
<g>
	<path class="st0" d="M13.4,14.2c-1.2,0-2.1,1-2.1,2.1v47.1c0,1.2,1,2.1,2.1,2.1h47.1c1.2,0,2.1-1,2.1-2.1v-47c0-1.2-1-2.1-2.1-2.1
		C60.6,14.2,13.4,14.2,13.4,14.2z M13.4,10h47.1c3.6,0,6.4,2.9,6.4,6.4l0,0v47.1c0,3.6-2.9,6.4-6.4,6.4l0,0H13.4
		C9.9,70,7,67.1,7,63.5l0,0V16.4C7,12.8,9.9,10,13.4,10z"/>
	<path class="st0" d="M17.7,25v-4.3H22V25H17.7z M37,52.8c-7.1,0-12.9-5.8-12.9-12.9S29.9,27,37,27l0,0c7.1,0,12.9,5.8,12.9,12.9
		C49.8,47.1,44.1,52.8,37,52.8z M37,48.5c4.7,0,8.6-3.8,8.6-8.6c0-4.7-3.8-8.6-8.6-8.6l0,0c-4.7,0-8.6,3.8-8.6,8.6
		S32.3,48.5,37,48.5z"/>
</g>
</svg>
