<?xml version="1.0" encoding="utf-8"?>
<!-- Generator: Adobe Illustrator 22.1.0, SVG Export Plug-In . SVG Version: 6.00 Build 0)  -->
<svg version="1.1" id="图层_1" xmlns="http://www.w3.org/2000/svg" xmlns:xlink="http://www.w3.org/1999/xlink" x="0px" y="0px"
	 viewBox="0 0 74 74" style="enable-background:new 0 0 74 74;" xml:space="preserve">
<g>
	<g>
		<path class="st0" d="M61,61.5h-4.6v-3H61c0.6,0,1.3-0.5,1.3-1.3V15.8c0-0.6-0.5-1.3-1.3-1.3H20.7c-0.6,0-1.3,0.5-1.3,1.3v4.7h-3
			v-4.7c0-2.4,1.9-4.3,4.3-4.3H61c2.4,0,4.3,1.9,4.3,4.3v41.4C65.3,59.6,63.4,61.5,61,61.5z"/>
	</g>
	<path class="st0" d="M15.3,20.8c-0.9,0-1.7,0.8-1.7,1.7v37.7c0,0.9,0.8,1.7,1.7,1.7H53c0.9,0,1.7-0.8,1.7-1.7V22.6
		c0-0.9-0.8-1.7-1.7-1.7C53,20.8,15.3,20.8,15.3,20.8z M15.3,17.4h4.6H53c2.8,0,5.1,2.3,5.1,5.1l0,0V60v0.2c0,2.8-2.3,5.1-5.1,5.1
		l0,0H15.3c-2.8,0-5.1-2.3-5.1-5.1l0,0V22.6C10.2,19.7,12.5,17.4,15.3,17.4z"/>
	<path class="st0" d="M18.7,29.4V26h3.4v3.4H18.7z M34.2,51.7c-5.7,0-10.3-4.6-10.3-10.3s4.6-10.3,10.3-10.3l0,0
		c5.7,0,10.3,4.6,10.3,10.3C44.4,47.1,39.8,51.7,34.2,51.7z M34.2,48.3c3.8,0,6.9-3.1,6.9-6.9s-3.1-6.9-6.9-6.9l0,0
		c-3.8,0-6.9,3.1-6.9,6.9C27.3,45.2,30.4,48.3,34.2,48.3z"/>
</g>
</svg>
