<?xml version="1.0" encoding="utf-8"?>
<!-- Generator: Adobe Illustrator 22.0.1, SVG Export Plug-In . SVG Version: 6.00 Build 0)  -->
<svg version="1.1" id="图层_1" xmlns="http://www.w3.org/2000/svg" xmlns:xlink="http://www.w3.org/1999/xlink" x="0px" y="0px"
	 viewBox="0 0 74 74" style="enable-background:new 0 0 74 74;" xml:space="preserve">
<title>Fill 1 Copy 3@2x</title>
<desc>Created with Sketch.</desc>
<g id="Page-1_1_">
	<g id="已完成" transform="translate(-31.000000, -440.000000)">
		<g id="Page-1-Copy" transform="translate(31.000000, 440.000000)">
			<g id="Group-8">
				<g id="Group-7">
					<path id="Fill-5" class="st0" d="M61.4,35.9h-3.4v-7.7c0-2.6-2-4.9-4.5-5.6c0.1-0.3,0-0.6-0.1-0.9L49.7,12
						c-0.2-0.4-0.5-0.8-0.9-0.9c-0.4-0.2-0.9-0.2-1.3,0L18.3,21.9c-0.3,0.1-0.5,0.3-0.7,0.5h-1.4c-3.2,0-5.5,2.6-5.5,5.8v29.6
						c0,3.3,2.3,5.9,5.5,5.9h35.5c3.2,0,6.2-2.6,6.2-5.9v-6.7h3.4c3.2,0,5.8-2.6,5.8-5.8v-3.5C67.2,38.5,64.6,35.9,61.4,35.9z
						 M47.1,14.7l2.9,7.7H26.6L47.1,14.7z M54.6,57.8c0,1.4-1.4,2.5-2.8,2.5H16.2c-1.3,0-2.2-1.2-2.2-2.5V28.2
						c0-1.4,0.8-2.4,2.2-2.4h35.5c1.4,0,2.8,1.1,2.8,2.4v7.7h-5.1c-3.2,0-5.8,2.6-5.8,5.8v3.5c0,3.2,2.6,5.8,5.8,5.8h5.1V57.8z
						 M63.8,45.2c0,1.4-1.1,2.5-2.5,2.5H49.4c-1.4,0-2.5-1.1-2.5-2.5v-3.5c0-1.4,1.1-2.5,2.5-2.5h11.9c1.4,0,2.5,1.1,2.5,2.5V45.2z"
						/>
				</g>
			</g>
			<path id="Fill-9" class="st0" d="M49.6,42.8c0,1,0.8,1.8,1.8,1.8s1.8-0.8,1.8-1.8c0-1-0.8-1.8-1.8-1.8S49.6,41.8,49.6,42.8z"/>
		</g>
	</g>
</g>
</svg>
