<?xml version="1.0" encoding="utf-8"?>
<!-- Generator: Adobe Illustrator 22.0.1, SVG Export Plug-In . SVG Version: 6.00 Build 0)  -->
<svg version="1.1" id="图层_1" xmlns="http://www.w3.org/2000/svg" xmlns:xlink="http://www.w3.org/1999/xlink" x="0px" y="0px"
	 viewBox="0 0 74 74" style="enable-background:new 0 0 74 74;" xml:space="preserve">
<title>Fill 1 Copy 3@2x</title>
<desc>Created with Sketch.</desc>
<g id="Page-1_1_">
	<g id="已完成_1_" transform="translate(-31.000000, -351.000000)">
		<g id="Group-2-Copy-3" transform="translate(31.000000, 351.000000)">
			<path id="类目" class="st0" d="M24.9,39.4h-9.7c-5.3,0-9.7,4.3-9.7,9.7v9.7c0,5.3,4.3,9.7,9.7,9.7h9.7c5.3,0,9.7-4.3,9.7-9.7
				v-9.7C34.6,43.7,30.3,39.4,24.9,39.4z M29.6,58.9c0,2.7-2.2,4.8-4.8,4.8h-9.6c-2.7,0-4.8-2.2-4.8-4.8v-9.6c0-2.7,2.1-4.8,4.8-4.8
				h9.6c2.7,0,4.8,2.2,4.8,4.8V58.9z M24.9,5.6h-9.7c-5.3,0-9.7,4.3-9.7,9.7v9.7c0,5.3,4.3,9.7,9.7,9.7h9.7c5.3,0,9.7-4.3,9.7-9.7
				v-9.7C34.6,9.9,30.3,5.6,24.9,5.6z M29.6,25.1c0,2.7-2.2,4.8-4.8,4.8h-9.6c-2.7,0-4.8-2.2-4.8-4.8v-9.6c0-2.7,2.2-4.8,4.8-4.8
				h9.6c2.7,0,4.8,2.1,4.8,4.8V25.1z M41.8,15.4H66c1.3,0,2.4-1.1,2.4-2.4c0-1.3-1.1-2.4-2.4-2.4H41.8c-1.3,0-2.4,1.1-2.4,2.4
				C39.4,14.3,40.4,15.4,41.8,15.4z M65.8,24.8H41.6c-1.3,0.1-2.2,1.1-2.2,2.4s1,2.3,2.2,2.4h24.2c0.9,0.1,1.8-0.4,2.3-1.1
				c0.5-0.8,0.5-1.7,0-2.5C67.6,25.2,66.7,24.8,65.8,24.8z M65.8,44.5H41.6c-1.3,0.1-2.2,1.1-2.2,2.4c0,1.2,1,2.3,2.2,2.4h24.2
				c0.9,0.1,1.8-0.4,2.3-1.1c0.5-0.8,0.5-1.7,0-2.5C67.6,44.8,66.7,44.4,65.8,44.5z M66,58.6H41.8c-0.9,0-1.7,0.5-2.1,1.2
				c-0.4,0.7-0.4,1.6,0,2.4c0.4,0.7,1.2,1.2,2.1,1.2H66c0.9,0,1.7-0.4,2.1-1.2c0.4-0.7,0.4-1.6,0-2.4C67.7,59.1,66.9,58.6,66,58.6z"
				/>
		</g>
	</g>
</g>
</svg>
