<?xml version="1.0" encoding="utf-8"?>
<!-- Generator: Adobe Illustrator 21.0.0, SVG Export Plug-In . SVG Version: 6.00 Build 0)  -->
<svg version="1.1" id="图层_1" xmlns="http://www.w3.org/2000/svg" xmlns:xlink="http://www.w3.org/1999/xlink" x="0px" y="0px"
	 viewBox="0 0 74 74" style="enable-background:new 0 0 74 74;" xml:space="preserve">
<g>
	<path class="st0" d="M41,34.9L41,34.9L41,34.9c2.9-2.9,4.5-6.9,4.5-11.3C45.5,15,38.5,8,30,8s-15.4,7-15.4,15.5
		c0,4.5,1.5,8.4,4.3,11.3l0,0l-0.1,0c-4.4,2.1-8.1,5.5-10.8,9.8C5.4,49.1,4,54.1,4,59.2c0,2,0,6.7,7,6.8c1.2,0,4.1,0,8.3,0l30,0
		c4.3,0,7-2.5,7-6.8c0-5-1.4-9.9-4.2-14.3C49.2,40.5,45.4,37,41,34.9z M49.1,61.9l-29.9,0c-3.9,0-6.9,0-8.2,0c-3,0-3-0.7-3-2.7
		c0-10,6.6-19.1,15.7-21.7c0.8-0.2,1.4-0.9,1.5-1.7c0.1-0.8-0.3-1.6-1-2c-3.5-1.9-5.5-5.5-5.5-10.1c0-6.3,5.1-11.5,11.3-11.5
		c6.3,0,11.3,5.1,11.3,11.5c0,4.4-2.1,8.1-5.7,10.1c-0.7,0.4-1.1,1.2-1,2c0.1,0.8,0.7,1.5,1.5,1.7c9.2,2.6,16,12,15.9,21.7
		C52.1,61.2,51.3,61.9,49.1,61.9z"/>
	<path class="st0" d="M70.2,55.2C70.2,55.2,70.2,55.2,70.2,55.2L70.2,55.2c0-3.8-1.3-8.1-3.5-11.8c-2.4-4-5.7-7.1-9.4-8.7l0,0l0,0
		c1.7-2.2,2.6-4.9,2.6-7.7c0-6.7-5.4-12.2-12.2-12.4h-0.1c0,0,0,0,0,0c-0.5,0-1,0.2-1.4,0.6c-0.4,0.4-0.6,0.9-0.6,1.4
		c0,0.5,0.2,1.1,0.6,1.4c0.4,0.4,0.9,0.6,1.4,0.6c4.7,0.1,8.3,3.8,8.3,8.4c0,2.8-1.4,5.4-3.7,7c-0.7,0.5-1,1.3-0.8,2
		c0.1,0.8,0.7,1.4,1.5,1.6c0.5,0.1,1.1,0.3,1.6,0.4c6.9,2.1,11.7,10.7,11.7,17.2c0,0,0,0,0,0c0,0.6-0.2,1.3-0.7,1.7
		c-0.5,0.5-1,0.7-1.9,0.7c0,0-0.1,0-0.1,0l-1.3,0c-0.2,0-0.3,0-0.5,0c-0.2,0-0.5,0-0.8,0h0c0,0,0,0,0,0c-1.1,0-2,0.9-2,2
		c0,1.1,0.9,2,2,2.1l1,0l1.7,0c0,0,0,0,0.1,0c2,0,3.6-0.6,4.8-1.8C69.5,58.7,70.2,57,70.2,55.2C70.2,55.2,70.2,55.2,70.2,55.2z"/>
</g>
</svg>
