<?xml version="1.0" encoding="utf-8"?>
<!-- Generator: Adobe Illustrator 21.0.0, SVG Export Plug-In . SVG Version: 6.00 Build 0)  -->
<svg version="1.1" id="图层_1" xmlns="http://www.w3.org/2000/svg" xmlns:xlink="http://www.w3.org/1999/xlink" x="0px" y="0px"
	 viewBox="0 0 74 74" style="enable-background:new 0 0 74 74;" xml:space="preserve">
<g>
	<path class="st0" d="M55.7,19.2H9.4c-3.3,0-6,2.7-6,6v27.7c0,3.3,2.7,6,6,6h2.7L12,66.2c0,0.5,0.2,1.1,0.6,1.5
		c0.4,0.4,0.9,0.6,1.5,0.6c0.5,0,1.1-0.2,1.4-0.6l9-8.9h31.2c3.3,0,6-2.7,6-6V25.2C61.7,21.9,59,19.2,55.7,19.2z M15.6,55.4
		c-0.4-0.4-0.9-0.6-1.5-0.6H9.4c-1,0-1.9-0.8-1.9-1.9V25.2c0-1,0.8-1.9,1.9-1.9l0.1,0h46.2c1,0,1.9,0.8,1.9,1.9v27.7
		c0,1-0.8,1.9-1.9,1.9h-32c-0.5,0-1.1,0.2-1.4,0.6l-6.1,6l0.1-4.5C16.2,56.3,16,55.8,15.6,55.4z"/>
	<path class="st0" d="M64.6,5.4H20.3c-3.3,0-6,2.7-6,6V16h4.1v-4.7c0-1,0.8-1.9,1.9-1.9h44.2c1,0,1.9,0.8,1.9,1.9V39
		c0,1-0.8,1.9-1.9,1.9h-1.1V45h1.1c3.3,0,6-2.7,6-6V11.3C70.5,8,67.9,5.4,64.6,5.4z"/>
	<path class="st0" d="M18.5,42.5c0.5,0.3,1,0.4,1.6,0.4c0.6,0,1.1-0.1,1.6-0.4c1-0.6,1.6-1.6,1.6-2.7c0-1.1-0.6-2.2-1.6-2.7
		c-1-0.6-2.2-0.6-3.2,0c-1,0.6-1.6,1.6-1.6,2.7S17.5,42,18.5,42.5z"/>
	<path class="st0" d="M31,42.5c0.5,0.3,1,0.4,1.6,0.4c0.6,0,1.1-0.1,1.6-0.4c1-0.6,1.6-1.6,1.6-2.7s-0.6-2.2-1.6-2.7
		c-1-0.6-2.2-0.6-3.2,0c-1,0.6-1.6,1.6-1.6,2.7S30,42,31,42.5z"/>
	<path class="st0" d="M43.4,42.5c0.5,0.3,1,0.4,1.6,0.4c0.6,0,1.1-0.1,1.6-0.4c1-0.6,1.6-1.6,1.6-2.7s-0.6-2.2-1.6-2.7
		c-1-0.6-2.2-0.6-3.2,0c-1,0.6-1.6,1.6-1.6,2.7C41.9,40.9,42.5,42,43.4,42.5z"/>
</g>
</svg>
