<?xml version="1.0" encoding="utf-8"?>
<!-- Generator: Adobe Illustrator 21.0.0, SVG Export Plug-In . SVG Version: 6.00 Build 0)  -->
<svg version="1.1" id="图层_1" xmlns="http://www.w3.org/2000/svg" xmlns:xlink="http://www.w3.org/1999/xlink" x="0px" y="0px"
	 viewBox="0 0 74 74" style="enable-background:new 0 0 74 74;" xml:space="preserve">
<g>
	<path class="st0" d="M66.6,44.9c-2.6-3.7-6.1-6.5-10.1-8.1c1.7-1.3,3.2-2.9,4.3-4.8c1.3-2.3,2-4.9,2-7.6c0-8.3-6.5-15.1-14.5-15.1
		c-1.2,0-2.2,1-2.2,2.2s1,2.2,2.2,2.2c5.6,0,10.1,4.8,10.1,10.8c0,6-4.6,10.8-10.1,10.8c-1.2,0-2.2,1-2.2,2.2c0,1.2,1,2.2,2.2,2.2
		c10.1,0,18.4,8.7,18.4,19.4c0,1.2,1,2.2,2.2,2.2c1.2,0,2.2-1,2.2-2.2C71,53.8,69.5,49,66.6,44.9z"/>
	<path class="st0" d="M46.5,42.4c-2.1-1.5-4.3-2.6-6.7-3.5c5.1-3.2,8.2-8.8,8.2-14.7c0-9.6-7.9-17.4-17.6-17.4
		c-9.7,0-17.6,7.8-17.6,17.4c0,3.3,0.9,6.5,2.7,9.2c1.4,2.3,3.4,4.2,5.6,5.6c-2.4,0.8-4.7,2-6.8,3.5c-2.3,1.6-4.4,3.6-6.2,6
		C4.5,53.3,2.6,59,2.6,65c0,1.2,1,2.2,2.2,2.2s2.2-1,2.2-2.2c0-6.2,2.4-12.1,6.9-16.5c4.4-4.4,10.3-6.8,16.5-6.8c0.2,0,0.5,0,0.7,0
		l0.1,0c6,0.1,11.7,2.5,16,6.8C51.5,52.9,54,58.8,54,65c0,1.2,1,2.2,2.2,2.2c1.2,0,2.2-1,2.2-2.2c0-6-1.9-11.7-5.6-16.5
		C51,46.1,48.9,44.1,46.5,42.4z M43.7,24.2c0,7.2-5.9,13.1-13.2,13.1s-13.2-5.9-13.2-13.1c0-7.2,5.9-13.1,13.2-13.1
		S43.7,17,43.7,24.2z"/>
</g>
</svg>
