<?xml version="1.0" encoding="utf-8"?>
<!-- Generator: Adobe Illustrator 22.1.0, SVG Export Plug-In . SVG Version: 6.00 Build 0)  -->
<svg version="1.1" id="图层_1" xmlns="http://www.w3.org/2000/svg" xmlns:xlink="http://www.w3.org/1999/xlink" x="0px" y="0px"
	 viewBox="0 0 74 74" style="enable-background:new 0 0 74 74;" xml:space="preserve">
<path class="st0" d="M37,64.6c-5.8,0-16-0.7-19.5-5.3c-1.2-1.5-1.5-3.4-1-5.4c1.1-4.3,6.2-7.3,14-8.3v-0.8c-2.5-2-4.4-5.3-5.3-9.2
	c-0.5-2-1.2-7.3-0.3-11.1c1.1-5.3,4.5-8.3,9.7-8.7c1.2-0.1,3.7-0.1,5,0c5.2,0.4,8.5,3.4,9.7,8.7c0.8,3.8,0.1,9.1-0.3,11.1
	c-0.9,3.9-2.8,7.2-5.3,9.2v0.8c7.8,1,12.9,4,14,8.3l0,0c0.5,2,0.2,3.9-1,5.4C53,63.9,42.8,64.6,37,64.6z M37.1,19.1
	c-0.9,0-1.8,0-2.4,0.1c-3.7,0.2-5.9,2.2-6.7,6.1c-0.6,3-0.2,7.5,0.3,9.7c0.8,3.4,2.6,6.3,4.7,7.7c0.4,0.3,0.7,0.8,0.7,1.3v3.1
	c0,0.8-0.6,1.5-1.5,1.6c-7,0.7-11.9,3-12.7,6.1c-0.3,1-0.1,1.9,0.5,2.6c1.9,2.5,8.3,4,17,4s15-1.5,17-4c0.6-0.8,0.7-1.6,0.5-2.6
	c-0.8-3.1-5.7-5.4-12.7-6.1c-0.8-0.1-1.5-0.8-1.5-1.6V44c0-0.5,0.3-1,0.7-1.3c2.1-1.4,3.9-4.3,4.7-7.7c0.5-2.1,1-6.7,0.3-9.7
	c-0.8-3.9-3-5.8-6.7-6.1C38.7,19.1,37.9,19.1,37.1,19.1z"/>
<path class="st0" d="M67.4,49.4c-0.7,0-1.4-0.5-1.6-1.2c-0.8-3.1-5.7-5.4-12.7-6.1c-0.8-0.1-1.5-0.8-1.5-1.6v-3.1
	c0-0.5,0.3-1,0.7-1.3c2.1-1.4,3.9-4.3,4.7-7.7c0.5-2.1,1-6.7,0.3-9.7c-0.8-3.7-2.9-5.6-6.8-6.1c-0.9-0.1-1.5-0.9-1.4-1.8
	c0.1-0.9,0.9-1.5,1.8-1.4c5.3,0.7,8.5,3.6,9.6,8.6c0.8,3.8,0.1,9.1-0.3,11.1c-0.9,3.9-2.8,7.2-5.3,9.2v0.8c7.8,1,12.9,4,14,8.3
	c0.2,0.9-0.3,1.7-1.2,2C67.7,49.4,67.5,49.4,67.4,49.4z"/>
<path class="st0" d="M6.6,49.4c-0.1,0-0.3,0-0.4-0.1c-0.9-0.2-1.4-1.1-1.2-2C6.1,43,11.2,40,19,39v-0.8c-2.5-2-4.4-5.3-5.3-9.2
	c-0.5-2-1.2-7.3-0.3-11.1c1.1-5.1,4.3-8,9.6-8.6c0.9-0.1,1.7,0.5,1.8,1.4c0.1,0.9-0.5,1.7-1.4,1.8c-3.9,0.5-6,2.4-6.8,6.1
	c-0.6,3-0.2,7.5,0.3,9.7c0.8,3.4,2.6,6.3,4.7,7.7c0.4,0.3,0.7,0.8,0.7,1.3v3.1c0,0.8-0.6,1.5-1.5,1.6c-7,0.6-11.9,3-12.7,6.1
	C8,48.9,7.3,49.4,6.6,49.4z"/>
</svg>
