<?xml version="1.0" encoding="utf-8"?>
<!-- Generator: Adobe Illustrator 21.0.0, SVG Export Plug-In . SVG Version: 6.00 Build 0)  -->
<svg version="1.1" id="图层_1" xmlns="http://www.w3.org/2000/svg" xmlns:xlink="http://www.w3.org/1999/xlink" x="0px" y="0px"
	 viewBox="0 0 74 74" style="enable-background:new 0 0 74 74;" xml:space="preserve">
<path class="st0" d="M60.9,16.5H50.8v-2.5c0-3.6-3-6.6-6.6-6.6H29.1c-3.6,0-6.6,2.9-6.6,6.6v2.5H12.5c-3.6,0-6.6,2.9-6.6,6.6v36.4
	c0,3.6,2.9,6.6,6.6,6.6h48.5c3.6,0,6.6-2.9,6.6-6.6V23C67.5,19.4,64.6,16.5,60.9,16.5z M36.4,44.7c0.1,0,0.2,0,0.3,0
	c2.1,0,4.1-0.8,5.6-2.3c1.6-1.5,2.5-3.6,2.5-5.8v-2.5h18.6v24.8c0,1.6-1.3,2.9-2.9,2.9H12.9c-1.6,0-2.9-1.3-2.9-2.9V34.1h18.6v2.2
	C28.6,40.8,32.1,44.6,36.4,44.7z M40.8,36.7c0,2.2-1.8,4.1-4.1,4.1s-4.1-1.8-4.1-4.1v-2.5h8.1V36.7z M26.6,16.5v-2.3
	c0-1.6,1.3-2.8,2.8-2.8h14.7c1.5,0,2.7,1.2,2.7,2.7v2.3H26.6z M63.4,23.6v6.5H10v-6.3c0-1.8,1.5-3.3,3.3-3.3h47.1
	C62,20.5,63.4,21.9,63.4,23.6z"/>
</svg>
