<?xml version="1.0" encoding="utf-8"?>
<!-- Generator: Adobe Illustrator 22.1.0, SVG Export Plug-In . SVG Version: 6.00 Build 0)  -->
<svg version="1.1" id="图层_1" xmlns="http://www.w3.org/2000/svg" xmlns:xlink="http://www.w3.org/1999/xlink" x="0px" y="0px"
	 viewBox="0 0 74 74" style="enable-background:new 0 0 74 74;" xml:space="preserve">
<path class="st0" d="M66.9,37c-0.5,0-1,0.2-1.4,0.6c-0.4,0.4-0.6,0.9-0.6,1.4v14H21V9l13.9,0c0.5,0,1.1-0.2,1.4-0.6
	C36.7,8,36.9,7.5,36.9,7l0-0.1c0-1.1-0.9-2-2-1.9L18.9,5c-1.1,0-2,0.9-2,2v6.1H7c-0.5,0-1,0.2-1.4,0.6C5.2,14,5,14.5,5,15.1l0,52
	c0,0.5,0.2,1,0.6,1.4c0.4,0.4,0.9,0.6,1.4,0.6L59,69c1.1,0,2-0.9,2-2V57h6c0.5,0,1-0.2,1.4-0.6c0.4-0.4,0.6-0.9,0.6-1.4V39
	c0-0.5-0.2-1-0.6-1.4C68,37.2,67.5,37,66.9,37z M9,65.1V17h8.1V55c0,0.5,0.2,1,0.6,1.4c0.4,0.4,0.9,0.6,1.4,0.6H57v8.1H9z"/>
<path class="st0" d="M43.3,33.6c-0.8,0.8-1.9,1.2-2.7,0.4l-0.4-0.4c-0.8-0.8-0.4-2,0.4-2.8L62.3,9H49.1c-1.2,0-2.1-1-2.1-2.1
	c0-1.1,1-2,2.2-2h17.4c0.7,0,1.3,0.2,1.7,0.7c0.5,0.4,0.7,1,0.7,1.6v16.1c0,1.1-0.4,2-1.6,2h-0.8c-1.2,0-1.7-0.9-1.7-2V12.1
	L43.3,33.6z"/>
</svg>
