<?xml version="1.0" encoding="utf-8"?>
<!-- Generator: Adobe Illustrator 21.0.0, SVG Export Plug-In . SVG Version: 6.00 Build 0)  -->
<svg version="1.1" id="图层_1" xmlns="http://www.w3.org/2000/svg" xmlns:xlink="http://www.w3.org/1999/xlink" x="0px" y="0px"
	 viewBox="0 0 74 74" style="enable-background:new 0 0 74 74;" xml:space="preserve">
<g>
	<path class="st0" d="M51.2,15.3c-4.3,0-7.7,3.5-7.7,7.7s3.5,7.7,7.7,7.7c4.3,0,7.7-3.5,7.7-7.7C58.9,18.8,55.4,15.3,51.2,15.3z
		 M53.9,25.8c-0.7,0.7-1.7,1.1-2.8,1.1c-2.1,0-3.9-1.7-3.9-3.9c0-2.1,1.7-3.9,3.9-3.9c2.1,0,3.9,1.7,3.9,3.9
		C55.1,24.1,54.7,25,53.9,25.8z"/>
	<path class="st0" d="M68.9,9.4c0-2.2-1.8-4.1-4.1-4.1L42.2,5.2c0,0,0,0,0,0c-1.1,0-2.1,0.4-2.9,1.2L6.3,39.3
		c-0.8,0.8-1.2,1.8-1.2,2.9c0,1.1,0.4,2.1,1.2,2.9l22.8,22.8c0.8,0.8,1.8,1.2,2.9,1.2c1.1,0,2.1-0.4,2.9-1.2l32.9-32.9
		c0.8-0.8,1.2-1.8,1.2-2.9L68.9,9.4z M32,64.9L9.3,42.2L42.2,9.4l22.6,0.1L64.8,32L32,64.9z"/>
</g>
</svg>
