<svg id="图层_1" xmlns="http://www.w3.org/2000/svg" viewBox="0 0 64.95 64.94"><defs></defs><title>用户池</title><g id="Page-1"><g id="客户管理-用户池"><g id="Page-1-2"><path id="Fill-4" class="cls-1" d="M51,54.11H23.09a2.32,2.32,0,0,0,0,4.64H51a2.32,2.32,0,0,0,0-4.64" transform="translate(-4.55 -5.4)"/><path id="Fill-6" class="cls-1" d="M20.77,38a2.32,2.32,0,0,0,2.32,2.33H51a2.33,2.33,0,0,0,0-4.65H23.09A2.32,2.32,0,0,0,20.77,38" transform="translate(-4.55 -5.4)"/><path id="Fill-8" class="cls-1" d="M51,44.84H23.09a2.32,2.32,0,1,0,0,4.64H51a2.32,2.32,0,1,0,0-4.64" transform="translate(-4.55 -5.4)"/><path id="Fill-1" class="cls-1" d="M60.23,30.48V65.69H13.81V30.45L37,10.76l23.22,19.7s0,0,0,0m8.44,1L38.52,6a2.3,2.3,0,0,0-3,0L5.36,31.52a2.32,2.32,0,0,0,3,3.54l.8-.68V67.3a3,3,0,0,0,3,3H61.84a3,3,0,0,0,3-3V34.39l.79.67a2.34,2.34,0,0,0,1.5.55,2.32,2.32,0,0,0,1.51-4.09" transform="translate(-4.55 -5.4)"/></g></g></g></svg>