<?xml version="1.0" encoding="utf-8"?>
<!-- Generator: Adobe Illustrator 22.0.1, SVG Export Plug-In . SVG Version: 6.00 Build 0)  -->
<svg version="1.1" id="图层_1" xmlns="http://www.w3.org/2000/svg" xmlns:xlink="http://www.w3.org/1999/xlink" x="0px" y="0px"
	 viewBox="0 0 74 74" style="enable-background:new 0 0 74 74;" xml:space="preserve">
<title>Fill 1 Copy 3@2x</title>
<desc>Created with Sketch.</desc>
<g id="Page-1_1_">
	<g id="已完成_1_" transform="translate(-31.000000, -749.000000)">
		<path id="Fill-1-Copy-3" class="st0" d="M68.8,760.1c-5.9,0-9.8,1.7-11.7,5.3c-1.7,3.2-1.7,7.2-1.7,10.1c0,5.5,5.7,16,13.4,16
			l0,1.8l0-1.8c7.8,0,13.4-10.5,13.4-16c0-2.9,0-7-1.7-10.1C78.5,761.9,74.7,760.1,68.8,760.1L68.8,760.1z M66.7,800.6l1.7,3.3
			l1.7-3.3l-1.7-1.6L66.7,800.6z M39.5,811.9h57.9c-0.7-2.7-2.1-6.6-4.6-8.4C90,801.4,83.7,799,81,798L70.8,811l-2.4-6.8l-2.8,6.8
			L55.7,798c-2.7,1-9,3.4-11.8,5.5C41.8,805,40.3,809.1,39.5,811.9L39.5,811.9z M101.7,815.5H34.8l0.4-2.1c0.2-1,2-9.5,6.3-12.7
			c4.1-3,13.8-6.3,14.2-6.5l1.3-0.5l5.4,7l-0.4-0.8l5.1-4.9c-4.1-0.5-8-3-11.1-7.2c-2.8-3.8-4.5-8.6-4.5-12.2c0-3.1,0-7.8,2.1-11.8
			c2.6-4.8,7.7-7.3,15.1-7.3c7.4,0,12.5,2.4,15.1,7.3c2.1,3.9,2.1,8.7,2.1,11.8c0,3.7-1.8,8.5-4.6,12.2c-3.2,4.4-7.4,7-11.8,7.3
			l5.1,4.8l-0.2,0.3l5.1-6.5l1.3,0.5c0.4,0.1,10.1,3.5,14.2,6.5c5.4,4,6.5,12.9,6.5,13V815.5z"/>
	</g>
</g>
</svg>
