<?xml version="1.0" encoding="utf-8"?>
<!-- Generator: Adobe Illustrator 22.1.0, SVG Export Plug-In . SVG Version: 6.00 Build 0)  -->
<svg version="1.1" id="图层_1" xmlns="http://www.w3.org/2000/svg" xmlns:xlink="http://www.w3.org/1999/xlink" x="0px" y="0px"
	 viewBox="0 0 74 74" style="enable-background:new 0 0 74 74;" xml:space="preserve">
<path class="st0" d="M66.6,24.5c-1.6-3.8-3.9-7.2-6.9-10.2c-2.9-2.9-6.4-5.2-10.2-6.9C45.6,5.8,41.4,5,37.1,5c-6.7,0-13,2-18.5,5.9
	c-2.6,1.8-4.9,4.1-6.9,6.6c-2,2.6-3.5,5.4-4.7,8.4c-1.3,3.6-2,7.3-2,11.2c0,4.3,0.8,8.5,2.5,12.5c1.6,3.8,3.9,7.2,6.9,10.2
	c2.9,2.9,6.4,5.2,10.2,6.9c3.9,1.7,8.1,2.5,12.5,2.5s8.5-0.8,12.5-2.5c3.8-1.6,7.2-3.9,10.2-6.9c2.9-2.9,5.2-6.4,6.9-10.2
	c1.7-3.9,2.5-8.1,2.5-12.5S68.3,28.5,66.6,24.5L66.6,24.5z M63.7,23.7L49,37.5c0-0.1,0-0.2,0-0.4c0-0.3,0-0.6,0-1L49,9.7
	C55.4,12.5,60.6,17.4,63.7,23.7L63.7,23.7z M37,46.9c-5.4,0-9.8-4.4-9.8-9.8s4.4-9.8,9.8-9.8c5.4,0,9.8,4.4,9.8,9.8
	S42.4,46.9,37,46.9z M46.8,8.8l-0.1,21.4c-1-1.4-2.4-2.7-3.9-3.5L25.7,9.5c3.5-1.5,7.4-2.3,11.4-2.3C40.5,7.2,43.8,7.8,46.8,8.8z
	 M23.6,10.4l14.7,14.8c-0.4,0-0.9-0.1-1.3-0.1c-0.2,0-0.3,0-0.5,0v0l-26.7,0C12.6,18.7,17.5,13.5,23.6,10.4L23.6,10.4z M7.3,37
	c0-3.3,0.5-6.6,1.6-9.7l21.2,0c-0.9,0.6-1.6,1.3-2.3,2.1L9,47C7.9,43.9,7.3,40.5,7.3,37L7.3,37z M9.9,49.2l15.3-14.3
	c-0.1,0.7-0.2,1.5-0.2,2.3c0,0.9,0.1,1.7,0.3,2.5l0,0l-0.1,24.7C18.4,61.3,12.9,55.9,9.9,49.2L9.9,49.2z M27.4,65.2l0.1-20.8
	c1.1,1.4,2.5,2.6,4.1,3.4l16.9,16.8c-3.5,1.4-7.3,2.2-11.2,2.2C33.7,66.8,30.4,66.2,27.4,65.2L27.4,65.2z M50.5,63.6L35.9,49.1
	c0.4,0,0.7,0.1,1.1,0.1c1.8,0,3.4-0.4,4.9-1.1l22.8,0.1C62,54.9,56.9,60.4,50.5,63.6L50.5,63.6z M65.5,45.9l-20.4-0.1
	c1.4-1.3,2.5-2.9,3.1-4.7l16.4-15.4c1.4,3.5,2.2,7.3,2.2,11.2C66.9,40.1,66.4,43.1,65.5,45.9L65.5,45.9z"/>
<circle class="st1" cx="37.1" cy="42" r="3"/>
<polygon class="st0" points="37.1,27.8 35.2,39.1 39,39.1 "/>
</svg>
