<?xml version="1.0" encoding="utf-8"?>
<!-- Generator: Adobe Illustrator 21.0.0, SVG Export Plug-In . SVG Version: 6.00 Build 0)  -->
<svg version="1.1" id="图层_1" xmlns="http://www.w3.org/2000/svg" xmlns:xlink="http://www.w3.org/1999/xlink" x="0px" y="0px"
	 viewBox="0 0 74 74" style="enable-background:new 0 0 74 74;" xml:space="preserve">
<path class="st0" d="M11,44.9c-1.1,0-2.2,1-2.2,2.2v16.7c0,1.1,1,2.2,2.2,2.2s2.2-1,2.2-2.2V46.9C13.1,45.8,12.1,44.9,11,44.9
	L11,44.9z M28.2,34.4c-1.1,0-2.2,1-2.2,2.2v27.2c0,1.1,1,2.2,2.2,2.2s2.2-1,2.2-2.2V36.6C30.3,35.4,29.3,34.4,28.2,34.4L28.2,34.4z
	 M46,44.9c-1.1,0-2.2,1-2.2,2.2v16.7c0,1.1,1,2.2,2.2,2.2c1.1,0,2.2-1,2.2-2.2V46.9C48.2,45.8,47.1,44.9,46,44.9L46,44.9z
	 M63.3,34.4c-1.1,0-2.2,1-2.2,2.2v27.2c0,1.1,1,2.2,2.2,2.2c1.1,0,2.2-1,2.2-2.2V36.6C65.5,35.4,64.5,34.4,63.3,34.4L63.3,34.4z
	 M64.7,10.3L54.4,8.1c-0.9-0.3-1.9,0.4-2,1.4c-0.3,0.9,0.4,1.9,1.4,2l5.4,1.1L43.6,24.9L30.6,14c-0.8-0.8-2-0.9-2.9-0.3L9.2,29.4
	c-0.9,0.8-1.1,2-0.4,3c0.8,0.9,2,1,3,0.4L29,18.4l13,10.7c0.4,0.4,0.9,0.5,1.5,0.5c0.6,0.1,1.3,0,1.8-0.4l16.4-13L60.4,22
	c-0.3,0.9,0.4,1.9,1.4,2c1,0.3,1.9-0.4,2-1.4L66,12.4C66.4,11.4,65.7,10.4,64.7,10.3L64.7,10.3z"/>
</svg>
