<?xml version="1.0" encoding="utf-8"?>
<!-- Generator: Adobe Illustrator 21.0.0, SVG Export Plug-In . SVG Version: 6.00 Build 0)  -->
<svg version="1.1" id="图层_1" xmlns="http://www.w3.org/2000/svg" xmlns:xlink="http://www.w3.org/1999/xlink" x="0px" y="0px"
	 viewBox="0 0 74 74" style="enable-background:new 0 0 74 74;" xml:space="preserve">
<path class="st0" d="M49.8,35l-0.3-0.2l0.3-0.2c3.3-3.3,5.1-7.7,5.1-12.8c0-9.7-7.8-17.6-17.4-17.6c-9.6,0-17.5,7.9-17.5,17.6
	c0,5.1,1.7,9.5,4.9,12.8l0.2,0.2L24.7,35C14.5,39.9,7.7,51,7.7,62.6c0,2.2,0,7.5,7.8,7.6h0c1.4,0,4.6,0,9.5,0l34.3,0
	c4.9,0,7.8-2.8,7.8-7.5C67.2,51.3,60.1,40,49.8,35z M59.2,65.9l-34.3,0c-4.4,0-8,0-9.4,0c-3.6,0-3.6-1-3.6-3.3
	c0-11.5,7.6-22.1,18.2-25.1h0c0.8-0.2,1.4-0.9,1.5-1.8c0.1-0.9-0.3-1.7-1.1-2.1c-4.1-2.2-6.4-6.4-6.4-11.8c0-7.4,5.9-13.4,13.2-13.4
	c7.3,0,13.2,6,13.2,13.4c0,5.2-2.4,9.5-6.6,11.8c-0.8,0.4-1.2,1.2-1.1,2.1c0.1,0.9,0.7,1.6,1.5,1.8c10.6,3,18.5,13.8,18.4,25.1
	C62.8,65,61.8,65.9,59.2,65.9z"/>
</svg>
