<svg id="图层_1" xmlns="http://www.w3.org/2000/svg" viewBox="0 0 54.97 62.08"><title>群报表</title><rect class="cls-1" x="21.6" y="35.53" width="5.05" height="10.33"/><rect class="cls-1" x="36.98" y="38.17" width="5.05" height="7.69"/><rect class="cls-1" x="29.29" y="27.84" width="5.05" height="18.02"/><rect class="cls-1" x="7.1" y="48.49" width="41.3" height="5.05"/><rect class="cls-1" x="13.91" y="20.15" width="5.05" height="25.71"/><path class="cls-1" d="M61.22,16.63l-1.13-1.18A42.39,42.39,0,0,0,56.9,11.8c-.59-.62-1.18-1.27-1.77-1.91a45.16,45.16,0,0,0-5-4.89L50,4.83A4.26,4.26,0,0,0,46.92,3.5H11.68A4.27,4.27,0,0,0,7.41,7.76V61.31a4.28,4.28,0,0,0,4.27,4.27H58.12a4.28,4.28,0,0,0,4.27-4.27V19.56A4.26,4.26,0,0,0,61.22,16.63ZM57.35,18.8H47.63V8.36l9.42,10A5.4,5.4,0,0,1,57.35,18.8Zm.77,42.62H11.68a.11.11,0,0,1-.11-.11V7.76a.12.12,0,0,1,.11-.11l31.8,0v12.1A3.17,3.17,0,0,0,46.65,23H58.23V61.31A.11.11,0,0,1,58.12,61.42Z" transform="translate(-7.41 -3.5)"/></svg>