<?xml version="1.0" encoding="utf-8"?>
<!-- Generator: Adobe Illustrator 21.0.0, SVG Export Plug-In . SVG Version: 6.00 Build 0)  -->
<svg version="1.1" id="图层_1" xmlns="http://www.w3.org/2000/svg" xmlns:xlink="http://www.w3.org/1999/xlink" x="0px" y="0px"
	 viewBox="0 0 74 74" style="enable-background:new 0 0 74 74;" xml:space="preserve">
<g>
	<path class="st0" d="M2.7,60.5c0,3.8,2.3,6.1,6.1,6.1h46.7c3.8,0,6.1-2.3,6.1-6.1V24.7c0-5.9-2.8-7.1-7.1-7.1H8.9
		c-3.8,0-6.1,2.3-6.1,6.1V60.5z M6.9,24.7c0-1.7,1.2-2.9,2.9-2.9h44.8c1.7,0,2.9,1.2,2.9,2.9v34.8c0,1.7-1.2,2.9-2.9,2.9H9.8
		c-1.7,0-2.9-1.2-2.9-2.9V24.7z M25.7,30.5c-0.9-0.6-2.2-0.4-2.8,0.4c-0.7,0.9-0.5,2.1,0.4,2.8l7.2,5.4v0.2h-4.4c-1.1,0-2,0.9-2,2
		c0,1.1,0.9,2,2,2h4.4v2.3h-4.4c-0.7,0-1.4,0.4-1.8,1c-0.4,0.6-0.4,1.4,0,2.1c0.4,0.6,1.1,1,1.8,1h4.4v4.4c0,1.1,0.9,2,2,2
		c1.1,0,2-0.9,2-2v-4.4h4.4c1.1,0,2-0.9,2-2s-0.9-2-2-2h-4.4v-2.3h4.4c1.1,0,2-0.9,2-2c0-1.1-0.9-2-2-2h-4.4v-0.2l7.2-5.4
		c0.9-0.7,1.1-2,0.4-2.8c-0.7-0.9-2-1.1-2.8-0.4l-6.8,5.1L25.7,30.5z"/>
	<path class="st0" d="M22,8"/>
	<path class="st0" d="M65.5,7.7c3.8,0,6.1,2.3,6.1,6.1v35.8c0,1.3-0.8,2.1-2.1,2.1c-1.3,0-2.1-0.8-2.1-2.1V14.8
		c0-1.7-1.2-2.9-2.9-2.9H19.8c-1.3,0-2.1-0.8-2.1-2.1s0.8-2.1,2.1-2.1H65.5z"/>
</g>
</svg>
