<?xml version="1.0" encoding="utf-8"?>
<!-- Generator: Adobe Illustrator 21.0.0, SVG Export Plug-In . SVG Version: 6.00 Build 0)  -->
<svg version="1.1" id="图层_1" xmlns="http://www.w3.org/2000/svg" xmlns:xlink="http://www.w3.org/1999/xlink" x="0px" y="0px"
	 viewBox="0 0 74 74" style="enable-background:new 0 0 74 74;" xml:space="preserve">
<g>
	<path class="st0" d="M-15.4,31.3l-8.7-8.7V10.3c0-1.2-0.8-2.1-2.1-2.1h-12.2l-8.7-8.7c-0.4-0.4-1-0.6-1.6-0.6
		c-0.6,0-1.2,0.2-1.6,0.6l-8.4,8.7h-12.2c-1.2,0-2.1,0.8-2.1,2.1v11.9l-8.7,8.7c-0.4,0.4-0.6,1-0.6,1.6c0,0.6,0.2,1.2,0.6,1.6
		l8.7,8.7v12.2c0,1.2,0.8,2.1,2.1,2.1h12.2l8.7,8.7c0.4,0.4,0.9,0.6,1.5,0.6s1.1-0.2,1.5-0.6l8.7-8.7h12.2c1.2,0,2.1-0.8,2.1-2.1
		V42.9l8.7-8.7c0.4-0.4,0.6-0.9,0.6-1.5S-15,31.7-15.4,31.3z M-69.3,40.4l-7.9-7.9l7.9-7.5l0.1-0.1v-0.1c0-0.1,0.1-0.4,0.2-0.6
		c0.1-0.3,0.2-0.6,0.2-0.8v-11h11c0.5,0,0.9-0.4,1.3-0.8l7.9-7.5l8.2,7.9l0.1,0.1h0.1c0.1,0,0.4,0.1,0.6,0.2
		c0.3,0.1,0.6,0.2,0.8,0.2h11V23c0,0.7,0,1.2,0.4,1.6l7.9,7.9l-8,8v0.1c0,0.1-0.1,0.4-0.2,0.6c-0.1,0.3-0.2,0.6-0.2,0.8v11h-11
		c-0.7,0-1.2,0-1.6,0.4l-7.9,7.9l-8-8h-0.1c-0.1,0-0.4-0.1-0.6-0.2c-0.3-0.1-0.6-0.2-0.8-0.2h-11v-11
		C-68.9,41.3-68.9,40.9-69.3,40.4z"/>
	<path class="st0" d="M-52.5,41.2L-52.5,41.2c0.4,0.2,0.8,0.3,1.2,0.3c0.5,0,1.1-0.1,1.7-0.7l14.5-14.5c0.4-0.4,0.6-0.9,0.6-1.5
		s-0.2-1.1-0.6-1.5c-0.8-0.8-2.1-0.8-2.9,0l-13.2,13.2l-7.8-7.8c-0.2-0.3-0.5-0.6-1-0.6c-0.7-0.1-1.5,0.1-1.9,0.6
		c-0.4,0.4-0.6,0.9-0.6,1.5c0,0.5,0.2,1.1,0.6,1.5L-52.5,41.2z"/>
</g>
<g>
	<path class="st1" d="M69.6,26.8L54,10c-0.9-1-2.2-1.6-3.4-1.6H24c-1.3,0-2.5,0.6-3.4,1.6L5,26.8c-1.8,2.1-1.8,5.3,0,7.2l28.9,31.2
		c0.8,1,2,1.6,3.4,1.6c1.3,0,2.5-0.6,3.4-1.6L69.6,34C71.5,32.1,71.5,28.7,69.6,26.8z M66.6,30.8L37.7,62.1
		c-0.1,0.1-0.3,0.2-0.4,0.2h0c-0.1,0-0.3-0.1-0.4-0.2L8,30.8c-0.3-0.3-0.3-0.6,0-0.9l15.6-16.8C23.8,13,23.9,13,24,13h26.6
		c0.1,0,0.3,0,0.4,0.1L66.6,30C66.9,30.3,66.9,30.6,66.6,30.8z"/>
	<path class="st1" d="M48.6,26.1l-1.2,1.3c-2.7,2.8-6.4,4.3-10.3,4.3s-7.6-1.5-10.3-4.3l-1.2-1.3c-0.4-0.4-1-0.7-1.6-0.7
		c0,0-0.1,0-0.1,0c-0.6,0-1.1,0.3-1.4,0.7c-0.7,0.8-0.9,2.3,0,3.2l1.3,1.3c3.4,3.6,8.3,5.6,13.4,5.6s10-2,13.4-5.6l1.3-1.3
		c0.4-0.4,0.7-1,0.7-1.6c0-0.6-0.2-1.2-0.7-1.6C50.8,25.3,49.5,25.3,48.6,26.1z"/>
</g>
</svg>
