<?xml version="1.0" encoding="utf-8"?>
<!-- Generator: Adobe Illustrator 22.1.0, SVG Export Plug-In . SVG Version: 6.00 Build 0)  -->
<svg version="1.1" id="图层_1" xmlns="http://www.w3.org/2000/svg" xmlns:xlink="http://www.w3.org/1999/xlink" x="0px" y="0px"
	 viewBox="0 0 74 74" style="enable-background:new 0 0 74 74;" xml:space="preserve">
<path class="st0" d="M66.1,37.6c-1.9-3.1-4.5-5.3-7.6-6.7c2.5-4.9,1.8-8.9,0.8-11.4c-1.4-3.3-3.7-5.1-3.9-5.3l-0.1-0.1l0,0
	c-1-0.7-2.3-0.5-3.1,0.4c-0.3,0.4-0.5,0.9-0.5,1.4c0,0.9,0.5,1.7,1.3,2c1,1,1.8,2.1,2.3,3.4c1.2,2.9,0.5,6.1-1.9,9.5
	c-0.7,1-0.5,2.4,0.5,3.1c0.3,0.2,0.6,0.3,0.9,0.4c6.8,1.3,10.6,9,9.7,15.1c-0.2,1.2,0.7,2.4,1.9,2.6c0.1,0,0.2,0,0.3,0
	c1.1,0,2-0.8,2.2-1.9C69.4,46,68.5,41.4,66.1,37.6L66.1,37.6z M48,37.7c-2.2,0-3.7,0.7-4.9,1.4c-1.4,0.7-2.8,1.4-6,1.4
	c-3.2,0-4.5-0.7-6-1.4c-1.3-0.6-2.7-1.4-5-1.4c-3.6,0-7,1.7-9.4,4.9c-2.4,3.1-4.7,8.4-4.3,12.4c0.2,1.9,0.8,4.7,4.6,6.9
	c4,2.3,10.6,3.5,20.1,3.5c9.8,0,16.4-1.2,20.4-3.6c3.9-2.5,4.1-5.6,4.2-6.9c0.3-3.7-1.5-9.7-5.1-13.3C54,38.9,51.2,37.7,48,37.7z
	 M57.2,54.5c-0.1,0.9-0.2,2.2-2.1,3.4c-2.1,1.3-7,3-18,3c-10.7,0-15.6-1.5-17.8-2.8c-2-1.2-2.3-2.4-2.4-3.5
	c-0.2-2.5,1.3-6.6,3.4-9.2c1.1-1.4,3-3.1,5.9-3.1c1.2,0,1.9,0.4,2.9,0.9c1.7,0.9,3.8,2,8.1,2c4.4,0,6.5-1.1,8.1-2
	c1.1-0.5,1.7-0.9,2.8-0.9c2,0,3.6,0.8,5.4,2.5C56.1,47.4,57.4,52.1,57.2,54.5z"/>
<path class="st0" d="M26.7,33.4c1.4,1.3,2.9,2.4,4.7,3.2c1.8,0.7,3.7,1.1,5.6,1.1c1.9,0,3.8-0.4,5.6-1.1c1.8-0.7,3.4-1.8,4.7-3.2
	c1.3-1.3,2.4-2.9,3.2-4.7c0.7-1.8,1.1-3.7,1.1-5.6c0-1.9-0.4-3.8-1.1-5.6s-1.8-3.4-3.2-4.7c-1.4-1.3-2.9-2.4-4.7-3.2
	c-1.8-0.7-3.7-1.1-5.6-1.1c-1.9,0-3.8,0.4-5.6,1.1c-1.8,0.7-3.4,1.8-4.7,3.2c-1.3,1.3-2.4,2.9-3.2,4.7c-0.7,1.8-1.1,3.7-1.1,5.6
	c0,1.9,0.4,3.8,1.1,5.6C24.3,30.5,25.4,32.1,26.7,33.4L26.7,33.4z M27,23.2c0-1.3,0.3-2.6,0.8-3.8c0.5-1.2,1.2-2.3,2.2-3.3
	c0.9-0.9,2-1.7,3.3-2.2c1.2-0.5,2.6-0.8,3.9-0.8h0.1c1.3,0,2.6,0.3,3.8,0.8c1.2,0.5,2.3,1.2,3.3,2.2c0.9,0.9,1.7,2,2.2,3.3
	c0.5,1.2,0.8,2.5,0.8,3.8c0,1.3-0.3,2.7-0.8,3.8c-0.5,1.2-1.2,2.3-2.2,3.3c-0.9,0.9-2,1.7-3.3,2.2c-1.2,0.5-2.5,0.8-3.9,0.8
	c-1.3,0-2.7-0.3-3.9-0.8c-1.2-0.5-2.3-1.2-3.3-2.2c-0.9-0.9-1.7-2-2.2-3.3C27.2,25.8,27,24.5,27,23.2z M19.3,34.4
	c0.6-0.1,1.1-0.4,1.4-1s0.4-1.1,0.4-1.7c-0.1-0.3-0.2-0.6-0.4-0.9c-2.4-3.4-3.1-6.6-1.9-9.5c0.5-1.3,1.3-2.5,2.3-3.4
	c0.5-0.3,0.9-0.8,1.1-1.3c0.2-0.6,0.1-1.2-0.2-1.7c-0.4-0.7-1.2-1.2-2-1.2c-0.4,0-0.9,0.1-1.3,0.4l-0.1,0.1c-0.3,0.2-2.6,2-3.9,5.3
	C13.7,22,13,26,15.5,30.9c-3.1,1.3-5.7,3.6-7.6,6.7C5.6,41.4,4.6,46,5.2,50.2c0.2,1.1,1.1,1.9,2.2,1.9c0.1,0,0.2,0,0.3,0
	c0.6-0.1,1.1-0.4,1.5-0.9c0.4-0.5,0.5-1.1,0.4-1.7C8.7,43.4,12.5,35.8,19.3,34.4z"/>
</svg>
