<?xml version="1.0" encoding="utf-8"?>
<!-- Generator: Adobe Illustrator 21.0.0, SVG Export Plug-In . SVG Version: 6.00 Build 0)  -->
<svg version="1.1" id="图层_1" xmlns="http://www.w3.org/2000/svg" xmlns:xlink="http://www.w3.org/1999/xlink" x="0px" y="0px"
	 viewBox="0 0 74 74" style="enable-background:new 0 0 74 74;" xml:space="preserve">
<g>
	<path class="st0" d="M-15.4,31.3l-8.7-8.7V10.3c0-1.2-0.8-2.1-2.1-2.1h-12.2l-8.7-8.7c-0.4-0.4-1-0.6-1.6-0.6
		c-0.6,0-1.2,0.2-1.6,0.6l-8.4,8.7h-12.2c-1.2,0-2.1,0.8-2.1,2.1v11.9l-8.7,8.7c-0.4,0.4-0.6,1-0.6,1.6c0,0.6,0.2,1.2,0.6,1.6
		l8.7,8.7v12.2c0,1.2,0.8,2.1,2.1,2.1h12.2l8.7,8.7c0.4,0.4,0.9,0.6,1.5,0.6s1.1-0.2,1.5-0.6l8.7-8.7h12.2c1.2,0,2.1-0.8,2.1-2.1
		V42.9l8.7-8.7c0.4-0.4,0.6-0.9,0.6-1.5S-15,31.7-15.4,31.3z M-69.3,40.4l-7.9-7.9l7.9-7.5l0.1-0.1v-0.1c0-0.1,0.1-0.4,0.2-0.6
		c0.1-0.3,0.2-0.6,0.2-0.8v-11h11c0.5,0,0.9-0.4,1.3-0.8l7.9-7.5l8.2,7.9l0.1,0.1h0.1c0.1,0,0.4,0.1,0.6,0.2
		c0.3,0.1,0.6,0.2,0.8,0.2h11V23c0,0.7,0,1.2,0.4,1.6l7.9,7.9l-8,8v0.1c0,0.1-0.1,0.4-0.2,0.6c-0.1,0.3-0.2,0.6-0.2,0.8v11h-11
		c-0.7,0-1.2,0-1.6,0.4l-7.9,7.9l-8-8h-0.1c-0.1,0-0.4-0.1-0.6-0.2c-0.3-0.1-0.6-0.2-0.8-0.2h-11v-11
		C-68.9,41.3-68.9,40.9-69.3,40.4z"/>
	<path class="st0" d="M-52.5,41.2L-52.5,41.2c0.4,0.2,0.8,0.3,1.2,0.3c0.5,0,1.1-0.1,1.7-0.7l14.5-14.5c0.4-0.4,0.6-0.9,0.6-1.5
		s-0.2-1.1-0.6-1.5c-0.8-0.8-2.1-0.8-2.9,0l-13.2,13.2l-7.8-7.8c-0.2-0.3-0.5-0.6-1-0.6c-0.7-0.1-1.5,0.1-1.9,0.6
		c-0.4,0.4-0.6,0.9-0.6,1.5c0,0.5,0.2,1.1,0.6,1.5L-52.5,41.2z"/>
</g>
<g>
	<path class="st1" d="M50,47.1l0.5,0.3c0.4,0.3,0.8,0.4,1.3,0.4c0.7,0,1.4-0.4,1.9-0.9c0.3-0.5,0.5-1.1,0.4-1.7
		c-0.1-0.6-0.4-1.1-0.9-1.5l-0.6-0.4c-1.9-1.3-4-2.3-6.2-3c2.7-1.6,5-3.8,6.7-6.3c2.1-3.1,3.1-6.8,3.1-10.5
		c0-10.8-8.9-19.6-19.9-19.6c-11,0-19.9,8.8-19.9,19.6c0,3.7,1.1,7.4,3.1,10.5c1.7,2.6,4,4.8,6.7,6.3c-2.4,0.9-4.8,2.1-6.9,3.5
		c-2.6,1.8-4.8,3.9-6.7,6.3c-3.9,5.1-6,11.2-6,17.6c0,1.2,1,2.2,2.3,2.2c1.2,0,2.3-1,2.3-2.2C11.2,54.1,22.4,43,36.2,43
		C41.2,43,45.9,44.4,50,47.1z M20.9,23.4c0-8.4,6.9-15.2,15.4-15.2c8.5,0,15.4,6.8,15.4,15.2c0,8.4-6.9,15.2-15.4,15.2
		C27.8,38.6,20.9,31.8,20.9,23.4z"/>
	<path class="st1" d="M66.6,54.7c-0.3-0.4-0.7-0.7-1.2-0.8L59,52.6c-0.5-0.1-1-0.1-1.4,0.2c-0.4,0.3-0.7,0.7-0.8,1.2
		c-0.1,0.5,0,1,0.2,1.4c0.3,0.4,0.8,0.7,1.2,0.8l1.8,0.4l-8,6.3l-7.6-6.4c-0.7-0.7-1.9-0.8-2.8-0.2L30,66c-0.9,0.8-1,2-0.3,3
		c0.4,0.5,1,0.7,1.6,0.7c0.4,0,0.8-0.1,1.2-0.4l10.4-8.7l7.5,6.3c0.3,0.3,0.8,0.5,1.4,0.5c0.6,0.1,1.2,0,1.6-0.4l8.6-6.8l-0.3,1.5
		c-0.1,0.5-0.1,1,0.2,1.4c0.3,0.4,0.8,0.7,1.2,0.8c0.5,0.1,1,0,1.4-0.2c0.4-0.3,0.7-0.7,0.7-1.2l1.3-6.4
		C66.9,55.7,66.9,55.2,66.6,54.7z"/>
</g>
</svg>
