<?xml version="1.0" encoding="utf-8"?>
<!-- Generator: Adobe Illustrator 21.0.0, SVG Export Plug-In . SVG Version: 6.00 Build 0)  -->
<svg version="1.1" id="图层_1" xmlns="http://www.w3.org/2000/svg" xmlns:xlink="http://www.w3.org/1999/xlink" x="0px" y="0px"
	 viewBox="0 0 74 74" style="enable-background:new 0 0 74 74;" xml:space="preserve">
<g>
	<path class="st0" d="M64,8.7H10.4c-3.7,0-6.6,3-6.7,6.6v32.1c0,3.6,3,6.6,6.7,6.6h3.4l-0.1,8.9c0,0.5,0.2,1.1,0.6,1.5
		c0.8,0.8,2.2,0.8,2.9,0L27.8,54H64c3.7,0,6.7-3,6.7-6.6V15.3C70.7,11.6,67.7,8.7,64,8.7z M66.5,47.4c0,1.4-1.1,2.5-2.5,2.5H26.9
		c-0.5,0-1.1,0.2-1.5,0.6l-7.6,7.4L18,52c0-0.5-0.2-1.1-0.6-1.5c-0.4-0.4-0.9-0.6-1.5-0.6h-5.5c-1.4,0-2.5-1.1-2.5-2.5V15.3
		c0-1.4,1.1-2.5,2.5-2.5l0.1,0H64c1.4,0,2.5,1.1,2.5,2.5V47.4z"/>
	<path class="st0" d="M24.5,29.3c-1-0.6-2.3-0.6-3.4,0c-1,0.6-1.7,1.7-1.7,2.9s0.6,2.3,1.7,2.9c1,0.6,2.4,0.6,3.4,0
		c1-0.6,1.7-1.7,1.7-2.9C26.2,31,25.5,29.9,24.5,29.3z"/>
	<path class="st0" d="M38.9,29.3c-0.5-0.3-1.1-0.4-1.7-0.4c-0.6,0-1.2,0.1-1.7,0.4c-1,0.6-1.7,1.7-1.7,2.9s0.6,2.3,1.7,2.9v0
		c1,0.6,2.4,0.6,3.4,0c1-0.6,1.7-1.7,1.7-2.9C40.6,31,40,29.9,38.9,29.3z"/>
	<path class="st0" d="M53.4,29.3c-1-0.6-2.3-0.6-3.4,0c-1,0.6-1.7,1.7-1.7,2.9c0,1.2,0.6,2.3,1.7,2.9c1,0.6,2.4,0.6,3.4,0
		c1-0.6,1.7-1.7,1.7-2.9S54.4,29.9,53.4,29.3z"/>
</g>
</svg>
