<?xml version="1.0" encoding="utf-8"?>
<!-- Generator: Adobe Illustrator 22.1.0, SVG Export Plug-In . SVG Version: 6.00 Build 0)  -->
<svg version="1.1" id="图层_1" xmlns="http://www.w3.org/2000/svg" xmlns:xlink="http://www.w3.org/1999/xlink" x="0px" y="0px"
	 viewBox="0 0 74 74" style="enable-background:new 0 0 74 74;" xml:space="preserve">
<g>
	<rect x="48.7" y="55.5" class="st0" width="1.9" height="3.9"/>
	<rect x="54.5" y="56.4" class="st0" width="1.9" height="2.9"/>
	<rect x="51.6" y="52.6" class="st0" width="1.9" height="6.7"/>
	<rect x="43.3" y="60.3" class="st0" width="15.4" height="1.9"/>
	<rect x="45.9" y="49.7" class="st0" width="1.9" height="9.6"/>
	<path class="st0" d="M60.8,47.1l-0.4-0.4c-0.4-0.5-0.8-0.9-1.2-1.4c-0.2-0.2-0.4-0.5-0.7-0.7c-0.6-0.7-1.2-1.3-1.9-1.8l0-0.1
		c-0.3-0.3-0.7-0.5-1.1-0.5H42.3c-0.9,0-1.6,0.7-1.6,1.6v20c0,0.9,0.7,1.6,1.6,1.6h17.3c0.9,0,1.6-0.7,1.6-1.6V48.2
		C61.2,47.8,61,47.4,60.8,47.1z M59.3,47.9h-3.6V44l3.5,3.7C59.2,47.8,59.3,47.9,59.3,47.9z M59.6,63.8H42.3c0,0,0,0,0,0l0,0v-20
		c0,0,0,0,0,0h11.9v4.5c0,0.7,0.5,1.2,1.2,1.2c0,0,0,0,0,0h4.3L59.6,63.8C59.6,63.8,59.6,63.8,59.6,63.8z"/>
</g>
<g>
	<path class="st0" d="M9.7,64.2c0,0.9,0.7,1.6,1.6,1.6c0.9,0,1.6-0.7,1.6-1.6c0-13.3,10.8-24.1,24-24.1c0.2,0,0.3,0,0.5,0
		c9.3-0.2,16.7-7.8,16.7-17.1c0-9.4-7.7-17.1-17.1-17.1C27.6,5.8,20,13.5,20,22.9c0,6.5,3.7,12.2,9,15.1
		C17.8,41.5,9.6,51.9,9.7,64.2z M37.1,36.8c-7.6,0-13.8-6.2-13.8-13.8S29.4,9.1,37.1,9.1c7.6,0,13.8,6.2,13.8,13.8
		C50.9,30.6,44.7,36.8,37.1,36.8z"/>
</g>
</svg>
