<?xml version="1.0" encoding="utf-8"?>
<!-- Generator: Adobe Illustrator 22.1.0, SVG Export Plug-In . SVG Version: 6.00 Build 0)  -->
<svg version="1.1" id="图层_1" xmlns="http://www.w3.org/2000/svg" xmlns:xlink="http://www.w3.org/1999/xlink" x="0px" y="0px"
	 viewBox="0 0 74 69.4" style="enable-background:new 0 0 74 69.4;" xml:space="preserve">
<g>
	<g id="Page-1">
		<g id="数据中心-朋友圈统计-点赞数" transform="translate(-32.000000, -282.000000)">
			<g id="Group-20-Copy-2" transform="translate(32.000000, 282.000000)">
				<path id="Fill-2" class="st0" d="M19.4,52.5c-0.4-0.4-0.9-0.6-1.4-0.6h-4.5c-1,0-1.8-0.8-1.8-1.8V23.7c0-1,0.8-1.8,1.8-1.8
					l0.1,0h44c1,0,1.8,0.8,1.8,1.8v26.4c0,1-0.8,1.8-1.8,1.8H27.1c-0.5,0-1,0.2-1.4,0.6l-5.8,5.7l0.1-4.3
					C20,53.4,19.8,52.9,19.4,52.5 M57.6,18H13.5c-3.1,0-5.7,2.6-5.7,5.7v26.4c0,3.1,2.6,5.7,5.7,5.7H16l-0.1,7c0,0.5,0.2,1,0.6,1.4
					c0.4,0.4,0.9,0.6,1.4,0.6c0.5,0,1-0.2,1.4-0.6l8.6-8.4h29.7c3.2,0,5.7-2.6,5.7-5.7V23.7C63.3,20.6,60.7,18,57.6,18"/>
				<path id="Fill-4" class="st0" d="M64.1,10.8H21.9c-3.1,0-5.7,2.6-5.7,5.7V21h3.9v-4.5c0-1,0.8-1.8,1.8-1.8h42.2
					c1,0,1.8,0.8,1.8,1.8v26.4c0,1-0.8,1.8-1.8,1.8h-1v3.9h1c3.1,0,5.7-2.6,5.7-5.7V16.5C69.8,13.4,67.2,10.8,64.1,10.8"/>
			</g>
		</g>
	</g>
	<g>
		<path class="st0" d="M38.6,33.2"/>
	</g>
</g>
<g>
	<path class="st0" d="M35.8,46c-1.7,0-9.9-8.5-9.9-11.8c0-0.2,0-0.5,0-0.7c0.3-3,2.9-5.2,5.9-5.2c1.5,0,2.9,0.5,4,1.5
		c1.1-1,2.5-1.5,4-1.5c3.1,0,5.7,2.4,5.9,5.6c0,0.1,0,0.2,0,0.3C45.7,37.5,37.5,46,35.8,46z M31.9,29.9c-2.2,0-4,1.6-4.2,3.8
		c0,0.2,0,0.3,0,0.5c0,2.2,6.6,9.2,8.2,10.1c1.6-0.9,8.2-7.9,8.2-10.1c0-0.1,0-0.2,0-0.2c-0.1-2.3-2-4-4.3-4c-1.3,0-2.5,0.6-3.3,1.6
		l-0.6,0.8l-0.6-0.8C34.4,30.5,33.1,29.9,31.9,29.9z"/>
</g>
<g>
	<path class="st0" d="M41.6,34.3c-0.2,0-0.4-0.2-0.4-0.4c0-0.5-0.2-0.9-0.6-1.2c-0.3-0.3-0.8-0.5-1.2-0.4c-0.2,0-0.4-0.2-0.4-0.4
		s0.2-0.4,0.4-0.4c0.7,0,1.3,0.2,1.8,0.7c0.5,0.5,0.8,1.1,0.8,1.8C42,34,41.8,34.2,41.6,34.3C41.6,34.3,41.6,34.3,41.6,34.3z"/>
</g>
</svg>
