<?xml version="1.0" encoding="utf-8"?>
<!-- Generator: Adobe Illustrator 22.0.1, SVG Export Plug-In . SVG Version: 6.00 Build 0)  -->
<svg version="1.1" id="图层_1" xmlns="http://www.w3.org/2000/svg" xmlns:xlink="http://www.w3.org/1999/xlink" x="0px" y="0px"
	 viewBox="0 0 74 74" style="enable-background:new 0 0 74 74;" xml:space="preserve">
<g>
	<path class="st1" d="M65.3,13.9l-5.8-5.8C58.8,7.4,57.9,7,56.9,7H17.4c-1,0-1.9,0.4-2.6,1.1l-5.8,5.8c-1.1,1.1-1.7,2.5-1.7,4V63
		c0,2.1,1.7,3.7,3.7,3.7h52.2c2.1,0,3.7-1.7,3.7-3.7V17.9C67,16.4,66.4,15,65.3,13.9z M17.4,10.7h39.5l3.7,3.7h-47L17.4,10.7z
		 M11,63V18.2h52.2V63H11z"/>
	<path class="st1" d="M50.2,21.9c-3.1,0-5.6,2.5-5.6,5.6c0,2.3,1.4,4.2,3.3,5.1c-0.3,0.9-0.8,2.1-1.6,3.2c-2.1,3.2-5.2,4.8-9.2,4.8
		c-4.1,0-7.2-1.6-9.2-4.6c-0.8-1.2-1.3-2.4-1.6-3.3c1.9-0.9,3.3-2.8,3.3-5.1c0-3.1-2.5-5.6-5.6-5.6s-5.6,2.5-5.6,5.6
		c0,2.5,1.7,4.7,4,5.4c0.3,1.2,1,3.1,2.2,5c1.9,2.9,5.6,6.4,12.4,6.4c6.6,0,10.3-3.5,12.3-6.4c1.2-1.9,1.9-3.7,2.3-5
		c2.4-0.7,4.1-2.8,4.1-5.4C55.8,24.4,53.3,21.9,50.2,21.9z M24.1,25.7c1,0,1.9,0.8,1.9,1.9c0,1-0.8,1.9-1.9,1.9
		c-1,0-1.9-0.8-1.9-1.9C22.2,26.5,23,25.7,24.1,25.7z M50.2,29.4c-1,0-1.9-0.8-1.9-1.9s0.8-1.9,1.9-1.9c1,0,1.9,0.8,1.9,1.9
		S51.2,29.4,50.2,29.4z"/>
</g>
</svg>
