<?xml version="1.0" encoding="utf-8"?>
<!-- Generator: Adobe Illustrator 22.0.1, SVG Export Plug-In . SVG Version: 6.00 Build 0)  -->
<svg version="1.1" id="图层_1" xmlns="http://www.w3.org/2000/svg" xmlns:xlink="http://www.w3.org/1999/xlink" x="0px" y="0px"
	 viewBox="0 0 74 74" style="enable-background:new 0 0 74 74;" xml:space="preserve">
<title>Fill 1 Copy 3@2x</title>
<desc>Created with Sketch.</desc>
<g id="Page-1">
	<g id="已完成" transform="translate(-31.000000, -529.000000)">
		<g id="拼团-copy-2" transform="translate(31.000000, 529.000000)">
			<g id="Clip-2">
			</g>
			<defs>
				<filter id="Adobe_OpacityMaskFilter" filterUnits="userSpaceOnUse" x="5.6" y="10.8" width="62.9" height="52.9">
					<feColorMatrix  type="matrix" values="1 0 0 0 0  0 1 0 0 0  0 0 1 0 0  0 0 0 1 0"/>
				</filter>
			</defs>
			<mask maskUnits="userSpaceOnUse" x="5.6" y="10.8" width="62.9" height="52.9" id="mask-2_2_">
				<g class="st0">
					<polygon id="path-1_2_" class="st1" points="5.6,10.8 68.4,10.8 68.4,63.7 5.6,63.7 					"/>
				</g>
			</mask>
			<path id="Fill-1" class="st2" d="M57.8,31.7c-0.8,0-1.6,0.1-2.4,0.3v-7.1c0-2.9-2.4-5.2-5.4-5.2h-9.2c-0.3-2.4-1.5-4.5-3.3-6.2
				c-2-1.8-4.5-2.7-7.2-2.7c-2.7,0-5.2,1-7.2,2.7c-1.8,1.6-3,3.8-3.3,6.2h-8.7c-3,0-5.4,2.3-5.4,5.2v9.2c0,0.5,0.3,1,0.7,1.3
				c0.2,0.1,0.5,0.2,0.8,0.2c0.2,0,0.5-0.1,0.7-0.1c1-0.5,2.1-0.7,3.3-0.7c4.2,0,7.6,3.3,7.6,7.4c0,4.1-3.4,7.4-7.6,7.4
				c-1.2,0-2.3-0.2-3.3-0.7c-0.2-0.1-0.4-0.1-0.7-0.1c-0.3,0-0.6,0.1-0.8,0.2c-0.4,0.3-0.7,0.7-0.7,1.3v8.4c0,2.9,2.4,5.2,5.4,5.2
				h39c3,0,5.4-2.3,5.4-5.2v-6.3c0.8,0.2,1.6,0.3,2.4,0.3c5.9,0,10.6-4.7,10.6-10.4C68.4,36.4,63.7,31.7,57.8,31.7z M57.8,49.5
				c-1.2,0-2.3-0.2-3.3-0.7c-0.2-0.1-0.4-0.1-0.7-0.1c-0.3,0-0.6,0.1-0.8,0.2c-0.4,0.3-0.7,0.7-0.7,1.3v8.4c0,1.3-1,2.3-2.3,2.3h-39
				c-1.3,0-2.3-1-2.3-2.3v-6.3c0.8,0.2,1.6,0.3,2.4,0.3c5.9,0,10.6-4.7,10.6-10.4c0-5.7-4.8-10.4-10.6-10.4c-0.8,0-1.6,0.1-2.4,0.3
				v-7.1c0-1.3,1-2.3,2.3-2.3h10.1c0.8,0,1.5-0.7,1.5-1.5c0-4.1,3.4-7.4,7.6-7.4c4.2,0,7.6,3.3,7.6,7.4c0,0.8,0.7,1.5,1.5,1.5H50
				c1.3,0,2.3,1,2.3,2.3v9.2c0,0.5,0.3,1,0.7,1.3c0.4,0.3,1,0.3,1.5,0.1c1-0.5,2.1-0.7,3.3-0.7c4.2,0,7.6,3.3,7.6,7.4
				C65.4,46.2,62,49.5,57.8,49.5z"/>
		</g>
	</g>
</g>
</svg>
