<?xml version="1.0" encoding="utf-8"?>
<!-- Generator: Adobe Illustrator 22.0.1, SVG Export Plug-In . SVG Version: 6.00 Build 0)  -->
<svg version="1.1" id="图层_1" xmlns="http://www.w3.org/2000/svg" xmlns:xlink="http://www.w3.org/1999/xlink" x="0px" y="0px"
	 viewBox="0 0 74 74" style="enable-background:new 0 0 74 74;" xml:space="preserve">
<g>
	<path class="st0" d="M47.9,30.7h16.9v4.1H47.9V30.7 M47.9,22.4h16.9v4.1H47.9V22.4"/>
	<path class="st0" d="M67.5,66.2H6.2c-3.2,0-5.8-3.2-5.8-7V14.8c0-3.9,2.6-7,5.8-7h61.3c3.2,0,6.1,3.2,6.1,7v44.3
		C73.6,63,70.7,66.2,67.5,66.2L67.5,66.2z M6.9,11.9c-1.3,0-2.4,1.3-2.4,2.9v44.3c0,1.6,1.1,2.9,2.4,2.9h60.7c1.3,0,2.6-1.3,2.6-2.9
		V14.8c0-1.6-1.3-2.9-2.6-2.9H6.9z M6.9,11.9"/>
	<path class="st0" d="M11.3,41.2h31v3.3H29.3v3.3c0,1-0.3,1.8-0.8,2.4c-0.5,0.6-1.3,0.9-2.4,0.9c-1.1,0.1-2.6,0.1-4.5,0.1
		c-0.3-1.4-0.5-2.5-0.8-3.5c1.2,0.1,2.2,0.1,3.2,0.1c0.7,0,1.1-0.4,1.1-1.3v-2h-5.2l2,2.7l-8.6,3.9c-0.7-1.3-1.5-2.4-2.2-3.4
		c1.8-0.5,4.5-1.6,8.1-3.2h-7.9L11.3,41.2L11.3,41.2z M13.5,36.6H40v3.1H13.5V36.6z M13.5,36.6"/>
	<path class="st0" d="M33.1,44.7c2.6,0.9,5.6,1.9,8.8,3.1l-1.8,3.3c-2.5-1.1-5.4-2.2-8.7-3.5L33.1,44.7z M13.2,27h7.7V25h-8.8v-3.2
		h29.4V25h-8.7V27h7.7v8.1H13.2V27z M17.2,32.1h3.7v-2.2h-3.7V32.1z M24.9,27h3.7V25h-3.7V27z M24.9,32.1h3.7v-2.2h-3.7V32.1z
		 M36.4,32.1v-2.2h-3.7v2.2H36.4z M36.4,32.1"/>
	<path class="st0" d="M56.4,37.3l-7.2,8.1h3.6v8.2h7.2v-8.2h3.7L56.4,37.3z M56.4,37.3"/>
</g>
</svg>
