<?xml version="1.0" encoding="utf-8"?>
<!-- Generator: Adobe Illustrator 21.0.0, SVG Export Plug-In . SVG Version: 6.00 Build 0)  -->
<svg version="1.1" id="图层_1" xmlns="http://www.w3.org/2000/svg" xmlns:xlink="http://www.w3.org/1999/xlink" x="0px" y="0px"
	 viewBox="0 0 74 74" style="enable-background:new 0 0 74 74;" xml:space="preserve">
<g>
	<path class="st0" d="M44.6,19.8c-1.9,0-3.7,0.5-5.2,1.4c-3,1.7-4.7,4.6-4.7,7.9v15.5c0,1.7-1,3.3-2.7,4.3c-1,0.5-2.1,0.8-3.2,0.8
		c-3.2,0-5.8-2.3-5.8-5.1c0-0.9,0.2-1.7,0.7-2.4c0.7-1.2,1.9-2,3.5-2.5c0.1-0.1,0.3-0.1,0.3-0.1c1.2,0,2.1-0.9,2.1-2.1
		c0-1.2-0.9-2.1-2.1-2.1c-0.5,0-0.9,0.1-1.6,0.3c-2.4,0.7-4.4,2.2-5.7,4.3c-0.8,1.4-1.3,3-1.3,4.6c0,5.1,4.5,9.3,10,9.3
		c1.8,0,3.6-0.5,5.2-1.4c3-1.7,4.7-4.6,4.7-7.9V29.1c0-1.7,1-3.3,2.7-4.3c1-0.5,2.1-0.8,3.2-0.8c3.2,0,5.8,2.3,5.8,5.1
		c0,0.9-0.2,1.7-0.7,2.4c-0.7,1.2-1.9,2.1-3.5,2.5c-0.1,0.1-0.3,0.1-0.3,0.1c-1.2,0-2.1,0.9-2.1,2.1c0,1.2,0.9,2.1,2.1,2.1
		c0.5,0,1-0.1,1.6-0.3c2.4-0.7,4.4-2.2,5.7-4.3c0.8-1.4,1.3-3,1.3-4.6C54.6,24,50.1,19.8,44.6,19.8z"/>
	<path class="st0" d="M36.6,3.1C18,3.1,3,18.2,3,36.7S18,70.3,36.6,70.3s33.6-15.1,33.6-33.6S55.1,3.1,36.6,3.1z M36.6,66.2
		C20.3,66.2,7.1,53,7.1,36.7S20.3,7.2,36.6,7.2s29.5,13.2,29.5,29.5S52.8,66.2,36.6,66.2z"/>
</g>
</svg>
