<?xml version="1.0" encoding="utf-8"?>
<!-- Generator: Adobe Illustrator 21.0.0, SVG Export Plug-In . SVG Version: 6.00 Build 0)  -->
<svg version="1.1" id="图层_1" xmlns="http://www.w3.org/2000/svg" xmlns:xlink="http://www.w3.org/1999/xlink" x="0px" y="0px"
	 viewBox="0 0 74 74" style="enable-background:new 0 0 74 74;" xml:space="preserve">
<g>
	<path class="st0" d="M65.9,19.3L65.9,19.3c0-0.1,0-0.2,0-0.3c0-0.1,0-0.1,0-0.2l-0.2,0.1l0.2-0.1c0,0,0-0.1,0-0.1
		c0-0.1-0.1-0.1-0.1-0.2c0,0,0-0.1,0-0.1c-0.1-0.1-0.2-0.2-0.2-0.3L51.8,4.5c-0.1-0.1-0.2-0.2-0.3-0.2c0,0-0.1,0-0.1,0l-0.1,0.2
		l0-0.2c-0.1,0-0.1-0.1-0.2-0.1c-0.1,0-0.1,0-0.2,0L51,4.3l0-0.2c0,0-0.1,0-0.1,0c-0.1,0-0.2,0-0.4,0H14.9c-2.8,0-5.1,2.3-5.1,5.1
		v56c0,2.8,2.3,5.1,5.1,5.1h45.8c2.8,0,5.1-2.3,5.1-5.1V19.3L65.9,19.3z M52.4,17.5v-7l7,7H52.4z M50.5,21.3h11.6v43.8
		c0,0.7-0.6,1.3-1.3,1.3H14.9c-0.7,0-1.3-0.6-1.3-1.3v-56c0-0.7,0.6-1.3,1.3-1.3h33.7v11.6C48.6,20.4,49.4,21.3,50.5,21.3z"/>
	<path class="st0" d="M48.8,51.2H26.9c-1,0-1.9,0.9-1.9,1.9s0.9,1.9,1.9,1.9h21.9c1,0,1.9-0.9,1.9-1.9S49.9,51.2,48.8,51.2z"/>
	<path class="st0" d="M48.8,39.4H26.9c-1,0-1.9,0.9-1.9,1.9s0.9,1.9,1.9,1.9h21.9c1,0,1.9-0.9,1.9-1.9S49.9,39.4,48.8,39.4z"/>
	<path class="st0" d="M25,31.2c0,1,0.9,1.9,1.9,1.9h21.9c1,0,1.9-0.9,1.9-1.9s-0.9-1.9-1.9-1.9H26.9C25.8,29.3,25,30.1,25,31.2z"/>
</g>
</svg>
