<?xml version="1.0" encoding="utf-8"?>
<!-- Generator: Adobe Illustrator 22.0.1, SVG Export Plug-In . SVG Version: 6.00 Build 0)  -->
<svg version="1.1" id="图层_1" xmlns="http://www.w3.org/2000/svg" xmlns:xlink="http://www.w3.org/1999/xlink" x="0px" y="0px"
	 viewBox="0 0 74 74" style="enable-background:new 0 0 74 74;" xml:space="preserve">
<g id="Page-1">
	<g id="已完成" transform="translate(-31.000000, -168.000000)">
		<g id="Group-4-Copy" transform="translate(31.000000, 168.000000)">
			<path id="Fill-1" class="st0" d="M37,53.3H22.4c-1.2,0-2,0.8-2,2s0.8,2,2,2H37c1.2,0,2-0.8,2-2S37.8,53.3,37,53.3"/>
			<path id="Fill-3" class="st0" d="M51.6,43.5H22.4c-1.2,0-2,0.8-2,2s0.8,2,2,2h29.1c1.2,0,2-0.8,2-2S52.7,43.5,51.6,43.5"/>
			<path id="Fill-5" class="st0" d="M51.6,33.7H22.4c-1.2,0-2,0.8-2,2c0,1.2,0.8,2,2,2h29.1c1.2,0,2-0.8,2-2
				C53.5,34.4,52.7,33.7,51.6,33.7"/>
			<path id="Fill-7" class="st0" d="M62.2,60.4c0,1.6-0.8,2.4-2.8,2.4H14.2c-2,0-2.8-0.8-2.8-2.4V16.7c0-1.6,0.8-2.4,2.8-2.4H22v4.7
				c0,1.2,0.8,2,2,2s2-0.8,2-2v-4.7h21.7v4.7c0,1.2,0.8,2,2,2s2-0.8,2-2v-4.7h7.9c2,0,2.8,0.8,2.8,2.4V60.4z M62.2,10.8H51.6V9.2
				c0-1.2-0.8-2-2-2s-2,0.8-2,2v1.6H26V9.2c0-1.2-0.8-2-2-2c-1.2,0-2,0.8-2,2v1.6H11.8c-2.8,0-4.3,1.2-4.3,3.9v48
				c0,2.4,1.6,3.9,4.3,3.9h50.4c2.8,0,4.3-1.2,4.3-3.9v-48C66.1,12,65,10.8,62.2,10.8L62.2,10.8z"/>
		</g>
	</g>
</g>
</svg>
