<?xml version="1.0" encoding="utf-8"?>
<!-- Generator: Adobe Illustrator 22.0.1, SVG Export Plug-In . SVG Version: 6.00 Build 0)  -->
<svg version="1.1" id="图层_1" xmlns="http://www.w3.org/2000/svg" xmlns:xlink="http://www.w3.org/1999/xlink" x="0px" y="0px"
	 viewBox="0 0 74 74" style="enable-background:new 0 0 74 74;" xml:space="preserve">
<g>
	<path class="st0" d="M68.9,32.5l-29.1-24c-1.4-1.3-3.7-1.3-5.1,0l-29,24c-1.2,1-1.5,2.5-0.8,3.9c0.5,1.3,1.9,2.1,3.3,2.1h3.1
		c0.8,0,1.4,0.6,1.4,1.3v23.8c0,1.9,1.6,3.4,3.6,3.4h42c2,0,3.7-1.6,3.7-3.4V39.6c0-0.3,0.1-0.7,0.4-0.9c0.3-0.2,0.6-0.4,1-0.4h2.9
		c1.5,0,2.8-0.8,3.3-2.1C70.2,35,69.9,33.5,68.9,32.5z M66.5,35L66.5,35L66.5,35c-0.1,0.1-0.1,0.1-0.2,0.1h-3c0,0,0,0-0.1,0
		c-1.3,0-2.5,0.5-3.4,1.3c-0.9,0.8-1.4,2-1.4,3.2v23.8c0,0.1-0.1,0.2-0.2,0.2h-42c-0.1,0-0.2-0.1-0.2-0.2V39.6
		c0-2.5-2.2-4.5-4.9-4.5H8.1C8.1,35.1,8,35,8,34.9c0-0.1,0-0.2,0-0.2l29.1-24c0,0,0,0,0.1,0l0.1,0l0.1,0c0,0,0,0,0.1,0l29,24
		C66.5,34.8,66.5,34.9,66.5,35z"/>
	<path class="st0" d="M44.1,32.8L44.1,32.8c-3.1,0.2-5.7,2-6.9,4.8c-1.5-3.1-4-5-6.9-5c-1.9,0-3.6,0.8-4.9,2.3
		c-1.4,1.6-2.2,3.9-2.2,6.6c0,4.8,3.4,6.9,6.5,8.7c0.6,0.4,1.2,0.7,1.7,1.1c2.4,1.5,4.3,3.6,5.6,6l0.3,0.5l0.1-0.6
		c0.3-1.2,2.8-4,5.6-6.1c0.6-0.4,1.2-0.8,1.9-1.3c3-1.9,6.3-4,6.3-8.5c0-2.6-0.8-4.8-2.2-6.4C47.7,33.6,45.9,32.8,44.1,32.8z
		 M43.1,47c-0.7,0.5-1.4,0.9-2.1,1.4c-1.4,1-2.6,2.1-3.8,3.3c-1.2-1.3-2.5-2.3-4-3.3c-0.4-0.3-0.8-0.5-1.3-0.8l-0.4-0.2
		c-3.1-1.9-5-3.2-5-5.7c0-3.7,1.9-5.4,3.6-5.4c1.9,0.2,3.4,1.5,3.9,3.3c0.5,1.2,1.7,2,3.1,2c1.3,0,2.5-0.8,3-2
		c0.5-1.8,2.1-3,3.9-3.2c1.8,0,3.6,1.6,3.6,5.2C47.7,43.9,46,45.2,43.1,47z"/>
</g>
</svg>
