<svg id="图层_1" xmlns="http://www.w3.org/2000/svg" viewBox="0 0 69.09 69"><defs></defs><title>小红包对帐-灰</title><path class="cls-1" d="M71.73,43.28a2.85,2.85,0,0,1-5.7,0v-30c0-3.16-1.37-4.53-4.55-4.53H13c-3.18,0-4.56,1.37-4.56,4.53V61.84c0,3.16,1.38,4.52,4.56,4.52H37.28a2.86,2.86,0,0,1,2.47,1.41A2.82,2.82,0,0,1,37.28,72H13C6.6,72,2.64,68.07,2.64,61.76v-48c0-.38,0-2,.09-2.33C3.88,5.46,7.63,3,13,3H61.41c6.36,0,10.32,3.92,10.32,10.24ZM54.59,69.73a2.9,2.9,0,0,1-4,.09L42.05,62a2.83,2.83,0,0,1-.12-4.08,3,3,0,0,1,4.18-.08L52.64,64,67,49.68a2.76,2.76,0,1,1,3.88,3.93L54.6,69.73ZM43.87,22.78a2.73,2.73,0,0,1,3.91.07,2.86,2.86,0,0,1-.07,4l-6.58,6.47h6.14a2.83,2.83,0,0,1,0,5.66H40.1v2.82h7.17a2.83,2.83,0,0,1,0,5.65H40.1v3.2a2.77,2.77,0,1,1-5.53,0v-3.2H27.05a2.83,2.83,0,0,1,0-5.65h7.53V39H27.05a2.83,2.83,0,0,1,0-5.66h6.39l-6.39-6.5a2.86,2.86,0,0,1,0-4A2.7,2.7,0,0,1,29,22a2.74,2.74,0,0,1,2,.83l6.33,6.47,6.58-6.51Z" transform="translate(-2.64 -3)"/></svg>