<svg id="图层_1" data-name="图层 1" xmlns="http://www.w3.org/2000/svg" xmlns:xlink="http://www.w3.org/1999/xlink" viewBox="0 0 59.76 65.19"><defs><mask id="mask" x="0" y="0" width="59.76" height="65.19" maskUnits="userSpaceOnUse"><g transform="translate(-7.12 -4.31)"><g id="mask-2"><polygon id="path-1" class="cls-1" points="7.12 4.31 66.88 4.31 66.88 69.5 7.12 69.5 7.12 4.31"/></g></g></mask></defs><title>红包模版</title><g id="Page-1"><g id="红包模板"><g id="Group-7"><g id="Page-1-2" data-name="Page-1"><g id="Group-3"><g class="cls-2"><path id="Fill-1" class="cls-3" d="M62.47,10.43a2.14,2.14,0,0,0-2.22-2H55.84V65.44h4.41a2.14,2.14,0,0,0,2.22-2Zm-46.35-2a.49.49,0,0,0,0,.12v8.11h2.14a2,2,0,1,1,0,4H16.11v8.2h2.35a2,2,0,1,1,0,4H16.11V41h2.3a2,2,0,1,1,0,4h-2.3v8.18h2.3a2,2,0,1,1,0,4h-2.3v8.24H51.43v-57H16.12ZM60.26,69.5H16.14c-1.58,0-4.45-.69-4.45-4.07V57.2H9.44a2,2,0,1,1,0-4h2.25V45H9.44a2,2,0,1,1,0-4h2.25V32.8H9.49a2,2,0,1,1,0-4h2.2v-8.2H9.28a2,2,0,1,1,0-4h2.41V8.51a4.17,4.17,0,0,1,4.56-4.2h44a6.38,6.38,0,0,1,6.62,6.12v53A6.37,6.37,0,0,1,60.26,69.5Z" transform="translate(-7.12 -4.31)"/></g></g><path id="Fill-4" class="cls-3" d="M40.87,27.52a2.16,2.16,0,1,1,3,3.1l-5.14,5h4.8a2.16,2.16,0,0,1,0,4.32H37.92v2.17h5.61a2.16,2.16,0,0,1,0,4.32H37.92v2.45a2.16,2.16,0,0,1-4.32,0V46.39H27.72a2.16,2.16,0,0,1,0-4.32h5.89V39.9H27.72a2.21,2.21,0,0,1-1.54-.64,2.12,2.12,0,0,1-.62-1.52,2.16,2.16,0,0,1,2.16-2.16h5l-5-5a2.16,2.16,0,0,1,0-3.05,2.13,2.13,0,0,1,1.53-.64,2.16,2.16,0,0,1,1.53.63l4.95,5,5.14-5Z" transform="translate(-7.12 -4.31)"/></g></g></g></g></svg>