<?xml version="1.0" encoding="utf-8"?>
<!-- Generator: Adobe Illustrator 21.0.0, SVG Export Plug-In . SVG Version: 6.00 Build 0)  -->
<svg version="1.1" id="图层_1" xmlns="http://www.w3.org/2000/svg" xmlns:xlink="http://www.w3.org/1999/xlink" x="0px" y="0px"
	 viewBox="0 0 74 74" style="enable-background:new 0 0 74 74;" xml:space="preserve">
<g>
	<path class="st0" d="M64.1,35.1H60V26c0-3.1-2.4-5.8-5.4-6.6c0.1-0.3,0-0.7-0.1-1.1L50.2,6.7c-0.2-0.5-0.6-0.9-1-1.1
		c-0.5-0.2-1-0.2-1.5-0.1L13,18.4c-0.3,0.1-0.6,0.3-0.9,0.6h-1.6c-3.8,0-6.6,3.1-6.6,6.9V61c0,3.9,2.7,7,6.6,7h42.1
		c3.8,0,7.3-3.1,7.3-7v-8H64c3.8,0,6.9-3.1,6.9-6.9V42C71,38.2,67.9,35.1,64.1,35.1z M47.2,10l3.4,9.1H22.8L47.2,10z M56,61
		c0,1.6-1.7,3-3.3,3H10.6C9,64,8,62.6,8,61V25.9c0-1.6,0.9-2.9,2.6-2.9h42.1c1.6,0,3.3,1.3,3.3,2.9V35h-6.1c-3.8,0-6.9,3.1-6.9,6.9
		V46c0,3.8,3.1,6.9,6.9,6.9H56V61z M67,46.1c0,1.6-1.3,2.9-2.9,2.9H50c-1.6,0-2.9-1.3-2.9-2.9V42c0-1.6,1.3-2.9,2.9-2.9h14.1
		c1.6,0,2.9,1.3,2.9,2.9V46.1z"/>
	<circle class="st0" cx="53.3" cy="44.2" r="2.3"/>
</g>
</svg>
