<?xml version="1.0" encoding="utf-8"?>
<!-- Generator: Adobe Illustrator 21.0.0, SVG Export Plug-In . SVG Version: 6.00 Build 0)  -->
<svg version="1.1" id="图层_1" xmlns="http://www.w3.org/2000/svg" xmlns:xlink="http://www.w3.org/1999/xlink" x="0px" y="0px"
	 viewBox="0 0 74 74" style="enable-background:new 0 0 74 74;" xml:space="preserve">
<g>
	<path class="st0" d="M65.2,11.8H8.5c-2.7,0-5,2.3-5,5.1v41.6c0,2.8,2.2,5.1,5,5.1h56.6c2.7,0,5-2.3,5-5.1V16.9
		C70.1,14.1,67.9,11.8,65.2,11.8z M66.2,16.9v41.6c0,0.3-0.1,0.6-0.3,0.7c-0.2,0.2-0.4,0.3-0.7,0.3H8.5c-0.6,0-1-0.5-1-1V16.9
		c0-0.6,0.4-1,1-1h56.6C65.7,15.8,66.2,16.3,66.2,16.9z"/>
	<path class="st0" d="M33.4,40.9c2.5-2.1,3.9-5.3,3.9-8.7c0-6.2-4.9-11.3-10.9-11.3s-10.9,5.1-10.9,11.3c0,3.4,1.5,6.5,3.9,8.7
		c-4.7,2-8.4,5.9-10.2,10.7c-0.4,1,0.1,2.2,1.1,2.6c0.2,0.1,0.5,0.1,0.7,0.1c0.3,0,0.5-0.1,0.8-0.2c0.5-0.2,0.9-0.6,1.1-1.1
		c2.1-5.7,7.5-9.5,13.5-9.5c5.9,0,11.3,3.8,13.4,9.5c0.3,0.7,0.8,1.2,1.5,1.3c0.7,0.1,1.4-0.2,1.9-0.7c0.4-0.6,0.6-1.3,0.3-2
		C41.7,46.8,38.1,42.9,33.4,40.9z M33.4,32.3c0,4-3.1,7.2-7,7.2s-7-3.2-7-7.2c0-4,3.1-7.2,7-7.2S33.4,28.3,33.4,32.3z"/>
	<path class="st0" d="M60.1,34.9l-12.5,0c-1.1,0-2,0.9-2,2c0,1.1,0.9,2,2,2l12.5-0.1c0,0,0,0,0,0c0.5,0,1-0.2,1.4-0.6
		c0.4-0.4,0.6-0.9,0.6-1.4C62.1,35.7,61.2,34.9,60.1,34.9z"/>
	<path class="st0" d="M60.1,25.6l-19.4,0c-0.5,0-1,0.2-1.4,0.6c-0.4,0.4-0.6,0.9-0.6,1.4c0,1.1,0.9,2,2,2l19.4-0.1
		c0.5,0,1-0.2,1.4-0.6c0.4-0.4,0.6-0.9,0.6-1.4C62.1,26.5,61.2,25.6,60.1,25.6z"/>
	<path class="st0" d="M60.1,44.1l-14.5,0c-0.5,0-1,0.2-1.4,0.6c-0.4,0.4-0.6,0.9-0.6,1.4c0,1.1,0.9,2,2,2l14.4-0.1
		c0.5,0,1-0.2,1.4-0.6c0.4-0.4,0.6-0.9,0.6-1.4C62.1,45,61.2,44.1,60.1,44.1z"/>
</g>
</svg>
