<?xml version="1.0" encoding="utf-8"?>
<!-- Generator: Adobe Illustrator 22.0.1, SVG Export Plug-In . SVG Version: 6.00 Build 0)  -->
<svg version="1.1" id="图层_1" xmlns="http://www.w3.org/2000/svg" xmlns:xlink="http://www.w3.org/1999/xlink" x="0px" y="0px"
	 viewBox="0 0 74 74" style="enable-background:new 0 0 74 74;" xml:space="preserve">
<title>Fill 1 Copy 3@2x</title>
<desc>Created with Sketch.</desc>
<g id="Page-1_1_">
	<g id="已完成_1_" transform="translate(-34.000000, -886.000000)">
		<g id="评论-copy" transform="translate(34.000000, 886.000000)">
			<g id="Group-4">
				<path id="Fill-1_1_" class="st0" d="M56.2,66.2H11.6c-1.1,0-1.9-0.9-1.9-1.9V19.6c0-1.1,0.9-1.9,1.9-1.9H29
					c1.1,0,1.9,0.9,1.9,1.9c0,1.1-0.9,1.9-1.9,1.9H13.5v40.8h40.8V41c0-1.1,0.9-1.9,1.9-1.9c1.1,0,1.9,0.9,1.9,1.9v23.3
					C58.1,65.3,57.3,66.2,56.2,66.2z"/>
				<path id="Fill-3" class="st0" d="M26.6,47.4c-0.5,0-1-0.2-1.4-0.6c-0.5-0.5-0.7-1.2-0.5-1.9l3.8-12.2c0.1-0.3,0.3-0.6,0.5-0.8
					L52.7,8.4c0.7-0.7,2-0.7,2.7,0l8.4,8.4c0.4,0.4,0.6,0.8,0.6,1.4c0,0.5-0.2,1-0.6,1.4L40.2,43.1c-0.2,0.2-0.5,0.4-0.8,0.5
					l-12.2,3.7C27,47.4,26.8,47.4,26.6,47.4z M32.1,34.4l-2.5,8.3l8.3-2.5l21.9-21.9L54,12.4L32.1,34.4z"/>
			</g>
			<path id="Fill-5" class="st0" d="M38.7,43.6c-0.7,0-1.3-0.4-1.7-1l-2.6-5l-5-2.6c-0.9-0.5-1.3-1.6-0.8-2.6
				c0.5-0.9,1.6-1.3,2.6-0.8l5.5,2.9c0.3,0.2,0.6,0.5,0.8,0.8l2.9,5.5c0.5,0.9,0.1,2.1-0.8,2.6C39.3,43.5,39,43.6,38.7,43.6z"/>
			<path id="Fill-6" class="st0" d="M57.7,24.8c-0.5,0-1-0.2-1.3-0.6l-8.4-8.4c-0.7-0.7-0.7-1.9,0-2.7c0.7-0.7,2-0.7,2.7,0l8.4,8.4
				c0.7,0.7,0.7,1.9,0,2.7C58.6,24.6,58.2,24.8,57.7,24.8z"/>
		</g>
	</g>
</g>
</svg>
