<?xml version="1.0" encoding="utf-8"?>
<!-- Generator: Adobe Illustrator 21.0.0, SVG Export Plug-In . SVG Version: 6.00 Build 0)  -->
<svg version="1.1" id="图层_1" xmlns="http://www.w3.org/2000/svg" xmlns:xlink="http://www.w3.org/1999/xlink" x="0px" y="0px"
	 viewBox="0 0 74 74" style="enable-background:new 0 0 74 74;" xml:space="preserve">
<g>
	<path class="st0" d="M61.2,41.9C61.2,41.9,61.2,41.9,61.2,41.9H56v-1.3c0-1.5-1.2-2.8-2.8-2.8c0,0,0,0,0,0h-8
		c-1.5,0-2.8,1.2-2.8,2.8v1.3h-5.3c-2.6,0-4.8,2.1-4.8,4.8c0,0,0,0,0,0v18.2c0,2.6,2.1,4.8,4.8,4.8h24.1c2.6,0,4.8-2.1,4.8-4.8V46.7
		C66,44,63.9,41.9,61.2,41.9z M45.9,41.6c0-0.1,0.1-0.3,0.3-0.3h6c0.1,0,0.3,0.1,0.3,0.3v0.3h-6.5V41.6z M35.9,46.7
		c0-0.7,0.6-1.3,1.3-1.3h24.1c0.7,0,1.3,0.6,1.3,1.3v4.2H35.9V46.7z M50.4,54.5c0,0.1,0,0.2,0,0.3c0,0.7-0.6,1.3-1.3,1.3
		s-1.3-0.6-1.3-1.3h0c0-0.1,0-0.2,0-0.3H50.4z M62.5,64.8c0,0.7-0.6,1.3-1.3,1.3H37.1c-0.7,0-1.3-0.6-1.3-1.3V54.5h8.5
		c0,0.1,0,0.2,0,0.3c0,2.6,2.1,4.8,4.8,4.8s4.8-2.1,4.8-4.8c0-0.1,0-0.2,0-0.3h8.5L62.5,64.8z"/>
	<path class="st0" d="M34.9,5C26,5.2,18.9,12.4,18.6,21.4c0,5.1,2.4,10,6.4,13.1l1.1,0.8l-1.2,0.5C14.1,40,7,50.4,7,62.1v5.8
		C7,69.1,7.9,70,9.1,70c0,0,0,0,0.1,0H34c-1.8-0.9-3.1-2.4-3.8-4.2l0,0H11.3v-3.7c0.1-12.4,9.5-22.8,21.8-23.9
		c0.7-0.1,1.5-0.1,2.3-0.1h0.3c2.7-0.2,6.8-0.8,8.9-2.8l1.1-0.8c4-3.1,6.4-8,6.4-13.1C51.9,12.1,44.2,4.8,34.9,5z M35.5,33.8
		c0,0-0.1,0-0.1,0c-6.8,0-12.4-5.5-12.4-12.4c-0.1-6.9,5.5-12.5,12.3-12.6c6.9-0.1,12.5,5.5,12.5,12.4
		C47.9,28.1,42.3,33.7,35.5,33.8z"/>
</g>
</svg>
