<svg id="图层_1" data-name="图层 1" xmlns="http://www.w3.org/2000/svg" viewBox="0 0 54.64 63"><defs></defs><title>发送记录</title><g id="Page-1"><g id="用户池-发送短信-单模版"><g id="Group-8-Copy"><g id="Group-Copy"><g id="Page-1-2" data-name="Page-1"><path id="Fill-1" class="cls-1" d="M64.25,16.27a6.3,6.3,0,0,0-4.9-5.95,14.05,14.05,0,0,0-2.9-.19h-.71a2.2,2.2,0,0,0,0,4.39h2.12a2,2,0,0,1,1.56.78,2.4,2.4,0,0,1,.42,1.54V62.31a2,2,0,0,1-2.16,2.22H16.15A2,2,0,0,1,14,62.39V16.64a2,2,0,0,1,2.11-2.13h.77c.43,0,.87,0,1.31,0a2.16,2.16,0,0,0,2.08-2.1,2.12,2.12,0,0,0-1.84-2.25,16,16,0,0,0-3.32,0,6.3,6.3,0,0,0-5.51,6.46V62.48A6.37,6.37,0,0,0,16,68.93H57.93a6,6,0,0,0,2.56-.57,6.31,6.31,0,0,0,3.76-6.08v-46Z" transform="translate(-9.61 -5.93)"/><path id="Fill-3" class="cls-1" d="M49.35,49.88h-25a2.16,2.16,0,0,0-1.7.83,2.19,2.19,0,0,0,1.75,3.56H49.53a2.2,2.2,0,1,0-.18-4.39" transform="translate(-9.61 -5.93)"/><path id="Fill-5" class="cls-1" d="M24.54,39.41l-.49,0a2.2,2.2,0,0,0-1.11,3.84,2.37,2.37,0,0,0,1.52.55H49.12a4.42,4.42,0,0,0,.81-.06,2.19,2.19,0,0,0,1.75-2,2.24,2.24,0,0,0-.56-1.68,2.42,2.42,0,0,0-1.81-.71Z" transform="translate(-9.61 -5.93)"/><path class="cls-1" d="M49.6,10.48v-.15a4.27,4.27,0,0,0-4.42-4.4H28.69a4.24,4.24,0,0,0-4.42,4.42c0,1,0,1.93,0,2.9v.92a4.29,4.29,0,0,0,4.52,4.52H42.16l3.2,0a4.25,4.25,0,0,0,4.24-4.31C49.61,13.07,49.6,11.75,49.6,10.48Zm-4.43,3.79H28.7V10.36H45.17Z" transform="translate(-9.61 -5.93)"/><path id="Fill-9" class="cls-1" d="M24.42,33.34h16.7a2.2,2.2,0,1,0,0-4.39H24.43a2.2,2.2,0,1,0,0,4.39" transform="translate(-9.61 -5.93)"/></g></g></g></g></g></svg>