<?xml version="1.0" encoding="utf-8"?>
<!-- Generator: Adobe Illustrator 21.0.0, SVG Export Plug-In . SVG Version: 6.00 Build 0)  -->
<svg version="1.1" id="图层_1" xmlns="http://www.w3.org/2000/svg" xmlns:xlink="http://www.w3.org/1999/xlink" x="0px" y="0px"
	 viewBox="0 0 74 74" style="enable-background:new 0 0 74 74;" xml:space="preserve">
<path class="st0" d="M15.6,66.9h43.2c2.6,0,4.7-2.1,4.7-4.7V41.5l0,0c1.8-1.7,2.9-4.2,2.9-6.8l0-10l0-0.2c0-0.5-0.1-1.1-0.4-1.6l0,0
	l0,0l-0.2-0.3C63.8,19,59.1,11.1,59,10.9c-0.7-1.3-1.5-2.5-4.6-2.5H19.9c-2.8,0-3.9,1.3-4.8,2.7L8.6,22.4l-0.1,0.1
	c-0.3,0.6-0.5,1.3-0.5,2l0,10.2c0,2.6,1,5,2.9,6.8l0,0v20.6C10.8,64.7,13,66.9,15.6,66.9z M59.8,62.1c0,0.6-0.5,1-1,1H15.6
	c-0.6,0-1-0.5-1-1V43.6l0,0c0.7,0.2,1.4,0.3,2.1,0.3c2.7,0,5.2-1.3,6.8-3.5l0,0l0,0c1.7,2.2,4.1,3.5,6.8,3.5c2.7,0,5.2-1.3,6.8-3.5
	l0,0l0,0c0.8,1.1,1.9,2,3,2.5c1.2,0.6,2.5,0.9,3.8,0.9s2.6-0.3,3.8-0.9c1.2-0.6,2.2-1.5,3-2.5l0,0l0,0c1.7,2.2,4.1,3.5,6.8,3.5
	c0.7,0,1.4-0.1,2.1-0.3l0,0V62.1z M14.4,19.9c0.9-1.6,3.2-5.3,4.1-6.8c0.4-0.6,0.8-0.8,1.5-0.8h34.4c0.8,0,1,0,1.5,0.8l4.1,6.8
	L14.4,19.9L14.4,19.9z M12.6,23.8h49.1c0.5,0,0.9,0.4,0.9,0.9l0,10c0,2.9-2.2,5.2-5,5.2s-5-2.4-5-5.2v-1.4c0-1.1-0.8-1.9-1.9-1.9
	c-1,0-1.9,0.9-1.9,1.9v1.4c0,2.9-2.2,5.2-5,5.2s-5-2.4-5-5.2v-1.4c0-1.1-0.8-1.9-1.9-1.9s-1.9,0.9-1.9,1.9v1.4c0,2.9-2.2,5.2-5,5.2
	s-5-2.4-5-5.2v-1.4c0-1.1-0.8-1.9-1.9-1.9c-1,0-1.9,0.9-1.9,1.9v1.4c0,2.9-2.2,5.2-5,5.2c-2.7,0-5-2.4-5-5.2l0-10
	C11.7,24.2,12.1,23.8,12.6,23.8z"/>
</svg>
