<?xml version="1.0" encoding="utf-8"?>
<!-- Generator: Adobe Illustrator 22.0.1, SVG Export Plug-In . SVG Version: 6.00 Build 0)  -->
<svg version="1.1" id="图层_1" xmlns="http://www.w3.org/2000/svg" xmlns:xlink="http://www.w3.org/1999/xlink" x="0px" y="0px"
	 viewBox="0 0 74 74" style="enable-background:new 0 0 74 74;" xml:space="preserve">
<g>
	<path d="M61.7,44.2c-1.2,0-2.2,0.9-2.2,2.1v12.8c0,1.8-1.5,3.2-3.4,3.2H17.9c-1.9,0-3.4-1.4-3.4-3.2V46.4c0-1.2-1-2.1-2.2-2.1
		c-1.2,0-2.2,0.9-2.2,2.1v13.2c0,3.9,3.3,7.1,7.4,7.1h39c4.1,0,7.4-3.2,7.4-7.1V46.3C63.9,45.2,62.9,44.2,61.7,44.2z"/>
	<path d="M61.8,8.3l-0.6-0.9H13.7L13,8.2C0.9,23,2.6,32,4.7,36.1c2.1,4.1,6.4,6.8,11,6.8H16c5.6-0.2,9.4-2.9,11.2-4.6
		c2,2,5.3,4.3,10.3,4.3c5.4,0,8.9-2.8,10.5-4.6c2.4,1.8,7,4.7,11.8,4.7c3.3,0,6.1-1.3,8.3-3.8C76.5,29.7,62.4,9.2,61.8,8.3z
		 M47.4,19.7c-1.1,0-2,0.8-2.2,1.8h0v13.3c-0.9,1.2-3.4,3.7-7.7,3.7c-4.7,0-7.2-3-8-4.1V21.8c0-1.2-1-2.1-2.2-2.1
		c-1.2,0-2.2,0.9-2.2,2.1v12.5c-1.1,1.3-4.1,4.2-9.2,4.5h-0.3c-2.4,0-5.5-1.4-7.1-4.5C7,31.2,5.8,24.1,15.8,11.6h43
		c4.5,6.8,10.7,19.5,6,24.7l0,0c-1.4,1.6-3.1,2.3-5,2.3c-4.4,0-9.1-3.8-10.2-4.8l0-12C49.6,20.6,48.6,19.7,47.4,19.7z"/>
</g>
</svg>
