<svg id="图层_1" data-name="图层 1" xmlns="http://www.w3.org/2000/svg" xmlns:xlink="http://www.w3.org/1999/xlink" viewBox="0 0 46.11 52.12"><defs><mask id="mask" x="0" y="0" width="35.55" height="51.56" maskUnits="userSpaceOnUse"><g transform="translate(-6.93 -4.33)"><g id="mask-2"><polygon id="path-1" class="cls-1" points="6.93 4.33 42.48 4.33 42.48 55.89 6.93 55.89 6.93 4.33"/></g></g></mask><mask id="mask-2-2" x="20.63" y="25.08" width="25.47" height="27.04" maskUnits="userSpaceOnUse"><g transform="translate(-6.93 -4.33)"><g id="mask-4"><polygon id="path-3" class="cls-1" points="27.57 29.41 53.04 29.41 53.04 56.45 27.57 56.45 27.57 29.41"/></g></g></mask></defs><title>发送短信</title><g id="Page-1"><g id="模版管理_签名模版" data-name="模版管理/签名模版"><g id="左导航内容"><g id="Page-1-2" data-name="Page-1"><g id="Group-3"><g class="cls-2"><path id="Fill-1" class="cls-3" d="M26,53H10a3,3,0,0,1-3.06-2.88V7.22A3,3,0,0,1,10,4.33H39.43a3,3,0,0,1,3.06,2.89v19.4a1.53,1.53,0,0,1-3.06,0V7.79a.59.59,0,0,0-.61-.57H10.6a.59.59,0,0,0-.61.57V49.56a.59.59,0,0,0,.61.58H26a1.5,1.5,0,0,1,1.52,1.44A1.47,1.47,0,0,1,26,53" transform="translate(-6.93 -4.33)"/></g></g><g id="Group-6"><g class="cls-4"><path id="Fill-4" class="cls-3" d="M40.3,32A10.11,10.11,0,0,0,30.18,42.1a11.15,11.15,0,0,0,.22,2.14,11,11,0,0,0,5.11,7,1,1,0,0,1,.48.43l1.17,1.84,2.58-1.14a1.25,1.25,0,0,1,.52-.13A10.1,10.1,0,1,0,40.3,32M36.73,56.45a1.29,1.29,0,0,1-1.09-.61L34,53.36a13.43,13.43,0,0,1-6.15-8.55,14.33,14.33,0,0,1-.3-2.71c0-9.21,10-16.21,19.72-10.8a9.91,9.91,0,0,1,3.89,3.92c5.3,9.7-1.52,19.43-10.61,19.66l-3.32,1.49a1.1,1.1,0,0,1-.52.08" transform="translate(-6.93 -4.33)"/></g></g><path id="Fill-7" class="cls-3" d="M33,41.8a1.66,1.66,0,1,0,.83-1.44A1.65,1.65,0,0,0,33,41.8" transform="translate(-6.93 -4.33)"/><path id="Fill-9" class="cls-3" d="M38.87,41.8a1.66,1.66,0,0,0,3.31,0,1.67,1.67,0,0,0-.83-1.44,1.65,1.65,0,0,0-2.48,1.44" transform="translate(-6.93 -4.33)"/><path id="Fill-11" class="cls-3" d="M44.67,41.8a1.66,1.66,0,1,0,.83-1.44,1.63,1.63,0,0,0-.83,1.44" transform="translate(-6.93 -4.33)"/><path id="Fill-13" class="cls-3" d="M23.47,43.45H9.68a1.53,1.53,0,0,1,0-3.05H23.47a1.53,1.53,0,0,1,0,3.05" transform="translate(-6.93 -4.33)"/></g></g></g></g></svg>