<svg id="图层_1" data-name="图层 1" xmlns="http://www.w3.org/2000/svg" viewBox="0 0 53.33 43.33"><defs></defs><title>短信账户</title><g id="Page-1"><g id="用户池-发送短信-单模版"><g id="Group-8-Copy"><g id="Group-Copy"><g id="Page-1-2" data-name="Page-1"><path id="Fill-1" class="cls-1" d="M59,56.39a5,5,0,0,1-1,0h-44a5.64,5.64,0,0,1-1.11,0,6,6,0,0,1-.07-1.34V24.65a3.76,3.76,0,0,1,.11-.86L32.75,43.13A4.09,4.09,0,0,0,35.9,44.4,4,4,0,0,0,39,43.14L58.76,23.33a4.58,4.58,0,0,1,.18,1.32V55.42c0,.44,0,.9,0,1M16.58,20.56H55.23a3.15,3.15,0,0,1,1,.16L36.51,40.48l-.06.06a1.09,1.09,0,0,1-.55.11,1.3,1.3,0,0,1-.54-.1.65.65,0,0,0-.12-.11L15.14,20.89a3.4,3.4,0,0,1,1.44-.33m40.67-3.73H14.34c-4,0-5.21,1.24-5.21,5.52V55.78c0,1.62.14,2.86.82,3.58s2,.82,4,.8H58c1.78,0,2.88,0,3.6-.8s.82-2,.82-3.58V22.35c0-4.28-1.17-5.52-5.21-5.52" transform="translate(-9.13 -16.83)"/></g></g></g></g></g></svg>