<?xml version="1.0" encoding="utf-8"?>
<!-- Generator: Adobe Illustrator 22.0.1, SVG Export Plug-In . SVG Version: 6.00 Build 0)  -->
<svg version="1.1" id="图层_1" xmlns="http://www.w3.org/2000/svg" xmlns:xlink="http://www.w3.org/1999/xlink" x="0px" y="0px"
	 viewBox="0 0 74 74" style="enable-background:new 0 0 74 74;" xml:space="preserve">
<title>Fill 1 Copy 3@2x</title>
<desc>Created with Sketch.</desc>
<g id="Page-1">
	<g id="已完成" transform="translate(-30.000000, -573.000000)">
		<g id="特价-copy-2" transform="translate(31.000000, 574.000000)">
			<path id="Fill-1" class="st0" d="M7.7,39.9c0-0.4,0.1-0.7,0.4-1l28.7-28.7c0.3-0.3,0.7-0.5,1.2-0.4l21.3,1.9
				c0.7,0.1,1.3,0.6,1.3,1.3l1.9,21.3c0,0.4-0.1,0.9-0.4,1.2L33.4,64.1c-0.6,0.6-1.5,0.6-2.1,0L8.1,40.9C7.9,40.6,7.7,40.3,7.7,39.9
				L7.7,39.9z M38.4,12.7L11.2,39.9L32.4,61l27.2-27.2l-1.7-19.4L38.4,12.7z"/>
			<path id="Fill-3_1_" class="st1" d="M38.6,26.9c0-1.8,0.7-3.6,2-4.8c2.7-2.7,7-2.7,9.7,0c1.3,1.3,2,3,2,4.8c0,1.8-0.7,3.6-2,4.8
				c-2.7,2.7-7,2.7-9.7,0C39.3,30.4,38.6,28.7,38.6,26.9z M48.8,26.9c0-0.9-0.4-1.8-1-2.4c-1.3-1.3-3.5-1.3-4.9,0
				c-1.3,1.3-1.3,3.6,0,4.8c1.3,1.3,3.5,1.3,4.9,0C48.5,28.7,48.8,27.8,48.8,26.9z"/>
		</g>
	</g>
</g>
</svg>
