<?xml version="1.0" encoding="utf-8"?>
<!-- Generator: Adobe Illustrator 21.0.0, SVG Export Plug-In . SVG Version: 6.00 Build 0)  -->
<svg version="1.1" id="图层_1" xmlns="http://www.w3.org/2000/svg" xmlns:xlink="http://www.w3.org/1999/xlink" x="0px" y="0px"
	 viewBox="0 0 74 74" style="enable-background:new 0 0 74 74;" xml:space="preserve">
<g>
	<path class="st0" d="M70.6,36.3l-8.7-8.7V15.3c0-1.2-0.8-2.1-2.1-2.1H47.6l-8.7-8.7c-0.4-0.4-1-0.6-1.6-0.6c-0.6,0-1.2,0.2-1.6,0.6
		l-8.4,8.7H15.1c-1.2,0-2.1,0.8-2.1,2.1v11.9l-8.7,8.7c-0.4,0.4-0.6,1-0.6,1.6c0,0.6,0.2,1.2,0.6,1.6l8.7,8.7v12.2
		c0,1.2,0.8,2.1,2.1,2.1h12.2l8.7,8.7c0.4,0.4,0.9,0.6,1.5,0.6s1.1-0.2,1.5-0.6l8.7-8.7h12.2c1.2,0,2.1-0.8,2.1-2.1V47.9l8.7-8.7
		c0.4-0.4,0.6-0.9,0.6-1.5S71,36.7,70.6,36.3z M16.7,45.4l-7.9-7.9l7.9-7.5l0.1-0.1v-0.1c0-0.1,0.1-0.4,0.2-0.6
		c0.1-0.3,0.2-0.6,0.2-0.8v-11h11c0.5,0,0.9-0.4,1.3-0.8l7.9-7.5l8.2,7.9l0.1,0.1h0.1c0.1,0,0.4,0.1,0.6,0.2
		c0.3,0.1,0.6,0.2,0.8,0.2h11V28c0,0.7,0,1.2,0.4,1.6l7.9,7.9l-8,8v0.1c0,0.1-0.1,0.4-0.2,0.6c-0.1,0.3-0.2,0.6-0.2,0.8v11h-11
		c-0.7,0-1.2,0-1.6,0.4l-7.9,7.9l-8-8h-0.1c-0.1,0-0.4-0.1-0.6-0.2c-0.3-0.1-0.6-0.2-0.8-0.2h-11v-11C17.1,46.3,17.1,45.9,16.7,45.4
		z"/>
	<path class="st0" d="M33.5,46.2L33.5,46.2c0.4,0.2,0.8,0.3,1.2,0.3c0.5,0,1.1-0.1,1.7-0.7l14.5-14.5c0.4-0.4,0.6-0.9,0.6-1.5
		s-0.2-1.1-0.6-1.5c-0.8-0.8-2.1-0.8-2.9,0L34.8,41.7L27,33.8c-0.2-0.3-0.5-0.6-1-0.6c-0.7-0.1-1.5,0.1-1.9,0.6
		c-0.4,0.4-0.6,0.9-0.6,1.5c0,0.5,0.2,1.1,0.6,1.5L33.5,46.2z"/>
</g>
</svg>
