<?xml version="1.0" encoding="utf-8"?>
<!-- Generator: Adobe Illustrator 21.0.0, SVG Export Plug-In . SVG Version: 6.00 Build 0)  -->
<svg version="1.1" id="图层_1" xmlns="http://www.w3.org/2000/svg" xmlns:xlink="http://www.w3.org/1999/xlink" x="0px" y="0px"
	 viewBox="0 0 74 74" style="enable-background:new 0 0 74 74;" xml:space="preserve">
<g>
	<path class="st0" d="M61.6,12.9C55.2,6.5,46.8,3,37.8,3c-8.9,0-17.4,3.5-23.8,9.9c-6.4,6.4-9.9,14.8-9.9,23.8
		c0,8.9,3.5,17.4,9.9,23.8c6.4,6.4,14.8,9.9,23.8,9.9c8.9,0,17.4-3.5,23.8-9.9s9.9-14.8,9.9-23.8C71.5,27.7,68,19.3,61.6,12.9z
		 M67.3,36.7c0,7.9-3.1,15.4-8.6,20.9c-5.5,5.5-13,8.6-20.9,8.6c-7.9,0-15.4-3.1-20.9-8.6c-5.5-5.5-8.6-13-8.6-20.9
		c0-16.3,13.2-29.5,29.5-29.5c7.9,0,15.4,3.1,20.9,8.6C64.3,21.3,67.3,28.7,67.3,36.7z"/>
	<path class="st0" d="M43.8,27.8c0,0.2,0,0.3,0,0.5c-0.3,2.2-0.7,4.3-1.3,5.7l-1,2c0,0,0,0.1,0,0.2c0.1,0.3,1.1,0.8,1.9,0.9
		c0.6,0.1,1-0.1,1.2-0.4c0,0,2.7-3.8,3-9.1c0-3.3-0.8-5.9-2.4-7.8c-1.9-2.2-4.5-3.4-7.8-3.4c-3,0-5.5,0.9-7.2,2.7
		c-1.7,1.8-2.6,4.4-2.6,7.8c0,2.9,0.4,5.2,1.3,7.4c1,2,2,4,3.7,5.7v2c-0.3,0.1-0.6,0.2-1,0.2c-1.2,0.3-2.5,0.6-4,1.1
		c-1.6,0.3-3.3,1-4.4,1.7c-1.7,1-2.4,2-2.4,3.4c0,2,2.3,4,6.7,6.1c2.9,1.3,6,2.4,6.4,2.4c0.7,0,1.4-0.3,1.4-1c0.2-0.3,0.2-0.7,0-1.1
		c-0.2-0.4-0.6-0.8-1-0.9c0,0-3-1.4-5.4-3c-0.6-0.3-1.1-0.5-1.5-0.7c-1.9-0.8-1.9-0.8-1.9-1.4c0-0.1,0-0.1,0-0.2
		c0-0.5,0.3-0.6,1.4-1c0.4-0.2,0.9-0.4,1.6-0.6c2.6-0.7,6.2-1.6,6.4-1.7c1.4,0,1.4-1.4,1.4-2.1v-3.7c0,0,0-0.4-0.4-0.7
		c-3.6-3.2-5-6.6-5-11.7c0-0.9,0.1-1.7,0.3-2.3c0-0.1,0.1-0.2,0.1-0.2c0-0.1,0.1-0.2,0.1-0.3c0-0.1,0.1-0.2,0.1-0.3
		c1.2-2.5,3.8-3.5,5.6-3.5c2.1,0,3.7,0.5,4.7,1.6C42.8,22.5,43.9,23.6,43.8,27.8z"/>
	<path class="st0" d="M40.5,45.4c0,1,1,2.1,2.1,2.1h10.4c1.4,0,2.1-0.7,2.1-2.1c0-1-1-2.1-2.1-2.1H42.5
		C41.5,43.3,40.5,44.3,40.5,45.4z"/>
	<path class="st0" d="M49.6,51.7h-7.1c-1,0-2.1,1-2.1,2.1s1,2.1,2.1,2.1h7.1c1,0,2.1-1,2.1-2.1S50.6,51.7,49.6,51.7z"/>
</g>
</svg>
