<svg id="图层_1" data-name="图层 1" xmlns="http://www.w3.org/2000/svg" xmlns:xlink="http://www.w3.org/1999/xlink" viewBox="0 0 62.42 62.55"><defs><mask id="mask" x="0" y="0" width="62.42" height="62.55" maskUnits="userSpaceOnUse"><g transform="translate(-6.24 -5.5)"><g id="mask-2"><polygon id="path-1" class="cls-1" points="6.24 5.5 68.66 5.5 68.66 68.05 6.24 68.05 6.24 5.5"/></g></g></mask></defs><title>模版管理</title><g id="Page-1"><g id="用户池-发送短信-单模版"><g id="Group-8-Copy"><g id="Group-Copy"><g id="Page-1-2" data-name="Page-1"><g id="Group-3"><g class="cls-2"><path id="Fill-1" class="cls-3" d="M56.74,17.73,56.6,64.1H10.19V17.68Zm2.69-2.68a4.25,4.25,0,0,0-3-1.26h0l-38.1,0V9.45H64.72V55.86H60.54l.14-37.78A4.22,4.22,0,0,0,59.43,15.05Zm8-8.3a4.34,4.34,0,0,0-3-1.25H18.64a4.27,4.27,0,0,0-4.28,4.28v4H10.53A4.24,4.24,0,0,0,7.5,15a4.31,4.31,0,0,0-1.26,3V63.77a4.27,4.27,0,0,0,1.26,3,4.32,4.32,0,0,0,3,1.25H56.27a4.34,4.34,0,0,0,3-1.25,4.26,4.26,0,0,0,1.25-3v-4h3.94a4.2,4.2,0,0,0,4.17-4.19V9.78A4.22,4.22,0,0,0,67.41,6.75Z" transform="translate(-6.24 -5.5)"/></g></g><path class="cls-3" d="M46.59,22.35H40.47a4.16,4.16,0,0,0-4,4.18V56.27a4.19,4.19,0,0,0,4.18,4.19h5.85a4.2,4.2,0,0,0,4.18-4.19V26.53A4.17,4.17,0,0,0,46.59,22.35Zm.12,34.17H40.38V26.29h6.33Z" transform="translate(-6.24 -5.5)"/><path class="cls-3" d="M34.22,26.05a4.17,4.17,0,0,0-4-3.7H19.81a4.17,4.17,0,0,0-4,4.18v9.29A4.2,4.2,0,0,0,20,40H30.07a4.18,4.18,0,0,0,4.18-4.19V26.05Zm-3.92,10H19.71V26.29H30.3Z" transform="translate(-6.24 -5.5)"/><path class="cls-3" d="M30.38,42.78H20A4.17,4.17,0,0,0,16,47v9.29a4.2,4.2,0,0,0,4.19,4.19H30.25a4.18,4.18,0,0,0,4.18-4.19V47A4.17,4.17,0,0,0,30.38,42.78Zm.11,13.71H19.89V46.72h10.6Z" transform="translate(-6.24 -5.5)"/></g></g></g></g></g></svg>