<?xml version="1.0" encoding="utf-8"?>
<!-- Generator: Adobe Illustrator 22.0.1, SVG Export Plug-In . SVG Version: 6.00 Build 0)  -->
<svg version="1.1" id="图层_1" xmlns="http://www.w3.org/2000/svg" xmlns:xlink="http://www.w3.org/1999/xlink" x="0px" y="0px"
	 viewBox="0 0 74 74" style="enable-background:new 0 0 74 74;" xml:space="preserve">
<g>
	<g>
		<path id="SVGID_1_" class="st0" d="M61.2,45.4v-0.2c-0.5-3.7-2.1-13.4-2.5-15.2c-0.1-8.6-8-14.3-15.4-16.6v-0.5
			C43.3,9.7,40.5,7,37,7s-6.3,2.6-6.3,5.8v0.3c-7.3,2.1-15.8,7.8-15.9,16.8c-0.3,1.7-1.5,10.5-2.3,15.5c-2,1.2-3.8,2.8-3.8,7.1
			c0,2,1.6,5.8,8,5.8h9.8c0.9,5,5.4,8.6,10.6,8.6l0,0c5.2,0,9.7-3.6,10.6-8.6h9.8c6.3,0,8-3.8,8-5.8C65.4,47.7,62.9,46.3,61.2,45.4
			 M37,63.7L37,63.7c-3.4,0-6.3-2.2-7.2-5.4h14.5C43.3,61.5,40.4,63.7,37,63.7 M57.4,55H16.6c-4.3,0-4.6-2.2-4.6-2.6
			c0-2.9,1.1-3.7,2.8-4.7l0.8-0.4l0.1-0.9c0.8-6,2.1-15.2,2.3-16.1l0.1-0.4c0-7.4,7.4-12.4,14.7-14.2l1.3-0.3v-2.8
			c0-1.4,1.3-2.5,2.9-2.5s2.9,1.1,2.9,2.5v2.9l1.2,0.3c6.6,1.7,14.1,6.6,14.1,14.1l0.1,0.4c0.1,1,1.6,10.5,2.6,16.3l0.1,0.8l1.3,0.7
			c1.6,0.9,2.6,1.4,2.6,4.4C62,52.6,62,55,57.4,55"/>
	</g>
</g>
</svg>
