<?xml version="1.0" encoding="utf-8"?>
<!-- Generator: Adobe Illustrator 22.0.1, SVG Export Plug-In . SVG Version: 6.00 Build 0)  -->
<svg version="1.1" id="图层_1" xmlns="http://www.w3.org/2000/svg" xmlns:xlink="http://www.w3.org/1999/xlink" x="0px" y="0px"
	 viewBox="0 0 74 74" style="enable-background:new 0 0 74 74;" xml:space="preserve">
<g>
	<path d="M61.3,12.7v48.7H12.7V12.7H61.3 M61.3,8H12.7C10.1,8,8,10.1,8,12.7v48.7c0,2.6,2.1,4.7,4.7,4.7h48.7c2.6,0,4.7-2.1,4.7-4.7
		V12.7C66,10.1,63.9,8,61.3,8L61.3,8z M61.3,8"/>
	<path d="M51.2,32.9H22.8c-1.3,0-2.3-1-2.3-2.3c0-1.3,1-2.3,2.3-2.3h28.5c1.3,0,2.3,1,2.3,2.3C53.6,31.8,52.5,32.9,51.2,32.9
		L51.2,32.9z M51.2,32.9"/>
	<path d="M49.8,32.4l-9.3-7.3c-1-0.8-1.2-2.3-0.4-3.3c0.8-1,2.3-1.2,3.3-0.4l9.3,7.3c1,0.8,1.2,2.3,0.4,3.3
		C52.3,33,50.8,33.2,49.8,32.4L49.8,32.4z M22.8,41.2h28.5c1.3,0,2.3,1,2.3,2.3c0,1.3-1,2.3-2.3,2.3H22.8c-1.3,0-2.3-1-2.3-2.3
		C20.4,42.2,21.5,41.2,22.8,41.2L22.8,41.2z M22.8,41.2"/>
	<path d="M24.2,41.7l9.3,7.3c1,0.8,1.2,2.3,0.4,3.3c-0.8,1-2.3,1.2-3.3,0.4l-9.3-7.3c-1-0.8-1.2-2.3-0.4-3.3
		C21.7,41.1,23.2,40.9,24.2,41.7L24.2,41.7z M24.2,41.7"/>
</g>
</svg>
