<?xml version="1.0" encoding="utf-8"?>
<!-- Generator: Adobe Illustrator 21.0.0, SVG Export Plug-In . SVG Version: 6.00 Build 0)  -->
<svg version="1.1" id="图层_1" xmlns="http://www.w3.org/2000/svg" xmlns:xlink="http://www.w3.org/1999/xlink" x="0px" y="0px"
	 viewBox="0 0 74 74" style="enable-background:new 0 0 74 74;" xml:space="preserve">
<g>
	<path class="st0" d="M49.5,47.4c0.4,0.3,0.8,0.4,1.3,0.4c0.7,0,1.4-0.4,1.9-0.9c0.3-0.5,0.5-1.1,0.4-1.7c-0.1-0.6-0.4-1.1-0.9-1.5
		l-0.6-0.4c-1.9-1.3-4-2.3-6.2-3c2.7-1.6,5-3.8,6.7-6.3c2.1-3.1,3.1-6.8,3.1-10.5c0-10.8-8.9-19.6-19.9-19.6
		c-11,0-19.9,8.8-19.9,19.6c0,3.7,1.1,7.4,3.1,10.5c1.7,2.6,4,4.8,6.7,6.3c-2.4,0.9-4.8,2.1-6.9,3.5c-2.6,1.8-4.8,3.9-6.7,6.3
		c-3.9,5.1-6,11.2-6,17.6c0,1.2,1,2.2,2.3,2.2s2.3-1,2.3-2.2C10.2,54.1,21.4,43,35.2,43c4.9,0,9.7,1.4,13.8,4L49.5,47.4z M50.6,23.4
		c0,8.4-6.9,15.2-15.4,15.2c-8.5,0-15.4-6.8-15.4-15.2c0-8.4,6.9-15.2,15.4-15.2C43.7,8.3,50.6,15.1,50.6,23.4z"/>
	<path class="st0" d="M68.4,56.9h-7.9v-7.7c0-0.5-0.4-0.9-0.9-0.9h-2.4c-0.5,0-0.9,0.4-0.9,0.9v7.7h-8.3c-0.5,0-0.9,0.4-0.9,0.9v2.5
		c0,0.5,0.4,0.9,0.9,0.9h8.3v7.7c0,0.5,0.4,0.9,0.9,0.9h2.4c0.5,0,0.9-0.4,0.9-0.9v-7.7h7.9c0.5,0,0.9-0.4,0.9-0.9v-2.5
		C69.4,57.3,68.9,56.9,68.4,56.9z"/>
</g>
</svg>
