<?xml version="1.0" encoding="utf-8"?>
<!-- Generator: Adobe Illustrator 21.0.0, SVG Export Plug-In . SVG Version: 6.00 Build 0)  -->
<svg version="1.1" id="图层_1" xmlns="http://www.w3.org/2000/svg" xmlns:xlink="http://www.w3.org/1999/xlink" x="0px" y="0px"
	 viewBox="0 0 74 74" style="enable-background:new 0 0 74 74;" xml:space="preserve">
<g>
	<path class="st0" d="M31.8,15.2c-0.4-0.3-0.9-0.4-1.3-0.3c-8.7,1.4-15,8.8-15,17.5c0,0.8,0.1,1.6,0.2,2.5c0.1,0.9,0.9,1.6,1.8,1.6
		c0.1,0,0.2,0,0.3,0c0.5-0.1,0.9-0.3,1.2-0.7c0.3-0.4,0.4-0.9,0.3-1.3c-0.1-0.8-0.2-1.4-0.2-2c0-7,5-12.9,11.9-14
		c1-0.2,1.7-1.1,1.5-2.1C32.4,15.9,32.2,15.5,31.8,15.2z"/>
	<path class="st0" d="M66.8,63.8L50.5,47.5c3.8-4.5,5.9-10.1,5.9-16c0-13.6-11.1-24.7-24.8-24.7C17.9,6.8,6.8,17.9,6.8,31.5
		c0,13.6,11.1,24.7,24.8,24.7c5.8,0,11.4-2.1,15.9-5.8l16.3,16.3c0.4,0.4,0.9,0.6,1.5,0.6c0.6,0,1.1-0.2,1.5-0.6
		c0.4-0.4,0.6-0.9,0.6-1.5S67.2,64.2,66.8,63.8z M52.2,31.5c0,5.5-2.1,10.7-6,14.6c-3.9,3.9-9.1,6-14.6,6C20.2,52.1,11,42.9,11,31.5
		c0-11.4,9.3-20.6,20.6-20.6S52.2,20.2,52.2,31.5z"/>
</g>
</svg>
