<?xml version="1.0" encoding="utf-8"?>
<!-- Generator: Adobe Illustrator 22.1.0, SVG Export Plug-In . SVG Version: 6.00 Build 0)  -->
<svg version="1.1" id="图层_1" xmlns="http://www.w3.org/2000/svg" xmlns:xlink="http://www.w3.org/1999/xlink" x="0px" y="0px"
	 viewBox="0 0 74 74" style="enable-background:new 0 0 74 74;" xml:space="preserve">
<path class="st0" d="M51.6,19H13.5c-4.6,0-8.4,3.8-8.4,8.4v29c0,4.6,3.8,8.4,8.4,8.4h38.1c4.6,0,8.4-3.8,8.4-8.4v-29
	C59.9,22.7,56.2,19,51.6,19z M55.4,56.3c0,2.1-1.7,3.8-3.8,3.8H13.5c-2.1,0-3.8-1.7-3.8-3.8v-29c0-2.1,1.7-3.8,3.8-3.8h38.1
	c2.1,0,3.8,1.7,3.8,3.8V56.3L55.4,56.3z M48.6,32.7c-9.2,0-10.3,5.2-10.9,8.3c-0.5,2.5-0.7,2.9-2,3.1c-2.5,0.4-3.1,0-4.2-0.6
	c-1.1-0.7-2.6-1.6-5.6-1.7c-9-0.2-11.4,10.6-11.5,11c-0.3,1.2,0.4,2.5,1.6,2.8c1.2,0.3,2.5-0.4,2.8-1.6c0-0.1,0-0.2,0-0.2
	c0-0.1,1.7-7.4,6.8-7.4l0.1,0c1.7,0,2.4,0.4,3.3,1c1.7,1,3.5,1.8,7.3,1.2c4.6-0.7,5.3-4.3,5.8-6.7c0.6-2.9,1-4.6,6.4-4.6
	c1.3-0.1,2.2-1.1,2.2-2.4C50.7,33.7,49.7,32.8,48.6,32.7L48.6,32.7z M60.7,9.8H18.8c-1.3,0.1-2.2,1.1-2.2,2.4c0,1.2,1,2.1,2.2,2.2
	h41.9c2.1,0,3.8,1.7,3.8,3.8v28.2c0,1.3,1,2.3,2.3,2.3c1.3,0,2.3-1,2.3-2.3V18.2C69.1,13.6,65.3,9.8,60.7,9.8z"/>
</svg>
