<?xml version="1.0" encoding="utf-8"?>
<!-- Generator: Adobe Illustrator 21.0.0, SVG Export Plug-In . SVG Version: 6.00 Build 0)  -->
<svg version="1.1" id="图层_1" xmlns="http://www.w3.org/2000/svg" xmlns:xlink="http://www.w3.org/1999/xlink" x="0px" y="0px"
	 viewBox="0 0 74 74" style="enable-background:new 0 0 74 74;" xml:space="preserve">
<g>
	<path class="st0" d="M37.4,4c-18.2,0-33,14.8-33,33s14.8,33,33,33c18.2,0,33-14.8,33-33S55.6,4,37.4,4z M66.4,37c0,16-13,29-29,29
		c-16,0-29-13-29-29s13-29,29-29C53.4,8,66.4,21,66.4,37z"/>
	<path class="st0" d="M37.1,33.5c-0.9,0-1.8,0.4-2.5,1c-0.7,0.7-1,1.6-1,2.5c0,0.9,0.4,1.8,1,2.5c0.7,0.7,1.6,1,2.5,1
		c0.9,0,1.8-0.4,2.5-1c0.7-0.7,1-1.6,1-2.5s-0.4-1.8-1-2.5C38.9,33.9,38,33.5,37.1,33.5z"/>
	<path class="st0" d="M39.5,18.5v-6c0-1.1-0.9-2.1-2.1-2.1s-2.1,0.9-2.1,2.1v6c-8.6,1-15.5,7.8-16.4,16.4h-5.1
		c-1.1,0-2.1,0.9-2.1,2.1s0.9,2.1,2.1,2.1h5.1c1,8.6,7.8,15.5,16.4,16.4v5.1c0,1.1,0.9,2.1,2.1,2.1s2.1-0.9,2.1-2.1v-5.1
		c8.6-1,15.5-7.8,16.4-16.4h5.9c1.1,0,2.1-0.9,2.1-2.1s-0.9-2.1-2.1-2.1h-5.9C54.9,26.3,48.1,19.5,39.5,18.5z M47.2,37
		c0,1.1,0.9,2,2,2h3c-0.9,6.6-6.2,11.8-12.8,12.8V48c0-1.1-0.9-2-2-2s-2,0.9-2,2v3.8c-6.6-0.9-11.8-6.2-12.8-12.8h3.7
		c1.1,0,2-0.9,2-2s-0.9-2-2-2h-3.7c0.9-6.6,6.2-11.8,12.8-12.8V25c0,1.1,0.9,2,2,2s2-0.9,2-2v-2.8C46,23.1,51.3,28.4,52.2,35h-3
		C48.1,35,47.2,35.9,47.2,37z"/>
</g>
</svg>
