<?xml version="1.0" encoding="utf-8"?>
<!-- Generator: Adobe Illustrator 22.1.0, SVG Export Plug-In . SVG Version: 6.00 Build 0)  -->
<svg version="1.1" id="图层_1" xmlns="http://www.w3.org/2000/svg" xmlns:xlink="http://www.w3.org/1999/xlink" x="0px" y="0px"
	 viewBox="0 0 74 74" style="enable-background:new 0 0 74 74;" xml:space="preserve">
<path d="M68,21.8L68,21.8L38.1,5.7c-0.5-0.4-1.4-0.5-2.1,0L6.1,21.6l-0.1,0c-0.7,0.5-1,1.1-1,1.9s0.4,1.4,1,1.9l0,0L36,42.3l0,0
	c0.4,0.2,0.7,0.2,1,0.2c0.4,0,0.8-0.2,1.1-0.4l29.7-16.5l0,0c0.7-0.5,1-1.1,1-1.9S68.6,22.3,68,21.8z M37.1,37.8L11.7,23.7L37.1,10
	l25.4,13.7C62.5,23.7,37.1,37.8,37.1,37.8z"/>
<path d="M6.1,38.6L36,55.3l0,0c0.4,0.2,0.7,0.2,1,0.2c0.4,0,0.8,0,1.1-0.3l29.7-16.6l0,0c0.5-0.3,0.9-0.8,1-1.3
	c0.2-0.6,0.1-1.2-0.2-1.7c-0.3-0.5-0.8-0.9-1.3-1c-0.6-0.2-1.2-0.1-1.7,0.2l-28.6,16l-28.8-16c-0.5-0.3-1.1-0.4-1.7-0.2
	c-0.5,0.2-1,0.5-1.3,1l0,0l0,0C4.8,36.8,5.1,38,6.1,38.6z"/>
<path d="M67.4,47.6c-0.6-0.2-1.2-0.1-1.7,0.2l-28.6,16l-28.8-16c-0.5-0.3-1.1-0.4-1.7-0.2c-0.5,0.2-1,0.5-1.3,1l0,0l0,0
	c-0.5,1.1-0.1,2.3,0.9,2.9l0,0L36,68.4l0,0c0.4,0.2,0.7,0.2,1,0.2c0.4,0,0.8,0,1.1-0.3l29.7-16.6l0,0c0.5-0.3,0.9-0.8,1-1.3
	c0.2-0.6,0.1-1.2-0.2-1.7C68.4,48.2,67.9,47.8,67.4,47.6z"/>
</svg>
