<?xml version="1.0" encoding="utf-8"?>
<!-- Generator: Adobe Illustrator 21.0.0, SVG Export Plug-In . SVG Version: 6.00 Build 0)  -->
<svg version="1.1" id="图层_1" xmlns="http://www.w3.org/2000/svg" xmlns:xlink="http://www.w3.org/1999/xlink" x="0px" y="0px"
	 viewBox="0 0 74 74" style="enable-background:new 0 0 74 74;" xml:space="preserve">
<path class="st0" d="M36.9,3.6C18.6,3.6,3.7,18.5,3.7,36.8S18.6,70,36.9,70c18.3,0,33.2-14.9,33.2-33.2S55.2,3.6,36.9,3.6z M8,32
	c1.5-8.8,7-16.5,14.8-20.8v29.6L8,32z M26.7,27.4v-18c8.5-3.2,18-2.2,25.5,2.5L26.7,27.4z M55.7,14.4c6.7,5.6,10.5,13.8,10.5,22.4
	c0,0.9-0.1,1.9-0.2,3L39.5,24.2L55.7,14.4z M44.9,47.8V65C37,67.2,28.6,66,21.7,61.9L44.9,47.8z M26.7,43V32l9-5.5l9.1,5.4v11.4
	l-8.8,5.3L26.7,43z M32.4,50.8l-14.1,8.6C11.5,53.8,7.6,45.6,7.6,36.8c0-0.2,0-0.4,0-0.6L32.4,50.8z M48.8,63.6V34.2l16.5,9.7
	C63.1,52.6,57,59.9,48.8,63.6z"/>
<g>
	<path class="st1" d="M173.6,156.9c-2.6-3.7-6.1-6.5-10.1-8.1c1.7-1.3,3.2-2.9,4.3-4.8c1.3-2.3,2-4.9,2-7.6
		c0-8.3-6.5-15.1-14.5-15.1c-1.2,0-2.2,1-2.2,2.2s1,2.2,2.2,2.2c5.6,0,10.1,4.8,10.1,10.8c0,6-4.6,10.8-10.1,10.8
		c-1.2,0-2.2,1-2.2,2.2c0,1.2,1,2.2,2.2,2.2c10.1,0,18.4,8.7,18.4,19.4c0,1.2,1,2.2,2.2,2.2c1.2,0,2.2-1,2.2-2.2
		C178,165.8,176.5,161,173.6,156.9z"/>
	<path class="st1" d="M153.5,154.4c-2.1-1.5-4.3-2.6-6.7-3.5c5.1-3.2,8.2-8.8,8.2-14.7c0-9.6-7.9-17.4-17.6-17.4
		c-9.7,0-17.6,7.8-17.6,17.4c0,3.3,0.9,6.5,2.7,9.2c1.4,2.3,3.4,4.2,5.6,5.6c-2.4,0.8-4.7,2-6.8,3.5c-2.3,1.6-4.4,3.6-6.2,6
		c-3.6,4.8-5.6,10.5-5.6,16.5c0,1.2,1,2.2,2.2,2.2c1.2,0,2.2-1,2.2-2.2c0-6.2,2.4-12.1,6.9-16.5c4.4-4.4,10.3-6.8,16.5-6.8
		c0.2,0,0.5,0,0.7,0l0.1,0c6,0.1,11.7,2.5,16,6.8c4.4,4.4,6.9,10.3,6.9,16.5c0,1.2,1,2.2,2.2,2.2s2.2-1,2.2-2.2
		c0-6-1.9-11.7-5.6-16.5C158,158.1,155.9,156.1,153.5,154.4z M150.7,136.2c0,7.2-5.9,13.1-13.2,13.1s-13.2-5.9-13.2-13.1
		c0-7.2,5.9-13.1,13.2-13.1S150.7,129,150.7,136.2z"/>
</g>
</svg>
