<?xml version="1.0" encoding="utf-8"?>
<!-- Generator: Adobe Illustrator 21.0.0, SVG Export Plug-In . SVG Version: 6.00 Build 0)  -->
<svg version="1.1" id="图层_1" xmlns="http://www.w3.org/2000/svg" xmlns:xlink="http://www.w3.org/1999/xlink" x="0px" y="0px"
	 viewBox="0 0 74 74" style="enable-background:new 0 0 74 74;" xml:space="preserve">
<path class="st0" d="M70.3,62.8c0-0.1-1.1-9-5.9-18.3c-4.4-8.4-13-18.8-28.8-20.6l0.7-11.3c0.1-0.8-0.4-1.6-1.1-2
	c-0.7-0.4-1.7-0.3-2.3,0.2L4.8,33.1c-0.5,0.4-0.8,1-0.8,1.6c0,0.6,0.2,1.2,0.6,1.6l25,24.2c0.6,0.6,1.5,0.8,2.3,0.5
	c0.8-0.3,1.3-1,1.4-1.8l0.9-13.3c7.6,0.6,13.7,1.5,18.9,3.9c5.7,2.7,9.9,7.2,13.2,14.2c0.3,0.7,1,1.2,1.8,1.2c0,0,0.1,0,0.1,0
	c0.2,0,0.4,0,0.6-0.1C69.7,64.8,70.4,63.8,70.3,62.8z M32.3,41.4c-0.6,0-1.1,0.1-1.5,0.5c-0.4,0.4-0.7,0.9-0.7,1.5l-0.7,10.8
	l-20-19.3l22.4-17.8l-0.6,8.6c0,0.6,0.1,1.1,0.5,1.5s0.9,0.7,1.5,0.7c12,0.8,21.2,6.9,27.3,18.1c0.9,1.7,1.8,3.6,2.5,5.6
	C55,43.5,44.3,42.2,32.3,41.4z"/>
<path class="st1" d="M-3.5,117.6c-18.5,0-33.5,15-33.5,33.5s15,33.5,33.5,33.5c18.5,0,33.5-15,33.5-33.5S15,117.6-3.5,117.6z
	 M-32.6,146.3c1.5-8.9,7.1-16.7,15-21.1v29.9L-32.6,146.3z M-13.7,141.7v-18.2c8.6-3.2,18.1-2.2,25.8,2.6L-13.7,141.7z M15.6,128.5
	c6.7,5.7,10.6,13.9,10.6,22.7c0,0.9-0.1,1.9-0.2,3l-26.8-15.8L15.6,128.5z M4.6,162.3v17.4c-8,2.3-16.4,1.1-23.4-3.2L4.6,162.3z
	 M-13.7,157.4v-11.2l9.1-5.5l9.2,5.4v11.5l-8.8,5.4L-13.7,157.4z M-8,165.3l-14.3,8.7c-6.9-5.7-10.8-14-10.8-22.8c0-0.2,0-0.4,0-0.6
	L-8,165.3z M8.6,178.2v-29.7l16.7,9.8C23,167.1,16.8,174.5,8.6,178.2z"/>
<g>
	<path class="st1" d="M173.6,156.9c-2.6-3.7-6.1-6.5-10.1-8.1c1.7-1.3,3.2-2.9,4.3-4.8c1.3-2.3,2-4.9,2-7.6
		c0-8.3-6.5-15.1-14.5-15.1c-1.2,0-2.2,1-2.2,2.2s1,2.2,2.2,2.2c5.6,0,10.1,4.8,10.1,10.8c0,6-4.6,10.8-10.1,10.8
		c-1.2,0-2.2,1-2.2,2.2c0,1.2,1,2.2,2.2,2.2c10.1,0,18.4,8.7,18.4,19.4c0,1.2,1,2.2,2.2,2.2c1.2,0,2.2-1,2.2-2.2
		C178,165.8,176.5,161,173.6,156.9z"/>
	<path class="st1" d="M153.5,154.4c-2.1-1.5-4.3-2.6-6.7-3.5c5.1-3.2,8.2-8.8,8.2-14.7c0-9.6-7.9-17.4-17.6-17.4
		c-9.7,0-17.6,7.8-17.6,17.4c0,3.3,0.9,6.5,2.7,9.2c1.4,2.3,3.4,4.2,5.6,5.6c-2.4,0.8-4.7,2-6.8,3.5c-2.3,1.6-4.4,3.6-6.2,6
		c-3.6,4.8-5.6,10.5-5.6,16.5c0,1.2,1,2.2,2.2,2.2c1.2,0,2.2-1,2.2-2.2c0-6.2,2.4-12.1,6.9-16.5c4.4-4.4,10.3-6.8,16.5-6.8
		c0.2,0,0.5,0,0.7,0l0.1,0c6,0.1,11.7,2.5,16,6.8c4.4,4.4,6.9,10.3,6.9,16.5c0,1.2,1,2.2,2.2,2.2s2.2-1,2.2-2.2
		c0-6-1.9-11.7-5.6-16.5C158,158.1,155.9,156.1,153.5,154.4z M150.7,136.2c0,7.2-5.9,13.1-13.2,13.1s-13.2-5.9-13.2-13.1
		c0-7.2,5.9-13.1,13.2-13.1S150.7,129,150.7,136.2z"/>
</g>
</svg>
