<?xml version="1.0" encoding="utf-8"?>
<!-- Generator: Adobe Illustrator 21.0.0, SVG Export Plug-In . SVG Version: 6.00 Build 0)  -->
<svg version="1.1" id="图层_1" xmlns="http://www.w3.org/2000/svg" xmlns:xlink="http://www.w3.org/1999/xlink" x="0px" y="0px"
	 viewBox="0 0 74 74" style="enable-background:new 0 0 74 74;" xml:space="preserve">
<g>
	<path class="st0" d="M36.1,27.3c2,0,3.4-1.4,3.4-3.4c0-2-1.4-3.4-3.4-3.4c-1.9,0-4,1.3-4,3.4S34.2,27.3,36.1,27.3z"/>
	<path class="st0" d="M22.3,26.4c0.6-0.6,1-1.5,1-2.5c0-2-1.4-3.4-3.4-3.4c-1.9,0-4,1.3-4,3.4c0,2.1,2.2,3.4,4.1,3.4
		C20.9,27.3,21.7,27,22.3,26.4z"/>
	<path class="st0" d="M71.4,45.4c0-4.6-2-9-5.7-12.4c-3.5-3.3-8.2-5.4-13.2-5.9c-2.2-10-12.9-17.5-24.9-17.5
		c-13.7,0-24.8,9.6-24.8,21.3c0,6.2,3.1,11.9,9,16.2l-2,5.9c-0.2,0.6,0,1.2,0.5,1.7c0.5,0.4,1.2,0.5,1.7,0.2l7.6-3.8l1.1,0.2
		c2.3,0.5,4.3,0.9,6.8,0.9c0.4,0,1.9-0.1,2.7-0.3c3.1,7.2,11.1,11.9,19.9,11.9c2.2,0,4.5-0.5,6.7-1.1l5.8,3.2
		c0.3,0.1,0.5,0.2,0.7,0.2c0.4,0,0.8-0.1,1-0.4c0.5-0.4,0.7-1,0.5-1.7l-1.5-4.8C68.6,55.2,71.4,50.3,71.4,45.4z M59.7,58.6l0.6,2
		l-2.9-1.6c-0.3-0.1-0.5-0.2-0.7-0.2c-0.1,0-0.3,0-0.4,0L56.1,59c-2,0.5-4.1,1-6.1,1c-9.5,0-17.3-6.5-17.3-14.5
		c0-8,7.8-14.5,17.3-14.5c9.3,0,17.2,6.7,17.2,14.5c0,4-2.5,8.1-7.1,11.5C59.7,57.3,59.5,58,59.7,58.6z M15.4,46.5
		c0.2-0.6,0-1.3-0.6-1.7C9.3,41,6.5,36.3,6.5,31c0-9.7,9.4-17.6,20.9-17.6c9.9,0,18.8,5.9,20.9,13.8c-10.9,0.4-19.7,8.3-19.7,17.7
		c0,1.2,0.1,2.3,0.4,3.5c-0.6,0-1.1,0.1-1.7,0.1c-2.3,0-4.2-0.4-6.3-0.8l-1.3-0.2c-0.4-0.1-0.7,0-1,0.1l-4.6,2.3L15.4,46.5z"/>
	<path class="st0" d="M43.7,37.4c-1.4,0-2.8,1.4-2.8,2.8s1.4,2.8,2.8,2.8c2.1,0,3.4-1.5,3.4-2.8S45.8,37.4,43.7,37.4z"/>
	<path class="st0" d="M56.4,37.4c-1.4,0-2.8,1.4-2.8,2.8s1.4,2.8,2.8,2.8c2.1,0,3.4-1.5,3.4-2.8S58.5,37.4,56.4,37.4z"/>
</g>
</svg>
