<?xml version="1.0" encoding="utf-8"?>
<!-- Generator: Adobe Illustrator 22.1.0, SVG Export Plug-In . SVG Version: 6.00 Build 0)  -->
<svg version="1.1" id="图层_1" xmlns="http://www.w3.org/2000/svg" xmlns:xlink="http://www.w3.org/1999/xlink" x="0px" y="0px"
	 viewBox="0 0 74 74" style="enable-background:new 0 0 74 74;" xml:space="preserve">
<path class="st0" d="M51,28.9c0.3,0,0.6,0.1,0.9,0.1l0,0c-0.3,0-0.5-0.1-0.8-0.1L51,28.9z M50.9,28.9l0.1,0l0.1,0c0.3,0,0.5,0,0.8,0
	C52.6,27,53,25,53,22.9c-0.1-10-8.3-18-18.3-17.9C25,5.1,17,13.1,16.9,22.9c0,6.6,3.6,12.3,8.9,15.5C14.1,42.1,5.8,52.7,5,65h4
	c1-12.1,10.1-22,22.1-23.8c0.8-1.6,1.7-3.1,2.9-4.4c-7.3-0.5-13.1-6.5-13.1-13.9c0-7.7,6.3-14,14-14c7.7,0,14,6.3,14,14
	c0,2.2-0.6,4.4-1.6,6.3c0.2,0,0.3,0,0.5,0c0.9-0.1,1.8-0.2,2.7-0.2C50.7,28.9,50.8,28.9,50.9,28.9z M50.6,29c0.1,0,0.3-0.1,0.4-0.1
	l-0.1,0C50.8,28.9,50.7,29,50.6,29z M60.9,48.3l-2.8-2.9l-8.9,8.8l-4.7-4.7l-2.8,2.9l7.6,7.5C49.2,59.9,60.9,48.3,60.9,48.3z
	 M51.1,32.9c-10-0.1-18.1,7.9-18.3,17.9c-0.1,10,7.9,18.1,17.9,18.3c0.1,0,0.3,0,0.4,0c10-0.1,18-8.3,17.9-18.3
	C68.9,41,60.9,33,51.1,32.9z M51.1,36.9c7.8,0,14,6.3,14,14c0,7.8-6.3,14-14,14c-7.8,0-14-6.3-14-14C37.1,43.2,43.4,36.9,51.1,36.9z
	"/>
</svg>
