<?xml version="1.0" encoding="utf-8"?>
<!-- Generator: Adobe Illustrator 21.0.0, SVG Export Plug-In . SVG Version: 6.00 Build 0)  -->
<svg version="1.1" id="图层_1" xmlns="http://www.w3.org/2000/svg" xmlns:xlink="http://www.w3.org/1999/xlink" x="0px" y="0px"
	 viewBox="0 0 62 60" style="enable-background:new 0 0 62 60;" xml:space="preserve">
<g>
	<path class="st0" d="M3.7,22.3L3.7,22.3c0.6,0,1.1-0.2,1.5-0.6c0.4-0.4,0.6-1,0.6-1.5v-14c0-0.7,0.6-1.3,1.3-1.3h14
		c1.2,0,2.2-1,2.2-2.2s-1-2.2-2.2-2.2h-14C4,0.5,1.5,3,1.5,6.1v14C1.6,21.3,2.5,22.3,3.7,22.3z"/>
	<path class="st0" d="M40.8,4.9h14c0.4,0,0.7,0.1,0.9,0.4c0.2,0.2,0.4,0.6,0.4,0.9v14c0,0.8,0.4,1.5,1.1,1.9
		c0.3,0.2,0.7,0.3,1.1,0.3c0.4,0,0.7-0.1,1.1-0.3c0.7-0.4,1.1-1.1,1.1-1.9v-14c0-1.5-0.6-3-1.6-4c-1.1-1.1-2.5-1.7-4-1.6h-14
		c-1.2,0-2.2,1-2.2,2.2C38.6,3.9,39.6,4.9,40.8,4.9z"/>
	<path class="st0" d="M21.1,55.1h-1.2l0.1,0.1H7.2c-0.4,0-0.7-0.1-0.9-0.4c-0.2-0.2-0.4-0.6-0.4-0.9v-14c0-1.2-1-2.2-2.2-2.2
		s-2.2,1-2.2,2.2v14c0,3.1,2.5,5.6,5.6,5.6h14c0.8,0,1.5-0.4,1.9-1.1c0.4-0.7,0.4-1.5,0-2.2C22.6,55.5,21.9,55.1,21.1,55.1z"/>
	<path class="st0" d="M15.7,18c-1.2,0-2.2,1-2.2,2.2s1,2.2,2.2,2.2h30.5c1.2,0,2.2-1,2.2-2.2s-1-2.2-2.2-2.2H15.7z"/>
	<path class="st0" d="M59.3,27.9H2.6c-1.2,0-2.2,1-2.2,2.2s1,2.2,2.2,2.2h56.7c1.2,0,2.2-1,2.2-2.2S60.5,27.9,59.3,27.9z"/>
	<path class="st0" d="M59.8,38.4c-0.4-0.4-1-0.7-1.5-0.7H57l0.3,0.3c-0.2,0.1-0.4,0.2-0.6,0.4c-0.4,0.4-0.6,1-0.6,1.5v14
		c0,0.4-0.1,0.7-0.4,0.9c-0.2,0.2-0.6,0.4-0.9,0.4h-14c-1.2,0-2.2,1-2.2,2.2s1,2.2,2.2,2.2h14c1.5,0,2.9-0.6,3.9-1.6
		c1.1-1.1,1.6-2.5,1.6-3.9v-14C60.4,39.4,60.2,38.8,59.8,38.4z"/>
	<path class="st0" d="M46.3,42c1.2,0,2.2-1,2.2-2.2s-1-2.2-2.2-2.2H15.8c-1.2,0-2.2,1-2.2,2.2s1,2.2,2.2,2.2H46.3z"/>
</g>
</svg>
