<?xml version="1.0" encoding="utf-8"?>
<!-- Generator: Adobe Illustrator 21.0.0, SVG Export Plug-In . SVG Version: 6.00 Build 0)  -->
<svg version="1.1" id="图层_1" xmlns="http://www.w3.org/2000/svg" xmlns:xlink="http://www.w3.org/1999/xlink" x="0px" y="0px"
	 viewBox="0 0 26 26" style="enable-background:new 0 0 26 26;" xml:space="preserve">
<style type="text/css">
	.st0{clip-path:url(#SVGID_2_);fill:#4391FF;}
	.st1{clip-path:url(#SVGID_4_);fill:#4391FF;}
</style>
<g>
	<g>
		<defs>
			<path id="SVGID_1_" d="M6.9,2h13.8c0.4,0,0.8,0.4,0.8,0.8v20.3c0,0.4-0.4,0.8-0.8,0.8H6.9c-1.3,0-2.4-1.1-2.4-2.4V4.5
				C4.4,3.1,5.5,2,6.9,2z M10.1,3.7v9.1l1.8-1.2c0.3-0.2,0.6-0.2,0.9,0l1.8,1.2V3.7H10.1z M8.5,3.7H6.9C6.4,3.7,6.1,4,6.1,4.5v17.1
				c0,0.4,0.4,0.8,0.8,0.8h13V3.7h-3.7v10.6c0,0.6-0.7,1-1.3,0.7l-2.6-1.7l-2.6,1.7c-0.5,0.4-1.3,0-1.3-0.7V3.7z"/>
		</defs>
		<clipPath id="SVGID_2_">
			<use xlink:href="#SVGID_1_"  style="overflow:visible;"/>
		</clipPath>
		<rect x="-0.6" y="-3" class="st0" width="27.1" height="31.9"/>
	</g>
	<g>
		<defs>
			<path id="SVGID_3_" d="M6.9,19.1h13.8c0.4,0,0.8,0.4,0.8,0.8v3.2c0,0.4-0.4,0.8-0.8,0.8H6.9c-1.3,0-2.4-1.1-2.4-2.4
				S5.5,19.1,6.9,19.1z M19.9,20.7h-13c-0.4,0-0.8,0.4-0.8,0.8s0.4,0.8,0.8,0.8h13V20.7z"/>
		</defs>
		<clipPath id="SVGID_4_">
			<use xlink:href="#SVGID_3_"  style="overflow:visible;"/>
		</clipPath>
		<rect x="-0.6" y="14.1" class="st1" width="27.1" height="14.9"/>
	</g>
</g>
</svg>
