<?xml version="1.0" encoding="UTF-8"?>
<svg width="10px" height="10px" viewBox="0 0 10 10" version="1.1" xmlns="http://www.w3.org/2000/svg" xmlns:xlink="http://www.w3.org/1999/xlink">
    <!-- Generator: Sketch 52.5 (67469) - http://www.bohemiancoding.com/sketch -->
    <title>Group 14</title>
    <desc>Created with Sketch.</desc>
    <g id="Page-1" stroke="none" stroke-width="1" fill="none" fill-rule="evenodd">
        <g id="素材库-小程序" transform="translate(-538.000000, -502.000000)" fill-rule="nonzero">
            <g id="小程序-copy" transform="translate(493.000000, 239.000000)">
                <g id="Group-7">
                    <g id="Group-6" transform="translate(32.000000, 8.000000)">
                        <g id="Group-13" transform="translate(9.000000, 252.000000)">
                            <g id="Group-14">
                                <rect id="Rectangle" x="0" y="0" width="18" height="18"></rect>
                                <g id="Group-12" transform="translate(8.559363, 8.368228) rotate(45.000000) translate(-8.559363, -8.368228) translate(6.059363, 2.868228)" stroke="#1271CC" stroke-linecap="round">
                                    <g id="Group-11" transform="translate(0.964286, 0.321429)">
                                        <path d="M2.0306443,4.82142857 L3.45056201,6.40035869 C4.16816717,7.19832632 4.1030205,8.42694082 3.30505286,9.14454598 C2.94831017,9.46536148 2.48549284,9.64285714 2.00571379,9.64285714 C0.940736039,9.64285714 0.0774009921,8.7795221 0.0774009921,7.71454434 C0.0774009921,7.23464838 0.256344303,6.77199632 0.579262533,6.41699779" id="Path"></path>
                                        <path d="M2.0306443,4.82142857 L0.579262533,3.22585935 C0.256344303,2.87086082 0.0774009921,2.40820876 0.0774009921,1.9283128 C0.0774009921,0.863335047 0.940736039,5.68434189e-13 2.00571379,5.68434189e-13 C2.48549284,5.68434189e-13 2.94831017,0.177495659 3.30505286,0.498311165 C4.1030205,1.21591632 4.16816717,2.44453082 3.45056201,3.24249846" id="Path"></path>
                                    </g>
                                </g>
                            </g>
                        </g>
                    </g>
                </g>
            </g>
        </g>
    </g>
</svg>