<?xml version="1.0" encoding="UTF-8"?>
<svg width="18px" height="18px" viewBox="0 0 18 18" version="1.1" xmlns="http://www.w3.org/2000/svg" xmlns:xlink="http://www.w3.org/1999/xlink">
    <!-- Generator: Sketch 52.4 (67378) - http://www.bohemiancoding.com/sketch -->
    <title>icon_xiaochegnxu</title>
    <desc>Created with Sketch.</desc>
    <g id="icon_xiaochegnxu" stroke="none" stroke-width="1" fill="none" fill-rule="evenodd">
        <rect id="矩形" fill-rule="nonzero" x="0" y="0" width="18" height="18"></rect>
        <g>
            <g id="icon_moments"></g>
            <path d="M12.0126402,2.8125 C14.0731571,2.8125 15.75,4.29951526 15.75,6.14123291 C15.75,6.71419354 15.5794858,7.2734639 15.2668422,7.77825159 C14.797945,8.5149059 14.0447722,9.060617 13.1352947,9.31981503 C12.8936816,9.38800436 12.7089749,9.41531939 12.5384607,9.41531939 C12.1405088,9.41531939 11.8279335,9.11518156 11.8279335,8.73322964 C11.8279335,8.35121222 12.1405088,8.05107439 12.5384607,8.05107439 C12.5668456,8.05107439 12.6236837,8.05107439 12.6947825,8.02382486 C13.3058089,7.86013118 13.7889667,7.51905355 14.0589647,7.06889593 C14.2436714,6.78238287 14.3289626,6.46862027 14.3289626,6.14123291 C14.3289626,5.0634846 13.2916164,4.17676138 12.0268326,4.17676138 C11.5863204,4.17676138 11.1600007,4.2858905 10.7763266,4.49052397 C10.108445,4.85885113 9.71051016,5.47276793 9.71051016,6.14123291 L9.71051016,11.8572636 C9.71051016,13.0168096 9.04264562,14.0809331 7.93420065,14.6811433 C7.3373496,15.0085962 6.66948507,15.1722898 5.98735984,15.1722898 C3.92684286,15.1722898 2.25,13.685291 2.25,11.8436388 C2.25,11.2706618 2.42051425,10.7113259 2.73315782,10.2065546 C3.20212318,9.46988395 3.95529602,8.92417285 4.86477358,8.66497481 C5.12051084,8.59678549 5.29102509,8.56947046 5.46160757,8.56947046 C5.85947415,8.56947046 6.17213478,8.86960829 6.17213478,9.25162571 C6.17213478,9.633594 5.85947415,9.93373183 5.46160757,9.93373183 C5.43315441,9.93373183 5.37631633,9.93373183 5.30528578,9.96098136 C4.6941911,10.1383653 4.21103327,10.4793774 3.94103532,10.9159594 C3.75632861,11.202407 3.67103737,11.5161696 3.67103737,11.8436388 C3.67103737,12.9213052 4.70845179,13.8081103 5.98735984,13.8081103 C6.42794027,13.8081103 6.85419178,13.6989157 7.23793413,13.4942659 C7.90579867,13.1259387 8.30368231,12.5121038 8.30368231,11.8436388 L8.30368231,6.14123291 C8.30368231,4.98160501 8.97161507,3.91756334 10.0799918,3.31728768 C10.6626504,2.97625918 11.3305149,2.8125 12.0126402,2.8125 Z" fill="#4391FF"></path>
        </g>
    </g>
</svg>