<?xml version="1.0" encoding="utf-8"?>
<!-- Generator: Adobe Illustrator 21.0.0, SVG Export Plug-In . SVG Version: 6.00 Build 0)  -->
<svg version="1.1" id="图层_1" xmlns="http://www.w3.org/2000/svg" xmlns:xlink="http://www.w3.org/1999/xlink" x="0px" y="0px"
	 viewBox="0 0 22 22" style="enable-background:new 0 0 22 22;" xml:space="preserve">
<style type="text/css">
	.st0{clip-path:url(#SVGID_2_);}
	.st1{clip-path:url(#SVGID_4_);fill:#FFFFFF;}
	.st2{clip-path:url(#SVGID_6_);}
	.st3{clip-path:url(#SVGID_8_);fill:#2157CC;}
	.st4{clip-path:url(#SVGID_10_);}
	.st5{clip-path:url(#SVGID_12_);fill:#DF202A;}
	.st6{clip-path:url(#SVGID_14_);}
	.st7{clip-path:url(#SVGID_16_);fill:#FFFFFF;}
	.st8{clip-path:url(#SVGID_18_);}
	.st9{clip-path:url(#SVGID_20_);fill:#2378F1;}
	.st10{clip-path:url(#SVGID_22_);}
	.st11{clip-path:url(#SVGID_24_);fill:#F5222D;}
	.st12{clip-path:url(#SVGID_26_);}
	.st13{clip-path:url(#SVGID_28_);fill:#FFDA35;}
	.st14{clip-path:url(#SVGID_30_);}
	.st15{clip-path:url(#SVGID_32_);fill:#FABA00;}
	.st16{clip-path:url(#SVGID_34_);}
	.st17{clip-path:url(#SVGID_36_);fill:#FFD81F;}
</style>
<g>
	<g>
		<defs>
			<polygon id="SVGID_1_" points="12.7,2 10.1,7.1 15,8.8 18.5,2 			"/>
		</defs>
		<clipPath id="SVGID_2_">
			<use xlink:href="#SVGID_1_"  style="overflow:visible;"/>
		</clipPath>
		<g class="st0">
			<defs>
				<rect id="SVGID_3_" x="0.3" width="22" height="22"/>
			</defs>
			<clipPath id="SVGID_4_">
				<use xlink:href="#SVGID_3_"  style="overflow:visible;"/>
			</clipPath>
			<rect x="5.1" y="-3" class="st1" width="18.4" height="16.8"/>
		</g>
	</g>
	<g>
		<defs>
			<polygon id="SVGID_5_" points="12.7,2 10.1,7.1 11.6,7.6 14.4,2 			"/>
		</defs>
		<clipPath id="SVGID_6_">
			<use xlink:href="#SVGID_5_"  style="overflow:visible;"/>
		</clipPath>
		<g class="st2">
			<defs>
				<rect id="SVGID_7_" x="0.3" width="22" height="22"/>
			</defs>
			<clipPath id="SVGID_8_">
				<use xlink:href="#SVGID_7_"  style="overflow:visible;"/>
			</clipPath>
			<rect x="5.1" y="-3" class="st3" width="14.4" height="15.6"/>
		</g>
	</g>
	<g>
		<defs>
			<polygon id="SVGID_9_" points="13.4,8.2 15,8.8 18.5,2 16.8,2 			"/>
		</defs>
		<clipPath id="SVGID_10_">
			<use xlink:href="#SVGID_9_"  style="overflow:visible;"/>
		</clipPath>
		<g class="st4">
			<defs>
				<rect id="SVGID_11_" x="0.3" width="22" height="22"/>
			</defs>
			<clipPath id="SVGID_12_">
				<use xlink:href="#SVGID_11_"  style="overflow:visible;"/>
			</clipPath>
			<rect x="8.4" y="-3" class="st5" width="15.1" height="16.8"/>
		</g>
	</g>
	<g>
		<defs>
			<polygon id="SVGID_13_" points="9.4,2 12,7.1 7.1,8.8 3.6,2 			"/>
		</defs>
		<clipPath id="SVGID_14_">
			<use xlink:href="#SVGID_13_"  style="overflow:visible;"/>
		</clipPath>
		<g class="st6">
			<defs>
				<rect id="SVGID_15_" x="0.3" width="22" height="22"/>
			</defs>
			<clipPath id="SVGID_16_">
				<use xlink:href="#SVGID_15_"  style="overflow:visible;"/>
			</clipPath>
			<rect x="-1.4" y="-3" class="st7" width="18.4" height="16.8"/>
		</g>
	</g>
	<g>
		<defs>
			<polygon id="SVGID_17_" points="9.4,2 12,7.1 10.5,7.6 7.7,2 			"/>
		</defs>
		<clipPath id="SVGID_18_">
			<use xlink:href="#SVGID_17_"  style="overflow:visible;"/>
		</clipPath>
		<g class="st8">
			<defs>
				<rect id="SVGID_19_" x="0.3" width="22" height="22"/>
			</defs>
			<clipPath id="SVGID_20_">
				<use xlink:href="#SVGID_19_"  style="overflow:visible;"/>
			</clipPath>
			<rect x="2.7" y="-3" class="st9" width="14.4" height="15.6"/>
		</g>
	</g>
	<g>
		<defs>
			<polygon id="SVGID_21_" points="8.6,8.2 7.1,8.8 3.6,2 5.3,2 			"/>
		</defs>
		<clipPath id="SVGID_22_">
			<use xlink:href="#SVGID_21_"  style="overflow:visible;"/>
		</clipPath>
		<g class="st10">
			<defs>
				<rect id="SVGID_23_" x="0.3" width="22" height="22"/>
			</defs>
			<clipPath id="SVGID_24_">
				<use xlink:href="#SVGID_23_"  style="overflow:visible;"/>
			</clipPath>
			<rect x="-1.4" y="-3" class="st11" width="15.1" height="16.8"/>
		</g>
	</g>
	<g>
		<defs>
			<polygon id="SVGID_25_" points="5.7,6.9 8.9,7.1 11,4.8 13.1,7.1 16.4,6.9 16.3,10.1 18.7,12.3 16.3,14.4 16.4,17.8 13.2,17.6 
				11,20 8.7,17.6 5.6,17.8 5.7,14.4 3.3,12.3 5.7,10.1 5.6,6.9 			"/>
		</defs>
		<clipPath id="SVGID_26_">
			<use xlink:href="#SVGID_25_"  style="overflow:visible;"/>
		</clipPath>
		<g class="st12">
			<defs>
				<rect id="SVGID_27_" x="0.3" width="22" height="22"/>
			</defs>
			<clipPath id="SVGID_28_">
				<use xlink:href="#SVGID_27_"  style="overflow:visible;"/>
			</clipPath>
			<rect x="-1.7" y="-0.2" class="st13" width="25.4" height="25.2"/>
		</g>
	</g>
	<g>
		<defs>
			<path id="SVGID_29_" d="M7,12.3c0,1.5,0.8,2.8,2,3.5c1.3,0.7,2.8,0.7,4.1,0c1.3-0.7,2-2.1,2-3.5s-0.8-2.8-2-3.5
				C11.8,8,10.3,8,9,8.7C7.7,9.5,7,10.8,7,12.3z"/>
		</defs>
		<clipPath id="SVGID_30_">
			<use xlink:href="#SVGID_29_"  style="overflow:visible;"/>
		</clipPath>
		<g class="st14">
			<defs>
				<rect id="SVGID_31_" x="0.3" width="22" height="22"/>
			</defs>
			<clipPath id="SVGID_32_">
				<use xlink:href="#SVGID_31_"  style="overflow:visible;"/>
			</clipPath>
			<rect x="2" y="3.2" class="st15" width="18.2" height="18.2"/>
		</g>
	</g>
	<g>
		<defs>
			<path id="SVGID_33_" d="M12,14.1l-1-0.6l-1,0.6c-0.1,0-0.1,0-0.2,0c-0.1,0-0.1-0.1-0.1-0.2l0.2-1.1L9.3,12
				c-0.1-0.1-0.1-0.1-0.1-0.2s0.1-0.1,0.1-0.1l1.1-0.1l0.4-1c0-0.1,0.1-0.1,0.1-0.1c0.1,0,0.1,0.1,0.1,0.1l0.4,1l1.1,0.1
				c0.1,0,0.1,0.1,0.1,0.1c0,0.1,0,0.1,0,0.2L12,12.8l0.2,1.1c0,0.1,0,0.1-0.1,0.2C12.1,14.1,12.1,14.1,12,14.1z"/>
		</defs>
		<clipPath id="SVGID_34_">
			<use xlink:href="#SVGID_33_"  style="overflow:visible;"/>
		</clipPath>
		<g class="st16">
			<defs>
				<rect id="SVGID_35_" x="0.3" width="22" height="22"/>
			</defs>
			<clipPath id="SVGID_36_">
				<use xlink:href="#SVGID_35_"  style="overflow:visible;"/>
			</clipPath>
			<rect x="4.2" y="5.5" class="st17" width="13.7" height="13.6"/>
		</g>
	</g>
</g>
</svg>
