<?xml version="1.0" encoding="utf-8"?>
<!-- Generator: Adobe Illustrator 21.0.0, SVG Export Plug-In . SVG Version: 6.00 Build 0)  -->
<svg version="1.1" id="图层_1" xmlns="http://www.w3.org/2000/svg" xmlns:xlink="http://www.w3.org/1999/xlink" x="0px" y="0px"
	 viewBox="0 0 24 24" style="enable-background:new 0 0 24 24;" xml:space="preserve">
<style type="text/css">
	.st0{enable-background:new    ;}
	.st1{clip-path:url(#SVGID_2_);}
	.st2{clip-path:url(#SVGID_4_);}
	.st3{clip-path:url(#SVGID_6_);fill:#FFAA16;}
</style>
<g class="st0">
	<g>
		<defs>
			<rect id="SVGID_1_" x="3" y="4" width="18" height="16"/>
		</defs>
		<clipPath id="SVGID_2_">
			<use xlink:href="#SVGID_1_"  style="overflow:visible;"/>
		</clipPath>
		<g class="st1">
			<defs>
				<path id="SVGID_3_" d="M5.6,11.2c-0.2,0-0.4,0.2-0.4,0.4V12c0,0.2,0.2,0.4,0.4,0.4h2.2c0.2,0,0.4-0.2,0.4-0.4v-0.4
					c0-0.2-0.2-0.4-0.4-0.4H5.6z M14.2,9V4.9h4.5c0.8,0,1.5,0.7,1.5,1.5V9H14.2z M9.8,10.1v4.6c0,0.1,0,0.2,0.1,0.3
					c0.1,0.1,0.4,0.2,0.5,0l1.6-1.6l1.6,1.6c0.1,0.1,0.2,0.1,0.3,0.1c0.2,0,0.4-0.2,0.4-0.4v-4.6h6v8.2c0,0.8-0.7,1.5-1.5,1.5H5.2
					c-0.8,0-1.5-0.7-1.5-1.5v-8.2H9.8z M9.8,9h-6V6.4c0-0.8,0.7-1.5,1.5-1.5h4.5V9z"/>
			</defs>
			<clipPath id="SVGID_4_">
				<use xlink:href="#SVGID_3_"  style="overflow:visible;"/>
			</clipPath>
			<g class="st2">
				<defs>
					<rect id="SVGID_5_" x="-11" y="-11" width="46" height="46"/>
				</defs>
				<clipPath id="SVGID_6_">
					<use xlink:href="#SVGID_5_"  style="overflow:visible;"/>
				</clipPath>
				<rect x="-1.2" y="-0.1" class="st3" width="26.5" height="25"/>
			</g>
		</g>
	</g>
</g>
</svg>
