<?xml version="1.0" encoding="utf-8"?>
<!-- Generator: Adobe Illustrator 21.0.0, SVG Export Plug-In . SVG Version: 6.00 Build 0)  -->
<svg version="1.1" id="图层_1" xmlns="http://www.w3.org/2000/svg" xmlns:xlink="http://www.w3.org/1999/xlink" x="0px" y="0px"
	 viewBox="0 0 24 24" style="enable-background:new 0 0 24 24;" xml:space="preserve">
<style type="text/css">
	.st0{enable-background:new    ;}
	.st1{clip-path:url(#SVGID_2_);}
	.st2{clip-path:url(#SVGID_4_);}
	.st3{clip-path:url(#SVGID_6_);fill:#4391FF;}
	.st4{fill:none;}
</style>
<g class="st0">
	<g>
		<defs>
			<rect id="SVGID_1_" x="3" y="3" width="18" height="19"/>
		</defs>
		<clipPath id="SVGID_2_">
			<use xlink:href="#SVGID_1_"  style="overflow:visible;"/>
		</clipPath>
		<g class="st1">
			<defs>
				<path id="SVGID_3_" d="M9.7,14L9,13.2l-0.4,1.1L9.7,14z M11,15.2C10.9,15.2,10.9,15.2,11,15.2l-0.2,0.1l0,0
					c-0.1,0-0.1,0-0.2,0.1L7.5,16c-0.6,0.1-1.1-0.5-0.9-1l1.2-3c0-0.1,0.1-0.1,0.1-0.2l0,0L8,11.8c0,0,0,0,0,0l8.5-7.1
					c1-0.8,2.4-0.7,3.2,0.3c0.8,1,0.7,2.4-0.3,3.2L11,15.2z M17.8,7.5L18.5,7c0.3-0.3,0.4-0.7,0.1-1.1c-0.3-0.3-0.7-0.4-1.1-0.1
					l-0.6,0.5L17.8,7.5z M16.7,8.5l-1-1.1L10,12.1l1,1.1L16.7,8.5z M14.6,14.5h2.2c0.2,0,0.4,0.2,0.4,0.4v0.8c0,0.2-0.2,0.4-0.4,0.4
					h-2.2c-0.2,0-0.4-0.2-0.4-0.4v-0.8C14.2,14.7,14.4,14.5,14.6,14.5z M7.1,17.5h9.8c0.2,0,0.4,0.2,0.4,0.4v0.8
					c0,0.2-0.2,0.4-0.4,0.4H7.1c-0.2,0-0.4-0.2-0.4-0.4v-0.8C6.8,17.7,6.9,17.5,7.1,17.5z M18.8,12.2c0-0.4,0.3-0.4,0.7-0.4
					c0.4,0,0.8,0,0.8,0.4v7.5c0,1.2-1,2.2-2.2,2.2H6c-1.2,0-2.2-1-2.2-2.2V6.2C3.8,5,4.8,4,6,4h6c0.4,0,0.4,0.3,0.4,0.8
					s0,0.8-0.4,0.8H6c-0.4,0-0.8,0.3-0.8,0.8v13.5c0,0.4,0.3,0.8,0.8,0.8h12c0.4,0,0.8-0.3,0.8-0.8V12.2z"/>
			</defs>
			<clipPath id="SVGID_4_">
				<use xlink:href="#SVGID_3_"  style="overflow:visible;"/>
			</clipPath>
			<g class="st2">
				<defs>
					<rect id="SVGID_5_" x="-14" y="-14" width="52" height="54"/>
				</defs>
				<clipPath id="SVGID_6_">
					<use xlink:href="#SVGID_5_"  style="overflow:visible;"/>
				</clipPath>
				<rect x="-1.2" y="-1" class="st3" width="26.5" height="28"/>
			</g>
		</g>
	</g>
</g>
<rect x="-398" y="-298" class="st4" width="1360" height="768"/>
</svg>
