<?xml version="1.0" encoding="utf-8"?>
<!-- Generator: Adobe Illustrator 21.0.0, SVG Export Plug-In . SVG Version: 6.00 Build 0)  -->
<svg version="1.1" id="图层_1" xmlns="http://www.w3.org/2000/svg" xmlns:xlink="http://www.w3.org/1999/xlink" x="0px" y="0px"
	 viewBox="0 0 24 24" style="enable-background:new 0 0 24 24;" xml:space="preserve">
<style type="text/css">
	.st0{enable-background:new    ;}
	.st1{clip-path:url(#SVGID_2_);}
	.st2{clip-path:url(#SVGID_4_);}
	.st3{clip-path:url(#SVGID_6_);fill:#4391FF;}
	.st4{fill:none;}
</style>
<g class="st0">
	<g>
		<defs>
			<rect id="SVGID_1_" x="2" y="4" width="20" height="16"/>
		</defs>
		<clipPath id="SVGID_2_">
			<use xlink:href="#SVGID_1_"  style="overflow:visible;"/>
		</clipPath>
		<g class="st1">
			<defs>
				<path id="SVGID_3_" d="M16.9,19.7c-1,0-1.9-0.8-1.9-1.9s0.8-1.9,1.9-1.9s1.9,0.8,1.9,1.9S17.9,19.7,16.9,19.7z M7.1,19.7
					c-1,0-1.9-0.8-1.9-1.9s0.8-1.9,1.9-1.9S9,16.8,9,17.8S8.2,19.7,7.1,19.7z M6.7,10.4l-1,1.1c-0.1,0.2-0.1,0.4,0,0.5
					c0.1,0.1,0.2,0.1,0.2,0.1h2.3c0.2,0,0.4-0.2,0.4-0.4v-1.1c0-0.2-0.2-0.4-0.4-0.4H6.9C6.8,10.3,6.7,10.4,6.7,10.4z M14.3,17.8
					H9.7c0,0,0,0,0,0c0-1.4-1.2-2.6-2.6-2.6s-2.6,1.2-2.6,2.6c0,0,0,0,0,0H3c-0.3,0-0.6-0.3-0.6-0.6v-5.7c0-0.1,0-0.3,0.1-0.4l3-3.5
					C5.6,7.6,5.8,7.5,6,7.5h2V5.1c0-0.3,0.3-0.6,0.6-0.6H21c0.3,0,0.6,0.3,0.6,0.6v12.2c0,0.3-0.3,0.6-0.6,0.6h-1.5c0,0,0,0,0,0
					c0-1.4-1.2-2.6-2.6-2.6S14.2,16.4,14.3,17.8C14.2,17.8,14.3,17.8,14.3,17.8z"/>
			</defs>
			<clipPath id="SVGID_4_">
				<use xlink:href="#SVGID_3_"  style="overflow:visible;"/>
			</clipPath>
			<g class="st2">
				<defs>
					<rect id="SVGID_5_" x="-14" y="-15" width="52" height="54"/>
				</defs>
				<clipPath id="SVGID_6_">
					<use xlink:href="#SVGID_5_"  style="overflow:visible;"/>
				</clipPath>
				<rect x="-2.6" y="-0.5" class="st3" width="29.1" height="25.2"/>
			</g>
		</g>
	</g>
</g>
<rect x="-779" y="-358" class="st4" width="1360" height="768"/>
</svg>
