<?xml version="1.0" encoding="utf-8"?>
<!-- Generator: Adobe Illustrator 21.0.0, SVG Export Plug-In . SVG Version: 6.00 Build 0)  -->
<svg version="1.1" id="图层_1" xmlns="http://www.w3.org/2000/svg" xmlns:xlink="http://www.w3.org/1999/xlink" x="0px" y="0px"
	 viewBox="0 0 24 24" style="enable-background:new 0 0 24 24;" xml:space="preserve">
<style type="text/css">
	.st0{enable-background:new    ;}
	.st1{clip-path:url(#SVGID_4_);}
	.st2{clip-path:url(#SVGID_6_);}
	.st3{clip-path:url(#SVGID_8_);fill:#9EA8B1;}
</style>
<g>
	<defs>
		<rect id="SVGID_1_" x="-2" y="-4" width="29" height="30"/>
	</defs>
	<clipPath id="SVGID_2_">
		<use xlink:href="#SVGID_1_"  style="overflow:visible;"/>
	</clipPath>
</g>
<g class="st0">
	<g>
		<defs>
			<rect id="SVGID_3_" x="3" y="2" width="19" height="20"/>
		</defs>
		<clipPath id="SVGID_4_">
			<use xlink:href="#SVGID_3_"  style="overflow:visible;"/>
		</clipPath>
		<g class="st1">
			<defs>
				<path id="SVGID_5_" d="M3.2,20.2l0-8.7c0-0.3,0.2-0.6,0.5-0.7L9.7,9c0.3-0.1,0.6,0,0.8,0.2l4.7,4.7c0.2,0.2,0.3,0.5,0.2,0.7
					l-1.8,6c-0.1,0.3-0.4,0.5-0.7,0.5L4,21L8.1,17c0.5,0.2,1.2,0.1,1.6-0.3c0.6-0.6,0.6-1.5,0-2.1c-0.6-0.6-1.5-0.6-2.1,0
					C7.1,15,7,15.7,7.2,16.2L3.2,20.2z M14.1,3.3l6.9,6.9c0.3,0.3,0.3,0.8,0,1l-3.3,2.6c-0.3,0.2-0.8,0.2-1.1-0.1l-6.1-6.1
					c-0.3-0.3-0.3-0.8-0.1-1.1l2.6-3.3C13.3,3,13.8,3,14.1,3.3z"/>
			</defs>
			<clipPath id="SVGID_6_">
				<use xlink:href="#SVGID_5_"  style="overflow:visible;"/>
			</clipPath>
			<g class="st2">
				<defs>
					<rect id="SVGID_7_" x="-14" y="-15" width="52" height="54"/>
				</defs>
				<clipPath id="SVGID_8_">
					<use xlink:href="#SVGID_7_"  style="overflow:visible;"/>
				</clipPath>
				<rect x="-1.8" y="-2" class="st3" width="28" height="28.1"/>
			</g>
		</g>
	</g>
</g>
</svg>
