<?xml version="1.0" encoding="utf-8"?>
<!-- Generator: Adobe Illustrator 21.0.0, SVG Export Plug-In . SVG Version: 6.00 Build 0)  -->
<svg version="1.1" id="图层_1" xmlns="http://www.w3.org/2000/svg" xmlns:xlink="http://www.w3.org/1999/xlink" x="0px" y="0px"
	 viewBox="0 0 24 24" style="enable-background:new 0 0 24 24;" xml:space="preserve">
<style type="text/css">
	.st0{enable-background:new    ;}
	.st1{clip-path:url(#SVGID_2_);}
	.st2{clip-path:url(#SVGID_4_);}
	.st3{clip-path:url(#SVGID_6_);fill:#26D483;}
</style>
<g class="st0">
	<g>
		<defs>
			<rect id="SVGID_1_" x="3" y="3" width="18" height="18"/>
		</defs>
		<clipPath id="SVGID_2_">
			<use xlink:href="#SVGID_1_"  style="overflow:visible;"/>
		</clipPath>
		<g class="st1">
			<defs>
				<path id="SVGID_3_" d="M3,6V4.9C3,4,3.7,3.4,4.5,3.4h11.2c0.8,0,1.5,0.7,1.5,1.5V6H3z M14.8,14.8c-0.5,0-0.9-0.4-0.9-0.9
					s0.4-0.9,0.9-0.9s0.9,0.4,0.9,0.9S15.3,14.8,14.8,14.8z M21,11.6h-7.9c-0.4,0-0.8,0.3-0.8,0.8v3c0,0.4,0.3,0.8,0.8,0.8H21v3
					c0,0.8-0.7,1.5-1.5,1.5h-15C3.7,20.6,3,20,3,19.1v-12h16.5c0.8,0,1.5,0.7,1.5,1.5V11.6z"/>
			</defs>
			<clipPath id="SVGID_4_">
				<use xlink:href="#SVGID_3_"  style="overflow:visible;"/>
			</clipPath>
			<g class="st2">
				<defs>
					<rect id="SVGID_5_" x="-14" y="-15" width="52" height="54"/>
				</defs>
				<clipPath id="SVGID_6_">
					<use xlink:href="#SVGID_5_"  style="overflow:visible;"/>
				</clipPath>
				<rect x="-2" y="-1.6" class="st3" width="28" height="27.2"/>
			</g>
		</g>
	</g>
</g>
</svg>
