<?xml version="1.0" encoding="utf-8"?>
<!-- Generator: Adobe Illustrator 21.0.0, SVG Export Plug-In . SVG Version: 6.00 Build 0)  -->
<svg version="1.1" id="图层_1" xmlns="http://www.w3.org/2000/svg" xmlns:xlink="http://www.w3.org/1999/xlink" x="0px" y="0px"
	 viewBox="0 0 62 60" style="enable-background:new 0 0 62 60;" xml:space="preserve">
<style type="text/css">
	.st0{fill:#282828;}
</style>
<path class="st0" d="M54.9,9.5H44.8V7c0-3.6-3-6.6-6.6-6.6H23.1c-3.6,0-6.6,2.9-6.6,6.6v2.5H6.4c-3.6,0-6.6,2.9-6.6,6.6v36.4
	c0,3.6,2.9,6.6,6.6,6.6h48.5c3.6,0,6.6-2.9,6.6-6.6V16C61.5,12.4,58.6,9.5,54.9,9.5z M30.4,37.7c0.1,0,0.2,0,0.3,0
	c2.1,0,4.1-0.8,5.6-2.3c1.6-1.5,2.5-3.6,2.5-5.8v-2.5h18.6v24.8c0,1.6-1.3,2.9-2.9,2.9H6.9c-1.6,0-2.9-1.3-2.9-2.9V27.1h18.6v2.2
	C22.6,33.8,26.1,37.6,30.4,37.7z M34.8,29.7c0,2.2-1.8,4.1-4.1,4.1s-4.1-1.8-4.1-4.1v-2.5h8.1v2.5H34.8z M20.6,9.5V7.2
	c0-1.6,1.3-2.8,2.8-2.8h14.7c1.5,0,2.7,1.2,2.7,2.7v2.3H20.6V9.5z M57.4,16.6v6.5H4v-6.3c0-1.8,1.5-3.3,3.3-3.3h47.1
	C56,13.5,57.4,14.9,57.4,16.6z"/>
</svg>
