<?xml version="1.0" encoding="utf-8"?>
<!-- Generator: Adobe Illustrator 21.0.0, SVG Export Plug-In . SVG Version: 6.00 Build 0)  -->
<svg version="1.1" id="图层_1" xmlns="http://www.w3.org/2000/svg" xmlns:xlink="http://www.w3.org/1999/xlink" x="0px" y="0px"
	 viewBox="0 0 26 26" style="enable-background:new 0 0 26 26;" xml:space="preserve">
<style type="text/css">
	.st0{clip-path:url(#SVGID_2_);fill:#4391FF;}
</style>
<g>
	<defs>
		<path id="SVGID_1_" d="M15.2,20.9h-4.3c0.6,0.5,1.3,0.8,2.1,0.8C13.9,21.7,14.6,21.4,15.2,20.9z M14,4.7c-0.2-0.3-0.6-0.5-1-0.5
			s-0.7,0.2-1,0.5c0.3,0,0.6-0.1,1-0.1S13.6,4.7,14,4.7z M10.2,5.2c0.2-1.4,1.4-2.5,2.8-2.5s2.7,1.1,2.8,2.5
			c2.9,1.1,4.9,3.7,4.9,6.8v4.1c1.2,0.2,2,1.2,2,2.4c0,1.3-1.1,2.4-2.4,2.4h-3c-0.8,1.5-2.4,2.4-4.2,2.4c-1.8,0-3.4-1-4.2-2.4H5.7
			c-1.3,0-2.4-1.1-2.4-2.4c0-1.2,0.9-2.2,2-2.4v-4.1C5.3,8.9,7.3,6.2,10.2,5.2z M19.1,16.9v-4.9c0-3.1-2.7-5.6-6.1-5.6
			c-3.4,0-6.1,2.5-6.1,5.6v4.9c0,0.4-0.4,0.8-0.8,0.8H5.7c-0.4,0-0.8,0.4-0.8,0.8s0.4,0.8,0.8,0.8h14.6c0.4,0,0.8-0.4,0.8-0.8
			s-0.4-0.8-0.8-0.8h-0.4C19.5,17.7,19.1,17.3,19.1,16.9z"/>
	</defs>
	<clipPath id="SVGID_2_">
		<use xlink:href="#SVGID_1_"  style="overflow:visible;"/>
	</clipPath>
	<rect x="-1.8" y="-2.4" class="st0" width="29.5" height="30.7"/>
</g>
</svg>
