<?xml version="1.0" encoding="utf-8"?>
<!-- Generator: Adobe Illustrator 21.0.0, SVG Export Plug-In . SVG Version: 6.00 Build 0)  -->
<svg version="1.1" id="图层_1" xmlns="http://www.w3.org/2000/svg" xmlns:xlink="http://www.w3.org/1999/xlink" x="0px" y="0px"
	 viewBox="0 0 68 64" style="enable-background:new 0 0 68 64;" xml:space="preserve">
<style type="text/css">
	.st0{fill:#4391FF;}
	.st1{fill:none;}
</style>
<path id="SVGID_1_" class="st0" d="M64,41.1c0,1.6-1.3,2.9-2.9,2.9H47c-1.6,0-2.9-1.3-2.9-2.9V37c0-1.6,1.3-2.9,2.9-2.9h14.1
	c1.6,0,2.9,1.3,2.9,2.9V41.1z M53,56c0,1.6-1.7,3-3.3,3H7.6C6,59,5,57.6,5,56V20.9C5,19.3,5.9,18,7.6,18h42.1c1.6,0,3.3,1.3,3.3,2.9
	V30h-6.1c-3.8,0-6.9,3.1-6.9,6.9V41c0,3.8,3.1,6.9,6.9,6.9H53V56L53,56z M44.2,5l3.4,9.1H19.8L44.2,5z M61.1,30.1H57V21
	c0-3.1-2.4-5.8-5.4-6.6c0.1-0.3,0-0.7-0.1-1.1L47.2,1.7c-0.2-0.5-0.6-0.9-1-1.1c-0.5-0.2-1-0.2-1.5-0.1L10,13.4
	c-0.3,0.1-0.6,0.3-0.9,0.6H7.5c-3.8,0-6.6,3.1-6.6,6.9V56c0,3.9,2.7,7,6.6,7h42.1c3.8,0,7.3-3.1,7.3-7v-8H61c3.8,0,6.9-3.1,6.9-6.9
	V37C68,33.2,64.9,30.1,61.1,30.1z"/>
<path class="st1" d="M64,41.1c0,1.6-1.3,2.9-2.9,2.9H47c-1.6,0-2.9-1.3-2.9-2.9V37c0-1.6,1.3-2.9,2.9-2.9h14.1
	c1.6,0,2.9,1.3,2.9,2.9V41.1z M53,56c0,1.6-1.7,3-3.3,3H7.6C6,59,5,57.6,5,56V20.9C5,19.3,5.9,18,7.6,18h42.1c1.6,0,3.3,1.3,3.3,2.9
	V30h-6.1c-3.8,0-6.9,3.1-6.9,6.9V41c0,3.8,3.1,6.9,6.9,6.9H53V56L53,56z M44.2,5l3.4,9.1H19.8L44.2,5z M61.1,30.1H57V21
	c0-3.1-2.4-5.8-5.4-6.6c0.1-0.3,0-0.7-0.1-1.1L47.2,1.7c-0.2-0.5-0.6-0.9-1-1.1c-0.5-0.2-1-0.2-1.5-0.1L10,13.4
	c-0.3,0.1-0.6,0.3-0.9,0.6H7.5c-3.8,0-6.6,3.1-6.6,6.9V56c0,3.9,2.7,7,6.6,7h42.1c3.8,0,7.3-3.1,7.3-7v-8H61c3.8,0,6.9-3.1,6.9-6.9
	V37C68,33.2,64.9,30.1,61.1,30.1z"/>
<g>
	<g>
		<defs>
			<rect id="SVGID_2_" x="-128.9" y="-2381.4" width="5697.2" height="3795.3"/>
		</defs>
		<clipPath id="SVGID_3_">
			<use xlink:href="#SVGID_2_"  style="overflow:visible;"/>
		</clipPath>
	</g>
</g>
<g>
	<path class="st0" d="M61.1,30.1H57V21c0-3.1-2.4-5.8-5.4-6.6c0.1-0.3,0-0.7-0.1-1.1L47.2,1.7c-0.2-0.5-0.6-0.9-1-1.1
		c-0.5-0.2-1-0.2-1.5-0.1L10,13.4c-0.3,0.1-0.6,0.3-0.9,0.6H7.5c-3.8,0-6.6,3.1-6.6,6.9V56c0,3.9,2.7,7,6.6,7h42.1
		c3.8,0,7.3-3.1,7.3-7v-8H61c3.8,0,6.9-3.1,6.9-6.9V37C68,33.2,64.9,30.1,61.1,30.1z M44.2,5l3.4,9.1H19.8L44.2,5z M53,56
		c0,1.6-1.7,3-3.3,3H7.6C6,59,5,57.6,5,56V20.9C5,19.3,5.9,18,7.6,18h42.1c1.6,0,3.3,1.3,3.3,2.9V30h-6.1c-3.8,0-6.9,3.1-6.9,6.9V41
		c0,3.8,3.1,6.9,6.9,6.9H53V56z M64,41.1c0,1.6-1.3,2.9-2.9,2.9H47c-1.6,0-2.9-1.3-2.9-2.9V37c0-1.6,1.3-2.9,2.9-2.9h14.1
		c1.6,0,2.9,1.3,2.9,2.9V41.1z"/>
	<circle class="st0" cx="50.3" cy="39.2" r="2.3"/>
</g>
</svg>
