<svg id="图层_1" xmlns="http://www.w3.org/2000/svg" viewBox="0 0 66.6 51.8"><defs><style>.cls-1{fill:#333;}</style></defs><title>个人信息</title><path class="cls-1" d="M179.2,131.8H122.6a5.1,5.1,0,0,0-5,5.1v41.6a5,5,0,0,0,5,5.1h56.6a5.1,5.1,0,0,0,5-5.1V136.9A5.17,5.17,0,0,0,179.2,131.8Zm1,5.1v41.6a.78.78,0,0,1-.3.7.91.91,0,0,1-.7.3H122.6a1,1,0,0,1-1-1V136.9a.94.94,0,0,1,1-1h56.6A.94.94,0,0,1,180.2,136.9Z" transform="translate(-117.6 -131.8)"/><path class="cls-1" d="M147.4,160.9a11.3,11.3,0,0,0,3.9-8.7,10.91,10.91,0,1,0-21.8,0,11.8,11.8,0,0,0,3.9,8.7,18.83,18.83,0,0,0-10.2,10.7,2,2,0,0,0,1.1,2.6,1.7,1.7,0,0,0,.7.1,2.35,2.35,0,0,0,.8-.2,2,2,0,0,0,1.1-1.1,14.27,14.27,0,0,1,26.9,0,2,2,0,0,0,1.5,1.3,2.28,2.28,0,0,0,1.9-.7,2.06,2.06,0,0,0,.3-2A18.66,18.66,0,0,0,147.4,160.9Zm0-8.6a7,7,0,1,1-7-7.2A7.07,7.07,0,0,1,147.4,152.3Z" transform="translate(-117.6 -131.8)"/><path class="cls-1" d="M174.1,154.9H161.6a2,2,0,0,0,0,4l12.5-.1h0a2.05,2.05,0,0,0,2-2A1.92,1.92,0,0,0,174.1,154.9Z" transform="translate(-117.6 -131.8)"/><path class="cls-1" d="M174.1,145.6H154.7a2.05,2.05,0,0,0-2,2,2,2,0,0,0,2,2l19.4-.1a2,2,0,1,0,0-3.9Z" transform="translate(-117.6 -131.8)"/><path class="cls-1" d="M174.1,164.1H159.6a2.05,2.05,0,0,0-2,2,2,2,0,0,0,2,2L174,168a2.05,2.05,0,0,0,2-2A1.84,1.84,0,0,0,174.1,164.1Z" transform="translate(-117.6 -131.8)"/></svg>