<?xml version="1.0" encoding="utf-8"?>
<!-- Generator: Adobe Illustrator 22.1.0, SVG Export Plug-In . SVG Version: 6.00 Build 0)  -->
<svg version="1.1" id="图层_1" xmlns="http://www.w3.org/2000/svg" xmlns:xlink="http://www.w3.org/1999/xlink" x="0px" y="0px"
	 viewBox="0 0 24 24" style="enable-background:new 0 0 24 24;" xml:space="preserve">
<style type="text/css">
	.st0{clip-path:url(#SVGID_2_);}
	.st1{fill:#4391FF;}
</style>
<g>
	<defs>
		<path id="SVGID_1_" d="M13.3,4.3H19c0.4,0,0.6,0.3,0.6,0.6v5.8c0,0.4-0.3,0.6-0.6,0.6h-5.8c-0.4,0-0.6-0.3-0.6-0.6V4.9
			C12.6,4.5,12.9,4.3,13.3,4.3z M13.9,5.5V10h4.5V5.5H13.9z M5,12.6h5.8c0.4,0,0.6,0.3,0.6,0.6V19c0,0.4-0.3,0.6-0.6,0.6H5
			c-0.4,0-0.6-0.3-0.6-0.6v-5.8C4.3,12.9,4.6,12.6,5,12.6z M5.6,13.9v4.5h4.5v-4.5H5.6z M15.8,7.1h0.6c0.2,0,0.3,0.1,0.3,0.3v0.6
			c0,0.2-0.1,0.3-0.3,0.3h-0.6c-0.2,0-0.3-0.1-0.3-0.3V7.5C15.5,7.3,15.7,7.1,15.8,7.1z M7.5,15.5h0.6c0.2,0,0.3,0.1,0.3,0.3v0.6
			c0,0.2-0.1,0.3-0.3,0.3H7.5c-0.2,0-0.3-0.1-0.3-0.3v-0.6C7.2,15.6,7.3,15.5,7.5,15.5z M7.5,7.1h0.6c0.2,0,0.3,0.1,0.3,0.3v0.6
			c0,0.2-0.1,0.3-0.3,0.3H7.5c-0.2,0-0.3-0.1-0.3-0.3V7.5C7.2,7.3,7.3,7.1,7.5,7.1z M5,4.3h5.8c0.4,0,0.6,0.3,0.6,0.6v5.8
			c0,0.4-0.3,0.6-0.6,0.6H5c-0.4,0-0.6-0.3-0.6-0.6V4.9C4.3,4.5,4.6,4.3,5,4.3z M5.6,5.5V10h4.5V5.5H5.6z M18.7,17.7h0.6
			c0.2,0,0.3,0.1,0.3,0.3v1.3c0,0.2-0.1,0.3-0.3,0.3h-0.6c-0.2,0-0.3-0.1-0.3-0.3V18C18.4,17.8,18.5,17.7,18.7,17.7z M16.2,17.7h0.6
			c0.2,0,0.3,0.1,0.3,0.3v1.3c0,0.2-0.1,0.3-0.3,0.3h-0.6c-0.2,0-0.3-0.1-0.3-0.3V18C15.8,17.8,16,17.7,16.2,17.7z M13.6,19.6H13
			c-0.2,0-0.3-0.1-0.3-0.3v-6.1c0-0.4,0.3-0.6,0.6-0.6h3.2c0.4,0,0.6,0.3,0.6,0.6l0,2.2h1.3l0-2.6c0-0.2,0.1-0.3,0.3-0.3l0.6,0
			c0.2,0,0.3,0.1,0.3,0.3l0,3.2c0,0.4-0.3,0.6-0.6,0.6h-2.6c-0.4,0-0.6-0.3-0.6-0.6l0-2.2h-1.9v5.4C13.9,19.5,13.8,19.6,13.6,19.6z
			 M3,0.4H21c1.4,0,2.6,1.1,2.6,2.6v17.9c0,1.4-1.1,2.6-2.6,2.6H3c-1.4,0-2.6-1.1-2.6-2.6V3C0.5,1.6,1.6,0.4,3,0.4z M3,1.7
			C2.3,1.7,1.8,2.3,1.8,3v17.9c0,0.7,0.6,1.3,1.3,1.3H21c0.7,0,1.3-0.6,1.3-1.3V3c0-0.7-0.6-1.3-1.3-1.3H3z"/>
	</defs>
	<clipPath id="SVGID_2_">
		<use xlink:href="#SVGID_1_"  style="overflow:visible;"/>
	</clipPath>
	<g class="st0">
		<rect x="-4.5" y="-4.6" class="st1" width="33" height="33"/>
	</g>
</g>
</svg>
