<?xml version="1.0" encoding="utf-8"?>
<!-- Generator: Adobe Illustrator 21.0.0, SVG Export Plug-In . SVG Version: 6.00 Build 0)  -->
<svg version="1.1" id="图层_1" xmlns="http://www.w3.org/2000/svg" xmlns:xlink="http://www.w3.org/1999/xlink" x="0px" y="0px"
	 viewBox="0 0 57 68" style="enable-background:new 0 0 57 68;" xml:space="preserve">
<style type="text/css">
	.st0{fill:#282828;}
</style>
<g>
	<path class="st0" d="M49.7,0.9H7.4c-4.1,0-6.5,2.4-6.5,6.5v53.3c0,4.1,2.4,6.5,6.5,6.5h42.3c4.1,0,6.5-2.4,6.5-6.5V7.4
		C56.2,3.3,53.8,0.9,49.7,0.9z M52.1,60.8c0,1.9-0.6,2.5-2.5,2.5H7.3c-1.9,0-2.5-0.6-2.5-2.5V17l17.1,7.3c4.2,1.8,9,1.8,13.2,0
		L52.2,17v43.8H52.1z M52.1,12.6l-18.7,8c-3.2,1.3-6.8,1.3-10,0l-18.7-8V7.4C4.7,5.5,5.2,5,7,4.9h42.5c1.9,0,2.5,0.6,2.5,2.5
		L52.1,12.6L52.1,12.6z"/>
	<path class="st0" d="M21.7,31.5c-0.9-0.6-2.2-0.4-2.8,0.4c-0.7,0.9-0.5,2.1,0.4,2.8l7.2,5.4v0.2h-4.4c-1.1,0-2,0.9-2,2s0.9,2,2,2
		h4.4v2.3h-4.4c-0.7,0-1.4,0.4-1.8,1c-0.4,0.6-0.4,1.4,0,2.1c0.4,0.6,1.1,1,1.8,1h4.4v4.4c0,1.1,0.9,2,2,2s2-0.9,2-2v-4.4h4.4
		c1.1,0,2-0.9,2-2s-0.9-2-2-2h-4.4v-2.3h4.4c1.1,0,2-0.9,2-2s-0.9-2-2-2h-4.4v-0.2l7.2-5.4c0.9-0.7,1.1-2,0.4-2.8
		c-0.7-0.9-2-1.1-2.8-0.4l-6.8,5.1L21.7,31.5z"/>
</g>
</svg>
