<?xml version="1.0" encoding="utf-8"?>
<!-- Generator: Adobe Illustrator 21.0.0, SVG Export Plug-In . SVG Version: 6.00 Build 0)  -->
<svg version="1.1" id="图层_1" xmlns="http://www.w3.org/2000/svg" xmlns:xlink="http://www.w3.org/1999/xlink" x="0px" y="0px"
	 viewBox="0 0 67 67" style="enable-background:new 0 0 67 67;" xml:space="preserve">
<style type="text/css">
	.st0{fill:#2A2F33;}
</style>
<g>
	<path class="st0" d="M57.1,9.7c-6.3-6.3-14.6-9.8-23.5-9.8c-8.8,0-17.1,3.5-23.4,9.8c-6.4,6.4-9.9,14.9-9.9,24s3.5,17.6,9.7,24
		c6.3,6.3,14.6,9.8,23.5,9.8S50.7,64,57,57.5c6.3-6.4,9.7-14.9,9.7-23.8C66.9,24.6,63.4,16.1,57.1,9.7z M54.2,54.7
		c-5.5,5.5-12.8,8.6-20.6,8.6C17.5,63.3,4.5,50,4.5,33.7c0-7.8,3.1-15.2,8.7-20.9C18.8,7.2,26,4.1,33.7,4.1
		c16.1,0,29.1,13.3,29.1,29.6C62.7,41.7,59.7,49.1,54.2,54.7z"/>
	<path class="st0" d="M35.9,35.8l-5.3-8.7l4.5-2.7c0.9-0.6,1.2-1.8,0.7-2.7c-0.6-0.9-1.8-1.2-2.7-0.7l-4.5,2.7l-3.1-5.1l4.5-2.7
		c0.9-0.6,1.2-1.8,0.7-2.7c-0.6-0.9-1.8-1.2-2.7-0.7l-4.5,2.7L22,16.1l-1.9,1.2l12.5,20.6c-3.4,3.1-4.3,8.4-1.8,12.5
		c2.9,4.7,9,6.2,13.7,3.4c4.7-2.9,6.2-9,3.4-13.7C45.2,35.9,40.2,34.2,35.9,35.8z M42.3,50.3c-2.8,1.7-6.5,0.8-8.2-2s-0.8-6.5,2-8.2
		s6.5-0.8,8.2,2C46,44.9,45.1,48.6,42.3,50.3z"/>
</g>
</svg>
