<?xml version="1.0" encoding="utf-8"?>
<!-- Generator: Adobe Illustrator 21.0.0, SVG Export Plug-In . SVG Version: 6.00 Build 0)  -->
<svg version="1.1" id="图层_1" xmlns="http://www.w3.org/2000/svg" xmlns:xlink="http://www.w3.org/1999/xlink" x="0px" y="0px"
	 viewBox="0 0 69 69" style="enable-background:new 0 0 69 69;" xml:space="preserve">
<style type="text/css">
	.st0{fill:#282828;}
</style>
<g>
	<path class="st0" d="M67.6,33.3l-8.7-8.7V12.4c0-1.2-0.8-2.1-2.1-2.1H44.6l-8.7-8.7c-0.4-0.4-1-0.6-1.6-0.6s-1.2,0.2-1.6,0.6
		l-8.4,8.7H12.1c-1.2,0-2.1,0.8-2.1,2.1v11.9L1.3,33c-0.4,0.4-0.6,1-0.6,1.6s0.2,1.2,0.6,1.6l8.7,8.7v12.2c0,1.2,0.8,2.1,2.1,2.1
		h12.2l8.7,8.7c0.4,0.4,0.9,0.6,1.5,0.6s1.1-0.2,1.5-0.6l8.7-8.7h12.2c1.2,0,2.1-0.8,2.1-2.1V44.9l8.7-8.7c0.4-0.4,0.6-0.9,0.6-1.5
		S68,33.7,67.6,33.3z M13.7,42.4l-7.9-7.9l7.9-7.5l0.1-0.1v-0.1c0-0.1,0.1-0.4,0.2-0.6c0.1-0.3,0.2-0.6,0.2-0.8v-11h11
		c0.5,0,0.9-0.4,1.3-0.8l7.9-7.5l8.2,7.9l0.1,0.1h0.1c0.1,0,0.4,0.1,0.6,0.2c0.3,0.1,0.6,0.2,0.8,0.2h11V25c0,0.7,0,1.2,0.4,1.6
		l7.9,7.9l-8,8v0.1c0,0.1-0.1,0.4-0.2,0.6c-0.1,0.3-0.2,0.6-0.2,0.8v11h-11c-0.7,0-1.2,0-1.6,0.4l-7.9,7.9l-8-8h-0.1
		c-0.1,0-0.4-0.1-0.6-0.2c-0.3-0.1-0.6-0.2-0.8-0.2h-11v-11C14.1,43.3,14.1,42.9,13.7,42.4z"/>
	<path class="st0" d="M30.5,43.2L30.5,43.2c0.4,0.2,0.8,0.3,1.2,0.3c0.5,0,1.1-0.1,1.7-0.7l14.5-14.5c0.4-0.4,0.6-0.9,0.6-1.5
		s-0.2-1.1-0.6-1.5c-0.8-0.8-2.1-0.8-2.9,0L31.8,38.5L24,30.7c-0.2-0.3-0.5-0.6-1-0.6c-0.7-0.1-1.5,0.1-1.9,0.6
		c-0.4,0.4-0.6,0.9-0.6,1.5c0,0.5,0.2,1.1,0.6,1.5L30.5,43.2z"/>
</g>
</svg>
