<?xml version="1.0" encoding="utf-8"?>
<!-- Generator: Adobe Illustrator 21.0.0, SVG Export Plug-In . SVG Version: 6.00 Build 0)  -->
<svg version="1.1" id="图层_1" xmlns="http://www.w3.org/2000/svg" xmlns:xlink="http://www.w3.org/1999/xlink" x="0px" y="0px"
	 viewBox="0 0 68 68" style="enable-background:new 0 0 68 68;" xml:space="preserve">
<style type="text/css">
	.st0{fill:#2A2F33;}
</style>
<g>
	<path class="st0" d="M57.6,9.9C51.2,3.5,42.8,0,33.8,0C24.9,0,16.4,3.5,10,9.9c-6.4,6.4-9.9,14.8-9.9,23.8c0,8.9,3.5,17.4,9.9,23.8
		c6.4,6.4,14.8,9.9,23.8,9.9c8.9,0,17.4-3.5,23.8-9.9s9.9-14.8,9.9-23.8S64,16.3,57.6,9.9z M63.3,33.7c0,7.9-3.1,15.4-8.6,20.9
		s-13,8.6-20.9,8.6s-15.4-3.1-20.9-8.6s-8.6-13-8.6-20.9c0-16.3,13.2-29.5,29.5-29.5c7.9,0,15.4,3.1,20.9,8.6
		C60.3,18.3,63.3,25.7,63.3,33.7z"/>
	<path class="st0" d="M39.8,24.8c0,0.2,0,0.3,0,0.5c-0.3,2.2-0.7,4.3-1.3,5.7l-1,2c0,0,0,0.1,0,0.2c0.1,0.3,1.1,0.8,1.9,0.9
		c0.6,0.1,1-0.1,1.2-0.4c0,0,2.7-3.8,3-9.1c0-3.3-0.8-5.9-2.4-7.8c-1.9-2.2-4.5-3.4-7.8-3.4c-3,0-5.5,0.9-7.2,2.7s-2.6,4.4-2.6,7.8
		c0,2.9,0.4,5.2,1.3,7.4c1,2,2,4,3.7,5.7v2c-0.3,0.1-0.6,0.2-1,0.2c-1.2,0.3-2.5,0.6-4,1.1c-1.6,0.3-3.3,1-4.4,1.7
		c-1.7,1-2.4,2-2.4,3.4c0,2,2.3,4,6.7,6.1c2.9,1.3,6,2.4,6.4,2.4c0.7,0,1.4-0.3,1.4-1c0.2-0.3,0.2-0.7,0-1.1c-0.2-0.4-0.6-0.8-1-0.9
		c0,0-3-1.4-5.4-3c-0.6-0.3-1.1-0.5-1.5-0.7c-1.9-0.8-1.9-0.8-1.9-1.4c0-0.1,0-0.1,0-0.2c0-0.5,0.3-0.6,1.4-1
		c0.4-0.2,0.9-0.4,1.6-0.6c2.6-0.7,6.2-1.6,6.4-1.7c1.4,0,1.4-1.4,1.4-2.1v-3.7c0,0,0-0.4-0.4-0.7c-3.6-3.2-5-6.6-5-11.7
		c0-0.9,0.1-1.7,0.3-2.3c0-0.1,0.1-0.2,0.1-0.2c0-0.1,0.1-0.2,0.1-0.3s0.1-0.2,0.1-0.3c1.2-2.5,3.8-3.5,5.6-3.5
		c2.1,0,3.7,0.5,4.7,1.6C38.8,19.5,39.9,20.6,39.8,24.8z"/>
	<path class="st0" d="M36.5,42.4c0,1,1,2.1,2.1,2.1H49c1.4,0,2.1-0.7,2.1-2.1c0-1-1-2.1-2.1-2.1H38.6C37.5,40.3,36.5,41.3,36.5,42.4
		z"/>
	<path class="st0" d="M45.6,48.7h-7.1c-1,0-2.1,1-2.1,2.1s1,2.1,2.1,2.1h7.1c1,0,2.1-1,2.1-2.1S46.6,48.7,45.6,48.7z"/>
</g>
</svg>
