<?xml version="1.0" encoding="UTF-8"?>
<svg width="14px" height="13px" viewBox="0 0 14 13" version="1.1" xmlns="http://www.w3.org/2000/svg" xmlns:xlink="http://www.w3.org/1999/xlink">
    <!-- Generator: Sketch 52.4 (67378) - http://www.bohemiancoding.com/sketch -->
    <title>huiyuan</title>
    <desc>Created with Sketch.</desc>
    <g id="Page-1" stroke="none" stroke-width="1" fill="none" fill-rule="evenodd">
        <g id="会员等级-默认页面" transform="translate(-25.000000, -410.000000)" fill="#9EA8B1">
            <g id="huiyuan" transform="translate(25.000000, 410.000000)">
                <path d="M13.73125,4.0125 L10.98125,0.5875 C10.70625,0.2375 10.25625,0.0125 9.80625,0.0125 L4.25625,0.0125 C3.80625,0.0125 3.38125,0.2125 3.08125,0.5875 L0.33125,4.0125 C-0.14375,4.5875 -0.09375,5.4375 0.40625,5.9875 L5.98125,11.8875 L6.05625,11.9625 C6.33125,12.2125 6.70625,12.3625 7.08125,12.3625 L7.13125,12.3625 C7.53125,12.3375 7.90625,12.1875 8.18125,11.8875 L13.63125,6.0125 C14.15625,5.4375 14.18125,4.5875 13.73125,4.0125 Z M12.90625,5.3125 L7.45625,11.1875 C7.35625,11.2875 7.23125,11.3375 7.10625,11.3375 C6.98125,11.3375 6.85625,11.2875 6.75625,11.2125 L1.15625,5.2875 C0.98125,5.1125 0.98125,4.8375 1.13125,4.6375 L3.85625,1.2125 C3.95625,1.0875 4.10625,1.0125 4.25625,1.0125 L9.80625,1.0125 C9.95625,1.0125 10.10625,1.0875 10.20625,1.2125 L12.95625,4.6375 C13.08125,4.8375 13.08125,5.1125 12.90625,5.3125 Z" id="形状" fill-rule="nonzero"></path>
                <path d="M9.68125,5.0375 L7.08125,7.8125 L4.40625,4.9875 C4.20625,4.7875 3.90625,4.7625 3.68125,4.9625 C3.48125,5.1375 3.48125,5.4625 3.65625,5.6625 L6.35625,8.5125 L6.40625,8.5625 C6.80625,8.9375 7.43125,8.9125 7.83125,8.5125 L10.43125,5.6875 C10.60625,5.4875 10.60625,5.1625 10.40625,4.9875 C10.18125,4.8125 9.88125,4.8375 9.68125,5.0375 Z" id="路径"></path>
            </g>
        </g>
    </g>
</svg>