<?xml version="1.0" encoding="UTF-8"?>
<svg width="24px" height="24px" viewBox="0 0 24 24" version="1.1" xmlns="http://www.w3.org/2000/svg" xmlns:xlink="http://www.w3.org/1999/xlink">
    <!-- Generator: Sketch 52.4 (67378) - http://www.bohemiancoding.com/sketch -->
    <title>icon_marketing</title>
    <desc>Created with Sketch.</desc>
    <g id="页面-1" stroke="none" stroke-width="1" fill="none" fill-rule="evenodd">
        <g id="切图" transform="translate(-41.000000, -86.000000)">
            <rect fill="#FFFFFF" x="0" y="0" width="1210" height="768"></rect>
            <g id="icon_marketing" transform="translate(41.000000, 86.000000)">
                <circle id="Oval-2" fill="#FFAA16" cx="12" cy="12" r="12"></circle>
                <path d="M11.2367328,8.29787234 C11.18569,8.15182375 10.9960783,7.85269912 10.7389908,7.58265074 C10.4100563,7.23713337 10.0587815,7.0212766 9.875,7.0212766 C9.37210257,7.0212766 9,7.33220176 9,7.65957447 C9,8.08255395 9.18832982,8.29787234 9.60711876,8.29787234 L11.2367328,8.29787234 Z M8.10118695,8.29787234 C8.03473071,8.10418952 8,7.88947152 8,7.65957447 C8,6.71786732 8.85911437,6 9.875,6 C10.6015335,6 11.5544542,6.8028638 12.0002095,7.58311588 C12.4459647,6.8028638 13.3988854,6 14.1254189,6 C15.1413046,6 16.0004189,6.71786732 16.0004189,7.65957447 C16.0004189,7.88947152 15.9656882,8.10418952 15.899232,8.29787234 L17,8.29787234 C17.5522847,8.29787234 18,8.75511345 18,9.31914894 L18,11.106383 C18,11.5822569 17.6813068,11.9821123 17.25,12.0954849 L17.25,16.4680851 C17.25,17.3141383 16.5784271,18 15.75,18 L8.25,18 C7.42157288,18 6.75,17.3141383 6.75,16.4680851 L6.75,12.0954849 C6.3186932,11.9821123 6,11.5822569 6,11.106383 L6,9.31914894 C6,8.75511345 6.44771525,8.29787234 7,8.29787234 L8.10118695,8.29787234 Z M14.3933002,8.29787234 C14.8120891,8.29787234 15.0004189,8.08255395 15.0004189,7.65957447 C15.0004189,7.33220176 14.6283163,7.0212766 14.1254189,7.0212766 C13.9416374,7.0212766 13.5903626,7.23713337 13.2614281,7.58265074 C13.0043406,7.85269912 12.8147289,8.15182375 12.7636861,8.29787234 L14.3933002,8.29787234 Z M16.25,12.1276596 L7.75,12.1276596 L7.75,16.4680851 C7.75,16.7501029 7.97385763,16.9787234 8.25,16.9787234 L15.75,16.9787234 C16.0261424,16.9787234 16.25,16.7501029 16.25,16.4680851 L16.25,12.1276596 Z M7,11.106383 L17,11.106383 L17,9.31914894 L7,9.31914894 L7,11.106383 Z M14.75,12.893617 L15.25,12.893617 C15.3880712,12.893617 15.5,13.0079273 15.5,13.1489362 L15.5,15.9574468 C15.5,16.0984557 15.3880712,16.212766 15.25,16.212766 L14.75,16.212766 C14.6119288,16.212766 14.5,16.0984557 14.5,15.9574468 L14.5,13.1489362 C14.5,13.0079273 14.6119288,12.893617 14.75,12.893617 Z" id="Shape" fill="#FFFFFF" fill-rule="nonzero"></path>
            </g>
        </g>
    </g>
</svg>