<?xml version="1.0" encoding="UTF-8"?>
<svg width="24px" height="24px" viewBox="0 0 24 24" version="1.1" xmlns="http://www.w3.org/2000/svg" xmlns:xlink="http://www.w3.org/1999/xlink">
    <!-- Generator: Sketch 52.4 (67378) - http://www.bohemiancoding.com/sketch -->
    <title>icon_QRcode</title>
    <desc>Created with Sketch.</desc>
    <g id="页面-1" stroke="none" stroke-width="1" fill="none" fill-rule="evenodd">
        <g id="切图" transform="translate(-143.000000, -86.000000)">
            <rect fill="#FFFFFF" x="0" y="0" width="1210" height="768"></rect>
            <g id="icon_QRcode" transform="translate(143.000000, 86.000000)">
                <circle id="Oval-2" fill="#4391FF" cx="12" cy="12" r="12"></circle>
                <path d="M13.6405551,18 L13.1825858,18 C13.056121,18 12.9536011,17.8974149 12.9536011,17.7708697 L12.9536011,13.4173939 C12.9536011,13.1643036 13.158641,12.9591333 13.4115704,12.9591333 L15.7092813,12.9591333 C15.9628935,12.9591333 16.168215,13.1653709 16.1672472,13.4191426 L16.1611373,15.021306 L17.0770692,15.021306 L17.0840663,13.1865166 C17.0845489,13.0599723 17.1874593,12.9577794 17.3139231,12.9582623 L17.7718891,12.960011 C17.8983529,12.9604939 18.0004809,13.0634697 17.9999983,13.190014 L17.9912603,15.4813154 C17.9902977,15.7337212 17.7855415,15.9378273 17.5332943,15.9378273 L15.701417,15.9378273 C15.4478048,15.9378273 15.2424832,15.7315896 15.243451,15.4778179 L15.249561,13.8756545 L13.8695397,13.8756545 L13.8695397,17.7708697 C13.8695397,17.8974149 13.7670198,18 13.6405551,18 Z M15.4724323,16.6234728 L15.9304017,16.6234728 C16.0568664,16.6234728 16.1593863,16.7260579 16.1593863,16.8526031 L16.1593863,17.7691243 C16.1593863,17.8956695 16.0568664,17.9982546 15.9304017,17.9982546 L15.4724323,17.9982546 C15.3459676,17.9982546 15.2434477,17.8956695 15.2434477,17.7691243 L15.2434477,16.8526031 C15.2434477,16.7260579 15.3459676,16.6234728 15.4724323,16.6234728 Z M17.3043096,16.6234728 L17.7622789,16.6234728 C17.8887437,16.6234728 17.9912636,16.7260579 17.9912636,16.8526031 L17.9912636,17.7691243 C17.9912636,17.8956695 17.8887437,17.9982546 17.7622789,17.9982546 L17.3043096,17.9982546 C17.1778449,17.9982546 17.075325,17.8956695 17.075325,17.7691243 L17.075325,16.8526031 C17.075325,16.7260579 17.1778449,16.6234728 17.3043096,16.6234728 Z M7.91593863,7.91652122 L7.91593863,11.1243455 L11.1217238,11.1243455 L11.1217238,7.91652122 L7.91593863,7.91652122 Z M7.45796932,7 L11.5796932,7 C11.8326226,7 12.0376625,7.20517026 12.0376625,7.45826061 L12.0376625,11.5826061 C12.0376625,11.8356964 11.8326226,12.0408667 11.5796932,12.0408667 L7.45796932,12.0408667 C7.20503985,12.0408667 7,11.8356964 7,11.5826061 L7,7.45826061 C7,7.20517026 7.20503985,7 7.45796932,7 Z M9.28984658,9.06217274 L9.7478159,9.06217274 C9.87428063,9.06217274 9.97680055,9.16475787 9.97680055,9.29130305 L9.97680055,9.74956366 C9.97680055,9.87610883 9.87428063,9.97869396 9.7478159,9.97869396 L9.28984658,9.97869396 C9.16338185,9.97869396 9.06086192,9.87610883 9.06086192,9.74956366 L9.06086192,9.29130305 C9.06086192,9.16475787 9.16338185,9.06217274 9.28984658,9.06217274 Z M9.28984658,15.0195607 L9.7478159,15.0195607 C9.87428063,15.0195607 9.97680055,15.1221458 9.97680055,15.248691 L9.97680055,15.7069516 C9.97680055,15.8334968 9.87428063,15.9360819 9.7478159,15.9360819 L9.28984658,15.9360819 C9.16338185,15.9360819 9.06086192,15.8334968 9.06086192,15.7069516 L9.06086192,15.248691 C9.06086192,15.1221458 9.16338185,15.0195607 9.28984658,15.0195607 Z M15.2434477,9.06217274 L15.701417,9.06217274 C15.8278817,9.06217274 15.9304017,9.16475787 15.9304017,9.29130305 L15.9304017,9.74956366 C15.9304017,9.87610883 15.8278817,9.97869396 15.701417,9.97869396 L15.2434477,9.97869396 C15.116983,9.97869396 15.014463,9.87610883 15.014463,9.74956366 L15.014463,9.29130305 C15.014463,9.16475787 15.116983,9.06217274 15.2434477,9.06217274 Z M7.91593863,13.8739091 L7.91593863,17.0817334 L11.1217238,17.0817334 L11.1217238,13.8739091 L7.91593863,13.8739091 Z M7.45796932,12.9573879 L11.5796932,12.9573879 C11.8326226,12.9573879 12.0376625,13.1625582 12.0376625,13.4156485 L12.0376625,17.539994 C12.0376625,17.7930844 11.8326226,17.9982546 11.5796932,17.9982546 L7.45796932,17.9982546 C7.20503985,17.9982546 7,17.7930844 7,17.539994 L7,13.4156485 C7,13.1625582 7.20503985,12.9573879 7.45796932,12.9573879 Z M13.8695397,7.91652122 L13.8695397,11.1243455 L17.075325,11.1243455 L17.075325,7.91652122 L13.8695397,7.91652122 Z M13.4115704,7 L17.5332943,7 C17.7862237,7 17.9912636,7.20517026 17.9912636,7.45826061 L17.9912636,11.5826061 C17.9912636,11.8356964 17.7862237,12.0408667 17.5332943,12.0408667 L13.4115704,12.0408667 C13.158641,12.0408667 12.9536011,11.8356964 12.9536011,11.5826061 L12.9536011,7.45826061 C12.9536011,7.20517026 13.158641,7 13.4115704,7 Z" id="Shape" fill="#FFFFFF" fill-rule="nonzero"></path>
            </g>
        </g>
    </g>
</svg>