<?xml version="1.0" encoding="UTF-8"?>
<svg width="24px" height="24px" viewBox="0 0 24 24" version="1.1" xmlns="http://www.w3.org/2000/svg" xmlns:xlink="http://www.w3.org/1999/xlink">
    <!-- Generator: Sketch 52.4 (67378) - http://www.bohemiancoding.com/sketch -->
    <title>icon_model_message copy</title>
    <desc>Created with Sketch.</desc>
    <g id="页面-1" stroke="none" stroke-width="1" fill="none" fill-rule="evenodd">
        <g id="切图" transform="translate(-213.000000, -86.000000)">
            <rect fill="#FFFFFF" x="0" y="0" width="1210" height="768"></rect>
            <g id="icon_model_message-copy" transform="translate(213.000000, 86.000000)">
                <circle id="Oval-2" fill="#9AD320" cx="12" cy="12" r="12"></circle>
                <path d="M7.5,7 C7.22385763,7 7,7.22385763 7,7.5 L7,16.5 C7,16.7761424 7.22385763,17 7.5,17 L16.5,17 C16.7761424,17 17,16.7761424 17,16.5 L17,7.5 C17,7.22385763 16.7761424,7 16.5,7 L7.5,7 Z M7.5,6 L16.5,6 C17.3284271,6 18,6.67157288 18,7.5 L18,16.5 C18,17.3284271 17.3284271,18 16.5,18 L7.5,18 C6.67157288,18 6,17.3284271 6,16.5 L6,7.5 C6,6.67157288 6.67157288,6 7.5,6 Z M10.1340548,10.9579504 L9,10.9579504 L9,13.0204504 L10.1159723,13.0204504 L11.5,14.2017565 L11.5,9.79207826 L10.1340548,10.9579504 Z M11.2630964,8.67955411 C11.5781529,8.41064467 12.0515508,8.44805423 12.3204602,8.7631107 C12.4363399,8.89887631 12.5,9.07151949 12.5,9.25001433 L12.5,14.7438204 C12.5,15.1580339 12.1642136,15.4938204 11.75,15.4938204 C11.5715052,15.4938204 11.398862,15.4301603 11.2630964,15.3142806 L9.74723447,14.0204504 L8.75,14.0204504 C8.33578644,14.0204504 8,13.684664 8,13.2704504 L8,10.7079504 C8,10.2937368 8.33578644,9.9579504 8.75,9.9579504 L9.76531697,9.9579504 L11.2630964,8.67955411 Z M14.2113129,15.1033167 C13.9797948,15.2112274 13.7046334,15.1110237 13.5967227,14.8795056 C13.488812,14.6479875 13.5890156,14.3728261 13.8205338,14.2649154 C14.7080908,13.8512247 15.2875,12.9599655 15.2875,11.9635022 C15.2875,10.9717234 14.7135553,10.0839237 13.8323447,9.66763118 C13.6013876,9.55852482 13.5026081,9.28284897 13.6117145,9.05189193 C13.7208209,8.82093489 13.9964967,8.72215539 14.2274538,8.83126175 C15.4292514,9.39900269 16.2125,10.6105617 16.2125,11.9635022 C16.2125,13.3228476 15.4218099,14.5391035 14.2113129,15.1033167 Z M13.5600849,13.7514096 C13.3274692,13.8569336 13.0533529,13.7539054 12.947829,13.5212897 C12.842305,13.288674 12.9453332,13.0145577 13.1779489,12.9090338 C13.5461323,12.7420108 13.7875,12.3748181 13.7875,11.9635022 C13.7875,11.5554849 13.5500215,11.1907292 13.1862939,11.0218011 C12.9546283,10.9142074 12.8540482,10.6391834 12.961642,10.4075178 C13.0692357,10.1758522 13.3442597,10.0752721 13.5759253,10.1828659 C14.2632157,10.5020681 14.7125,11.1921473 14.7125,11.9635022 C14.7125,12.7411239 14.2558904,13.4357639 13.5600849,13.7514096 Z" id="Combined-Shape" fill="#FFFFFF" fill-rule="nonzero"></path>
            </g>
        </g>
    </g>
</svg>