<?xml version="1.0" encoding="UTF-8"?>
<svg width="24px" height="24px" viewBox="0 0 24 24" version="1.1" xmlns="http://www.w3.org/2000/svg" xmlns:xlink="http://www.w3.org/1999/xlink">
    <!-- Generator: Sketch 52.4 (67378) - http://www.bohemiancoding.com/sketch -->
    <title>icon_templet_message</title>
    <desc>Created with Sketch.</desc>
    <g id="页面-1" stroke="none" stroke-width="1" fill="none" fill-rule="evenodd">
        <g id="切图" transform="translate(-299.000000, -86.000000)">
            <rect fill="#FFFFFF" x="0" y="0" width="1210" height="768"></rect>
            <g id="icon_templet_message" transform="translate(299.000000, 86.000000)">
                <circle id="Oval-2" fill="#F35D51" cx="12" cy="12" r="12"></circle>
                <path d="M8.44207685,14.8263141 C8.53556308,14.7326094 8.66132621,14.6801124 8.79232097,14.6801124 L16.5,14.6801124 C16.7761424,14.6801124 17,14.4515113 17,14.1695175 L17,7.53178454 C17,7.24979079 16.7761424,7.02118969 16.5,7.02118969 L7.5,7.02118969 C7.22385763,7.02118969 7,7.24979079 7,7.53178454 L7,16.2717603 L8.44207685,14.8263141 Z M6.85024412,17.8527772 C6.53394123,18.1698191 6,17.9409854 6,17.488384 L6,7.53178454 C6,6.6858033 6.67157288,6 7.5,6 L16.5,6 C17.3284271,6 18,6.6858033 18,7.53178454 L18,14.1695175 C18,15.0154988 17.3284271,15.7013021 16.5,15.7013021 L8.99670416,15.7013021 L6.85024412,17.8527772 Z M8.75,11.6165433 L15.25,11.6165433 C15.3880712,11.6165433 15.5,11.7308439 15.5,11.8718407 L15.5,12.3824356 C15.5,12.5234325 15.3880712,12.637733 15.25,12.637733 L8.75,12.637733 C8.61192881,12.637733 8.5,12.5234325 8.5,12.3824356 L8.5,11.8718407 C8.5,11.7308439 8.61192881,11.6165433 8.75,11.6165433 Z M8.75,9.06356908 L15.25,9.06356908 C15.3880712,9.06356908 15.5,9.17786963 15.5,9.3188665 L15.5,9.82946135 C15.5,9.97045822 15.3880712,10.0847588 15.25,10.0847588 L8.75,10.0847588 C8.61192881,10.0847588 8.5,9.97045822 8.5,9.82946135 L8.5,9.3188665 C8.5,9.17786963 8.61192881,9.06356908 8.75,9.06356908 Z" id="Shape" fill="#FFFFFF" fill-rule="nonzero"></path>
            </g>
        </g>
    </g>
</svg>