<?xml version="1.0" encoding="UTF-8"?>
<svg width="226px" height="272px" viewBox="0 0 226 272" version="1.1" xmlns="http://www.w3.org/2000/svg" xmlns:xlink="http://www.w3.org/1999/xlink">
    <!-- Generator: Sketch 52.5 (67469) - http://www.bohemiancoding.com/sketch -->
    <title>Group 3@2x</title>
    <desc>Created with Sketch.</desc>
    <g id="Page-1" stroke="none" stroke-width="1" fill="none" fill-rule="evenodd">
        <g id="小程序-" transform="translate(-168.000000, -248.000000)">
            <g id="Group-3" transform="translate(168.000000, 248.000000)">
                <rect id="Rectangle" stroke="#D9D9D9" fill="#FAFAFA" fill-rule="nonzero" x="0.5" y="0.5" width="225" height="271" rx="2"></rect>
                <g id="Group-6-Copy" transform="translate(0.000000, 8.000000)">
                    <rect id="Rectangle" fill="#D9D9D9" fill-rule="nonzero" x="0" y="241" width="226" height="1"></rect>
                    <g id="Group-13" transform="translate(9.000000, 244.000000)" fill-rule="nonzero">
                        <rect id="Rectangle" fill="#EFEFEF" x="19" y="4" width="30" height="10"></rect>
                        <g id="Group-14">
                            <rect id="Rectangle" x="0" y="0" width="18" height="18"></rect>
                            <g id="Group-12" transform="translate(8.559363, 8.368228) rotate(45.000000) translate(-8.559363, -8.368228) translate(6.059363, 2.868228)" stroke="#1271CC" stroke-linecap="round">
                                <g id="Group-11" transform="translate(0.964286, 0.321429)">
                                    <path d="M2.0306443,4.82142857 L3.45056201,6.40035869 C4.16816717,7.19832632 4.1030205,8.42694082 3.30505286,9.14454598 C2.94831017,9.46536148 2.48549284,9.64285714 2.00571379,9.64285714 C0.940736039,9.64285714 0.0774009921,8.7795221 0.0774009921,7.71454434 C0.0774009921,7.23464838 0.256344303,6.77199632 0.579262533,6.41699779" id="Path"></path>
                                    <path d="M2.0306443,4.82142857 L0.579262533,3.22585935 C0.256344303,2.87086082 0.0774009921,2.40820876 0.0774009921,1.9283128 C0.0774009921,0.863335047 0.940736039,5.68434189e-13 2.00571379,5.68434189e-13 C2.48549284,5.68434189e-13 2.94831017,0.177495659 3.30505286,0.498311165 C4.1030205,1.21591632 4.16816717,2.44453082 3.45056201,3.24249846" id="Path"></path>
                                </g>
                            </g>
                        </g>
                    </g>
                    <circle id="Oval" fill="#E3E3E3" fill-rule="nonzero" cx="18" cy="253" r="6"></circle>
                    <g id="默认图片" transform="translate(9.000000, 80.000000)">
                        <rect id="Rectangle" fill="#E3E3E3" fill-rule="nonzero" x="0" y="0" width="210" height="153" rx="2"></rect>
                        <g id="Group-2" transform="translate(65.000000, 47.000000)">
                            <rect id="Rectangle" stroke="#FAFAFA" x="0.985" y="-0.07" width="80.2987805" height="59.7743902" rx="2"></rect>
                            <path d="M23.9465201,24.6410833 L39.7379721,39.2468371 C40.3795681,39.8402589 41.3471,39.908831 42.0659777,39.4118304 L52.5884559,32.137049 C53.2643591,31.6697591 54.1663988,31.6996503 54.8098836,32.2106612 L80.9517073,52.9706789 L80.9517073,57.7692394 C80.9517073,58.7997215 80.1163357,59.6350931 79.0858537,59.6350931 L2.58585366,59.6350931 C1.55537114,59.6350931 0.72,58.7997215 0.72,57.7692394 L0.72,47.8058822 C0.72,47.3372208 0.896369164,46.8857215 1.21404204,46.5411521 L21.3077781,24.746133 C22.0062693,23.9885023 23.1866893,23.9405604 23.94432,24.6390516 C23.9450539,24.6397283 23.9457873,24.6404055 23.9465201,24.6410833 Z" id="Rectangle" fill="#FAFAFA" fill-rule="nonzero"></path>
                            <g transform="translate(59.625000, 11.905000)" fill="#FAFAFA" fill-rule="nonzero" id="Group">
                                <g transform="translate(0.727683, 0.746341)">
                                    <circle id="Oval" cx="3.825" cy="3.825" r="3.825"></circle>
                                </g>
                            </g>
                        </g>
                    </g>
                    <circle id="Oval" fill="#E3E3E3" fill-rule="nonzero" cx="18" cy="10" r="10"></circle>
                    <rect id="Rectangle" fill="#EFEFEF" fill-rule="nonzero" x="36" y="4" width="52" height="12" rx="2"></rect>
                    <rect id="Rectangle" fill="#EFEFEF" fill-rule="nonzero" x="9" y="36" width="209" height="14" rx="2"></rect>
                    <rect id="Rectangle-Copy" fill="#EFEFEF" fill-rule="nonzero" x="8" y="58" width="64" height="14" rx="2"></rect>
                </g>
            </g>
        </g>
    </g>
</svg>