<?xml version="1.0" encoding="UTF-8"?>
<svg width="38px" height="38px" viewBox="0 0 38 38" version="1.1" xmlns="http://www.w3.org/2000/svg" xmlns:xlink="http://www.w3.org/1999/xlink">
    <!-- Generator: Sketch 52.5 (67469) - http://www.bohemiancoding.com/sketch -->
    <title>大图标/完成</title>
    <desc>Created with Sketch.</desc>
    <g id="Page-1" stroke="none" stroke-width="1" fill="none" fill-rule="evenodd">
        <g id="聊天记录-copy-8" transform="translate(-316.000000, -328.000000)">
            <g id="Group-8" transform="translate(257.000000, 289.000000)">
                <g id="Group-7-Copy-6">
                    <g id="Group-11" transform="translate(48.000000, 26.000000)">
                        <g id="大图标/完成" transform="translate(12.000000, 14.000000)">
                            <path d="M36,18.2222222 C36,8.05866667 27.9413333,0 17.7777778,0 C8.05866667,0 0,8.05866667 0,18.2222222 C0,27.9413333 8.05866667,36 17.7777778,36 C27.9413333,36 36,27.9413333 36,18.2222222 Z" id="Fill-" stroke="#FFFFFF"></path>
                            <g id="Group-6" transform="translate(8.000000, 8.000000)" fill="#FFFFFF" fill-rule="nonzero">
                                <path d="M4.04828061,9.3084287 L21.2,9.3084287 C21.3656854,9.3084287 21.5,9.44274328 21.5,9.6084287 L21.5,11.0084287 C21.5,11.1741141 21.3656854,11.3084287 21.2,11.3084287 L4.04828061,11.3084287 L11.32143,18.581578 C11.4385872,18.6987353 11.4385872,18.8886848 11.32143,19.0058421 L10.3314805,19.9957916 C10.2143232,20.1129489 10.0243737,20.1129489 9.90721639,19.9957916 L0.431985521,10.5205607 C0.314828233,10.4034034 0.314828233,10.213454 0.431985521,10.0962967 L9.90721639,0.621065798 C10.0243737,0.503908511 10.2143232,0.503908511 10.3314805,0.621065798 L11.32143,1.61101529 C11.4385872,1.72817258 11.4385872,1.91812207 11.32143,2.03527936 L4.04828061,9.3084287 Z" id="Path"></path>
                            </g>
                        </g>
                    </g>
                </g>
            </g>
        </g>
    </g>
</svg>