<?xml version="1.0" encoding="UTF-8"?>
<svg width="38px" height="38px" viewBox="0 0 38 38" version="1.1" xmlns="http://www.w3.org/2000/svg" xmlns:xlink="http://www.w3.org/1999/xlink">
    <!-- Generator: Sketch 52.5 (67469) - http://www.bohemiancoding.com/sketch -->
    <title>大图标/完成</title>
    <desc>Created with Sketch.</desc>
    <g id="Page-1" stroke="none" stroke-width="1" fill="none" fill-rule="evenodd">
        <g id="聊天记录-copy-7" transform="translate(-316.000000, -841.000000)">
            <g id="Group-8" transform="translate(257.000000, 802.000000)">
                <g id="Group-7-Copy-6">
                    <g id="Group-11" transform="translate(48.000000, 26.000000)">
                        <g id="大图标/完成" transform="translate(12.000000, 14.000000)">
                            <path d="M36,18.2222222 C36,8.05866667 27.9413333,0 17.7777778,0 C8.05866667,0 0,8.05866667 0,18.2222222 C0,27.9413333 8.05866667,36 17.7777778,36 C27.9413333,36 36,27.9413333 36,18.2222222 Z" id="Fill-" stroke="#FFFFFF"></path>
                            <path d="M8.75994531,19.1135854 C8.64839942,18.998141 8.63699801,18.7970278 8.73942131,18.6576623 L9.47534546,17.6563045 C9.57555626,17.5199496 9.76982295,17.4960429 9.88932457,17.5876341 L14.8359018,21.3789018 C14.9643253,21.4773311 15.1781942,21.465684 15.2996409,21.364509 L27.5336135,11.1726204 C27.661306,11.0662422 27.866226,11.0801526 27.9766847,11.1892413 L28.6517773,11.8559605 C28.7687863,11.9715182 28.7681789,12.1591449 28.6469447,12.2784575 L15.2847249,25.4288777 C15.1650469,25.5466587 14.9760006,25.5468945 14.8660571,25.4331084 L8.75994531,19.1135854 Z" id="Fill-" fill="#FFFFFF"></path>
                        </g>
                    </g>
                </g>
            </g>
        </g>
    </g>
</svg>