<?xml version="1.0" encoding="utf-8"?>
<!-- Generator: Adobe Illustrator 22.1.0, SVG Export Plug-In . SVG Version: 6.00 Build 0)  -->
<svg version="1.1" id="图层_1" xmlns="http://www.w3.org/2000/svg" xmlns:xlink="http://www.w3.org/1999/xlink" x="0px" y="0px"
	 viewBox="0 0 24 24" style="enable-background:new 0 0 24 24;" xml:space="preserve">
<style type="text/css">
	.st0{clip-path:url(#SVGID_4_);}
	.st1{clip-path:url(#SVGID_6_);fill:#E6E9EB;}
</style>
<g>
	<defs>
		<path id="SVGID_1_" d="M-141-362h84c1.1,0,2,0.9,2,2v84c0,1.1-0.9,2-2,2h-84c-1.1,0-2-0.9-2-2v-84C-143-361.1-142.1-362-141-362z"
			/>
	</defs>
	<clipPath id="SVGID_2_">
		<use xlink:href="#SVGID_1_"  style="overflow:visible;"/>
	</clipPath>
</g>
<g>
	<defs>
		<path id="SVGID_3_" d="M21.8,6.7h-3.6c0,0,0.1-0.1,0.1-0.1c0.7-1,1-2.1,1-3.2c0-0.6-0.2-1.1-0.4-1.5c-0.2-0.5-0.6-0.9-1-1.2
			C17.5,0.3,17,0.1,16.4,0c-0.5-0.1-1,0-1.6,0.2c-1,0.3-2,1.1-2.7,2c-0.1,0.1-0.1,0.2-0.2,0.3C12,2.4,12,2.3,11.9,2.3
			c-0.7-1-1.6-1.7-2.7-2C8.7,0,8.2,0,7.7,0c-0.5,0.1-1,0.2-1.5,0.6c-0.4,0.3-0.8,0.7-1,1.2C5,2.3,4.8,2.8,4.8,3.3
			c0,1.1,0.3,2.2,1,3.2c0,0.1,0.1,0.1,0.1,0.1H2.2C1,6.7,0,7.7,0,9v1.4c0,1.2,1,2.2,2.2,2.2h0.1v9.2c0,1.2,1,2.2,2.2,2.2h15.2
			c1.2,0,2.2-1,2.2-2.2v-9.2c1.2,0,2.2-1,2.2-2.2V9C24,7.7,23,6.7,21.8,6.7z M13.5,3.2C14,2.5,14.7,2,15.4,1.8
			c0.2-0.1,0.5-0.1,0.7-0.1c0.4,0,0.7,0.1,0.9,0.3c0.4,0.3,0.7,0.8,0.7,1.5c0,0.7-0.3,1.7-0.9,2.2c-1.4,1.2-3,1.1-3.5,0.8
			C13,6.3,12.6,4.6,13.5,3.2z M6.4,3.4c0-0.7,0.3-1.2,0.7-1.5c0.3-0.2,0.6-0.3,0.9-0.3c0.2,0,0.5,0,0.7,0.1c0.7,0.2,1.4,0.7,1.8,1.4
			c0.9,1.5,0.5,3.1,0.2,3.3c-0.4,0.3-2.1,0.4-3.5-0.8C6.7,5.1,6.4,4.2,6.4,3.4z M1.6,10.4V9c0-0.3,0.3-0.6,0.6-0.6h9V11l-9,0
			C1.8,11,1.6,10.7,1.6,10.4z M3.9,21.8v-9.2h7.3v9.8H4.5C4.1,22.4,3.9,22.1,3.9,21.8z M19.6,22.4h-6.8v-9.8h7.4v9.2
			C20.2,22.1,20,22.4,19.6,22.4z M22.4,10.4c0,0.3-0.3,0.6-0.6,0.6h-8.9V8.3h8.9c0.3,0,0.6,0.3,0.6,0.6V10.4z"/>
	</defs>
	<clipPath id="SVGID_4_">
		<use xlink:href="#SVGID_3_"  style="overflow:visible;"/>
	</clipPath>
	<g class="st0">
		<defs>
			<rect id="SVGID_5_" x="-670.4" y="-479.4" width="1610" height="1667"/>
		</defs>
		<clipPath id="SVGID_6_">
			<use xlink:href="#SVGID_5_"  style="overflow:visible;"/>
		</clipPath>
		<rect x="-5" y="-5" class="st1" width="34" height="34"/>
	</g>
</g>
</svg>
