<?xml version="1.0" encoding="utf-8"?>
<!-- Generator: Adobe Illustrator 22.1.0, SVG Export Plug-In . SVG Version: 6.00 Build 0)  -->
<svg version="1.1" id="图层_1" xmlns="http://www.w3.org/2000/svg" xmlns:xlink="http://www.w3.org/1999/xlink" x="0px" y="0px"
	 viewBox="0 0 120 120" style="enable-background:new 0 0 120 120;" xml:space="preserve">
<style type="text/css">
	.st0{clip-path:url(#SVGID_2_);}
	.st1{clip-path:url(#SVGID_4_);enable-background:new    ;}
	.st2{clip-path:url(#SVGID_6_);}
	.st3{clip-path:url(#SVGID_8_);fill:#F7F9FB;}
	.st4{clip-path:url(#SVGID_10_);}
	.st5{clip-path:url(#SVGID_12_);fill:#E6E9EB;}
</style>
<g>
	<defs>
		<path id="SVGID_1_" d="M2,0h116c1.1,0,2,0.9,2,2v116c0,1.1-0.9,2-2,2H2c-1.1,0-2-0.9-2-2V2C0,0.9,0.9,0,2,0z"/>
	</defs>
	<clipPath id="SVGID_2_">
		<use xlink:href="#SVGID_1_"  style="overflow:visible;"/>
	</clipPath>
	<g class="st0">
		<defs>
			<rect id="SVGID_3_" x="-338" y="-247" width="1610" height="1667"/>
		</defs>
		<clipPath id="SVGID_4_">
			<use xlink:href="#SVGID_3_"  style="overflow:visible;"/>
		</clipPath>
		<g class="st1">
			<g>
				<defs>
					<rect id="SVGID_5_" x="-5" y="-5" width="130" height="130"/>
				</defs>
				<clipPath id="SVGID_6_">
					<use xlink:href="#SVGID_5_"  style="overflow:visible;"/>
				</clipPath>
				<g class="st2">
					<defs>
						<rect id="SVGID_7_" width="120" height="120"/>
					</defs>
					<clipPath id="SVGID_8_">
						<use xlink:href="#SVGID_7_"  style="overflow:visible;"/>
					</clipPath>
					<rect x="-5" y="-5" class="st3" width="130" height="130"/>
				</g>
				<g class="st2">
					<defs>
						<path id="SVGID_9_" d="M79.6,49.4h-7.1c0.1-0.1,0.1-0.2,0.2-0.3c1.4-2,2.1-4.3,2-6.5c0-1.1-0.3-2.2-0.8-3.1
							c-0.5-1-1.2-1.8-2-2.4s-1.9-1-2.9-1.1c-1-0.1-2.1,0-3.1,0.3c-2.1,0.7-3.9,2.1-5.3,4.1c-0.1,0.2-0.2,0.4-0.3,0.5
							c-0.1-0.2-0.2-0.4-0.3-0.5c-1.4-2-3.2-3.4-5.3-4.1c-1.1-0.3-2.1-0.4-3.1-0.3c-1.1,0.1-2.1,0.5-2.9,1.1c-0.9,0.6-1.6,1.4-2,2.4
							c-0.4,0.9-0.7,2-0.8,3.1c-0.1,2.2,0.6,4.5,2,6.5c0.1,0.1,0.1,0.2,0.2,0.3h-7.5c-2.4,0-4.4,2-4.4,4.4v2.8c0,2.5,2,4.4,4.4,4.4
							h0.2v18.4c0,2.5,2,4.4,4.4,4.4h30.3c2.4,0,4.4-2,4.4-4.4V61.1c2.4,0,4.3-2,4.3-4.4v-2.8C84,51.4,82,49.4,79.6,49.4z
							 M63.1,42.3c0.9-1.4,2.3-2.4,3.7-2.9c0.5-0.2,1-0.2,1.4-0.2c0.7,0,1.3,0.2,1.9,0.6c0.9,0.6,1.4,1.7,1.4,3
							c0.1,1.5-0.6,3.3-1.8,4.5c-2.8,2.5-6.1,2.3-7,1.7C62,48.5,61.3,45.2,63.1,42.3z M48.9,42.8c0.1-1.3,0.6-2.4,1.4-3
							c0.5-0.4,1.2-0.6,1.9-0.6c0.4,0,0.9,0.1,1.4,0.2c1.4,0.4,2.8,1.4,3.7,2.9c1.8,2.9,1.1,6.2,0.4,6.6c-0.9,0.6-4.2,0.8-7-1.7
							C49.4,46.1,48.8,44.3,48.9,42.8z M39.2,56.7v-2.8c0-0.7,0.5-1.2,1.2-1.2h18.1v5.2l-18.1,0C39.7,57.9,39.2,57.4,39.2,56.7z
							 M43.8,79.6V61.1h14.7v19.6H45C44.3,80.8,43.8,80.2,43.8,79.6z M75.3,80.8H61.8V61.1h14.7v18.4C76.5,80.2,76,80.8,75.3,80.8z
							 M80.8,56.7c0,0.7-0.5,1.2-1.2,1.2H61.8v-5.2h17.9c0.7,0,1.2,0.5,1.2,1.2V56.7z"/>
					</defs>
					<clipPath id="SVGID_10_">
						<use xlink:href="#SVGID_9_"  style="overflow:visible;"/>
					</clipPath>
					<g class="st4">
						<defs>
							<rect id="SVGID_11_" width="120" height="120"/>
						</defs>
						<clipPath id="SVGID_12_">
							<use xlink:href="#SVGID_11_"  style="overflow:visible;"/>
						</clipPath>
						<rect x="31" y="31" class="st5" width="58" height="58"/>
					</g>
				</g>
			</g>
		</g>
	</g>
</g>
</svg>
