<?xml version="1.0" encoding="utf-8"?>
<!-- Generator: Adobe Illustrator 22.1.0, SVG Export Plug-In . SVG Version: 6.00 Build 0)  -->
<svg version="1.1" id="图层_1" xmlns="http://www.w3.org/2000/svg" xmlns:xlink="http://www.w3.org/1999/xlink" x="0px" y="0px"
	 viewBox="0 0 320 70" style="enable-background:new 0 0 320 70;" xml:space="preserve">
<style type="text/css">
	.st0{clip-path:url(#SVGID_4_);fill-rule:evenodd;clip-rule:evenodd;fill:#FFFFFF;}
	.st1{clip-path:url(#SVGID_6_);fill:#FEFEFE;}
	.st2{clip-path:url(#SVGID_8_);fill:none;stroke:#6E7C89;stroke-width:3;stroke-miterlimit:10;}
	.st3{fill:#6E7C89;}
	.st4{font-family:'PingFangSC-Regular-GBpc-EUC-H';}
	.st5{font-size:9.3867px;}
	.st6{clip-path:url(#SVGID_10_);fill:#6E7C89;}
	.st7{fill:#F35D51;}
	.st8{clip-path:url(#SVGID_12_);fill:#F35D51;}
	.st9{clip-path:url(#SVGID_14_);fill:#6E7C89;}
	.st10{clip-path:url(#SVGID_16_);}
	.st11{clip-path:url(#SVGID_18_);}
</style>
<g>
	<defs>
		<rect id="SVGID_1_" x="-0.5" y="0.2" width="320" height="70.8"/>
	</defs>
	<clipPath id="SVGID_2_">
		<use xlink:href="#SVGID_1_"  style="overflow:visible;"/>
	</clipPath>
	<g style="clip-path:url(#SVGID_2_);">
		
			<image style="overflow:visible;" width="375" height="83" xlink:href="38CD768056CDE942.png"  transform="matrix(0.8533 0 0 0.8533 -0.5 0.16)">
		</image>
	</g>
</g>
<g>
	<defs>
		<rect id="SVGID_3_" x="-0.5" y="0.2" width="320" height="70.8"/>
	</defs>
	<clipPath id="SVGID_4_">
		<use xlink:href="#SVGID_3_"  style="overflow:visible;"/>
	</clipPath>
	<rect x="-640.5" y="1" class="st0" width="320" height="70.8"/>
</g>
<g>
	<defs>
		<rect id="SVGID_5_" x="-0.5" y="0" width="320" height="70.8"/>
	</defs>
	<clipPath id="SVGID_6_">
		<use xlink:href="#SVGID_5_"  style="overflow:visible;"/>
	</clipPath>
	<rect x="-4.8" y="-4.3" class="st1" width="328.5" height="79.4"/>
</g>
<g>
	<defs>
		<path id="SVGID_7_" d="M279.8,25v0.9c0,0.9,0.8,1.7,1.7,1.7H296c0.9,0,1.7-0.8,1.7-1.7V25c0-3.4-6-5.1-9-5.1S279.8,21.6,279.8,25z
			 M288.8,18.1c2.7,0,4.9-2.2,4.9-4.9c0-2.7-2.2-4.9-4.9-4.9s-4.9,2.2-4.9,4.9C283.9,15.9,286.1,18.1,288.8,18.1z"/>
	</defs>
	<clipPath id="SVGID_8_">
		<use xlink:href="#SVGID_7_"  style="overflow:visible;"/>
	</clipPath>
	<path class="st2" d="M279.8,25v0.9c0,0.9,0.8,1.7,1.7,1.7H296c0.9,0,1.7-0.8,1.7-1.7V25c0-3.4-6-5.1-9-5.1
		C285.8,19.8,279.8,21.6,279.8,25z M288.8,18.1c2.7,0,4.9-2.2,4.9-4.9s-2.2-4.9-4.9-4.9c-2.7,0-4.9,2.2-4.9,4.9
		S286.1,18.1,288.8,18.1z"/>
</g>
<text transform="matrix(1 0 0 1 279.3936 41.9736)" class="st3 st4 st5">我的</text>
<path class="st3" d="M191.1,36v3.1c0,1-0.2,1.9-0.5,2.5c-0.3,0.6-0.7,1-1.4,1.4l-0.4-0.6c0.6-0.3,1-0.7,1.3-1.2
	c0.2-0.5,0.3-1.2,0.4-2.1V36H191.1z M192.4,40.6h-0.6v-5.3h-1.9v5.3h-0.6v-5.9h3.2V40.6z M192.8,42.4l-0.5,0.5
	c-0.3-0.5-0.7-1-1.3-1.6l0.4-0.4C192,41.4,192.5,41.9,192.8,42.4z M194.4,34.4c-0.1,0.5-0.2,0.9-0.3,1.3h3.1c0,3.3-0.1,5.3-0.2,6
	c-0.1,0.8-0.5,1.2-1.3,1.2c-0.3,0-0.7,0-1.3,0l-0.2-0.6c0.5,0,1,0,1.4,0c0.4,0,0.7-0.2,0.7-0.7c0.1-0.6,0.1-2.3,0.1-5.2h-2.7
	c-0.3,0.6-0.6,1.1-0.9,1.5l-0.4-0.5c0.6-0.8,1.1-1.8,1.3-3L194.4,34.4z M196.1,40.9l-0.6,0.3c-0.1-0.2-0.1-0.5-0.2-0.7
	c-0.7,0.2-1.5,0.3-2.4,0.4l-0.1-0.6c0.4-0.3,0.8-1.3,1.3-3.2l0.6,0.2c-0.4,1.2-0.8,2.2-1.2,2.9c0.6-0.1,1.1-0.2,1.6-0.3
	c-0.2-0.5-0.3-0.9-0.5-1.3l0.5-0.3C195.5,39.2,195.8,40,196.1,40.9z M198.8,38.3l-0.6-0.2c0.4-1,0.6-2,0.6-3.1l0.6,0
	c0,0.4-0.1,0.8-0.1,1.2h0.7v-2h0.7v2h0.8v0.7h-0.8v2.3c0.3-0.1,0.5-0.2,0.8-0.4v0.6c-0.2,0.1-0.5,0.3-0.8,0.4v3.1H200v-2.8
	c-0.5,0.2-1,0.4-1.5,0.5l-0.2-0.7c0.6-0.1,1.1-0.3,1.6-0.5v-2.5h-0.8C199.1,37.4,199,37.9,198.8,38.3z M203.3,34.5
	c-0.1,0.5-0.2,0.9-0.3,1.4h3.6c0,3.1,0,5.1-0.1,5.8c-0.1,0.8-0.6,1.2-1.5,1.2c-0.1,0-0.4,0-0.7,0l-0.2-0.6c0.3,0,0.6,0,0.8,0
	c0.6,0,0.9-0.3,1-0.9c0.1-0.5,0.1-2.2,0.1-4.9h-0.6c-0.2,1.6-0.5,2.8-0.9,3.7c-0.4,1-1.1,1.9-1.9,2.6l-0.4-0.5
	c0.8-0.7,1.4-1.5,1.8-2.4c0.4-0.9,0.6-2,0.8-3.5h-0.7c-0.4,2-1.1,3.5-2.1,4.5l-0.4-0.5c1-0.8,1.6-2.1,2-4h-0.6
	c-0.3,0.6-0.5,1.1-0.9,1.5l-0.5-0.4c0.6-0.8,1-1.8,1.3-3.2L203.3,34.5z M210.3,35.5c0.2-0.4,0.4-0.8,0.5-1.3l0.7,0.2
	c-0.2,0.4-0.3,0.8-0.5,1.1h4.8v0.7h-5.1c-0.4,0.8-0.9,1.5-1.4,2.1h2.4v-1.4h0.7v1.4h2.9v0.6h-2.9v1.4h3.6V41h-3.6v2h-0.7v-2H208
	v-0.7h3.8v-1.4h-3.1l-0.2-0.6c0.5-0.6,1.1-1.3,1.5-2.1h-1.9v-0.7H210.3z"/>
<g>
	<defs>
		<path id="SVGID_9_" d="M208.8,28.1c-0.7,0-1.3-0.6-1.3-1.3c0-0.7,0.6-1.3,1.3-1.3c0.7,0,1.3,0.6,1.3,1.3
			C210.1,27.5,209.5,28.1,208.8,28.1z M199.4,28.1c-0.7,0-1.3-0.6-1.3-1.3c0-0.7,0.6-1.3,1.3-1.3c0.7,0,1.3,0.6,1.3,1.3
			C200.7,27.5,200.1,28.1,199.4,28.1z M197.1,11.9L197.1,11.9l0,0.2L197.1,11.9h13.5c0.9,0,1.7,0.8,1.7,1.7c0,0.1,0,0.2,0,0.3
			l-1.1,6.6c-0.1,0.8-0.8,1.4-1.6,1.4l-10.8,0.5l0,0.2c0.1,0.5,0.5,0.9,1.1,0.9h10.3c0.4,0,0.6,0.3,0.6,0.6s-0.3,0.6-0.6,0.6h-10.3
			c-1.2,0-2.1-0.8-2.3-2l-1.7-11.1c-0.1-0.5-0.5-0.9-1.1-0.9h-0.9c-0.4,0-0.6-0.3-0.6-0.6c0-0.4,0.3-0.6,0.6-0.6h0.9
			c1.2,0,2.1,0.8,2.3,2L197.1,11.9z M198.6,21.1l10.9-0.5c0.2,0,0.4-0.2,0.4-0.4l1.1-6.6c0,0,0,0,0-0.1c0-0.2-0.2-0.4-0.4-0.4h-13.3
			L198.6,21.1z"/>
	</defs>
	<clipPath id="SVGID_10_">
		<use xlink:href="#SVGID_9_"  style="overflow:visible;"/>
	</clipPath>
	<rect x="188.9" y="5.3" class="st6" width="27.6" height="27.1"/>
</g>
<path class="st7" d="M29.5,42.9h-0.7v-0.4h-4.9v0.4h-0.7v-5.8h2.5c0.1-0.3,0.1-0.6,0.2-0.9h-3.8v-0.7h2.4c-0.1-0.4-0.3-0.7-0.5-1
	l0.7-0.2c0.2,0.4,0.4,0.8,0.5,1.3h2.1c0.2-0.4,0.4-0.8,0.6-1.3l0.7,0.2c-0.2,0.4-0.3,0.8-0.5,1.1h2.4v0.7h-3.8
	c-0.1,0.3-0.1,0.6-0.2,0.9h3V42.9z M28.8,38.7v-1h-4.9v1H28.8z M28.8,40.3v-1h-4.9v1H28.8z M28.8,41.9v-1h-4.9v1H28.8z M38.7,40.8
	H38V37h-4.5v3.8h-0.7v-4.5h2.4c0.1-0.3,0.2-0.7,0.2-1h-3.8v-0.6h8.3v0.6h-3.8c-0.1,0.4-0.1,0.7-0.2,1h2.8V40.8z M36.1,37.6v1.5
	c0,1-0.4,1.8-1,2.5c-0.6,0.6-1.6,1-3,1.3l-0.4-0.6c1.4-0.3,2.3-0.7,2.8-1.2c0.5-0.5,0.8-1.2,0.8-2v-1.5H36.1z M39.7,42.3l-0.4,0.6
	c-1.1-0.7-2.2-1.2-3.3-1.6l0.4-0.6C37.6,41.2,38.7,41.7,39.7,42.3z"/>
<g>
	<defs>
		<path id="SVGID_11_" d="M33.1,11.9c-0.1-0.3,0.2-0.7,0.5-0.7c0.3-0.1,0.7,0.2,0.7,0.5l0.7,4.1c0.1,0.3-0.2,0.7-0.5,0.7
			c-0.3,0.1-0.7-0.2-0.7-0.5L33.1,11.9z M29.1,11.9L28.3,16c-0.1,0.3-0.4,0.6-0.8,0.5c-0.3-0.1-0.6-0.4-0.5-0.8l0.8-4.1
			c0.1-0.3,0.4-0.6,0.8-0.5C29,11.2,29.2,11.5,29.1,11.9z M22.5,17.4h5.1c0.2,0,0.4,0.1,0.5,0.3c0.7,0.9,1.7,1.5,2.9,1.5
			c1.2,0,2.2-0.5,2.9-1.5c0.1-0.2,0.3-0.3,0.5-0.3h5.1l-2.1-7.3H24.6L22.5,17.4z M25.1,14.9H37H25.1z M39.4,18.7v6.2
			c0,1.3-1.1,2.3-2.3,2.3H25.1c-1.3,0-2.3-1.1-2.3-2.3v-6.2h-1.1c-0.4,0-0.7-0.4-0.6-0.8l2.5-8.5c0.1-0.3,0.3-0.5,0.6-0.5H38
			c0.3,0,0.5,0.2,0.6,0.5l2.5,8.5c0.1,0.4-0.2,0.8-0.6,0.8H39.4z M24,18.7v6.2c0,0.6,0.5,1.1,1.1,1.1H37c0.6,0,1.1-0.5,1.1-1.1v-6.2
			h-3.3c-0.9,1.1-2.3,1.7-3.7,1.7s-2.8-0.6-3.7-1.7H24z"/>
	</defs>
	<clipPath id="SVGID_12_">
		<use xlink:href="#SVGID_11_"  style="overflow:visible;"/>
	</clipPath>
	<rect x="16.8" y="4.6" class="st8" width="28.6" height="26.9"/>
</g>
<g>
	<defs>
		<path id="SVGID_13_" d="M121.5,17c-2.2,0-4.1-1.8-4.1-4.1s1.8-4.1,4.1-4.1s4.1,1.8,4.1,4.1S123.8,17,121.5,17z M121.5,15.7
			c1.5,0,2.8-1.2,2.8-2.8s-1.2-2.8-2.8-2.8s-2.8,1.2-2.8,2.8S120,15.7,121.5,15.7z M121.5,26c1.5,0,2.8-1.2,2.8-2.8
			c0-1.5-1.2-2.8-2.8-2.8s-2.8,1.2-2.8,2.8C118.8,24.7,120,26,121.5,26z M110.4,27.3c-2.2,0-4.1-1.8-4.1-4.1s1.8-4.1,4.1-4.1
			s4.1,1.8,4.1,4.1S112.7,27.3,110.4,27.3z M110.4,26c1.5,0,2.8-1.2,2.8-2.8c0-1.5-1.2-2.8-2.8-2.8s-2.8,1.2-2.8,2.8
			C107.7,24.7,108.9,26,110.4,26z M110.4,17c-2.2,0-4.1-1.8-4.1-4.1s1.8-4.1,4.1-4.1s4.1,1.8,4.1,4.1S112.7,17,110.4,17z
			 M110.4,15.7c1.5,0,2.8-1.2,2.8-2.8s-1.2-2.8-2.8-2.8s-2.8,1.2-2.8,2.8S108.9,15.7,110.4,15.7z M124.8,25.5l1.1,1.1
			c0.3,0.3,0.3,0.8,0,1.1c-0.3,0.3-0.8,0.3-1.1,0l-1.1-1.1c-0.6,0.4-1.4,0.7-2.2,0.7c-2.2,0-4.1-1.8-4.1-4.1s1.8-4.1,4.1-4.1
			s4.1,1.8,4.1,4.1C125.6,24.1,125.3,24.9,124.8,25.5z"/>
	</defs>
	<clipPath id="SVGID_14_">
		<use xlink:href="#SVGID_13_"  style="overflow:visible;"/>
	</clipPath>
	<rect x="102.1" y="4.6" class="st9" width="28.3" height="27.5"/>
</g>
<path class="st3" d="M108.7,37.8v-0.6h6.1v0.6h-2.7v1.6h2.4V40h-2.4v2h3.6v0.6h-7.8V42h3.6v-2h-2.5v-0.6h2.5v-1.6H108.7z
	 M115.5,37.1h-0.7v-1.2h-6.2v1.2h-0.7v-1.9h3.5c-0.1-0.3-0.3-0.6-0.4-0.8l0.7-0.1c0.1,0.3,0.3,0.6,0.4,0.9h3.4V37.1z M114.7,41.6
	l-0.5,0.4c-0.3-0.4-0.6-0.9-1-1.4l0.5-0.3C114.1,40.8,114.5,41.3,114.7,41.6z M121.5,36.1v2.3c0,1.2-0.4,2.2-1,2.9
	c-0.6,0.7-1.5,1.2-2.9,1.6l-0.4-0.6c1.3-0.4,2.2-0.9,2.8-1.5c0.5-0.6,0.7-1.5,0.8-2.5v-2.3H121.5z M123.9,40.3h-0.7v-5h-4.1v5h-0.7
	v-5.7h5.5V40.3z M125,42.3l-0.4,0.6c-1-0.8-2-1.4-3.1-1.9l0.4-0.5C123,41,124,41.6,125,42.3z"/>
<g>
	<defs>
		<path id="SVGID_15_" d="M104.9,59.9H215c1.2,0,2.1,1,2.1,2.1c0,1.2-1,2.1-2.1,2.1H104.9c-1.2,0-2.1-1-2.1-2.1
			C102.8,60.8,103.7,59.9,104.9,59.9z"/>
	</defs>
	<clipPath id="SVGID_16_">
		<use xlink:href="#SVGID_15_"  style="overflow:visible;"/>
	</clipPath>
	<g class="st10">
		<defs>
			<rect id="SVGID_17_" x="-0.5" y="42.8" width="320" height="29"/>
		</defs>
		<clipPath id="SVGID_18_">
			<use xlink:href="#SVGID_17_"  style="overflow:visible;"/>
		</clipPath>
		<rect x="98.5" y="55.6" class="st11" width="122.9" height="12.8"/>
	</g>
</g>
</svg>
