<?xml version="1.0" encoding="utf-8"?>
<!-- Generator: Adobe Illustrator 22.0.1, SVG Export Plug-In . SVG Version: 6.00 Build 0)  -->
<svg version="1.1" id="图层_1" xmlns="http://www.w3.org/2000/svg" xmlns:xlink="http://www.w3.org/1999/xlink" x="0px" y="0px"
	 viewBox="0 0 32 32" style="enable-background:new 0 0 32 32;" xml:space="preserve">
<style type="text/css">
	.st0{fill:#4391FF;}
</style>
<g id="页面-1">
	<g id="晒图红包1-copy" transform="translate(-188.000000, -67.000000)">
		<g id="icon_guide-copy" transform="translate(184.000000, 63.000000)">
			<g id="icon_all_message">
			</g>
			<path id="形状" class="st0" d="M10,11.4v14c0,0.6,0.4,1,1,1h5.4l3.6,3.1l3.6-3.1H29c0.6,0,1-0.4,1-1v-14c0-0.6-0.4-1-1-1H11
				C10.4,10.4,10,10.9,10,11.4z M11,28.4c-1.7,0-3-1.3-3-3v-14c0-1.7,1.3-3,3-3h18c1.7,0,3,1.3,3,3v14c0,1.7-1.3,3-3,3h-4.6
				l-3.1,2.6c-0.8,0.6-1.9,0.6-2.6,0l-3.1-2.6H11z M18.6,21.2c-0.1-0.3-0.2-0.6-0.2-1c0-0.8,0.4-1.6,1.2-2.2c0.5-0.4,0.8-0.8,1-1
				c0.2-0.3,0.3-0.6,0.3-0.9c0-0.3-0.1-0.6-0.4-0.9s-0.6-0.3-0.9-0.3c-0.9,0-1.7,0.3-2.5,1v-2.3c0.8-0.5,1.7-0.7,2.8-0.7
				c1.1,0,1.9,0.2,2.5,0.7s0.9,1.2,0.9,2.1c0,0.5-0.1,1-0.4,1.5c-0.2,0.4-0.7,0.9-1.3,1.4c-0.5,0.4-0.8,0.8-1,1
				c-0.1,0.2-0.2,0.5-0.2,0.8c0,0.3,0.1,0.5,0.2,0.8H18.6z M18.3,23.4c0-0.4,0.1-0.7,0.4-0.9c0.3-0.2,0.6-0.4,1-0.4
				c0.4,0,0.7,0.1,1,0.4c0.3,0.2,0.4,0.5,0.4,0.9c0,0.4-0.1,0.7-0.4,0.9c-0.3,0.2-0.6,0.4-0.9,0.4c-0.5,0-0.8-0.1-1.1-0.4
				C18.4,24,18.3,23.7,18.3,23.4z"/>
		</g>
	</g>
</g>
</svg>
