<svg id="图层_1" data-name="图层 1" xmlns="http://www.w3.org/2000/svg" xmlns:xlink="http://www.w3.org/1999/xlink" viewBox="0 0 54.18 52.98"><defs><style>.cls-1{fill:#fff;}.cls-2{fill:#5bd171;}.cls-3{mask:url(#mask);}</style><mask id="mask" x="0" y="0" width="54.18" height="52.98" maskUnits="userSpaceOnUse"><g transform="translate(-4.39 -5)"><g id="mask-2"><polygon id="path-1" class="cls-1" points="4.39 5 58.58 5 58.58 57.98 4.39 57.98 4.39 5"/></g></g></mask></defs><title>最近7日账单</title><g id="Page-1"><g id="概况"><g id="Group-4-Copy"><path id="Fill-1" class="cls-2" d="M38.66,37.51H24.15a.38.38,0,0,0-.39.38v.89a.38.38,0,0,0,.39.38H38.66a.38.38,0,0,0,.39-.38v-.89a.38.38,0,0,0-.39-.38" transform="translate(-4.39 -5)"/><path id="Fill-3" class="cls-2" d="M38.66,27.15H24.15a.38.38,0,0,0-.39.38v.9a.37.37,0,0,0,.39.37H38.66a.37.37,0,0,0,.39-.37v-.9a.38.38,0,0,0-.39-.38" transform="translate(-4.39 -5)"/><path id="Fill-5" class="cls-2" d="M38.66,32.33H24.15a.38.38,0,0,0-.39.38v.9a.38.38,0,0,0,.39.37H38.66a.38.38,0,0,0,.39-.37v-.9a.38.38,0,0,0-.39-.38" transform="translate(-4.39 -5)"/><g id="Group-9"><g class="cls-3"><path id="Fill-7" class="cls-2" d="M31.49,5c-15,0-27.1,11.86-27.1,26.49S16.52,58,31.49,58,58.58,46.12,58.58,31.49,46.45,5,31.49,5ZM44.78,43.94a1.27,1.27,0,0,1-1.29,1.26H19.25A1.27,1.27,0,0,1,18,43.94V19a1.27,1.27,0,0,1,1.28-1.25h4.51a.78.78,0,0,1,.57.48l1.49,2.4.1.07a.58.58,0,0,0,.14,0H36.64a.92.92,0,0,0,.18,0,.94.94,0,0,0,.15-.17l1.44-2.3a.75.75,0,0,1,.56-.48H43.5A1.27,1.27,0,0,1,44.78,19V43.94ZM27,18.12a.38.38,0,0,1,.39-.38h8.1a.38.38,0,0,1,.38.38V19a.38.38,0,0,1-.38.38h-8.1A.38.38,0,0,1,27,19Z" transform="translate(-4.39 -5)"/></g></g></g></g></g></svg>