<svg id="图层_1" data-name="图层 1" xmlns="http://www.w3.org/2000/svg" xmlns:xlink="http://www.w3.org/1999/xlink" viewBox="0 0 54.55 53.34"><defs><style>.cls-1{fill:#fff;}.cls-2{fill:#2c92f6;}.cls-3{mask:url(#mask);}</style><mask id="mask" x="0" y="0" width="54.55" height="53.34" maskUnits="userSpaceOnUse"><g transform="translate(-4.58 -4.32)"><g id="mask-2"><polygon id="path-1" class="cls-1" points="4.58 4.32 59.14 4.32 59.14 57.66 4.58 57.66 4.58 4.32"/></g></g></mask></defs><title>昨日账单</title><g id="Page-1"><g id="概况"><g id="Group-4"><path id="Fill-1" class="cls-2" d="M39.09,37.05H24.47a.38.38,0,0,0-.38.38v.9a.38.38,0,0,0,.38.38H39.09a.38.38,0,0,0,.39-.38v-.9a.38.38,0,0,0-.39-.38" transform="translate(-4.58 -4.32)"/><path id="Fill-3" class="cls-2" d="M39.09,26.62H24.47a.38.38,0,0,0-.38.38v.91a.38.38,0,0,0,.38.38H39.09a.38.38,0,0,0,.39-.38V27a.38.38,0,0,0-.39-.38" transform="translate(-4.58 -4.32)"/><path id="Fill-5" class="cls-2" d="M39.09,31.84H24.47a.38.38,0,0,0-.38.38v.9a.38.38,0,0,0,.38.38H39.09a.38.38,0,0,0,.39-.38v-.9a.38.38,0,0,0-.39-.38" transform="translate(-4.58 -4.32)"/><g id="Group-9"><g class="cls-3"><path id="Fill-7" class="cls-2" d="M45.25,43.53A1.28,1.28,0,0,1,44,44.79H19.55a1.27,1.27,0,0,1-1.29-1.26V18.43a1.28,1.28,0,0,1,1.29-1.27h4.54a.78.78,0,0,1,.57.49l1.5,2.41a.53.53,0,0,0,.1.07l.14,0H37.05a.59.59,0,0,0,.18,0,1.11,1.11,0,0,0,.16-.17l1.44-2.31a.78.78,0,0,1,.57-.49H44a1.28,1.28,0,0,1,1.3,1.27v25.1Zm-17.93-26a.38.38,0,0,1,.39-.38h8.15a.39.39,0,0,1,.39.38v.91a.39.39,0,0,1-.39.38H27.71a.38.38,0,0,1-.39-.38Zm4.54-13.2C16.8,4.32,4.58,16.26,4.58,31S16.8,57.66,31.86,57.66,59.14,45.72,59.14,31,46.93,4.32,31.86,4.32Z" transform="translate(-4.58 -4.32)"/></g></g></g></g></g></svg>