<svg id="图层_1" data-name="图层 1" xmlns="http://www.w3.org/2000/svg" xmlns:xlink="http://www.w3.org/1999/xlink" viewBox="0 0 56.05 54.81"><defs><style>.cls-1{fill:#fff;}.cls-2{fill:#ffbf00;}.cls-3{mask:url(#mask);}</style><mask id="mask" x="0" y="0" width="56.05" height="54.81" maskUnits="userSpaceOnUse"><g transform="translate(-3.59 -4.12)"><g id="mask-2"><polygon id="path-1" class="cls-1" points="3.59 4.12 59.65 4.12 59.65 58.93 3.59 58.93 3.59 4.12"/></g></g></mask></defs><title>至昨天为止账单总数</title><g id="Page-1"><g id="概况"><g id="Group-4-Copy-2"><path id="Fill-1" class="cls-2" d="M39.05,37.75H24a.39.39,0,0,0-.4.39v.93a.4.4,0,0,0,.4.39h15a.4.4,0,0,0,.4-.39v-.93a.39.39,0,0,0-.4-.39" transform="translate(-3.59 -4.12)"/><path id="Fill-3" class="cls-2" d="M39.05,27H24a.39.39,0,0,0-.4.39v.93a.4.4,0,0,0,.4.39h15a.4.4,0,0,0,.4-.39v-.93a.39.39,0,0,0-.4-.39" transform="translate(-3.59 -4.12)"/><path id="Fill-5" class="cls-2" d="M39.05,32.39H24a.4.4,0,0,0-.4.39v.93a.39.39,0,0,0,.4.39h15a.39.39,0,0,0,.4-.39v-.93a.4.4,0,0,0-.4-.39" transform="translate(-3.59 -4.12)"/><g id="Group-9"><g class="cls-3"><path id="Fill-7" class="cls-2" d="M45.37,44.41A1.32,1.32,0,0,1,44,45.71H19a1.32,1.32,0,0,1-1.33-1.3V18.62A1.31,1.31,0,0,1,19,17.32h4.66a.79.79,0,0,1,.59.5l1.54,2.48.1.07a.64.64,0,0,0,.15,0H37a.54.54,0,0,0,.19,0,1.08,1.08,0,0,0,.16-.18l1.48-2.37a.79.79,0,0,1,.59-.5h4.68a1.31,1.31,0,0,1,1.32,1.3V44.41ZM27,17.69a.39.39,0,0,1,.4-.39h8.38a.39.39,0,0,1,.4.39v.93a.4.4,0,0,1-.4.39H27.35a.4.4,0,0,1-.4-.39ZM31.62,4.12c-15.48,0-28,12.27-28,27.41s12.55,27.4,28,27.4,28-12.27,28-27.4S47.1,4.12,31.62,4.12Z" transform="translate(-3.59 -4.12)"/></g></g></g></g></g></svg>