<?xml version="1.0" encoding="utf-8"?>
<!-- Generator: Adobe Illustrator 21.0.0, SVG Export Plug-In . SVG Version: 6.00 Build 0)  -->
<svg version="1.1" id="图层_1" xmlns="http://www.w3.org/2000/svg" xmlns:xlink="http://www.w3.org/1999/xlink" x="0px" y="0px"
	 viewBox="0 0 18 18" style="enable-background:new 0 0 18 18;" xml:space="preserve">
<style type="text/css">
	.st0{clip-path:url(#SVGID_2_);}
	.st1{clip-path:url(#SVGID_4_);}
</style>
<g>
	<defs>
		<path id="SVGID_1_" d="M2.5,6.2H3c0.2,0,0.3,0.1,0.3,0.3v5.1c0,0.2-0.1,0.3-0.3,0.3H2.5c-0.2,0-0.3-0.1-0.3-0.3V6.5
			C2.2,6.4,2.3,6.2,2.5,6.2z M8.4,6.4V5.9c0-0.5,0.6-0.7,0.9-0.4l3.1,2.9c0.3,0.3,0.4,0.8,0.1,1.2c0,0,0,0-0.1,0.1l-3.1,2.9
			c-0.4,0.3-0.9,0.1-0.9-0.4v-0.6H4.4c-0.3,0-0.6-0.3-0.6-0.6V7c0-0.3,0.3-0.6,0.6-0.6H8.4z M8.9,7.6H5v2.8h3.9
			c0.3,0,0.5,0.2,0.5,0.4l2-1.8l-2-1.8C9.4,7.4,9.2,7.6,8.9,7.6z M5.8,5.4H5.3C5.1,5.4,5,5.3,5,5.1V4C5,3,5.7,2.3,6.7,2.3H14
			c0.9,0,1.7,0.8,1.7,1.7v10.1c0,0.9-0.8,1.7-1.7,1.7H6.7C5.7,15.8,5,15,5,14.1v-1.4c0-0.2,0.1-0.3,0.3-0.3h0.6
			c0.2,0,0.3,0.1,0.3,0.3v1.4c0,0.3,0.3,0.6,0.6,0.6H14c0.3,0,0.6-0.3,0.6-0.6V4c0-0.3-0.3-0.6-0.6-0.6H6.7C6.4,3.4,6.1,3.7,6.1,4
			v1.1C6.1,5.3,6,5.4,5.8,5.4z"/>
	</defs>
	<clipPath id="SVGID_2_">
		<use xlink:href="#SVGID_1_"  style="overflow:visible;"/>
	</clipPath>
	<g class="st0">
		<defs>
			<rect id="SVGID_3_" x="-450.1" y="-1678" width="1424" height="1994"/>
		</defs>
		<clipPath id="SVGID_4_">
			<use xlink:href="#SVGID_3_"  style="overflow:visible;"/>
		</clipPath>
		<rect x="-2.8" y="-2.7" class="st1" width="23.5" height="23.5"/>
	</g>
</g>
</svg>
