<?xml version="1.0" encoding="utf-8"?>
<!-- Generator: Adobe Illustrator 21.0.0, SVG Export Plug-In . SVG Version: 6.00 Build 0)  -->
<svg version="1.1" id="图层_1" xmlns="http://www.w3.org/2000/svg" xmlns:xlink="http://www.w3.org/1999/xlink" x="0px" y="0px"
	 viewBox="0 0 18 18" style="enable-background:new 0 0 18 18;" xml:space="preserve">
<style type="text/css">
	.st0{clip-path:url(#SVGID_2_);}
	.st1{clip-path:url(#SVGID_4_);}
</style>
<g>
	<defs>
		<path id="SVGID_1_" d="M1.7,13.7h4.8c0.2,0,0.3,0.1,0.3,0.3v0.6c0,0.2-0.1,0.3-0.3,0.3H1.7c-0.2,0-0.3-0.1-0.3-0.3V14
			C1.4,13.9,1.5,13.7,1.7,13.7z M1.7,11.8h4.8c0.2,0,0.3,0.1,0.3,0.3v0.6c0,0.2-0.1,0.3-0.3,0.3H1.7c-0.2,0-0.3-0.1-0.3-0.3V12
			C1.4,11.9,1.5,11.8,1.7,11.8z M2.8,9.8h3.7c0.2,0,0.3,0.1,0.3,0.3v0.6c0,0.2-0.1,0.3-0.3,0.3H2.8c-0.2,0-0.3-0.1-0.3-0.3v-0.6
			C2.5,9.9,2.7,9.8,2.8,9.8z M15.5,5.1V4.7c0-0.3-0.3-0.6-0.6-0.6H4.2c-0.3,0-0.6,0.3-0.6,0.6v0.4c0,0,0,0,0,0l5.9,4.2L15.5,5.1
			C15.4,5.1,15.5,5.1,15.5,5.1z M15.5,6.5l-5.6,4c-0.2,0.1-0.5,0.1-0.7,0l-5.6-4v2.2C3.7,8.8,3.5,9,3.4,9H2.8C2.7,9,2.5,8.8,2.5,8.7
			V4.7C2.5,3.8,3.3,3,4.2,3h10.7c0.9,0,1.7,0.8,1.7,1.7v8.4c0,0.9-0.8,1.7-1.7,1.7h-7c-0.2,0-0.3-0.1-0.3-0.3V14
			c0-0.2,0.1-0.3,0.3-0.3h7c0.3,0,0.6-0.3,0.6-0.6V6.5z"/>
	</defs>
	<clipPath id="SVGID_2_">
		<use xlink:href="#SVGID_1_"  style="overflow:visible;"/>
	</clipPath>
	<g class="st0">
		<defs>
			<rect id="SVGID_3_" x="-562" y="-1678.1" width="1424" height="1994"/>
		</defs>
		<clipPath id="SVGID_4_">
			<use xlink:href="#SVGID_3_"  style="overflow:visible;"/>
		</clipPath>
		<rect x="-3.6" y="-2" class="st1" width="25.2" height="21.8"/>
	</g>
</g>
</svg>
