<?xml version="1.0" encoding="utf-8"?>
<!-- Generator: Adobe Illustrator 21.0.0, SVG Export Plug-In . SVG Version: 6.00 Build 0)  -->
<svg version="1.1" id="图层_1" xmlns="http://www.w3.org/2000/svg" xmlns:xlink="http://www.w3.org/1999/xlink" x="0px" y="0px"
	 viewBox="0 0 18 18" style="enable-background:new 0 0 18 18;" xml:space="preserve">
<style type="text/css">
	.st0{clip-path:url(#SVGID_2_);}
	.st1{clip-path:url(#SVGID_4_);}
</style>
<g>
	<g>
		<defs>
			<path id="SVGID_1_" d="M16,9.4c0.3,0,0.6,0.3,0.6,0.6c-0.5,3.8-3.7,6.7-7.5,6.7c-4.2,0-7.6-3.4-7.6-7.6c0-3.9,2.9-7.1,6.7-7.5
				c0.3,0,0.6,0.2,0.6,0.6v7.3H16V9.4z M7.6,2.8c-2.9,0.6-5,3.2-5,6.3c0,3.6,2.9,6.5,6.5,6.5c3.1,0,5.7-2.1,6.3-5.1H8.2
				c-0.3,0-0.6-0.3-0.6-0.6V2.8z M10.2,1.6c3.2,0.5,5.8,3.1,6.3,6.3c0.1,0.3-0.2,0.7-0.6,0.7h-5.8C9.8,8.5,9.6,8.3,9.6,8V2.1
				C9.6,1.8,9.9,1.5,10.2,1.6z M10.7,7.4h4.6c-0.6-2.2-2.3-4-4.6-4.6C10.7,2.8,10.7,7.4,10.7,7.4z"/>
		</defs>
		<clipPath id="SVGID_2_">
			<use xlink:href="#SVGID_1_"  style="overflow:visible;"/>
		</clipPath>
		<g class="st0">
			<g>
				<defs>
					<rect id="SVGID_3_" x="-786" y="-1677.9" width="1424" height="1994"/>
				</defs>
				<clipPath id="SVGID_4_">
					<use xlink:href="#SVGID_3_"  style="overflow:visible;"/>
				</clipPath>
				<rect x="-3.6" y="-3.5" class="st1" width="25.1" height="25.1"/>
			</g>
		</g>
	</g>
</g>
</svg>
