<?xml version="1.0" encoding="utf-8"?>
<!-- Generator: Adobe Illustrator 21.0.0, SVG Export Plug-In . SVG Version: 6.00 Build 0)  -->
<svg version="1.1" id="图层_1" xmlns="http://www.w3.org/2000/svg" xmlns:xlink="http://www.w3.org/1999/xlink" x="0px" y="0px"
	 viewBox="0 0 18 18" style="enable-background:new 0 0 18 18;" xml:space="preserve">
<style type="text/css">
	.st0{clip-path:url(#SVGID_2_);}
</style>
<g>
	<defs>
		<path id="SVGID_1_" d="M4.3,4V3.4c0-0.2,0.1-0.3,0.3-0.3h9.3c1.6,0,2.8,1.3,2.8,2.8v6.5c0,0.2-0.1,0.3-0.3,0.3h-0.6
			c-0.2,0-0.3-0.1-0.3-0.3V6c0-0.9-0.8-1.7-1.7-1.7H4.5C4.4,4.3,4.3,4.1,4.3,4z M1.4,6.6C1.4,6.6,1.4,6.6,1.4,6.6V6.5
			c0-0.9,0.8-1.7,1.7-1.7h10.1c0.9,0,1.7,0.8,1.7,1.7v6.8c0,0.9-0.8,1.7-1.7,1.7H3.1c-0.9,0-1.7-0.8-1.7-1.7V6.6z M2.6,6.3l5.6,4
			l5.6-4C13.7,6.1,13.5,6,13.3,6H3.1C2.9,6,2.7,6.1,2.6,6.3z M13.8,12.3V7.7L10.6,10L13.8,12.3z M2.7,13.6c0.1,0.2,0.3,0.3,0.5,0.3
			h10.1c0.2,0,0.4-0.1,0.5-0.3l-4.1-2.9l-1.1,0.8c-0.2,0.1-0.5,0.1-0.7,0l-1.1-0.8L2.7,13.6z M2.6,12.3L5.8,10L2.6,7.7V12.3z"/>
	</defs>
	<use xlink:href="#SVGID_1_"  style="overflow:visible;"/>
	<clipPath id="SVGID_2_">
		<use xlink:href="#SVGID_1_"  style="overflow:visible;"/>
	</clipPath>
	<g class="st0">
		<defs>
			<rect id="SVGID_3_" x="-898" y="-1311.9" width="1424" height="1994"/>
		</defs>
		<use xlink:href="#SVGID_3_"  style="overflow:visible;"/>
		<clipPath id="SVGID_4_">
			<use xlink:href="#SVGID_3_"  style="overflow:visible;"/>
		</clipPath>
	</g>
</g>
</svg>
