<?xml version="1.0" encoding="utf-8"?>
<!-- Generator: Adobe Illustrator 22.1.0, SVG Export Plug-In . SVG Version: 6.00 Build 0)  -->
<svg version="1.1" id="图层_1" xmlns="http://www.w3.org/2000/svg" xmlns:xlink="http://www.w3.org/1999/xlink" x="0px" y="0px"
	 viewBox="0 0 18 18" style="enable-background:new 0 0 18 18;" xml:space="preserve">
<style type="text/css">
	.st0{fill:none;}
	.st1{clip-path:url(#SVGID_2_);}
</style>
<title>内容管理</title>
<g id="Page-1">
	<g id="图标_icon">
		<g id="icon_goods-copy">
			<rect id="Rectangle" class="st0" width="18" height="18"/>
		</g>
	</g>
</g>
<g>
	<defs>
		<path id="SVGID_1_" d="M7.2,9c-2.3,0-4.2,2.1-4.5,4.8h9C11.4,11.1,9.5,9,7.2,9z M16.4,14.3c0,0.3-0.3,0.6-0.6,0.6h-1.6
			c-0.3,0-0.6-0.3-0.6-0.6c0-0.3,0.3-0.6,0.6-0.6h1c-0.2-2.5-1.9-4.4-3.9-4.7C10.8,9,10.7,8.2,11.2,8c1-0.4,1.6-1.2,1.6-2.1
			c0-1.1-0.9-2-2-2c-0.3,0-0.6-0.3-0.6-0.6s0.3-0.6,0.6-0.6c1.7,0,3.1,1.4,3.1,3.1c0,0.9-0.4,1.8-1.1,2.4
			C15,9.2,16.4,11.6,16.4,14.3z M7.2,7.9c1.1,0,2-0.9,2-2s-0.9-2-2-2s-2,0.9-2,2S6.1,7.9,7.2,7.9z M5.2,8.3C4.5,7.7,4.1,6.9,4.1,5.9
			c0-1.7,1.4-3.1,3.1-3.1s3.1,1.4,3.1,3.1c0,1-0.4,1.8-1.1,2.4c2.1,0.9,3.6,3.3,3.6,6.1c0,0.3-0.3,0.6-0.6,0.6H2.1
			c-0.3,0-0.6-0.3-0.6-0.6c0-0.2,0-0.4,0-0.5C1.7,11.3,3.2,9.1,5.2,8.3z"/>
	</defs>
	<use xlink:href="#SVGID_1_"  style="overflow:visible;"/>
	<clipPath id="SVGID_2_">
		<use xlink:href="#SVGID_1_"  style="overflow:visible;"/>
	</clipPath>
	<g class="st1">
		<defs>
			<rect id="SVGID_3_" x="-450.1" y="-725" width="1424" height="1785"/>
		</defs>
		<use xlink:href="#SVGID_3_"  style="overflow:visible;"/>
		<clipPath id="SVGID_4_">
			<use xlink:href="#SVGID_3_"  style="overflow:visible;"/>
		</clipPath>
	</g>
</g>
</svg>
