<?xml version="1.0" encoding="utf-8"?>
<!-- Generator: Adobe Illustrator 22.1.0, SVG Export Plug-In . SVG Version: 6.00 Build 0)  -->
<svg version="1.1" id="图层_1" xmlns="http://www.w3.org/2000/svg" xmlns:xlink="http://www.w3.org/1999/xlink" x="0px" y="0px"
	 viewBox="0 0 18 18" style="enable-background:new 0 0 18 18;" xml:space="preserve">
<style type="text/css">
	.st0{clip-path:url(#SVGID_2_);}
</style>
<title>内容管理</title>
<g>
	<defs>
		<path id="SVGID_1_" d="M12.8,12.7v-1.4c0-0.3,0.3-0.6,0.6-0.6s0.6,0.3,0.6,0.6v1.4h1.4c0.3,0,0.6,0.3,0.6,0.6s-0.3,0.6-0.6,0.6
			h-1.4v1.4c0,0.3-0.3,0.6-0.6,0.6s-0.6-0.3-0.6-0.6v-1.4h-1.4c-0.3,0-0.6-0.3-0.6-0.6s0.3-0.6,0.6-0.6H12.8z M9.1,7.9
			c1.2,0,2.2-1,2.2-2.2s-1-2.2-2.2-2.2c-1.2,0-2.2,1-2.2,2.2S7.9,7.9,9.1,7.9z M3.8,14.6h7.6c0.3,0,0.6,0.3,0.6,0.6
			s-0.3,0.6-0.6,0.6H3.8H3.2c-0.3,0-0.6-0.3-0.6-0.6c0-0.2,0-0.4,0-0.6c0.2-2.9,2-5.4,4.3-6.3C6.2,7.6,5.8,6.7,5.8,5.6
			c0-1.9,1.5-3.4,3.4-3.4s3.4,1.5,3.4,3.4c0,1.1-0.5,2-1.3,2.6c0.8,0.3,1.6,0.8,2.3,1.5l0,0c0.1,0.1,0.1,0.2,0,0.2c0,0-0.1,0-0.1,0
			c-0.4,0-0.8,0-1,0c0,0-0.1,0-0.2,0C12.1,10.1,12.1,10,12,10c-0.9-0.6-1.8-1-2.9-1C6.4,9,4.1,11.4,3.8,14.6L3.8,14.6z"/>
	</defs>
	<use xlink:href="#SVGID_1_"  style="overflow:visible;"/>
	<clipPath id="SVGID_2_">
		<use xlink:href="#SVGID_1_"  style="overflow:visible;"/>
	</clipPath>
	<g class="st0">
		<defs>
			<rect id="SVGID_3_" x="-561.9" y="-725" width="1424" height="1785"/>
		</defs>
		<use xlink:href="#SVGID_3_"  style="overflow:visible;"/>
		<clipPath id="SVGID_4_">
			<use xlink:href="#SVGID_3_"  style="overflow:visible;"/>
		</clipPath>
	</g>
</g>
</svg>
