<?xml version="1.0" encoding="utf-8"?>
<!-- Generator: Adobe Illustrator 21.0.0, SVG Export Plug-In . SVG Version: 6.00 Build 0)  -->
<svg version="1.1" id="图层_1" xmlns="http://www.w3.org/2000/svg" xmlns:xlink="http://www.w3.org/1999/xlink" x="0px" y="0px"
	 viewBox="0 0 18 18" style="enable-background:new 0 0 18 18;" xml:space="preserve">
<style type="text/css">
	.st0{clip-path:url(#SVGID_2_);}
	.st1{clip-path:url(#SVGID_4_);}
</style>
<g>
	<defs>
		<path id="SVGID_1_" d="M5.5,10.6l-0.4-0.4C5,10.1,5,10,5.1,9.9l2.2-2.2c0.2-0.2,0.5-0.2,0.7,0L9.8,9l2.5-2.4
			c0.1-0.1,0.3-0.1,0.4,0l0,0L13,6.9c0.1,0.1,0.1,0.3,0,0.4l-2.8,2.8c-0.2,0.2-0.5,0.2-0.7,0L7.7,8.8l-1.8,1.8
			C5.8,10.8,5.6,10.8,5.5,10.6L5.5,10.6L5.5,10.6z M4.2,4.8c-0.3,0-0.6,0.3-0.6,0.6v6.5c0,0.3,0.3,0.6,0.6,0.6h9.6
			c0.3,0,0.6-0.3,0.6-0.6V5.4c0-0.3-0.3-0.6-0.6-0.6H4.2z M7.6,13.5H4.2c-0.9,0-1.7-0.8-1.7-1.7V5.4c0-0.9,0.8-1.7,1.7-1.7h4.2V2.9
			c0-0.2,0.1-0.3,0.3-0.3h0.6c0.2,0,0.3,0.1,0.3,0.3v0.8h4.2c0.9,0,1.7,0.8,1.7,1.7v6.5c0,0.9-0.8,1.7-1.7,1.7h-3.4l2.3,1.3
			c0.1,0.1,0.2,0.2,0.1,0.4l-0.3,0.5c-0.1,0.1-0.2,0.2-0.4,0.1L9,14.1l-3.1,1.8c-0.1,0.1-0.3,0-0.4-0.1l-0.3-0.5
			c-0.1-0.1,0-0.3,0.1-0.4L7.6,13.5z"/>
	</defs>
	<clipPath id="SVGID_2_">
		<use xlink:href="#SVGID_1_"  style="overflow:visible;"/>
	</clipPath>
	<g class="st0">
		<defs>
			<rect id="SVGID_3_" x="-674" y="-1433.7" width="1424" height="1994"/>
		</defs>
		<clipPath id="SVGID_4_">
			<use xlink:href="#SVGID_3_"  style="overflow:visible;"/>
		</clipPath>
		<rect x="-2.5" y="-2.4" class="st1" width="22.9" height="23.3"/>
	</g>
</g>
</svg>
