<?xml version="1.0" encoding="utf-8"?>
<!-- Generator: Adobe Illustrator 21.0.0, SVG Export Plug-In . SVG Version: 6.00 Build 0)  -->
<svg version="1.1" id="图层_1" xmlns="http://www.w3.org/2000/svg" xmlns:xlink="http://www.w3.org/1999/xlink" x="0px" y="0px"
	 viewBox="0 0 18 18" style="enable-background:new 0 0 18 18;" xml:space="preserve">
<style type="text/css">
	.st0{clip-path:url(#SVGID_2_);}
	.st1{clip-path:url(#SVGID_4_);}
</style>
<g>
	<defs>
		<path id="SVGID_1_" d="M9.7,10.2V7.6c0-0.2,0.1-0.3,0.3-0.3h0.6c0.2,0,0.3,0.1,0.3,0.3v2.5c0,0.2-0.1,0.3-0.3,0.3H10
			C9.8,10.4,9.7,10.3,9.7,10.2z M7.4,10.2V6.2c0-0.2,0.1-0.3,0.3-0.3h0.6c0.2,0,0.3,0.1,0.3,0.3v3.9c0,0.2-0.1,0.3-0.3,0.3H7.7
			C7.6,10.4,7.4,10.3,7.4,10.2z M11.9,10.2V5.1c0-0.2,0.1-0.3,0.3-0.3h0.6c0.2,0,0.3,0.1,0.3,0.3v5.1c0,0.2-0.1,0.3-0.3,0.3h-0.6
			C12.1,10.4,11.9,10.3,11.9,10.2z M5.2,10.2V7.9c0-0.2,0.1-0.3,0.3-0.3H6c0.2,0,0.3,0.1,0.3,0.3v2.2c0,0.2-0.1,0.3-0.3,0.3H5.5
			C5.3,10.4,5.2,10.3,5.2,10.2z M3.5,3.4C3.5,3.4,3.4,3.4,3.5,3.4l-0.1,8.5c0,0,0,0.1,0.1,0.1h11.2c0,0,0.1,0,0.1-0.1V3.4
			c0,0,0-0.1-0.1-0.1H3.5z M11.1,14.7h1.7c0.3,0,0.6,0.3,0.6,0.6c0,0.3-0.3,0.6-0.6,0.6H5.5c-0.3,0-0.6-0.3-0.6-0.6
			c0-0.3,0.3-0.6,0.6-0.6h1.7v-1.8H3.5c-0.6,0-1.1-0.5-1.1-1.1V3.4c0-0.6,0.5-1.1,1.1-1.1h11.2c0.6,0,1.1,0.5,1.1,1.1v8.4
			c0,0.6-0.5,1.1-1.1,1.1h-3.7V14.7z M10,12.9H8.3v1.8H10V12.9z"/>
	</defs>
	<clipPath id="SVGID_2_">
		<use xlink:href="#SVGID_1_"  style="overflow:visible;"/>
	</clipPath>
	<g class="st0">
		<defs>
			<rect id="SVGID_3_" x="-785.9" y="-1434" width="1424" height="1994"/>
		</defs>
		<clipPath id="SVGID_4_">
			<use xlink:href="#SVGID_3_"  style="overflow:visible;"/>
		</clipPath>
		<rect x="-2.6" y="-2.6" class="st1" width="23.4" height="23.4"/>
	</g>
</g>
</svg>
