<?xml version="1.0" encoding="UTF-8"?>
<svg width="18px" height="18px" viewBox="0 0 18 18" version="1.1" xmlns="http://www.w3.org/2000/svg" xmlns:xlink="http://www.w3.org/1999/xlink">
    <!-- Generator: Sketch 54.1 (76490) - https://sketchapp.com -->
    <title>微信转化分析icon</title>
    <desc>Created with Sketch.</desc>
    <g id="微信转化分析icon" stroke="none" stroke-width="1" fill="none" fill-rule="evenodd">
        <g id="分组-10-copy-5复制-2">
            <g id="分组-9-copy">
                <g id="分组-8-copy">
                    <g id="分组-7"></g>
                </g>
            </g>
            <g id="Group-2" transform="translate(0.819623, 1.464499)" fill="#9EA8B1" fill-rule="nonzero">
                <path d="M1.01800758,6.25647326 C0.797129809,6.4536392 0.458031924,6.44622738 0.246042356,6.23423781 C0.0263724417,6.0145679 0.0263724417,5.6584126 0.246042356,5.43874268 L1.83703261,3.84775243 C1.89909759,3.78568745 1.97205784,3.74115815 2.04975672,3.71416454 C2.20316992,3.64072452 2.38795441,3.63745681 2.55078785,3.72140595 C2.82691178,3.86376225 2.93535187,4.20300751 2.79299556,4.47913144 C1.46036797,7.06398623 1.87828335,10.170588 3.88401922,12.1763238 C5.88975509,14.1820597 8.99635683,14.5999751 11.5812116,13.2673475 C11.8573355,13.1249912 12.1965808,13.2334313 12.3389371,13.5095552 C12.4812934,13.7856791 12.3728533,14.1249244 12.0967294,14.2672807 C9.08513561,15.8199145 5.44723076,15.3305256 3.08852409,12.971819 C1.30637001,11.1896649 0.59136666,8.67724586 1.01800758,6.25647326 Z M15.9043147,8.91296872 C16.1149706,8.80760109 16.3779902,8.84276844 16.5536925,9.01847076 C16.7733624,9.23814068 16.7733624,9.59429598 16.5536925,9.81396589 L15.1191352,11.2485232 C15.0503131,11.3771997 14.9382844,11.4684476 14.8102798,11.5135625 C14.6007022,11.6151119 14.3411607,11.5789098 14.1672071,11.4049561 C13.9475372,11.1852862 13.9475372,10.8291309 14.1672071,10.609461 L14.1954684,10.5811998 C15.4398424,8.02579123 15.0008076,4.99672428 13.0322132,3.02812986 C11.0264773,1.02239399 7.91987558,0.604478614 5.3350208,1.93710621 C5.05889687,2.07946251 4.71965161,1.97102242 4.57729531,1.69489849 C4.434939,1.41877456 4.54337909,1.0795293 4.81950302,0.937172998 C7.8310968,-0.615460827 11.4690017,-0.126071937 13.8277083,2.23263473 C15.6012722,4.00619857 16.3179481,6.50300437 15.9043147,8.91296872 Z M3.73664666,7.13368225 C3.73664666,4.75482917 5.88226144,2.85454859 8.43975407,2.85454859 C11.0755112,2.85454859 13.165922,4.70570955 13.165922,7.13368225 C13.165922,9.5647142 11.0781342,11.4127455 8.43975407,11.4127455 C7.81187985,11.4127455 7.47903367,11.4072727 7.23888864,11.36151 L5.72036601,12.0250985 C5.43569977,12.1494965 5.10408765,12.0195734 4.97968962,11.7349072 C4.9463809,11.6586852 4.93039176,11.5760245 4.93287395,11.4928794 L4.97626836,10.0393098 C4.08510963,9.26685001 3.73664666,8.42009845 3.73664666,7.13368225 Z M6.14166651,9.89899812 L5.98202617,10.8313235 L6.85745629,10.2695725 C7.02112136,10.164551 7.227983,10.1534288 7.40196526,10.2402962 C7.45765242,10.2681002 7.80312677,10.2877455 8.43975407,10.2877455 C10.5042535,10.2877455 12.040922,8.89398906 12.040922,7.13368225 C12.040922,5.37697241 10.502275,3.97954859 8.43975407,3.97954859 C6.46683521,3.97954859 4.86164666,5.41604169 4.86164666,7.13368225 C4.86164666,8.18988497 5.11495063,8.74327332 5.93253309,9.36719864 C6.09574964,9.49175481 6.17631776,9.69662922 6.14166651,9.89899812 Z M9.76286996,6.49423157 C9.38115373,6.49423157 9.19694479,6.24169955 9.19694479,5.98374203 C9.19694479,5.72941325 9.38115373,5.47330533 9.76286996,5.47330533 C10.0122963,5.47330533 10.3287951,5.66544102 10.3287951,5.98374203 C10.3287951,6.30204304 10.0122963,6.49423157 9.76286996,6.49423157 Z M6.99629423,6.49423157 C6.61811498,6.49423157 6.43172144,6.24169955 6.43172144,5.98374203 C6.43172144,5.72941325 6.61811498,5.47330533 6.99629423,5.47330533 C7.24485363,5.47330533 7.56086702,5.63663556 7.56086702,5.98374203 C7.56086702,6.33084849 7.24398673,6.49423157 6.99629423,6.49423157 Z" id="形状结合"></path>
            </g>
        </g>
    </g>
</svg>