<?xml version="1.0" encoding="utf-8"?>
<!-- Generator: Adobe Illustrator 21.0.0, SVG Export Plug-In . SVG Version: 6.00 Build 0)  -->
<svg version="1.1" id="图层_1" xmlns="http://www.w3.org/2000/svg" xmlns:xlink="http://www.w3.org/1999/xlink" x="0px" y="0px"
	 viewBox="0 0 18 18" style="enable-background:new 0 0 18 18;" xml:space="preserve">
<style type="text/css">
	.st0{clip-path:url(#SVGID_2_);}
	.st1{clip-path:url(#SVGID_4_);}
</style>
<g>
	<defs>
		<path id="SVGID_1_" d="M10.2,9.1c-0.3,0-0.6,0.3-0.6,0.6v1.1c0,0.3,0.3,0.6,0.6,0.6h4.5V9.1H10.2z M11,10.8
			c-0.3,0-0.6-0.3-0.6-0.6c0-0.3,0.3-0.6,0.6-0.6s0.6,0.3,0.6,0.6C11.6,10.5,11.4,10.8,11,10.8z M3.5,4.6h8.7V4
			c0-0.3-0.3-0.6-0.6-0.6H4C3.7,3.4,3.5,3.7,3.5,4V4.6z M2.3,14.1V4c0-0.9,0.8-1.7,1.7-1.7h7.6c0.9,0,1.7,0.8,1.7,1.7v0.6h0.8
			c0.9,0,1.7,0.8,1.7,1.7v7.9c0,0.9-0.8,1.7-1.7,1.7H4C3.1,15.8,2.3,15.1,2.3,14.1z M14.7,12.4h-4.5c-0.9,0-1.7-0.8-1.7-1.7V9.6
			c0-0.9,0.8-1.7,1.7-1.7h4.5V6.3c0-0.3-0.3-0.6-0.6-0.6H3.5v8.4c0,0.3,0.3,0.6,0.6,0.6h10.1c0.3,0,0.6-0.3,0.6-0.6V12.4z"/>
	</defs>
	<clipPath id="SVGID_2_">
		<use xlink:href="#SVGID_1_"  style="overflow:visible;"/>
	</clipPath>
	<g class="st0">
		<defs>
			<rect id="SVGID_3_" x="-561.9" y="-1433.9" width="1424" height="1994"/>
		</defs>
		<clipPath id="SVGID_4_">
			<use xlink:href="#SVGID_3_"  style="overflow:visible;"/>
		</clipPath>
		<rect x="-2.7" y="-2.7" class="st1" width="23.5" height="23.5"/>
	</g>
</g>
</svg>
