<?xml version="1.0" encoding="UTF-8"?>
<svg  viewBox="0 0 24 24" version="1.1" xmlns="http://www.w3.org/2000/svg" xmlns:xlink="http://www.w3.org/1999/xlink">
    <!-- Generator: Sketch 52.4 (67378) - http://www.bohemiancoding.com/sketch -->
    <title>icon_attention</title>
    <desc>Created with Sketch.</desc>
    <g id="Page-1" stroke="none" stroke-width="1" fill="none" fill-rule="evenodd">
        <g id="切图" transform="translate(-34.000000, -47.000000)">
            <g id="icon_attention" transform="translate(34.000000, 47.000000)" fill="#FFAA16">
                <path d="M15.2132918,3.97005985 L23.0070803,17.2088239 C23.8476419,18.6366272 23.3715885,20.4755002 21.9437852,21.3160618 C21.4825418,21.5876003 20.9570508,21.7307953 20.4218138,21.7307953 L3.54160349,21.7307953 C1.88474924,21.7307953 0.541603487,20.3876496 0.541603487,18.7307953 C0.541603487,18.1955583 0.684798491,17.6700673 0.956336964,17.2088239 L8.75012547,3.97005985 C9.80082748,2.18530576 12.0994188,1.59023897 13.8841729,2.64094097 C14.4328638,2.96396059 14.8902722,3.421369 15.2132918,3.97005985 Z M12,7.125 C11.3786797,7.125 10.875,7.62867966 10.875,8.25 L10.875,13.5 C10.875,14.1213203 11.3786797,14.625 12,14.625 C12.6213203,14.625 13.125,14.1213203 13.125,13.5 L13.125,8.25 C13.125,7.62867966 12.6213203,7.125 12,7.125 Z M12,15.75 C11.2751263,15.75 10.6875,16.3376263 10.6875,17.0625 C10.6875,17.7873737 11.2751263,18.375 12,18.375 C12.7248737,18.375 13.3125,17.7873737 13.3125,17.0625 C13.3125,16.3376263 12.7248737,15.75 12,15.75 Z" id="Shape"></path>
            </g>
        </g>
    </g>
</svg>