<?xml version="1.0" encoding="utf-8"?>
<!-- Generator: Adobe Illustrator 22.1.0, SVG Export Plug-In . SVG Version: 6.00 Build 0)  -->
<svg version="1.1" id="图层_1" xmlns="http://www.w3.org/2000/svg" xmlns:xlink="http://www.w3.org/1999/xlink" x="0px" y="0px"
	 viewBox="0 0 18 18" style="enable-background:new 0 0 18 18;" xml:space="preserve">
<style type="text/css">
	.st0{clip-path:url(#SVGID_2_);}
</style>
<g>
	<defs>
		<path id="SVGID_1_" d="M7.2,8.4h1c0.2,0,0.3,0.1,0.3,0.3v0.5c0,0.2-0.1,0.3-0.3,0.3H6.7v0.6h1.4c0.2,0,0.3,0.1,0.3,0.3v0.5
			c0,0.2-0.1,0.3-0.3,0.3H6.7v0.9c0,0.2-0.1,0.3-0.3,0.3H6c-0.2,0-0.3-0.1-0.3-0.3v-0.9H4.3c-0.2,0-0.3-0.1-0.3-0.3v-0.5
			c0-0.2,0.1-0.3,0.3-0.3h1.4V9.5H4.3C4.1,9.5,4,9.4,4,9.2V8.7c0-0.2,0.1-0.3,0.3-0.3h1L4,6.3C3.9,6.2,4,6,4.1,6l0.4-0.2
			c0.1-0.1,0.3,0,0.4,0.1l1.3,2.3l1.3-2.3c0.1-0.1,0.2-0.2,0.4-0.1L8.3,6C8.5,6,8.5,6.2,8.4,6.3L7.2,8.4z M2.5,3.1h12.9
			c0.6,0,1.1,0.5,1.1,1.1v9.6c0,0.6-0.5,1.1-1.1,1.1H2.5c-0.6,0-1.1-0.5-1.1-1.1V4.2C1.4,3.6,1.9,3.1,2.5,3.1z M2.5,4.2v9.6h12.9
			V4.2H2.5z M10.1,11h3.9c0.2,0,0.3,0.1,0.3,0.3v0.5c0,0.2-0.1,0.3-0.3,0.3h-3.9c-0.2,0-0.3-0.1-0.3-0.3v-0.5
			C9.8,11.1,10,11,10.1,11z M10.1,8.4h3.9c0.2,0,0.3,0.1,0.3,0.3v0.5c0,0.2-0.1,0.3-0.3,0.3h-3.9c-0.2,0-0.3-0.1-0.3-0.3V8.7
			C9.8,8.6,10,8.4,10.1,8.4z M10.1,5.9h3.9c0.2,0,0.3,0.1,0.3,0.3v0.5c0,0.2-0.1,0.3-0.3,0.3h-3.9c-0.2,0-0.3-0.1-0.3-0.3V6.2
			C9.8,6,10,5.9,10.1,5.9z"/>
	</defs>
	<use xlink:href="#SVGID_1_"  style="overflow:visible;fill-rule:evenodd;clip-rule:evenodd;"/>
	<clipPath id="SVGID_2_">
		<use xlink:href="#SVGID_1_"  style="overflow:visible;"/>
	</clipPath>
	<g class="st0">
		<defs>
			<rect id="SVGID_3_" x="-898" y="-847" width="1424" height="1785"/>
		</defs>
		<use xlink:href="#SVGID_3_"  style="overflow:visible;"/>
		<clipPath id="SVGID_4_">
			<use xlink:href="#SVGID_3_"  style="overflow:visible;"/>
		</clipPath>
	</g>
</g>
</svg>
