<?xml version="1.0" encoding="utf-8"?>
<!-- Generator: Adobe Illustrator 22.1.0, SVG Export Plug-In . SVG Version: 6.00 Build 0)  -->
<svg version="1.1" id="图层_1" xmlns="http://www.w3.org/2000/svg" xmlns:xlink="http://www.w3.org/1999/xlink" x="0px" y="0px"
	 viewBox="0 0 18 18" style="enable-background:new 0 0 18 18;" xml:space="preserve">
<style type="text/css">
	.st0{clip-path:url(#SVGID_2_);}
	.st1{clip-path:url(#SVGID_4_);}
</style>
<g>
	<defs>
		<path id="SVGID_1_" d="M7.1,6.1h3.9V4.7c0-1.1-0.9-2-2-2s-2,0.9-2,2V6.1z M6,6.1V4.7C6,3,7.4,1.6,9.1,1.6s3.1,1.4,3.1,3.1v1.4H15
			l0.7,9.2c0.1,0.6-0.4,1.2-1,1.2c0,0-0.1,0-0.1,0H3.6c-0.6,0-1.1-0.5-1.1-1.1c0,0,0-0.1,0-0.1l0.7-9.2H6z M12.2,8.2
			c0.3,0.2,0.6,0.6,0.6,1c0,0.6-0.5,1.1-1.1,1.1s-1.1-0.5-1.1-1.1c0-0.4,0.2-0.8,0.6-1v-1H7.1v1c0.3,0.2,0.6,0.6,0.6,1
			c0,0.6-0.5,1.1-1.1,1.1S5.4,9.8,5.4,9.2c0-0.4,0.2-0.8,0.6-1v-1H4.2l-0.7,8.2h11.1L14,7.2h-1.8V8.2z"/>
	</defs>
	<clipPath id="SVGID_2_">
		<use xlink:href="#SVGID_1_"  style="overflow:visible;"/>
	</clipPath>
	<g class="st0">
		<defs>
			<rect id="SVGID_3_" x="-23.9" y="-887.8" width="1360" height="1096"/>
		</defs>
		<clipPath id="SVGID_4_">
			<use xlink:href="#SVGID_3_"  style="overflow:visible;"/>
		</clipPath>
		<rect x="-2.6" y="-3.4" class="st1" width="23.3" height="24.9"/>
	</g>
</g>
</svg>
