<?xml version="1.0" encoding="utf-8"?>
<!-- Generator: Adobe Illustrator 22.1.0, SVG Export Plug-In . SVG Version: 6.00 Build 0)  -->
<svg version="1.1" id="图层_1" xmlns="http://www.w3.org/2000/svg" xmlns:xlink="http://www.w3.org/1999/xlink" x="0px" y="0px"
	 viewBox="0 0 18 18" style="enable-background:new 0 0 18 18;" xml:space="preserve">
<style type="text/css">
	.st0{clip-path:url(#SVGID_2_);}
</style>
<g>
	<defs>
		<path id="SVGID_1_" d="M12.1,10h0.6c0.2,0,0.3,0.1,0.3,0.3v3.1c0,0.2-0.1,0.3-0.3,0.3h-0.6c-0.2,0-0.3-0.1-0.3-0.3v-3.1
			C11.8,10.1,11.9,10,12.1,10z M3.4,8h11.2V6H3.4V8z M13.8,9.1H4.2v4.8c0,0.3,0.3,0.6,0.6,0.6h8.4c0.3,0,0.6-0.3,0.6-0.6V9.1z
			 M11.7,4.9c0.5,0,0.7-0.2,0.7-0.7c0-0.4-0.4-0.7-1-0.7c-0.2,0-0.6,0.2-1,0.6c-0.3,0.3-0.5,0.6-0.6,0.8H11.7z M4.6,4.9
			C4.5,4.7,4.5,4.5,4.5,4.2c0-1,1-1.8,2.1-1.8c0.8,0,1.9,0.9,2.4,1.7c0.5-0.9,1.6-1.7,2.4-1.7c1.1,0,2.1,0.8,2.1,1.8
			c0,0.3,0,0.5-0.1,0.7h1.2c0.6,0,1.1,0.5,1.1,1.1v2c0,0.5-0.4,1-0.8,1.1v4.8c0,0.9-0.8,1.7-1.7,1.7H4.8c-0.9,0-1.7-0.8-1.7-1.7V9.1
			C2.6,9,2.2,8.5,2.2,8V6c0-0.6,0.5-1.1,1.1-1.1H4.6z M8.1,4.9C8.1,4.8,7.9,4.4,7.6,4.1c-0.4-0.4-0.8-0.6-1-0.6c-0.6,0-1,0.3-1,0.7
			c0,0.5,0.2,0.7,0.7,0.7H8.1z"/>
	</defs>
	<use xlink:href="#SVGID_1_"  style="overflow:visible;"/>
	<clipPath id="SVGID_2_">
		<use xlink:href="#SVGID_1_"  style="overflow:visible;"/>
	</clipPath>
	<g class="st0">
		<defs>
			<rect id="SVGID_3_" x="-1010" y="-847.1" width="1424" height="1785"/>
		</defs>
		<use xlink:href="#SVGID_3_"  style="overflow:visible;"/>
		<clipPath id="SVGID_4_">
			<use xlink:href="#SVGID_3_"  style="overflow:visible;"/>
		</clipPath>
	</g>
</g>
</svg>
