<?xml version="1.0" encoding="utf-8"?>
<!-- Generator: Adobe Illustrator 22.1.0, SVG Export Plug-In . SVG Version: 6.00 Build 0)  -->
<svg version="1.1" id="图层_1" xmlns="http://www.w3.org/2000/svg" xmlns:xlink="http://www.w3.org/1999/xlink" x="0px" y="0px"
	 viewBox="0 0 18 18" style="enable-background:new 0 0 18 18;" xml:space="preserve">
<style type="text/css">
	.st0{clip-path:url(#SVGID_2_);}
</style>
<g>
	<defs>
		<path id="SVGID_1_" d="M3.4,5.8l5.6,3.1l5.5-3.1c0,0,0,0-0.1,0L9.5,3.1c-0.3-0.2-0.8-0.2-1.1,0L3.4,5.8C3.4,5.8,3.4,5.8,3.4,5.8z
			 M8.9,16.6c-0.4,0-0.7-0.1-0.8-0.2l-5.2-2.9C2.4,13.2,2,12.6,2,12V6.3c0-0.6,0.3-1.2,0.9-1.5l4.9-2.7c0.7-0.4,1.5-0.4,2.2,0
			l4.9,2.7c0.5,0.3,0.9,0.9,0.9,1.5V12c0,0.6-0.3,1.2-0.9,1.5l-5.2,2.9C9.6,16.4,9.4,16.6,8.9,16.6z M9.5,15.2l4.9-2.7
			c0.2-0.1,0.3-0.3,0.3-0.5V7L9.5,9.9V15.2z M6.4,8.8v1.6c0,0.2-0.1,0.3-0.3,0.3c0,0-0.1,0-0.1,0l-0.6-0.3c-0.1,0-0.2-0.1-0.2-0.3
			V8.2L3.1,7v5c0,0.2,0.1,0.4,0.3,0.5l4.9,2.7V9.9L6.4,8.8z"/>
	</defs>
	<use xlink:href="#SVGID_1_"  style="overflow:visible;"/>
	<clipPath id="SVGID_2_">
		<use xlink:href="#SVGID_1_"  style="overflow:visible;"/>
	</clipPath>
	<g class="st0">
		<defs>
			<rect id="SVGID_3_" x="-562.1" y="-846.8" width="1424" height="1785"/>
		</defs>
		<use xlink:href="#SVGID_3_"  style="overflow:visible;"/>
		<clipPath id="SVGID_4_">
			<use xlink:href="#SVGID_3_"  style="overflow:visible;"/>
		</clipPath>
	</g>
</g>
</svg>
