<?xml version="1.0" encoding="utf-8"?>
<!-- Generator: Adobe Illustrator 22.1.0, SVG Export Plug-In . SVG Version: 6.00 Build 0)  -->
<svg version="1.1" id="图层_1" xmlns="http://www.w3.org/2000/svg" xmlns:xlink="http://www.w3.org/1999/xlink" x="0px" y="0px"
	 viewBox="0 0 18 18" style="enable-background:new 0 0 18 18;" xml:space="preserve">
<style type="text/css">
	.st0{clip-path:url(#SVGID_2_);}
</style>
<g>
	<defs>
		<path id="SVGID_1_" d="M7.9,9.6l1.2,0.7L10,9.9V8.6L8.8,7.9L7.9,8.4V9.6z M9,16.4c-4,0-7.3-3.3-7.3-7.3S5,1.8,9,1.8
			s7.3,3.3,7.3,7.3S13.1,16.4,9,16.4z M3.1,10.9c0.5,1.8,1.9,3.3,3.7,4V9L3.1,10.9z M4.2,5.2C3.4,6.2,2.8,7.6,2.8,9.1
			c0,0.2,0,0.4,0,0.6l4.8-2.5L4.2,5.2z M10,3C9.7,2.9,9.4,2.9,9,2.9c-1.5,0-2.9,0.5-4,1.4l5,3V3z M14.9,7.3c-0.6-1.9-2-3.4-3.8-4v6
			L14.9,7.3z M13.7,13.2c1-1.1,1.5-2.5,1.5-4.1c0-0.2,0-0.4,0-0.6l-5,2.6L13.7,13.2z M12.8,14l-4.9-3v4.2c0.4,0.1,0.7,0.1,1.1,0.1
			C10.4,15.3,11.8,14.8,12.8,14z"/>
	</defs>
	<use xlink:href="#SVGID_1_"  style="overflow:visible;"/>
	<clipPath id="SVGID_2_">
		<use xlink:href="#SVGID_1_"  style="overflow:visible;"/>
	</clipPath>
	<g class="st0">
		<defs>
			<rect id="SVGID_3_" x="-450" y="-846.9" width="1424" height="1785"/>
		</defs>
		<use xlink:href="#SVGID_3_"  style="overflow:visible;"/>
		<clipPath id="SVGID_4_">
			<use xlink:href="#SVGID_3_"  style="overflow:visible;"/>
		</clipPath>
	</g>
</g>
</svg>
