<?xml version="1.0" encoding="utf-8"?>
<!-- Generator: Adobe Illustrator 22.1.0, SVG Export Plug-In . SVG Version: 6.00 Build 0)  -->
<svg version="1.1" id="图层_1" xmlns="http://www.w3.org/2000/svg" xmlns:xlink="http://www.w3.org/1999/xlink" x="0px" y="0px"
	 viewBox="0 0 18 18" style="enable-background:new 0 0 18 18;" xml:space="preserve">
<style type="text/css">
	.st0{clip-path:url(#SVGID_2_);}
</style>
<g>
	<defs>
		<path id="SVGID_1_" d="M7,7.3h0.6c0.2,0,0.3,0.1,0.3,0.3v1.1c0,0.5-0.4,0.8-0.8,0.8H4.5c-0.2,0-0.3-0.1-0.3-0.3V8.7
			c0-0.2,0.1-0.3,0.3-0.3h2.2V7.6C6.8,7.5,6.9,7.3,7,7.3z M5.3,14.3c0.5,0,0.8-0.4,0.8-0.8s-0.4-0.8-0.8-0.8S4.5,13,4.5,13.5
			S4.9,14.3,5.3,14.3z M12.7,14.3c0.5,0,0.8-0.4,0.8-0.8s-0.4-0.8-0.8-0.8s-0.8,0.4-0.8,0.8S12.2,14.3,12.7,14.3z M10.8,12.9
			c0.2-0.8,1-1.4,1.9-1.4s1.6,0.6,1.9,1.4h0.9V4.2H7.9v1.6c0,0.3-0.3,0.6-0.6,0.6H4.6L2.5,8.7v4.2h0.9c0.2-0.8,1-1.4,1.9-1.4
			s1.6,0.6,1.9,1.4H10.8z M10.8,14H7.2c-0.2,0.8-1,1.4-1.9,1.4S3.7,14.8,3.5,14H2.4c-0.5,0-1-0.4-1-1V8.7c0-0.2,0.1-0.5,0.2-0.6
			l2.2-2.5C4,5.3,4.3,5.2,4.6,5.2h2.2V4c0-0.5,0.4-1,1-1h7.9c0.5,0,1,0.4,1,1v9c0,0.5-0.4,1-1,1h-1.1c-0.2,0.8-1,1.4-1.9,1.4
			S11,14.8,10.8,14z"/>
	</defs>
	<use xlink:href="#SVGID_1_"  style="overflow:visible;"/>
	<clipPath id="SVGID_2_">
		<use xlink:href="#SVGID_1_"  style="overflow:visible;"/>
	</clipPath>
	<g class="st0">
		<defs>
			<rect id="SVGID_3_" x="-1122" y="-836.7" width="1424" height="1785"/>
		</defs>
		<use xlink:href="#SVGID_3_"  style="overflow:visible;"/>
		<clipPath id="SVGID_4_">
			<use xlink:href="#SVGID_3_"  style="overflow:visible;"/>
		</clipPath>
	</g>
</g>
</svg>
