<?xml version="1.0" encoding="utf-8"?>
<!-- Generator: Adobe Illustrator 22.1.0, SVG Export Plug-In . SVG Version: 6.00 Build 0)  -->
<svg version="1.1" id="图层_1" xmlns="http://www.w3.org/2000/svg" xmlns:xlink="http://www.w3.org/1999/xlink" x="0px" y="0px"
	 viewBox="0 0 18 18" style="enable-background:new 0 0 18 18;" xml:space="preserve">
<style type="text/css">
	.st0{clip-path:url(#SVGID_2_);}
</style>
<g>
	<defs>
		<path id="SVGID_1_" d="M5.9,12h4.5c0.2,0,0.3,0.1,0.3,0.3v0.6c0,0.2-0.1,0.3-0.3,0.3H5.9c-0.2,0-0.3-0.1-0.3-0.3v-0.6
			C5.6,12.2,5.8,12,5.9,12z M5.9,9.2h6.2c0.2,0,0.3,0.1,0.3,0.3v0.6c0,0.2-0.1,0.3-0.3,0.3H5.9c-0.2,0-0.3-0.1-0.3-0.3V9.5
			C5.6,9.3,5.8,9.2,5.9,9.2z M5.9,6.1h6.2c0.2,0,0.3,0.1,0.3,0.3V7c0,0.2-0.1,0.3-0.3,0.3H5.9C5.8,7.2,5.6,7.1,5.6,7V6.4
			C5.6,6.3,5.8,6.1,5.9,6.1z M6.2,1.6h5.6c0.3,0,0.6,0.2,0.6,0.5v1.6c0,0.3-0.3,0.5-0.6,0.5H6.2c-0.3,0-0.6-0.2-0.6-0.5V2.2
			C5.6,1.9,5.9,1.6,6.2,1.6z M6.8,2.7v0.5h4.5V2.7H6.8z M13.2,3.2L13.2,3.2c0-0.3,0.2-0.5,0.5-0.5h0.6c0.3,0,0.6,0.2,0.6,0.5v12.5
			c0,0.3-0.3,0.5-0.6,0.5H3.7c-0.3,0-0.6-0.2-0.6-0.5V3.2c0-0.3,0.3-0.5,0.6-0.5h0.6c0.3,0,0.5,0.2,0.5,0.5S4.5,3.8,4.2,3.8h0v11.4
			h9.6V3.8h0C13.5,3.8,13.2,3.5,13.2,3.2z"/>
	</defs>
	<use xlink:href="#SVGID_1_"  style="overflow:visible;"/>
	<clipPath id="SVGID_2_">
		<use xlink:href="#SVGID_1_"  style="overflow:visible;"/>
	</clipPath>
	<g class="st0">
		<defs>
			<rect id="SVGID_3_" x="-674" y="-846.8" width="1424" height="1785"/>
		</defs>
		<use xlink:href="#SVGID_3_"  style="overflow:visible;"/>
		<clipPath id="SVGID_4_">
			<use xlink:href="#SVGID_3_"  style="overflow:visible;"/>
		</clipPath>
	</g>
</g>
</svg>
