<?xml version="1.0" encoding="utf-8"?>
<!-- Generator: Adobe Illustrator 21.0.0, SVG Export Plug-In . SVG Version: 6.00 Build 0)  -->
<svg version="1.1" id="图层_1" xmlns="http://www.w3.org/2000/svg" xmlns:xlink="http://www.w3.org/1999/xlink" x="0px" y="0px"
	 viewBox="0 0 18 18" style="enable-background:new 0 0 18 18;" xml:space="preserve">
<style type="text/css">
	.st0{clip-path:url(#SVGID_2_);}
	.st1{clip-path:url(#SVGID_4_);}
</style>
<g>
	<defs>
		<path id="SVGID_1_" d="M10.8,11.1c-0.3,0.1-0.6,0-0.7-0.3c-0.1-0.3,0-0.6,0.3-0.7C10.8,10,11,9.6,11,9.1c0-0.5-0.3-0.9-0.7-1.1
			c-0.3-0.1-0.4-0.4-0.3-0.7c0.1-0.3,0.4-0.4,0.7-0.3c0.8,0.4,1.3,1.1,1.3,2C12.1,10,11.6,10.7,10.8,11.1z M11.5,12.6
			c-0.3,0.1-0.6,0-0.7-0.3c-0.1-0.3,0-0.6,0.3-0.7c1-0.5,1.7-1.5,1.7-2.6c0-1.1-0.6-2.1-1.6-2.6c-0.3-0.1-0.4-0.4-0.2-0.7
			c0.1-0.3,0.4-0.4,0.7-0.2c1.4,0.6,2.2,2,2.2,3.5C13.8,10.6,12.9,12,11.5,12.6z M8.2,5.4c0.4-0.3,0.9-0.3,1.2,0.1
			C9.5,5.6,9.6,5.8,9.6,6v6.2c0,0.5-0.4,0.8-0.8,0.8c-0.2,0-0.4-0.1-0.5-0.2l-1.7-1.5H5.4c-0.5,0-0.8-0.4-0.8-0.8V7.7
			c0-0.5,0.4-0.8,0.8-0.8h1.1L8.2,5.4z M6.9,8H5.7v2.3h1.3l1.6,1.3v-5L6.9,8z M4,2.4h10.1c0.9,0,1.7,0.8,1.7,1.7v10.1
			c0,0.9-0.8,1.7-1.7,1.7H4c-0.9,0-1.7-0.8-1.7-1.7V4.1C2.3,3.1,3,2.4,4,2.4z M4,3.5c-0.3,0-0.6,0.3-0.6,0.6v10.1
			c0,0.3,0.3,0.6,0.6,0.6h10.1c0.3,0,0.6-0.3,0.6-0.6V4.1c0-0.3-0.3-0.6-0.6-0.6H4z"/>
	</defs>
	<clipPath id="SVGID_2_">
		<use xlink:href="#SVGID_1_"  style="overflow:visible;"/>
	</clipPath>
	<g class="st0">
		<defs>
			<rect id="SVGID_3_" x="-450" y="-1824.9" width="1424" height="1994"/>
		</defs>
		<clipPath id="SVGID_4_">
			<use xlink:href="#SVGID_3_"  style="overflow:visible;"/>
		</clipPath>
		<rect x="-2.7" y="-2.6" class="st1" width="23.5" height="23.5"/>
	</g>
</g>
</svg>
