<?xml version="1.0" encoding="UTF-8"?>
<svg width="18px" height="18px" viewBox="0 0 18 18" version="1.1" xmlns="http://www.w3.org/2000/svg" xmlns:xlink="http://www.w3.org/1999/xlink">
    <!-- Generator: Sketch 52.4 (67378) - http://www.bohemiancoding.com/sketch -->
    <title>icon_Official Accounts</title>
    <desc>Created with Sketch.</desc>
    <g id="页面-1" stroke="none" stroke-width="1" fill="none" fill-rule="evenodd">
        <g id="切图" transform="translate(-45.000000, -40.000000)">
            <rect fill="#FFFFFF" x="0" y="0" width="1210" height="768"></rect>
            <g id="icon_Official-Accounts" transform="translate(45.000000, 40.000000)">
                <g id="icon_QRcode">
                    <g id="栅格-copy-3"></g>
                </g>
                <path d="M10.8293375,5.06371246 L9.140625,3.375 L7.45191254,5.06371246 L5.06371246,5.06371246 L5.06371246,7.45191254 L3.375,9.140625 L5.06371246,10.8293375 L5.06371246,13.2175375 L7.45191254,13.2175375 L9.140625,14.90625 L10.8293375,13.2175375 L13.2175375,13.2175375 L13.2175375,10.8293375 L14.90625,9.140625 L13.2175375,7.45191254 L13.2175375,5.06371246 L10.8293375,5.06371246 Z M13.0157531,3.9133794 C13.6071769,3.9133794 14.0866206,4.39282311 14.0866206,4.98424689 L14.0866206,6.89305276 L15.4363502,8.24278233 C15.8545499,8.6609821 15.8545499,9.3390179 15.4363502,9.75721767 L14.0866206,11.1069472 L14.0866206,13.0157531 C14.0866206,13.6071769 13.6071769,14.0866206 13.0157531,14.0866206 L11.1069472,14.0866206 L9.75721767,15.4363502 C9.3390179,15.8545499 8.6609821,15.8545499 8.24278233,15.4363502 L6.89305276,14.0866206 L4.98424689,14.0866206 C4.39282311,14.0866206 3.9133794,13.6071769 3.9133794,13.0157531 L3.9133794,11.1069472 L2.56364983,9.75721767 C2.14545006,9.3390179 2.14545006,8.6609821 2.56364983,8.24278233 L3.9133794,6.89305276 L3.9133794,4.98424689 C3.9133794,4.39282311 4.39282311,3.9133794 4.98424689,3.9133794 L6.89305276,3.9133794 L8.24278233,2.56364983 C8.6609821,2.14545006 9.3390179,2.14545006 9.75721767,2.56364983 L11.1069472,3.9133794 L13.0157531,3.9133794 Z" id="合并形状" fill="#9EA8B1" fill-rule="nonzero"></path>
                <path d="M11.2298883,7.43617679 L11.2372842,7.42890628 C11.4508407,7.23392314 11.7763681,7.25668623 11.9607098,7.47949313 C12.1416371,7.69817308 12.1185816,8.02788288 11.9158091,8.21258099 L8.62139136,11.6580635 C8.40783487,11.8530466 8.08230748,11.8302836 7.90286396,11.6130876 L6.29339511,9.86484239 C6.11246782,9.64616243 6.13552337,9.31645264 6.34512426,9.12508107 C6.55868075,8.93009793 6.88420814,8.95286103 7.06268885,9.16902185 L8.32403262,10.5115572 L11.2298883,7.43617679 Z" id="路径" fill="#9EA8B1" fill-rule="nonzero"></path>
            </g>
        </g>
    </g>
</svg>