<?xml version="1.0" encoding="utf-8"?>
<!-- Generator: Adobe Illustrator 21.0.0, SVG Export Plug-In . SVG Version: 6.00 Build 0)  -->
<svg version="1.1" id="图层_1" xmlns="http://www.w3.org/2000/svg" xmlns:xlink="http://www.w3.org/1999/xlink" x="0px" y="0px"
	 viewBox="0 0 18 18" style="enable-background:new 0 0 18 18;" xml:space="preserve">
<style type="text/css">
	.st0{clip-path:url(#SVGID_2_);}
</style>
<g>
	<defs>
		<path id="SVGID_1_" d="M8.1,6.9c0-0.3,0.3-0.6,0.6-0.6h2c0.6,0,1.1,0.5,1.1,1.1v7.3c0,0.6-0.5,1.1-1.1,1.1H3.4
			c-0.6,0-1.1-0.5-1.1-1.1V7.4c0-0.6,0.5-1.1,1.1-1.1h1.4c0.3,0,0.6,0.3,0.6,0.6S5.1,7.4,4.8,7.4H3.4v7.3h7.3V7.4h-2
			C8.4,7.4,8.1,7.2,8.1,6.9z M9.8,11.4c0,0.3-0.3,0.6-0.6,0.6h-2c-0.6,0-1.1-0.5-1.1-1.1V3.5c0-0.6,0.5-1.1,1.1-1.1h7.3
			c0.6,0,1.1,0.5,1.1,1.1v7.3c0,0.6-0.5,1.1-1.1,1.1h-1.4c-0.3,0-0.6-0.3-0.6-0.6c0-0.3,0.3-0.6,0.6-0.6h1.4V3.5H7.3v7.3h2
			C9.6,10.8,9.8,11,9.8,11.4z"/>
	</defs>
	<use xlink:href="#SVGID_1_"  style="overflow:visible;"/>
	<clipPath id="SVGID_2_">
		<use xlink:href="#SVGID_1_"  style="overflow:visible;"/>
	</clipPath>
	<g class="st0">
		<defs>
			<rect id="SVGID_3_" x="-1122" y="-1311.9" width="1424" height="1994"/>
		</defs>
		<use xlink:href="#SVGID_3_"  style="overflow:visible;"/>
		<clipPath id="SVGID_4_">
			<use xlink:href="#SVGID_3_"  style="overflow:visible;"/>
		</clipPath>
	</g>
</g>
</svg>
