<?xml version="1.0" encoding="utf-8"?>
<!-- Generator: Adobe Illustrator 22.1.0, SVG Export Plug-In . SVG Version: 6.00 Build 0)  -->
<svg version="1.1" id="图层_1" xmlns="http://www.w3.org/2000/svg" xmlns:xlink="http://www.w3.org/1999/xlink" x="0px" y="0px"
	 viewBox="0 0 18 18" style="enable-background:new 0 0 18 18;" xml:space="preserve">
<style type="text/css">
	.st0{clip-path:url(#SVGID_2_);}
</style>
<g>
	<defs>
		<path id="SVGID_1_" d="M11.8,4.2v4c0,1.5-1.2,2.8-2.6,2.8c-1.4,0-2.6-1.2-2.6-2.8v-4c0-1.5,1.2-2.8,2.6-2.8
			C10.6,1.4,11.8,2.6,11.8,4.2z M7.7,4.2v4c0,0.9,0.7,1.6,1.5,1.6s1.5-0.7,1.5-1.6v-4c0-0.9-0.7-1.6-1.5-1.6S7.7,3.3,7.7,4.2z
			 M8.5,15.5v-2c-3-0.3-5.3-2.9-5.3-6.1c0-0.3,0.2-0.6,0.5-0.6S4.3,7,4.3,7.3c0,2.8,2.2,5,4.8,5c2.7,0,4.8-2.3,4.8-5
			c0-0.3,0.2-0.6,0.5-0.6S15,7,15,7.3c0,3.2-2.3,5.9-5.3,6.1v2h1.7c0.3,0,0.6,0.3,0.6,0.6s-0.3,0.6-0.6,0.6H6.8
			c-0.3,0-0.6-0.3-0.6-0.6s0.3-0.6,0.6-0.6H8.5z"/>
	</defs>
	<use xlink:href="#SVGID_1_"  style="overflow:visible;"/>
	<clipPath id="SVGID_2_">
		<use xlink:href="#SVGID_1_"  style="overflow:visible;"/>
	</clipPath>
	<g class="st0">
		<defs>
			<rect id="SVGID_3_" x="-5.9" y="-389" width="911" height="1045"/>
		</defs>
		<use xlink:href="#SVGID_3_"  style="overflow:visible;"/>
		<clipPath id="SVGID_4_">
			<use xlink:href="#SVGID_3_"  style="overflow:visible;"/>
		</clipPath>
	</g>
</g>
</svg>
