<?xml version="1.0" encoding="utf-8"?>
<!-- Generator: Adobe Illustrator 21.0.0, SVG Export Plug-In . SVG Version: 6.00 Build 0)  -->
<svg version="1.1" id="图层_1" xmlns="http://www.w3.org/2000/svg" xmlns:xlink="http://www.w3.org/1999/xlink" x="0px" y="0px"
	 viewBox="0 0 18 18" style="enable-background:new 0 0 18 18;" xml:space="preserve">
<style type="text/css">
	.st0{clip-path:url(#SVGID_2_);}
</style>
<g>
	<defs>
		<path id="SVGID_1_" d="M9.6,6.9h0.6c0.3,0,0.6-0.3,0.6-0.6V5.7c0-0.3-0.3-0.6-0.6-0.6H7.9c-0.3,0-0.6,0.3-0.6,0.6v0.6
			c0,0.3,0.3,0.6,0.6,0.6h0.6V6.3c0-0.3,0.3-0.6,0.6-0.6S9.6,6,9.6,6.3V6.9z M9.6,8v7.4c0,0.3-0.3,0.6-0.6,0.6s-0.6-0.3-0.6-0.6V8
			H6.7L4,10.8C4,10.9,4,11,4,11l2.9,4c0.2,0.3,0.1,0.6-0.1,0.8C6.5,16,6.2,16,6,15.7l-3-4.1c-0.4-0.1-0.7-0.4-0.7-0.8
			c0-0.5,0.4-0.8,0.8-0.8c0,0,0.1,0,0.1,0l2.4-2.6l0.7-2.8C6.6,4.3,6.8,4,7,4h1.5V2.9c0-0.3,0.3-0.6,0.6-0.6s0.6,0.3,0.6,0.6V4h1.5
			c0.2,0,0.5,0.3,0.6,0.6l0.8,2.8c0,0,0,0,0,0.1l2.4,2.5c0.1,0,0.1,0,0.2,0c0.5,0,0.8,0.4,0.8,0.8c0,0.4-0.3,0.8-0.8,0.8l-3,4.1
			c-0.2,0.3-0.5,0.3-0.8,0.1c-0.3-0.2-0.3-0.5-0.1-0.8l3-4.1c0,0,0,0,0,0L11.4,8H9.6z"/>
	</defs>
	<use xlink:href="#SVGID_1_"  style="overflow:visible;fill-rule:evenodd;clip-rule:evenodd;"/>
	<clipPath id="SVGID_2_">
		<use xlink:href="#SVGID_1_"  style="overflow:visible;"/>
	</clipPath>
	<g class="st0">
		<defs>
			<rect id="SVGID_3_" x="-1014.1" y="-1317.6" width="1424" height="1994"/>
		</defs>
		<use xlink:href="#SVGID_3_"  style="overflow:visible;"/>
		<clipPath id="SVGID_4_">
			<use xlink:href="#SVGID_3_"  style="overflow:visible;"/>
		</clipPath>
	</g>
</g>
</svg>
