<?xml version="1.0" encoding="utf-8"?>
<!-- Generator: Adobe Illustrator 21.0.0, SVG Export Plug-In . SVG Version: 6.00 Build 0)  -->
<svg version="1.1" id="图层_1" xmlns="http://www.w3.org/2000/svg" xmlns:xlink="http://www.w3.org/1999/xlink" x="0px" y="0px"
	 viewBox="0 0 18 18" style="enable-background:new 0 0 18 18;" xml:space="preserve">
<style type="text/css">
	.st0{clip-path:url(#SVGID_2_);}
	.st1{clip-path:url(#SVGID_4_);}
</style>
<g>
	<defs>
		<path id="SVGID_1_" d="M11.1,10.1c0.2,0,0.3,0.1,0.3,0.3V11c0,0.2-0.1,0.3-0.3,0.3H9.7v0.6h1.4c0.2,0,0.3,0.1,0.3,0.3v0.6
			c0,0.2-0.1,0.3-0.3,0.3H9.7v0.8c0,0.2-0.1,0.3-0.3,0.3H8.9c-0.2,0-0.3-0.1-0.3-0.3v-0.8H7.2c-0.2,0-0.3-0.1-0.3-0.3v-0.6
			c0-0.2,0.1-0.3,0.3-0.3h1.4v-0.6H7.2c-0.2,0-0.3-0.1-0.3-0.3v-0.6c0-0.2,0.1-0.3,0.3-0.3h0.9l-1.2-2C6.8,7.9,6.9,7.8,7,7.7
			l0.5-0.3c0.1-0.1,0.3,0,0.4,0.1l1.3,2.2l1.3-2.2c0.1-0.1,0.2-0.2,0.4-0.1l0.5,0.3c0.1,0.1,0.2,0.2,0.1,0.4l-1.2,2H11.1z M4.3,1.7
			h9.6c0.6,0,1.1,0.5,1.1,1.1v12.4c0,0.6-0.5,1.1-1.1,1.1H4.3c-0.6,0-1.1-0.5-1.1-1.1V2.9C3.2,2.2,3.7,1.7,4.3,1.7z M4.3,4.9v10.3
			h9.6V4.9L9.3,6.5c-0.1,0-0.2,0-0.4,0L4.3,4.9z M4.3,3.7l4.8,1.6l4.8-1.6V2.9H4.3V3.7z"/>
	</defs>
	<clipPath id="SVGID_2_">
		<use xlink:href="#SVGID_1_"  style="overflow:visible;"/>
	</clipPath>
	<g class="st0">
		<defs>
			<rect id="SVGID_3_" x="-449.9" y="-1311.9" width="1424" height="1994"/>
		</defs>
		<clipPath id="SVGID_4_">
			<use xlink:href="#SVGID_3_"  style="overflow:visible;"/>
		</clipPath>
		<rect x="-1.8" y="-3.3" class="st1" width="21.8" height="24.6"/>
	</g>
</g>
</svg>
