<?xml version="1.0" encoding="utf-8"?>
<!-- Generator: Adobe Illustrator 21.0.0, SVG Export Plug-In . SVG Version: 6.00 Build 0)  -->
<svg version="1.1" id="图层_1" xmlns="http://www.w3.org/2000/svg" xmlns:xlink="http://www.w3.org/1999/xlink" x="0px" y="0px"
	 viewBox="0 0 18 18" style="enable-background:new 0 0 18 18;" xml:space="preserve">
<style type="text/css">
	.st0{clip-path:url(#SVGID_2_);}
</style>
<g>
	<defs>
		<path id="SVGID_1_" d="M5.9,7.7c0.3,0,0.6-0.3,0.6-0.6S6.3,6.6,5.9,6.6S5.4,6.8,5.4,7.2S5.6,7.7,5.9,7.7z M5.9,8.8
			C5,8.8,4.3,8.1,4.3,7.2S5,5.5,5.9,5.5s1.7,0.8,1.7,1.7S6.9,8.8,5.9,8.8z M12.9,8.3h0.6c0.2,0,0.3,0.1,0.3,0.3v0.6
			c0,0.2-0.1,0.3-0.3,0.3h-0.8V10h0.8c0.2,0,0.3,0.1,0.3,0.3v0.6c0,0.2-0.1,0.3-0.3,0.3h-0.8v1.4c0,0.2-0.1,0.3-0.3,0.3h-0.6
			c-0.2,0-0.3-0.1-0.3-0.3v-1.4h-0.8c-0.2,0-0.3-0.1-0.3-0.3v-0.6c0-0.2,0.1-0.3,0.3-0.3h0.8V9.4h-0.8c-0.2,0-0.3-0.1-0.3-0.3V8.6
			c0-0.2,0.1-0.3,0.3-0.3h0.6L10.7,6c0-0.2,0-0.3,0.2-0.3l0.5-0.1c0.2,0,0.3,0,0.3,0.2l0.3,1.2l0.3-1.2c0-0.2,0.2-0.2,0.3-0.2
			l0.5,0.1c0.2,0,0.2,0.2,0.2,0.3L12.9,8.3z M2.3,12.5C2.3,12.5,2.3,12.5,2.3,12.5V4.1C2.3,3.1,3,2.4,4,2.4h10.1
			c0.9,0,1.7,0.8,1.7,1.7v10.1c0,0.9-0.8,1.7-1.7,1.7H4c-0.9,0-1.7-0.8-1.7-1.7V12.5z M8.5,14.7V12l-0.8,0.7c-0.2,0.2-0.6,0.2-0.8,0
			l-1.5-1.6l-2,1.7v1.4c0,0.3,0.3,0.6,0.6,0.6H8.5z M9.6,3.5v11.2h4.5c0.3,0,0.6-0.3,0.6-0.6V4.1c0-0.3-0.3-0.6-0.6-0.6H9.6z
			 M8.5,3.5H4c-0.3,0-0.6,0.3-0.6,0.6v7.3l1.7-1.4C5.3,9.7,5.7,9.7,5.9,10l1.5,1.6l1.1-1.1V3.5z"/>
	</defs>
	<use xlink:href="#SVGID_1_"  style="overflow:visible;fill-rule:evenodd;clip-rule:evenodd;"/>
	<clipPath id="SVGID_2_">
		<use xlink:href="#SVGID_1_"  style="overflow:visible;"/>
	</clipPath>
	<g class="st0">
		<defs>
			<rect id="SVGID_3_" x="-786" y="-1311.9" width="1424" height="1994"/>
		</defs>
		<use xlink:href="#SVGID_3_"  style="overflow:visible;"/>
		<clipPath id="SVGID_4_">
			<use xlink:href="#SVGID_3_"  style="overflow:visible;"/>
		</clipPath>
	</g>
</g>
</svg>
