<?xml version="1.0" encoding="utf-8"?>
<!-- Generator: Adobe Illustrator 21.0.0, SVG Export Plug-In . SVG Version: 6.00 Build 0)  -->
<svg version="1.1" id="图层_1" xmlns="http://www.w3.org/2000/svg" xmlns:xlink="http://www.w3.org/1999/xlink" x="0px" y="0px"
	 viewBox="0 0 18 18" style="enable-background:new 0 0 18 18;" xml:space="preserve">
<style type="text/css">
	.st0{clip-path:url(#SVGID_2_);}
	.st1{clip-path:url(#SVGID_4_);}
</style>
<g>
	<defs>
		<path id="SVGID_1_" d="M13.3,11.6v2.2h2.2v-2.2H13.3z M7.9,11.6v2.2h2.2v-2.2H7.9z M2.6,11.6v2.2h2.2v-2.2H2.6z M7.9,4.3v2.2h2.2
			V4.3H7.9z M9.6,9.6v0.8h0.6c0.6,0,1.1,0.5,1.1,1.1v2.2c0,0.6-0.5,1.1-1.1,1.1H7.9c-0.6,0-1.1-0.5-1.1-1.1v-2.2
			c0-0.6,0.5-1.1,1.1-1.1h0.6V9.6H4.3v0.8h0.6c0.6,0,1.1,0.5,1.1,1.1v2.2c0,0.6-0.5,1.1-1.1,1.1H2.6c-0.6,0-1.1-0.5-1.1-1.1v-2.2
			c0-0.6,0.5-1.1,1.1-1.1h0.6V9.6c0-0.6,0.5-1.1,1.1-1.1h4.2V7.7H7.9c-0.6,0-1.1-0.5-1.1-1.1V4.3c0-0.6,0.5-1.1,1.1-1.1h2.2
			c0.6,0,1.1,0.5,1.1,1.1v2.2c0,0.6-0.5,1.1-1.1,1.1H9.6v0.8h4.2c0.6,0,1.1,0.5,1.1,1.1v0.8h0.6c0.6,0,1.1,0.5,1.1,1.1v2.2
			c0,0.6-0.5,1.1-1.1,1.1h-2.2c-0.6,0-1.1-0.5-1.1-1.1v-2.2c0-0.6,0.5-1.1,1.1-1.1h0.6V9.6H9.6z"/>
	</defs>
	<clipPath id="SVGID_2_">
		<use xlink:href="#SVGID_1_"  style="overflow:visible;"/>
	</clipPath>
	<g class="st0">
		<defs>
			<rect id="SVGID_3_" x="-674" y="-1677.9" width="1424" height="1994"/>
		</defs>
		<clipPath id="SVGID_4_">
			<use xlink:href="#SVGID_3_"  style="overflow:visible;"/>
		</clipPath>
		<rect x="-3.6" y="-1.8" class="st1" width="25.2" height="21.8"/>
	</g>
</g>
</svg>
