<?xml version="1.0" encoding="utf-8"?>
<!-- Generator: Adobe Illustrator 21.0.0, SVG Export Plug-In . SVG Version: 6.00 Build 0)  -->
<svg version="1.1" id="图层_1" xmlns="http://www.w3.org/2000/svg" xmlns:xlink="http://www.w3.org/1999/xlink" x="0px" y="0px"
	 viewBox="0 0 18 18" style="enable-background:new 0 0 18 18;" xml:space="preserve">
<style type="text/css">
	.st0{clip-path:url(#SVGID_2_);}
	.st1{clip-path:url(#SVGID_4_);}
</style>
<g>
	<defs>
		<path id="SVGID_1_" d="M10.2,4.9c-0.1-0.3,0.1-0.6,0.5-0.7c0.3-0.1,0.6,0.1,0.7,0.5l0.5,2.7c0.1,0.3-0.1,0.6-0.5,0.7
			c-0.3,0.1-0.6-0.1-0.7-0.5L10.2,4.9z M7.9,4.9L7.4,7.6C7.3,7.9,7,8.1,6.7,8.1C6.4,8,6.2,7.7,6.3,7.4l0.5-2.7
			c0.1-0.3,0.4-0.5,0.7-0.4C7.8,4.3,8,4.6,7.9,4.9z M6.8,8.7c0.2,0,0.3,0.1,0.4,0.2c0.4,0.6,1.1,0.9,1.8,0.9s1.4-0.3,1.8-0.9
			c0.1-0.1,0.3-0.2,0.4-0.2h3.2l-1.3-5.1H4.9L3.6,8.7H6.8z M4.6,9.8v4.5c0,0.3,0.3,0.6,0.6,0.6H13c0.3,0,0.6-0.3,0.6-0.6V9.8h-2
			c-0.6,0.7-1.5,1.1-2.5,1.1s-1.9-0.4-2.5-1.1H4.6z M14.7,9.8v4.5c0,0.9-0.8,1.7-1.7,1.7H5.1c-0.9,0-1.7-0.8-1.7-1.7V9.8H2.9
			c-0.4,0-0.6-0.3-0.5-0.7L4,2.9C4,2.7,4.3,2.5,4.5,2.5h9.1c0.3,0,0.5,0.2,0.5,0.4l1.6,6.2c0.1,0.4-0.2,0.7-0.5,0.7H14.7z"/>
	</defs>
	<clipPath id="SVGID_2_">
		<use xlink:href="#SVGID_1_"  style="overflow:visible;"/>
	</clipPath>
	<g class="st0">
		<defs>
			<rect id="SVGID_3_" x="-561.9" y="-1555.8" width="1424" height="1994"/>
		</defs>
		<clipPath id="SVGID_4_">
			<use xlink:href="#SVGID_3_"  style="overflow:visible;"/>
		</clipPath>
		<rect x="-2.7" y="-2.5" class="st1" width="23.5" height="23.5"/>
	</g>
</g>
</svg>
