<?xml version="1.0" encoding="utf-8"?>
<!-- Generator: Adobe Illustrator 21.0.0, SVG Export Plug-In . SVG Version: 6.00 Build 0)  -->
<svg version="1.1" id="图层_1" xmlns="http://www.w3.org/2000/svg" xmlns:xlink="http://www.w3.org/1999/xlink" x="0px" y="0px"
	 viewBox="0 0 18 18" style="enable-background:new 0 0 18 18;" xml:space="preserve">
<style type="text/css">
	.st0{clip-path:url(#SVGID_2_);}
	.st1{clip-path:url(#SVGID_4_);}
</style>
<g>
	<defs>
		<path id="SVGID_1_" d="M5.7,12.7h6.8c0.2,0,0.3,0.1,0.3,0.3v0.6c0,0.2-0.1,0.3-0.3,0.3H5.7c-0.2,0-0.3-0.1-0.3-0.3V13
			C5.4,12.8,5.6,12.7,5.7,12.7z M5.7,10.4h6.8c0.2,0,0.3,0.1,0.3,0.3v0.6c0,0.2-0.1,0.3-0.3,0.3H5.7c-0.2,0-0.3-0.1-0.3-0.3v-0.6
			C5.4,10.6,5.6,10.4,5.7,10.4z M5.7,8.2h6.8c0.2,0,0.3,0.1,0.3,0.3V9c0,0.2-0.1,0.3-0.3,0.3H5.7C5.6,9.3,5.4,9.2,5.4,9V8.5
			C5.4,8.3,5.6,8.2,5.7,8.2z M9.6,5.9h2.8c0.2,0,0.3,0.1,0.3,0.3v0.6c0,0.2-0.1,0.3-0.3,0.3H9.6c-0.2,0-0.3-0.1-0.3-0.3V6.2
			C9.4,6.1,9.5,5.9,9.6,5.9z M9.6,4.3h2.8c0.2,0,0.3,0.1,0.3,0.3v0.6c0,0.2-0.1,0.3-0.3,0.3H9.6c-0.2,0-0.3-0.1-0.3-0.3V4.5
			C9.4,4.4,9.5,4.3,9.6,4.3z M6.6,5.4v0.6h0.6V5.4H6.6z M5.7,4.3H8c0.2,0,0.3,0.1,0.3,0.3v2.2c0,0.2-0.1,0.3-0.3,0.3H5.7
			c-0.2,0-0.3-0.1-0.3-0.3V4.5C5.4,4.4,5.6,4.3,5.7,4.3z M4.9,1.7h8.4c0.9,0,1.7,0.8,1.7,1.7v11.2c0,0.9-0.8,1.7-1.7,1.7H4.9
			c-0.9,0-1.7-0.8-1.7-1.7V3.4C3.2,2.5,3.9,1.7,4.9,1.7z M4.9,2.9c-0.3,0-0.6,0.3-0.6,0.6v11.2c0,0.3,0.3,0.6,0.6,0.6h8.4
			c0.3,0,0.6-0.3,0.6-0.6V3.4c0-0.3-0.3-0.6-0.6-0.6H4.9z"/>
	</defs>
	<clipPath id="SVGID_2_">
		<use xlink:href="#SVGID_1_"  style="overflow:visible;"/>
	</clipPath>
	<g class="st0">
		<defs>
			<rect id="SVGID_3_" x="-449.9" y="-1556" width="1424" height="1994"/>
		</defs>
		<clipPath id="SVGID_4_">
			<use xlink:href="#SVGID_3_"  style="overflow:visible;"/>
		</clipPath>
		<rect x="-1.8" y="-3.3" class="st1" width="21.8" height="24.6"/>
	</g>
</g>
</svg>
