<?xml version="1.0" encoding="utf-8"?>
<!-- Generator: Adobe Illustrator 21.0.0, SVG Export Plug-In . SVG Version: 6.00 Build 0)  -->
<svg version="1.1" id="图层_1" xmlns="http://www.w3.org/2000/svg" xmlns:xlink="http://www.w3.org/1999/xlink" x="0px" y="0px"
	 viewBox="0 0 18 18" style="enable-background:new 0 0 18 18;" xml:space="preserve">
<style type="text/css">
	.st0{clip-path:url(#SVGID_2_);}
	.st1{clip-path:url(#SVGID_4_);}
</style>
<g>
	<defs>
		<path id="SVGID_1_" d="M9,9.6h4.2c0.2,0,0.3,0.1,0.3,0.3v0.6c0,0.2-0.1,0.3-0.3,0.3H9c-0.2,0-0.3-0.1-0.3-0.3V9.9
			C8.7,9.7,8.9,9.6,9,9.6z M7,9.6h0.6c0.2,0,0.3,0.1,0.3,0.3v0.6c0,0.2-0.1,0.3-0.3,0.3H7c-0.2,0-0.3-0.1-0.3-0.3V9.9
			C6.8,9.7,6.9,9.6,7,9.6z M9,7.1h4.2c0.2,0,0.3,0.1,0.3,0.3v0.6c0,0.2-0.1,0.3-0.3,0.3H9c-0.2,0-0.3-0.1-0.3-0.3V7.3
			C8.7,7.2,8.9,7.1,9,7.1z M7,7.1h0.6c0.2,0,0.3,0.1,0.3,0.3v0.6c0,0.2-0.1,0.3-0.3,0.3H7c-0.2,0-0.3-0.1-0.3-0.3V7.3
			C6.8,7.2,6.9,7.1,7,7.1z M9,4.8h4.2c0.2,0,0.3,0.1,0.3,0.3v0.6c0,0.2-0.1,0.3-0.3,0.3H9c-0.2,0-0.3-0.1-0.3-0.3V5.1
			C8.7,4.9,8.9,4.8,9,4.8z M7,4.8h0.6c0.2,0,0.3,0.1,0.3,0.3v0.6c0,0.2-0.1,0.3-0.3,0.3H7c-0.2,0-0.3-0.1-0.3-0.3V5.1
			C6.8,4.9,6.9,4.8,7,4.8z M12.7,14.6c1.1,0,2-0.9,2-2V3.4h-9v8.4h4.5c0.3,0,0.6,0.3,0.6,0.6v0.3C10.7,13.8,11.6,14.6,12.7,14.6z
			 M5.1,14.6h5.2c-0.4-0.5-0.6-1-0.7-1.7H3.4C3.4,13.9,4.1,14.6,5.1,14.6z M4.5,11.8V3.4c0-0.6,0.5-1.1,1.1-1.1h9
			c0.6,0,1.1,0.5,1.1,1.1v9.3c0,1.7-1.4,3.1-3.1,3.1H5.1c-1.6,0-2.8-1.3-2.8-2.8v-0.6c0-0.3,0.3-0.6,0.6-0.6H4.5z"/>
	</defs>
	<clipPath id="SVGID_2_">
		<use xlink:href="#SVGID_1_"  style="overflow:visible;"/>
	</clipPath>
	<g class="st0">
		<defs>
			<rect id="SVGID_3_" x="-898" y="-1556" width="1424" height="1994"/>
		</defs>
		<clipPath id="SVGID_4_">
			<use xlink:href="#SVGID_3_"  style="overflow:visible;"/>
		</clipPath>
		<rect x="-2.7" y="-2.7" class="st1" width="23.5" height="23.5"/>
	</g>
</g>
</svg>
