<?xml version="1.0" encoding="utf-8"?>
<!-- Generator: Adobe Illustrator 22.1.0, SVG Export Plug-In . SVG Version: 6.00 Build 0)  -->
<svg version="1.1" id="图层_1" xmlns="http://www.w3.org/2000/svg" xmlns:xlink="http://www.w3.org/1999/xlink" x="0px" y="0px"
	 viewBox="0 0 18 18" style="enable-background:new 0 0 18 18;" xml:space="preserve">
<style type="text/css">
	.st0{clip-path:url(#SVGID_2_);}
</style>
<g>
	<defs>
		<path id="SVGID_1_" d="M15,11.7c0.3-0.1,0.6,0,0.8,0.3c0.1,0.3,0,0.6-0.3,0.8l-6.2,3.1c-0.2,0.1-0.3,0.1-0.5,0l-6.2-3.1
			c-0.3-0.1-0.4-0.5-0.3-0.8c0.1-0.3,0.5-0.4,0.8-0.3l5.9,3L15,11.7z M15,8.6c0.3-0.1,0.6,0,0.8,0.3c0.1,0.3,0,0.6-0.3,0.8l-6.2,3.1
			c-0.2,0.1-0.3,0.1-0.5,0L2.6,9.6C2.4,9.5,2.2,9.1,2.4,8.8c0.1-0.3,0.5-0.4,0.8-0.3l5.9,3L15,8.6z M9.3,2.4l6.2,3.1
			c0.4,0.2,0.4,0.8,0,1L9.3,9.6C9.2,9.7,9,9.7,8.8,9.6L2.6,6.5c-0.4-0.2-0.4-0.8,0-1l6.2-3.1C9,2.3,9.2,2.3,9.3,2.4z M4.1,6l4.9,2.5
			L14,6L9.1,3.5L4.1,6z"/>
	</defs>
	<use xlink:href="#SVGID_1_"  style="overflow:visible;"/>
	<clipPath id="SVGID_2_">
		<use xlink:href="#SVGID_1_"  style="overflow:visible;"/>
	</clipPath>
	<g class="st0">
		<defs>
			<rect id="SVGID_3_" x="-896.9" y="-968.9" width="1424" height="1785"/>
		</defs>
		<use xlink:href="#SVGID_3_"  style="overflow:visible;"/>
		<clipPath id="SVGID_4_">
			<use xlink:href="#SVGID_3_"  style="overflow:visible;"/>
		</clipPath>
	</g>
</g>
</svg>
