<?xml version="1.0" encoding="utf-8"?>
<!-- Generator: Adobe Illustrator 22.1.0, SVG Export Plug-In . SVG Version: 6.00 Build 0)  -->
<svg version="1.1" id="图层_1" xmlns="http://www.w3.org/2000/svg" xmlns:xlink="http://www.w3.org/1999/xlink" x="0px" y="0px"
	 viewBox="0 0 18 18" style="enable-background:new 0 0 18 18;" xml:space="preserve">
<style type="text/css">
	.st0{clip-path:url(#SVGID_2_);}
</style>
<g>
	<defs>
		<path id="SVGID_1_" d="M6.2,9.6h5.6c0.3,0,0.6,0.3,0.6,0.6c0,0.3-0.3,0.6-0.6,0.6H6.2c-0.3,0-0.6-0.3-0.6-0.6
			C5.6,9.9,5.9,9.6,6.2,9.6z M7,7.1H11c0.3,0,0.6,0.3,0.6,0.6S11.3,8.2,11,8.2H7C6.7,8.2,6.5,8,6.5,7.7S6.7,7.1,7,7.1z M2.2,9.1
			c0-3.7,3-6.8,6.8-6.8s6.8,3,6.8,6.8c0,1.6-0.6,3.2-1.6,4.4l1,0.9c0.2,0.2,0.2,0.4,0.2,0.6c0,0.5-0.4,0.8-0.8,0.8H8.7
			c0,0-0.1,0-0.1,0C5,15.6,2.2,12.6,2.2,9.1z M13,13.8c-0.2-0.2-0.2-0.6,0-0.8c1-1,1.6-2.5,1.6-4c0-3.1-2.5-5.6-5.6-5.6
			S3.4,6,3.4,9.1c0,3,2.4,5.5,5.4,5.6c0,0,0,0,0.1,0h5L13,13.8z"/>
	</defs>
	<use xlink:href="#SVGID_1_"  style="overflow:visible;"/>
	<clipPath id="SVGID_2_">
		<use xlink:href="#SVGID_1_"  style="overflow:visible;"/>
	</clipPath>
	<g class="st0">
		<defs>
			<rect id="SVGID_3_" x="-562" y="-968.9" width="1424" height="1785"/>
		</defs>
		<use xlink:href="#SVGID_3_"  style="overflow:visible;"/>
		<clipPath id="SVGID_4_">
			<use xlink:href="#SVGID_3_"  style="overflow:visible;"/>
		</clipPath>
	</g>
</g>
</svg>
