<?xml version="1.0" encoding="utf-8"?>
<!-- Generator: Adobe Illustrator 22.1.0, SVG Export Plug-In . SVG Version: 6.00 Build 0)  -->
<svg version="1.1" id="图层_1" xmlns="http://www.w3.org/2000/svg" xmlns:xlink="http://www.w3.org/1999/xlink" x="0px" y="0px"
	 viewBox="0 0 18 18" style="enable-background:new 0 0 18 18;" xml:space="preserve">
<style type="text/css">
	.st0{clip-path:url(#SVGID_2_);}
</style>
<g>
	<defs>
		<path id="SVGID_1_" d="M6.1,6.4c0.3,0,0.6,0.3,0.6,0.6v1.1c0,0.3-0.3,0.6-0.6,0.6S5.5,8.4,5.5,8.1V7C5.5,6.7,5.8,6.4,6.1,6.4z
			 M9.4,6.4C9.7,6.4,10,6.7,10,7v1.1c0,0.3-0.3,0.6-0.6,0.6S8.9,8.4,8.9,8.1V7C8.9,6.7,9.1,6.4,9.4,6.4z M14,15.9l-2.7-1.5
			c-0.8,0.3-1.6,0.4-2.4,0.4c-3.7,0-6.8-2.8-6.8-6.2c0-3.4,3-6.2,6.8-6.2s6.8,2.8,6.8,6.2c0,1.6-0.6,3-1.7,4.1l0.8,2.4
			C14.9,15.7,14.4,16.2,14,15.9z M11.6,13.4l1.7,0.9l-0.5-1.4c-0.1-0.2,0-0.4,0.2-0.6c1-0.9,1.6-2.2,1.6-3.6c0-2.8-2.5-5.1-5.6-5.1
			S3.2,5.9,3.2,8.7c0,2.8,2.5,5.1,5.6,5.1c0.8,0,1.5-0.1,2.2-0.4C11.2,13.3,11.4,13.3,11.6,13.4z"/>
	</defs>
	<use xlink:href="#SVGID_1_"  style="overflow:visible;"/>
	<clipPath id="SVGID_2_">
		<use xlink:href="#SVGID_1_"  style="overflow:visible;"/>
	</clipPath>
	<g class="st0">
		<defs>
			<rect id="SVGID_3_" x="-674.1" y="-970.8" width="1424" height="1785"/>
		</defs>
		<use xlink:href="#SVGID_3_"  style="overflow:visible;"/>
		<clipPath id="SVGID_4_">
			<use xlink:href="#SVGID_3_"  style="overflow:visible;"/>
		</clipPath>
	</g>
</g>
</svg>
