<?xml version="1.0" encoding="utf-8"?>
<!-- Generator: Adobe Illustrator 22.1.0, SVG Export Plug-In . SVG Version: 6.00 Build 0)  -->
<svg version="1.1" id="图层_1" xmlns="http://www.w3.org/2000/svg" xmlns:xlink="http://www.w3.org/1999/xlink" x="0px" y="0px"
	 viewBox="0 0 18 18" style="enable-background:new 0 0 18 18;" xml:space="preserve">
<style type="text/css">
	.st0{clip-path:url(#SVGID_2_);}
</style>
<g>
	<defs>
		<path id="SVGID_1_" d="M12.9,14.6h1.9V8.8h-1.9V14.6z M8.1,14.6h1.9V8.8H8.1V14.6z M3.3,14.6h1.9V8.8H3.3V14.6z M4.8,3.2
			C4.8,3.2,4.7,3.3,4.8,3.2l0,1.2c0,0,0,0,0,0h8.4c0,0,0,0,0,0V3.3c0,0,0,0,0,0H4.8z M9.7,6.1h3.5c0.6,0,1.1,0.5,1.1,1.1v0.6h0.8
			c0.3,0,0.6,0.3,0.6,0.6v6.8c0,0.3-0.3,0.6-0.6,0.6h-2.8c-0.3,0-0.6-0.3-0.6-0.6V8.4c0-0.3,0.3-0.6,0.6-0.6h0.8V7.2H9.7v0.6h0.7
			C10.7,7.8,11,8,11,8.4v6.8c0,0.3-0.3,0.6-0.6,0.6H7.6c-0.3,0-0.6-0.3-0.6-0.6V8.4C7,8,7.3,7.8,7.6,7.8h1V7.2H4.8v0.6h0.8
			c0.3,0,0.6,0.3,0.6,0.6v6.8c0,0.3-0.3,0.6-0.6,0.6H2.8c-0.3,0-0.6-0.3-0.6-0.6V8.4c0-0.3,0.3-0.6,0.6-0.6h0.8V7.2
			c0-0.6,0.5-1.1,1.1-1.1h3.8V5.5H4.8C4.2,5.5,3.7,5,3.7,4.4V3.3c0-0.6,0.5-1.1,1.1-1.1h8.4c0.6,0,1.1,0.5,1.1,1.1v1.1
			c0,0.6-0.5,1.1-1.1,1.1H9.7V6.1z M9,14.3c-0.3,0-0.6-0.3-0.6-0.6s0.3-0.6,0.6-0.6s0.6,0.3,0.6,0.6S9.3,14.3,9,14.3z"/>
	</defs>
	<use xlink:href="#SVGID_1_"  style="overflow:visible;fill-rule:evenodd;clip-rule:evenodd;"/>
	<clipPath id="SVGID_2_">
		<use xlink:href="#SVGID_1_"  style="overflow:visible;"/>
	</clipPath>
	<g class="st0">
		<defs>
			<rect id="SVGID_3_" x="-785" y="-969.1" width="1424" height="1785"/>
		</defs>
		<use xlink:href="#SVGID_3_"  style="overflow:visible;"/>
		<clipPath id="SVGID_4_">
			<use xlink:href="#SVGID_3_"  style="overflow:visible;"/>
		</clipPath>
	</g>
</g>
</svg>
