<?xml version="1.0" encoding="utf-8"?>
<!-- Generator: Adobe Illustrator 22.1.0, SVG Export Plug-In . SVG Version: 6.00 Build 0)  -->
<svg version="1.1" id="图层_1" xmlns="http://www.w3.org/2000/svg" xmlns:xlink="http://www.w3.org/1999/xlink" x="0px" y="0px"
	 viewBox="0 0 18 18" style="enable-background:new 0 0 18 18;" xml:space="preserve">
<style type="text/css">
	.st0{clip-path:url(#SVGID_2_);}
</style>
<g>
	<defs>
		<path id="SVGID_1_" d="M13.3,9.7c-0.2,0-0.6-0.2-0.6-0.5c0-0.3,0.3-0.5,0.6-0.5c0.4,0,0.6,0.3,0.6,0.5C13.9,9.5,13.7,9.7,13.3,9.7
			z M10.6,9.7c-0.2,0-0.6-0.2-0.6-0.5s0.3-0.5,0.6-0.5c0.4,0,0.6,0.3,0.6,0.5C11.1,9.5,11,9.7,10.6,9.7z M5.3,6.3
			C4.9,6.3,4.6,6,4.6,5.6C4.6,5.2,4.9,5,5.3,5C5.7,5,6,5.2,6,5.6C6,6,5.7,6.3,5.3,6.3z M8.8,5c0.4,0,0.7,0.3,0.7,0.6
			c0,0.4-0.3,0.6-0.7,0.6C8.4,6.3,8.1,6,8.1,5.6C8.1,5.2,8.4,5,8.8,5z M14.2,13.1c0-0.2,0-0.4,0.2-0.5c0.8-0.6,1.1-1.2,1.1-2.2
			c0-1.7-1.6-3.2-3.6-3.2c-2.1,0-3.6,1.4-3.6,3.2c0,1.8,1.5,3.2,3.6,3.2c0.6,0,1,0,1,0c0.2-0.1,0.4-0.1,0.5,0l0.9,0.6L14.2,13.1z
			 M7.5,12c-0.2,0-0.3,0-0.5,0c-0.5,0-0.9,0-1.5-0.2l-2,1.3c-0.4,0.3-0.9-0.1-0.8-0.6l0.4-2c-1.2-0.9-1.7-2-1.7-3.5
			c0-2.7,2.5-4.9,5.6-4.9c2.7,0,5.1,1.6,5.6,3.9c2.3,0.3,4,2.1,4,4.2c0,1.3-0.3,2.1-1.2,2.9l0.3,1.8c0.1,0.5-0.4,0.8-0.8,0.6
			l-1.7-1.1c-0.2,0-0.6,0.1-1.2,0.1C9.9,14.6,8.3,13.6,7.5,12C7.5,12,7.5,12,7.5,12z M11.4,6.1C10.9,4.5,9.1,3.4,7,3.4
			c-2.5,0-4.5,1.7-4.5,3.8c0,1.2,0.4,2,1.5,2.8c0.2,0.1,0.3,0.3,0.2,0.6l-0.2,1l1-0.7c0.1-0.1,0.3-0.1,0.4-0.1
			c0.7,0.1,1,0.2,1.5,0.2c0.1,0,0.2,0,0.2,0c0-0.2,0-0.4,0-0.6C7.2,8.1,9,6.3,11.4,6.1z"/>
	</defs>
	<use xlink:href="#SVGID_1_"  style="overflow:visible;"/>
	<clipPath id="SVGID_2_">
		<use xlink:href="#SVGID_1_"  style="overflow:visible;"/>
	</clipPath>
	<g class="st0">
		<defs>
			<rect id="SVGID_3_" x="-450" y="-969" width="1424" height="1785"/>
		</defs>
		<use xlink:href="#SVGID_3_"  style="overflow:visible;"/>
		<clipPath id="SVGID_4_">
			<use xlink:href="#SVGID_3_"  style="overflow:visible;"/>
		</clipPath>
	</g>
</g>
</svg>
