<?xml version="1.0" encoding="UTF-8"?>
<svg width="80px" height="80px" viewBox="0 0 80 80" version="1.1" xmlns="http://www.w3.org/2000/svg" xmlns:xlink="http://www.w3.org/1999/xlink">
    <!-- Generator: Sketch 52.5 (67469) - http://www.bohemiancoding.com/sketch -->
    <title>word copy 13</title>
    <desc>Created with Sketch.</desc>
    <g id="word-copy-13" stroke="none" stroke-width="1" fill="none" fill-rule="evenodd">
        <rect id="-g-Rectangle" fill="#CC8F24" fill-rule="nonzero" x="0" y="0" width="80" height="80"></rect>
        <rect id="Rectangle" fill="#FFFFFF" fill-rule="nonzero" x="15" y="21" width="51" height="38"></rect>
        <path d="M30,30.4186275 C28.8125878,30.4186275 27.85,31.3812152 27.85,32.5686275 L27.85,48.5686275 C27.85,49.7560397 28.8125878,50.7186275 30,50.7186275 L51,50.7186275 C52.1874122,50.7186275 53.15,49.7560397 53.15,48.5686275 L53.15,36.3499484 C53.1499977,36.3460807 53.1499977,36.3460807 53.1499861,36.342213 C53.1457139,35.1548084 52.1796691,34.1956902 50.9922645,34.1999623 L41.3530619,34.2346434 C40.2154475,34.2387365 39.1342653,33.739501 38.3996203,32.8708929 L36.9696923,31.1802163 C36.5611825,30.6972145 35.9606939,30.4186275 35.3281033,30.4186275 L30,30.4186275 Z" id="Rectangle" stroke="#CC8F24" stroke-width="1.7" fill-rule="nonzero"></path>
        <path d="M27.75,37.8186275 L53.25,37.8186275 L53.25,36.3499484 C53.2499976,36.3459008 53.2499976,36.3459008 53.2499854,36.3418532 C53.2455145,35.0992205 52.2345374,34.0954921 50.9919047,34.099963 L41.3527021,34.1346441 C40.2446361,34.1386308 39.1915366,33.6523625 38.4759733,32.8063156 L37.0460453,31.1156391 C36.6185351,30.610172 35.9901167,30.3186275 35.3281033,30.3186274 L30,30.3186274 C28.7573593,30.3186274 27.75,31.3259868 27.75,32.5686274 L27.75,37.8186275 Z" id="Rectangle" stroke="#CC8F24" stroke-width="1.5" fill-opacity="0.3" fill="#CC8F24" fill-rule="nonzero"></path>
    </g>
</svg>