<?xml version="1.0" encoding="utf-8"?>
<!-- Generator: Adobe Illustrator 22.1.0, SVG Export Plug-In . SVG Version: 6.00 Build 0)  -->
<svg version="1.1" id="图层_1" xmlns="http://www.w3.org/2000/svg" xmlns:xlink="http://www.w3.org/1999/xlink" x="0px" y="0px"
	 viewBox="0 0 18 18" style="enable-background:new 0 0 18 18;" xml:space="preserve">
<style type="text/css">
	.st0{clip-path:url(#SVGID_2_);}
	.st1{clip-path:url(#SVGID_4_);fill:#556675;}
</style>
<g>
	<defs>
		<path id="SVGID_1_" d="M10.7,3.4h3.9c0.6,0,1.1,0.5,1.1,1.1v3.9c0,0.6-0.5,1.1-1.1,1.1h-3.9c-0.6,0-1.1-0.5-1.1-1.1V4.5
			C9.6,3.9,10.1,3.4,10.7,3.4z M10.7,5.1v2.8c0,0.3,0.3,0.6,0.6,0.6h2.8c0.3,0,0.6-0.3,0.6-0.6V5.1c0-0.3-0.3-0.6-0.6-0.6h-2.8
			C10.9,4.5,10.7,4.8,10.7,5.1z M3.4,3.4h3.9c0.6,0,1.1,0.5,1.1,1.1v3.9c0,0.6-0.5,1.1-1.1,1.1H3.4c-0.6,0-1.1-0.5-1.1-1.1V4.5
			C2.2,3.9,2.8,3.4,3.4,3.4z M3.4,5.1v2.8c0,0.3,0.3,0.6,0.6,0.6h2.8c0.3,0,0.6-0.3,0.6-0.6V5.1c0-0.3-0.3-0.6-0.6-0.6H3.9
			C3.6,4.5,3.4,4.8,3.4,5.1z M10.1,10.4h5.1c0.3,0,0.6,0.3,0.6,0.6s-0.3,0.6-0.6,0.6h-5.1c-0.3,0-0.6-0.3-0.6-0.6
			S9.8,10.4,10.1,10.4z M10.1,12.1h3.5c0.3,0,0.6,0.3,0.6,0.6s-0.3,0.6-0.6,0.6h-3.5c-0.3,0-0.6-0.3-0.6-0.6S9.8,12.1,10.1,12.1z
			 M10.1,13.8h2.3c0.3,0,0.6,0.3,0.6,0.6s-0.3,0.6-0.6,0.6h-2.3c-0.3,0-0.6-0.3-0.6-0.6S9.8,13.8,10.1,13.8z M2.8,13.8h2.3
			c0.3,0,0.6,0.3,0.6,0.6s-0.3,0.6-0.6,0.6H2.8c-0.3,0-0.6-0.3-0.6-0.6S2.5,13.8,2.8,13.8z M2.8,12.1h3.5c0.3,0,0.6,0.3,0.6,0.6
			s-0.3,0.6-0.6,0.6H2.8c-0.3,0-0.6-0.3-0.6-0.6S2.5,12.1,2.8,12.1z M2.8,10.4h5.1c0.3,0,0.6,0.3,0.6,0.6s-0.3,0.6-0.6,0.6H2.8
			c-0.3,0-0.6-0.3-0.6-0.6S2.5,10.4,2.8,10.4z"/>
	</defs>
	<clipPath id="SVGID_2_">
		<use xlink:href="#SVGID_1_"  style="overflow:visible;"/>
	</clipPath>
	<g class="st0">
		<defs>
			<rect id="SVGID_3_" x="-24" y="-285" width="1360" height="845"/>
		</defs>
		<clipPath id="SVGID_4_">
			<use xlink:href="#SVGID_3_"  style="overflow:visible;"/>
		</clipPath>
		<rect x="-2.8" y="-1.6" class="st1" width="23.5" height="21.5"/>
	</g>
</g>
</svg>
