<?xml version="1.0" encoding="utf-8"?>
<!-- Generator: Adobe Illustrator 22.1.0, SVG Export Plug-In . SVG Version: 6.00 Build 0)  -->
<svg version="1.1" id="图层_1" xmlns="http://www.w3.org/2000/svg" xmlns:xlink="http://www.w3.org/1999/xlink" x="0px" y="0px"
	 viewBox="0 0 18 18" style="enable-background:new 0 0 18 18;" xml:space="preserve">
<style type="text/css">
	.st0{clip-path:url(#SVGID_2_);}
	.st1{clip-path:url(#SVGID_4_);fill:#556675;}
</style>
<g>
	<defs>
		<path id="SVGID_1_" d="M5.6,12.4h6.8c0.3,0,0.6,0.3,0.6,0.6s-0.3,0.6-0.6,0.6H5.6c-0.3,0-0.6-0.3-0.6-0.6S5.3,12.4,5.6,12.4z
			 M5.6,10.7h6.8c0.3,0,0.6,0.3,0.6,0.6s-0.3,0.6-0.6,0.6H5.6c-0.3,0-0.6-0.3-0.6-0.6S5.3,10.7,5.6,10.7z M5.6,8.7h6.8
			c0.3,0,0.6,0.3,0.6,0.6s-0.3,0.6-0.6,0.6H5.6c-0.3,0-0.6-0.3-0.6-0.6S5.3,8.7,5.6,8.7z M9.8,6.5h2.5c0.3,0,0.6,0.3,0.6,0.6
			s-0.3,0.6-0.6,0.6H9.8C9.5,7.6,9.3,7.3,9.3,7S9.5,6.5,9.8,6.5z M9.8,4.2h2.5c0.3,0,0.6,0.3,0.6,0.6s-0.3,0.6-0.6,0.6H9.8
			c-0.3,0-0.6-0.3-0.6-0.6S9.5,4.2,9.8,4.2z M6.2,4.2h1.1c0.6,0,1.1,0.5,1.1,1.1v1.1c0,0.6-0.5,1.1-1.1,1.1H6.2
			c-0.6,0-1.1-0.5-1.1-1.1V5.3C5.1,4.7,5.6,4.2,6.2,4.2z M6.2,5.6v0.6c0,0.2,0.1,0.3,0.3,0.3H7c0.2,0,0.3-0.1,0.3-0.3V5.6
			c0-0.2-0.1-0.3-0.3-0.3H6.5C6.3,5.3,6.2,5.5,6.2,5.6z M4.2,2.2h9.6c0.6,0,1.1,0.5,1.1,1.1v11.2c0,0.6-0.5,1.1-1.1,1.1H4.2
			c-0.6,0-1.1-0.5-1.1-1.1V3.4C3.1,2.8,3.6,2.2,4.2,2.2z M4.2,3.9v10.1c0,0.3,0.3,0.6,0.6,0.6h8.4c0.3,0,0.6-0.3,0.6-0.6V3.9
			c0-0.3-0.3-0.6-0.6-0.6H4.8C4.5,3.4,4.2,3.6,4.2,3.9z"/>
	</defs>
	<clipPath id="SVGID_2_">
		<use xlink:href="#SVGID_1_"  style="overflow:visible;"/>
	</clipPath>
	<g class="st0">
		<defs>
			<rect id="SVGID_3_" x="-24" y="-400" width="1360" height="845"/>
		</defs>
		<clipPath id="SVGID_4_">
			<use xlink:href="#SVGID_3_"  style="overflow:visible;"/>
		</clipPath>
		<rect x="-1.9" y="-2.8" class="st1" width="21.8" height="23.5"/>
	</g>
</g>
</svg>
