<?xml version="1.0" encoding="utf-8"?>
<!-- Generator: Adobe Illustrator 22.1.0, SVG Export Plug-In . SVG Version: 6.00 Build 0)  -->
<svg version="1.1" id="图层_1" xmlns="http://www.w3.org/2000/svg" xmlns:xlink="http://www.w3.org/1999/xlink" x="0px" y="0px"
	 viewBox="0 0 18 18" style="enable-background:new 0 0 18 18;" xml:space="preserve">
<style type="text/css">
	.st0{clip-path:url(#SVGID_2_);}
	.st1{clip-path:url(#SVGID_4_);fill:#556675;}
</style>
<g>
	<defs>
		<path id="SVGID_1_" d="M7.6,12c2.3,0,4.2-1.9,4.2-4.2S9.9,3.5,7.6,3.5S3.4,5.4,3.4,7.8S5.3,12,7.6,12z M15.6,14.8
			c0.1,0.1,0.1,0.3,0,0.4l-0.5,0.5c-0.1,0.1-0.3,0.1-0.4,0l-3.8-3.8c-0.9,0.7-2.1,1.2-3.3,1.2c-3,0-5.3-2.4-5.3-5.3s2.4-5.3,5.3-5.3
			s5.3,2.4,5.3,5.3c0,1.2-0.4,2.4-1.1,3.3L15.6,14.8z"/>
	</defs>
	<clipPath id="SVGID_2_">
		<use xlink:href="#SVGID_1_"  style="overflow:visible;"/>
	</clipPath>
	<g class="st0">
		<defs>
			<rect id="SVGID_3_" x="-24" y="-171" width="1360" height="845"/>
		</defs>
		<clipPath id="SVGID_4_">
			<use xlink:href="#SVGID_3_"  style="overflow:visible;"/>
		</clipPath>
		<rect x="-2.8" y="-2.6" class="st1" width="23.4" height="23.4"/>
	</g>
</g>
</svg>
