<?xml version="1.0" encoding="utf-8"?>
<!-- Generator: Adobe Illustrator 22.1.0, SVG Export Plug-In . SVG Version: 6.00 Build 0)  -->
<svg version="1.1" id="图层_1" xmlns="http://www.w3.org/2000/svg" xmlns:xlink="http://www.w3.org/1999/xlink" x="0px" y="0px"
	 viewBox="0 0 18 18" style="enable-background:new 0 0 18 18;" xml:space="preserve">
<style type="text/css">
	.st0{clip-path:url(#SVGID_2_);}
	.st1{clip-path:url(#SVGID_4_);fill:#556675;}
</style>
<g>
	<defs>
		<path id="SVGID_1_" d="M5.1,11.2h3.7c0.3,0,0.6,0.3,0.6,0.6S9,12.4,8.7,12.4H5.1c-0.3,0-0.6-0.3-0.6-0.6S4.8,11.2,5.1,11.2z
			 M5.1,8.4h5.1c0.3,0,0.6,0.3,0.6,0.6s-0.3,0.6-0.6,0.6H5.1C4.8,9.6,4.5,9.3,4.5,9S4.8,8.4,5.1,8.4z M5.1,5.6h7.3
			c0.3,0,0.6,0.3,0.6,0.6s-0.3,0.6-0.6,0.6H5.1c-0.3,0-0.6-0.3-0.6-0.6S4.8,5.6,5.1,5.6z M3.4,3.1h11.2c0.6,0,1.1,0.5,1.1,1.1v9.6
			c0,0.6-0.5,1.1-1.1,1.1H3.4c-0.6,0-1.1-0.5-1.1-1.1V4.2C2.2,3.6,2.8,3.1,3.4,3.1z M3.4,4.8v8.4c0,0.3,0.3,0.6,0.6,0.6h10.1
			c0.3,0,0.6-0.3,0.6-0.6V4.8c0-0.3-0.3-0.6-0.6-0.6H3.9C3.6,4.2,3.4,4.5,3.4,4.8z"/>
	</defs>
	<clipPath id="SVGID_2_">
		<use xlink:href="#SVGID_1_"  style="overflow:visible;"/>
	</clipPath>
	<g class="st0">
		<defs>
			<rect id="SVGID_3_" x="-24" y="-361" width="1360" height="845"/>
		</defs>
		<clipPath id="SVGID_4_">
			<use xlink:href="#SVGID_3_"  style="overflow:visible;"/>
		</clipPath>
		<rect x="-2.8" y="-1.9" class="st1" width="23.5" height="21.8"/>
	</g>
</g>
</svg>
