<?xml version="1.0" encoding="utf-8"?>
<!-- Generator: Adobe Illustrator 22.1.0, SVG Export Plug-In . SVG Version: 6.00 Build 0)  -->
<svg version="1.1" id="图层_1" xmlns="http://www.w3.org/2000/svg" xmlns:xlink="http://www.w3.org/1999/xlink" x="0px" y="0px"
	 viewBox="0 0 18 18" style="enable-background:new 0 0 18 18;" xml:space="preserve">
<style type="text/css">
	.st0{clip-path:url(#SVGID_2_);}
	.st1{clip-path:url(#SVGID_4_);fill:#556675;}
</style>
<g>
	<defs>
		<path id="SVGID_1_" d="M7,8.4c-0.9,0-1.7-0.8-1.7-1.7S6.1,5.1,7,5.1s1.7,0.8,1.7,1.7S8,8.4,7,8.4z M7,7.3c0.3,0,0.6-0.3,0.6-0.6
			c0-0.3-0.3-0.6-0.6-0.6S6.5,6.4,6.5,6.8C6.5,7.1,6.7,7.3,7,7.3z M14.6,13.4h0.3c0.3,0,0.6-0.3,0.6-0.6V5.6c0-0.3-0.3-0.6-0.6-0.6
			h-0.3V13.4z M3.4,13.4V5.1H3.1c-0.3,0-0.6,0.3-0.6,0.6v7.2c0,0.3,0.3,0.6,0.6,0.6H3.4z M13.6,14.9H4.2c-0.3,0-0.5-0.2-0.7-0.4
			c0,0-0.1,0-0.1,0H2.5c-0.6,0-1.1-0.5-1.1-1.1V5.1c0-0.6,0.5-1.1,1.1-1.1h0.9c0.1-0.5,0.5-0.8,1-0.8h9.1c0.5,0,0.9,0.4,1,0.8
			c0,0,0,0,0,0h0.9c0.6,0,1.1,0.5,1.1,1.1v8.3c0,0.6-0.5,1.1-1.1,1.1h-1.1C14.2,14.7,13.9,14.9,13.6,14.9z M4.5,12.4v0.9
			c0,0,0,0,0,0c0.1,0.2,0.3,0.4,0.5,0.4h7.9l-1.5-2.5l-1.4,1.1c-0.4,0.3-1,0.3-1.4-0.1l-1.6-1.8L4.5,12.4z M13.5,12.3V4.8
			c0-0.3-0.3-0.6-0.6-0.6H5.1c-0.3,0-0.5,0.2-0.5,0.4v6.1l2-1.5c0.4-0.3,1-0.3,1.4,0.1l1.6,1.8l1.4-1.1c0.5-0.4,1.2-0.3,1.5,0.3
			c0,0,0,0,0,0L13.5,12.3z"/>
	</defs>
	<clipPath id="SVGID_2_">
		<use xlink:href="#SVGID_1_"  style="overflow:visible;"/>
	</clipPath>
	<g class="st0">
		<defs>
			<rect id="SVGID_3_" x="-24" y="-133" width="1360" height="845"/>
		</defs>
		<clipPath id="SVGID_4_">
			<use xlink:href="#SVGID_3_"  style="overflow:visible;"/>
		</clipPath>
		<rect x="-3.6" y="-1.9" class="st1" width="25.2" height="21.8"/>
	</g>
</g>
</svg>
