<?xml version="1.0" encoding="utf-8"?>
<!-- Generator: Adobe Illustrator 22.1.0, SVG Export Plug-In . SVG Version: 6.00 Build 0)  -->
<svg version="1.1" id="图层_1" xmlns="http://www.w3.org/2000/svg" xmlns:xlink="http://www.w3.org/1999/xlink" x="0px" y="0px"
	 viewBox="0 0 18 18" style="enable-background:new 0 0 18 18;" xml:space="preserve">
<style type="text/css">
	.st0{clip-path:url(#SVGID_2_);}
	.st1{clip-path:url(#SVGID_4_);fill:#556675;}
</style>
<g>
	<defs>
		<path id="SVGID_1_" d="M4.8,6.2c0.3,0,0.6,0.3,0.6,0.6v4.5c0,0.3-0.3,0.6-0.6,0.6s-0.6-0.3-0.6-0.6V6.8C4.2,6.4,4.5,6.2,4.8,6.2z
			 M2.5,3.1h12.9c0.6,0,1.1,0.5,1.1,1.1v9.6c0,0.6-0.5,1.1-1.1,1.1H2.5c-0.6,0-1.1-0.5-1.1-1.1V4.2C1.4,3.6,1.9,3.1,2.5,3.1z
			 M2.5,4.8v8.4c0,0.3,0.3,0.6,0.6,0.6h11.8c0.3,0,0.6-0.3,0.6-0.6V4.8c0-0.3-0.3-0.6-0.6-0.6H3.1C2.8,4.2,2.5,4.5,2.5,4.8z"/>
	</defs>
	<clipPath id="SVGID_2_">
		<use xlink:href="#SVGID_1_"  style="overflow:visible;"/>
	</clipPath>
	<g class="st0">
		<defs>
			<rect id="SVGID_3_" x="-24" y="-438" width="1360" height="845"/>
		</defs>
		<clipPath id="SVGID_4_">
			<use xlink:href="#SVGID_3_"  style="overflow:visible;"/>
		</clipPath>
		<rect x="-3.6" y="-1.9" class="st1" width="25.2" height="21.8"/>
	</g>
</g>
</svg>
