<?xml version="1.0" encoding="utf-8"?>
<!-- Generator: Adobe Illustrator 22.1.0, SVG Export Plug-In . SVG Version: 6.00 Build 0)  -->
<svg version="1.1" id="图层_1" xmlns="http://www.w3.org/2000/svg" xmlns:xlink="http://www.w3.org/1999/xlink" x="0px" y="0px"
	 viewBox="0 0 18 18" style="enable-background:new 0 0 18 18;" xml:space="preserve">
<style type="text/css">
	.st0{clip-path:url(#SVGID_2_);}
	.st1{clip-path:url(#SVGID_4_);fill:#556675;}
</style>
<g>
	<defs>
		<path id="SVGID_1_" d="M2.8,13.8h7c0.3,0,0.6,0.3,0.6,0.6s-0.3,0.6-0.6,0.6h-7c-0.3,0-0.6-0.3-0.6-0.6S2.5,13.8,2.8,13.8z
			 M2.8,11.8h12.4c0.3,0,0.6,0.3,0.6,0.6s-0.3,0.6-0.6,0.6H2.8c-0.3,0-0.6-0.3-0.6-0.6S2.5,11.8,2.8,11.8z M3.4,3.1h11.2
			c0.6,0,1.1,0.5,1.1,1.1v5.6c0,0.6-0.5,1.1-1.1,1.1H3.4c-0.6,0-1.1-0.5-1.1-1.1V4.2C2.2,3.6,2.8,3.1,3.4,3.1z M3.4,4.8v4.5
			c0,0.3,0.3,0.6,0.6,0.6h10.1c0.3,0,0.6-0.3,0.6-0.6V4.8c0-0.3-0.3-0.6-0.6-0.6H3.9C3.6,4.2,3.4,4.5,3.4,4.8z"/>
	</defs>
	<clipPath id="SVGID_2_">
		<use xlink:href="#SVGID_1_"  style="overflow:visible;"/>
	</clipPath>
	<g class="st0">
		<defs>
			<rect id="SVGID_3_" x="-24" y="-324" width="1360" height="845"/>
		</defs>
		<clipPath id="SVGID_4_">
			<use xlink:href="#SVGID_3_"  style="overflow:visible;"/>
		</clipPath>
		<rect x="-2.8" y="-1.9" class="st1" width="23.5" height="21.8"/>
	</g>
</g>
</svg>
