<?xml version="1.0" encoding="utf-8"?>
<!-- Generator: Adobe Illustrator 22.1.0, SVG Export Plug-In . SVG Version: 6.00 Build 0)  -->
<svg version="1.1" id="图层_1" xmlns="http://www.w3.org/2000/svg" xmlns:xlink="http://www.w3.org/1999/xlink" x="0px" y="0px"
	 viewBox="0 0 18 18" style="enable-background:new 0 0 18 18;" xml:space="preserve">
<style type="text/css">
	.st0{fill:#556675;}
</style>
<g>
	<path class="st0" d="M13.1,9.9c1.1,0,2-0.9,2-2s-0.9-2-2-2c-1.1,0-2,0.9-2,2S11.9,9.9,13.1,9.9z M12,7.9c0-0.6,0.5-1,1-1
		c0.6,0,1,0.5,1,1s-0.5,1-1,1C12.5,8.9,12,8.4,12,7.9z"/>
	<path class="st0" d="M16.1,12.4C16,11.9,15.4,11,14.2,11h-2.7c-0.5-0.6-1.3-1-2.1-1H8.3C7.6,9.1,6.4,8.9,5.7,8.8V8.5
		c0-0.2-0.2-0.4-0.4-0.4H3.3c-0.2,0-0.4,0.2-0.4,0.4v5.8c0,0.2,0.2,0.4,0.4,0.4h1.9c0.2,0,0.4-0.2,0.4-0.4v-0.3c0.9,0.4,2.4,1,3.1,1
		c1.9,0,7-2.2,7-2.2C16,12.8,16.1,12.6,16.1,12.4z M11.1,12H7.5c-0.2,0-0.4,0.2-0.4,0.4s0.2,0.4,0.4,0.4h4.1c0.2,0,0.4-0.2,0.4-0.4
		c0-0.2,0-0.3-0.1-0.5l2.2,0c0.5,0,0.7,0.2,0.8,0.4c-1.2,0.5-4.8,1.8-6.2,1.8c-0.5,0-2-0.6-3.1-1.1V9.7c0.6,0.1,1.6,0.4,2.1,1.1
		C7.8,10.9,8,11,8.1,11h1.4c0.6,0,1.1,0.2,1.4,0.6C11,11.7,11.1,11.8,11.1,12z M3.8,13.9v-5h1.1v5H3.8z"/>
	<path class="st0" d="M8.8,6c1.1,0,2-0.9,2-2s-0.9-2-2-2s-2.1,0.9-2.1,2S7.7,6,8.8,6z M7.6,3.9c0-0.7,0.5-1.2,1.2-1.2S10,3.3,10,3.9
		c0,0.7-0.5,1.2-1.2,1.2S7.6,4.6,7.6,3.9z"/>
</g>
</svg>
