<?xml version="1.0" encoding="utf-8"?>
<!-- Generator: Adobe Illustrator 22.1.0, SVG Export Plug-In . SVG Version: 6.00 Build 0)  -->
<svg version="1.1" id="图层_1" xmlns="http://www.w3.org/2000/svg" xmlns:xlink="http://www.w3.org/1999/xlink" x="0px" y="0px"
	 viewBox="0 0 18 18" style="enable-background:new 0 0 18 18;" xml:space="preserve">
<style type="text/css">
	.st0{clip-path:url(#SVGID_2_);}
	.st1{clip-path:url(#SVGID_4_);fill:#FFAA16;}
</style>
<g>
	<defs>
		<path id="SVGID_1_" d="M9,11.8c-0.5,0-1,0.4-1,1s0.4,1,1,1s1-0.4,1-1S9.5,11.8,9,11.8z M9,5.3c-0.5,0-0.8,0.4-0.8,0.8v3.9
			C8.2,10.6,8.5,11,9,11s0.8-0.4,0.8-0.8V6.2C9.8,5.7,9.5,5.3,9,5.3z M11.4,3l5.8,9.9c0.6,1.1,0.3,2.5-0.8,3.1
			c-0.3,0.2-0.7,0.3-1.1,0.3H2.7c-1.2,0-2.3-1-2.3-2.2c0-0.4,0.1-0.8,0.3-1.1L6.6,3c0.8-1.3,2.5-1.8,3.9-1C10.8,2.2,11.2,2.6,11.4,3
			z"/>
	</defs>
	<clipPath id="SVGID_2_">
		<use xlink:href="#SVGID_1_"  style="overflow:visible;"/>
	</clipPath>
	<g class="st0">
		<defs>
			<rect id="SVGID_3_" x="-280" y="-542" width="1360" height="768"/>
		</defs>
		<clipPath id="SVGID_4_">
			<use xlink:href="#SVGID_3_"  style="overflow:visible;"/>
		</clipPath>
		<rect x="-4.6" y="-3.4" class="st1" width="27.2" height="24.7"/>
	</g>
</g>
</svg>
