<svg id="图层_1" data-name="图层 1" xmlns="http://www.w3.org/2000/svg" viewBox="0 0 64 64"><defs><style>.cls-1{fill:#f7f9fb;}.cls-2{fill:none;}.cls-3{fill:#4aceaf;}</style></defs><title>短信</title><g id="Page-1"><g id="用户池_导入记录-copy-3" data-name="用户池/导入记录-copy-3"><g id="Group-2"><rect id="Rectangle" class="cls-1" width="64" height="64" rx="4" ry="4"/><g id="Group-6"><rect id="Rectangle-2" data-name="Rectangle" class="cls-2" x="8" y="8" width="48" height="48"/><path id="Combined-Shape" class="cls-3" d="M28.8,41.77l-6.44,6.49V41.77H18a1,1,0,0,1-1-1V19a1,1,0,0,1,1-1H46a1,1,0,0,1,1,1V40.77a1,1,0,0,1-1,1ZM23.36,23.4a1,1,0,0,0-1,1v.16a1,1,0,0,0,1,1H40.64a1,1,0,0,0,1-1V24.4a1,1,0,0,0-1-1Zm0,5.4a1,1,0,0,0-1,1V30a1,1,0,0,0,1,1H40.64a1,1,0,0,0,1-1V29.8a1,1,0,0,0-1-1Zm0,5.41a1,1,0,0,0-1,1v.16a1,1,0,0,0,1,1h8.71a1,1,0,0,0,1-1v-.16a1,1,0,0,0-1-1Zm13.93,0a1,1,0,0,0-1,1v.16a1,1,0,0,0,1,1h3.35a1,1,0,0,0,1-1v-.16a1,1,0,0,0-1-1Z"/></g></g></g></g></svg>