<?xml version="1.0" encoding="utf-8"?>
<!-- Generator: Adobe Illustrator 21.0.0, SVG Export Plug-In . SVG Version: 6.00 Build 0)  -->
<svg version="1.1" id="图层_1" xmlns="http://www.w3.org/2000/svg" xmlns:xlink="http://www.w3.org/1999/xlink" x="0px" y="0px"
	 viewBox="0 0 64 64" style="enable-background:new 0 0 64 64;" xml:space="preserve">
<style type="text/css">
	.st0{clip-path:url(#SVGID_2_);}
	.st1{clip-path:url(#SVGID_4_);fill:#FFAA16;}
</style>
<g>
	<defs>
		<path id="SVGID_1_" d="M32,42c-1.9,0-3.5,1.6-3.5,3.5S30.1,49,32,49s3.5-1.6,3.5-3.5S33.9,42,32,42z M32,19c-1.7,0-3,1.3-3,3v14
			c0,1.7,1.3,3,3,3c1.7,0,3-1.3,3-3V22C35,20.3,33.7,19,32,19z M40.6,10.6l20.8,35.3c2.2,3.8,1,8.7-2.8,11c-1.2,0.7-2.6,1.1-4.1,1.1
			h-45c-4.4,0-8-3.6-8-8c0-1.4,0.4-2.8,1.1-4.1l20.8-35.3C26.1,5.8,32.3,4.2,37,7C38.5,7.9,39.7,9.1,40.6,10.6z"/>
	</defs>
	<clipPath id="SVGID_2_">
		<use xlink:href="#SVGID_1_"  style="overflow:visible;"/>
	</clipPath>
	<g class="st0">
		<defs>
			<rect id="SVGID_3_" x="-562" y="-833" width="1424" height="1994"/>
		</defs>
		<clipPath id="SVGID_4_">
			<use xlink:href="#SVGID_3_"  style="overflow:visible;"/>
		</clipPath>
		<rect x="-3.6" y="0.7" class="st1" width="71" height="62.3"/>
	</g>
</g>
</svg>
