<?xml version="1.0" encoding="UTF-8"?>
<svg width="20px" height="9px" viewBox="0 0 20 9" version="1.1" xmlns="http://www.w3.org/2000/svg" xmlns:xlink="http://www.w3.org/1999/xlink">
    <!-- Generator: Sketch 49.3 (51167) - http://www.bohemiancoding.com/sketch -->
    <title>Fill 1@2x</title>
    <desc>Created with Sketch.</desc>
    <defs></defs>
    <g id="Page-1" stroke="none" stroke-width="1" fill="none" fill-rule="evenodd">
        <g id="账户-商城流水" transform="translate(-606.000000, -197.000000)" fill="#999999">
            <g id="Group-8" transform="translate(497.000000, 192.000000)">
                <path d="M128.649366,8.34682409 C128.644895,8.34442603 128.640425,8.34214788 128.638132,8.33747167 C128.555372,8.27188486 128.25757,8.03771474 127.868067,7.75666264 C127.832189,7.73088355 127.823248,7.69347388 127.823248,7.67476905 C127.820956,7.65594431 127.823248,7.6208128 127.854541,7.58807935 C128.156813,7.28364621 128.450144,6.96518444 128.727771,6.63725036 C128.741182,6.62322174 128.750123,6.60919311 128.761357,6.59516449 C129.041161,6.2063198 129.052395,5.67706896 128.788179,5.2767136 C128.74336,5.20872873 128.689715,5.15021618 128.627014,5.10573225 C128.506082,5.01676439 128.365091,4.98391103 128.223985,5.00729207 C127.955299,5.05189591 127.758369,5.29074223 127.632967,5.46867794 C126.596394,6.84096517 123.036649,10.3912863 119.000055,10.3935644 C117.925425,10.3819338 116.87097,10.1851734 115.863513,9.80819908 L114.974694,9.43110486 C114.128402,9.0306296 113.317988,8.54118648 112.567983,7.97452598 L111.938909,7.48028675 C111.367951,7.02129894 110.839635,6.50140052 110.371727,5.93474002 C110.356023,5.91603519 110.340319,5.89721045 110.322437,5.88090367 L110.282203,5.84109595 C110.14339,5.70524611 110.024751,5.5881011 109.883645,5.52491234 C109.765006,5.471076 109.529905,5.41711975 109.288157,5.64193745 C108.862776,6.04013455 108.970181,6.60919311 109.214222,7.00966837 C109.238867,7.04947609 109.267982,7.08688576 109.299276,7.12201727 C109.655307,7.49671343 110.031399,7.85977903 110.421017,8.19934368 C110.454602,8.22967908 110.459073,8.26720865 110.459073,8.28591348 C110.459073,8.30461831 110.45231,8.34214788 110.414254,8.37020513 C110.129978,8.5809942 109.919523,8.74262314 109.861292,8.78710707 C109.859,8.78710707 109.856822,8.78938522 109.845588,8.79645949 C109.671011,8.90185402 109.547787,9.07043732 109.498612,9.26947592 C109.444852,9.47798684 109.480616,9.70040649 109.594899,9.88074026 C109.807532,10.2436859 110.259736,10.3677853 110.624709,10.1640705 C110.750111,10.0938075 110.888925,9.98613479 111.083676,9.83625633 C111.249312,9.70748075 111.455297,9.54824987 111.715042,9.36551804 C111.753098,9.33746079 111.804566,9.33973895 111.8448,9.3679161 C112.489578,9.83385827 113.174704,10.2554364 113.877712,10.6230583 C113.913476,10.6418831 113.92918,10.6746165 113.93365,10.6910432 C113.938121,10.70735 113.944884,10.7402033 113.924709,10.7753348 L113.282224,11.9063777 C113.179175,12.0844333 113.152352,12.2952224 113.203819,12.494261 C113.255287,12.6956976 113.380689,12.8642809 113.559737,12.9696755 L113.564207,12.9719536 C113.927002,13.1804646 114.392617,13.0539671 114.605251,12.6909015 L115.341844,11.3748487 C115.368782,11.3256886 115.426898,11.3068638 115.47848,11.3256886 C116.333713,11.6535027 117.227002,11.868968 118.135881,11.9672883 C118.194111,11.9743626 118.236638,12.0212445 118.236638,12.077359 L118.236638,13.2202723 C118.236638,13.6488048 118.581436,14 119.004525,14 C119.427728,14 119.772527,13.6510829 119.772527,13.2202723 L119.772527,12.0586542 C119.772527,12.0024198 119.815053,11.9556577 119.873284,11.9485835 C120.771044,11.8502632 121.653099,11.6277236 122.492628,11.288159 C122.544096,11.2670561 122.604619,11.288159 122.631442,11.335041 L123.397151,12.7050501 L123.399329,12.7073282 C123.612077,13.07507 124.064281,13.2014475 124.431432,12.9977327 L124.438195,12.9930565 C124.615064,12.887662 124.740352,12.7190787 124.791934,12.517642 C124.843401,12.3186034 124.816464,12.1102124 124.713529,11.9321568 L124.012813,10.6770146 C123.983698,10.6254564 124.00158,10.5574715 124.05534,10.5271361 C124.921692,10.0330168 125.750102,9.4544859 126.517989,8.81048811 C126.556045,8.77775465 126.612098,8.7753566 126.652332,8.80353375 C127.214234,9.18986048 127.671023,9.53410134 127.796425,9.63254152 C127.838952,9.66527497 127.881479,9.69105407 127.926183,9.7097589 C128.282215,9.86671163 128.698656,9.73086179 128.895585,9.39129714 C129.10157,9.03302766 128.994164,8.57403984 128.649366,8.34682409" id="Fill-1"></path>
            </g>
        </g>
    </g>
</svg>