<?xml version="1.0" encoding="utf-8"?>
<!-- Generator: Adobe Illustrator 22.1.0, SVG Export Plug-In . SVG Version: 6.00 Build 0)  -->
<svg version="1.1" id="图层_1" xmlns="http://www.w3.org/2000/svg" xmlns:xlink="http://www.w3.org/1999/xlink" x="0px" y="0px"
	 viewBox="0 0 48 48" style="enable-background:new 0 0 48 48;" xml:space="preserve">
<style type="text/css">
	.st0{clip-path:url(#SVGID_2_);}
	.st1{clip-path:url(#SVGID_4_);fill:#09BB07;}
</style>
<g>
	<defs>
		<path id="SVGID_1_" d="M3.8,24c0,11.1,9.1,20.3,20.2,20.3c11.2,0,20.3-9.1,20.3-20.3S35.2,3.8,24,3.8C12.8,3.8,3.8,12.9,3.8,24z
			 M36.3,18.4L22.8,32c-0.5,0.5-1.3,0.8-2,0.8c-0.7,0-1.5-0.3-2-0.8l-7-7c-0.5-0.5-0.5-1.3,0-1.8c0.5-0.5,1.3-0.5,1.8,0l7,7
			c0.1,0.1,0.4,0.1,0.5,0l13.4-13.6c0.5-0.5,1.3-0.5,1.8,0C36.9,17.1,36.9,18,36.3,18.4"/>
	</defs>
	<clipPath id="SVGID_2_">
		<use xlink:href="#SVGID_1_"  style="overflow:visible;"/>
	</clipPath>
	<g class="st0">
		<defs>
			<rect id="SVGID_3_" x="-659" y="-282" width="1360" height="1089"/>
		</defs>
		<clipPath id="SVGID_4_">
			<use xlink:href="#SVGID_3_"  style="overflow:visible;"/>
		</clipPath>
		<rect x="-1.2" y="-1.2" class="st1" width="50.5" height="50.5"/>
	</g>
</g>
</svg>
