<?xml version="1.0" encoding="utf-8"?>
<!-- Generator: Adobe Illustrator 22.1.0, SVG Export Plug-In . SVG Version: 6.00 Build 0)  -->
<svg version="1.1" id="图层_1" xmlns="http://www.w3.org/2000/svg" xmlns:xlink="http://www.w3.org/1999/xlink" x="0px" y="0px"
	 viewBox="0 0 24 24" style="enable-background:new 0 0 24 24;" xml:space="preserve">
<style type="text/css">
	.st0{clip-path:url(#SVGID_2_);}
	.st1{fill:#26D483;}
	.st2{clip-path:url(#SVGID_4_);}
	.st3{clip-path:url(#SVGID_6_);}
	.st4{fill:#FFFFFF;}
</style>
<g>
	<defs>
		<circle id="SVGID_1_" cx="12" cy="12" r="12"/>
	</defs>
	<clipPath id="SVGID_2_">
		<use xlink:href="#SVGID_1_"  style="overflow:visible;"/>
	</clipPath>
	<g class="st0">
		<rect x="-5" y="-5" class="st1" width="34" height="34"/>
	</g>
</g>
<g>
	<defs>
		<path id="SVGID_3_" d="M10.8,8h3.3c1,0,1.8-1.9,1.8-1.9c0-0.6-0.1-1-1.2-1s-1.4,0.7-2.2,0.7S11.3,5.1,10.2,5S9,5.5,9,6.1
			C9,6.1,9.8,8,10.8,8z M14.2,8h-3.5C7,8,6,15.1,6,15.1c0,1,0.8,1.8,1.8,1.9h9.4c1-0.1,1.8-0.9,1.8-1.9C19,15.1,18.1,8,14.2,8z
			 M14.6,13.8c0.2,0,0.4,0.2,0.4,0.4c0,0,0,0,0,0c0,0.2-0.2,0.4-0.4,0.4c0,0,0,0,0,0h-1.7v1c0,0.2-0.3,0.4-0.5,0.4
			c-0.2,0-0.3-0.2-0.4-0.4v-1h-1.7c-0.2,0-0.4-0.2-0.4-0.4c0,0,0,0,0,0c0-0.2,0.2-0.4,0.4-0.4c0,0,0,0,0,0h1.7v-0.5h-1.7
			c-0.2,0-0.4-0.2-0.4-0.4c0,0,0,0,0,0c0-0.2,0.2-0.4,0.4-0.4c0,0,0,0,0,0h1.1l-1.2-2c-0.1-0.2,0-0.4,0.1-0.5c0,0,0,0,0,0
			c0.2-0.1,0.4,0,0.6,0.1l1.4,2.4h0.1l1.4-2.3c0.1-0.2,0.4-0.2,0.6-0.1c0.2,0.1,0.3,0.3,0.2,0.5c0,0,0,0,0,0l-1.2,2h1.1
			c0.2,0,0.4,0.2,0.4,0.4c0,0,0,0,0,0c0,0.2-0.2,0.4-0.4,0.4c0,0,0,0,0,0h-1.7v0.5L14.6,13.8z"/>
	</defs>
	<clipPath id="SVGID_4_">
		<use xlink:href="#SVGID_3_"  style="overflow:visible;"/>
	</clipPath>
	<g class="st2">
		<g>
			<defs>
				<rect id="SVGID_5_" x="-230" y="-593" width="1360" height="1096"/>
			</defs>
			<clipPath id="SVGID_6_">
				<use xlink:href="#SVGID_5_"  style="overflow:visible;"/>
			</clipPath>
			<g class="st3">
				<rect x="1" y="0" class="st4" width="23" height="22"/>
			</g>
		</g>
	</g>
</g>
</svg>
