<?xml version="1.0" encoding="utf-8"?>
<!-- Generator: Adobe Illustrator 22.1.0, SVG Export Plug-In . SVG Version: 6.00 Build 0)  -->
<svg version="1.1" id="图层_1" xmlns="http://www.w3.org/2000/svg" xmlns:xlink="http://www.w3.org/1999/xlink" x="0px" y="0px"
	 viewBox="0 0 24 24" style="enable-background:new 0 0 24 24;" xml:space="preserve">
<style type="text/css">
	.st0{clip-path:url(#SVGID_2_);}
	.st1{fill:#4391FF;}
	.st2{clip-path:url(#SVGID_4_);}
	.st3{clip-path:url(#SVGID_6_);}
	.st4{fill:#FFFFFF;}
</style>
<g>
	<defs>
		<circle id="SVGID_1_" cx="12" cy="12" r="12"/>
	</defs>
	<clipPath id="SVGID_2_">
		<use xlink:href="#SVGID_1_"  style="overflow:visible;"/>
	</clipPath>
	<g class="st0">
		<rect x="-5" y="-5" class="st1" width="34" height="34"/>
	</g>
</g>
<g>
	<defs>
		<path id="SVGID_3_" d="M12.6,16.1c0,0.3,0.1,0.6,0.2,0.8c0.1,0.2,0.3,0.4,0.6,0.4h-0.7h-0.6c-0.2,0-0.5,0-0.9,0l-1-0.1l-1-0.1
			l-0.9-0.1l-0.7-0.1c-0.1,0-0.2-0.1-0.4-0.1C7.1,16.6,7,16.4,7,16.2c0-0.4,0-0.9,0.1-1.3c0-0.2,0.1-0.4,0.2-0.5
			c0.1-0.1,0.2-0.3,0.4-0.3C7.8,14,8,13.9,8.1,13.8l0.6-0.2l0.6-0.2c0.2-0.1,0.3-0.1,0.5-0.2c0.1-0.1,0.3-0.2,0.4-0.3
			c0.1-0.1,0.2-0.2,0.2-0.3c0-0.1,0.1-0.2,0.1-0.3c0-0.1,0-0.2,0-0.4c0-0.2-0.1-0.3-0.2-0.4c-0.1-0.1-0.2-0.2-0.4-0.3
			c-0.1-0.1-0.1-0.1-0.2-0.2c-0.1-0.1-0.1-0.2-0.1-0.3c-0.1-0.1-0.1-0.3-0.1-0.4c-0.1,0-0.1-0.1-0.2-0.1c-0.1-0.1-0.1-0.1-0.2-0.2
			C9,9.9,8.9,9.8,8.9,9.7c0-0.1,0-0.3,0-0.4c0-0.1,0-0.2,0-0.3C9,8.9,9,8.8,9.1,8.8c0-0.3,0-0.6,0.1-0.9c0-0.3,0.1-0.6,0.2-0.8
			c0.1-0.3,0.2-0.6,0.4-0.8c0.1-0.2,0.3-0.4,0.5-0.6c0.2-0.1,0.4-0.3,0.6-0.3C11,5.1,11.2,5.1,11.4,5c0.2,0,0.4,0,0.6,0
			c0.2,0,0.5,0,0.7,0.1c0.2,0.1,0.5,0.1,0.7,0.2c0.2,0.1,0.4,0.2,0.6,0.3c0.1,0.1,0.3,0.2,0.4,0.3c0.2,0.3,0.4,0.6,0.5,0.9
			c0.1,0.3,0.2,0.6,0.2,0.9c0.1,0.3,0.1,0.7,0.1,1c0.1,0,0.1,0.1,0.1,0.2c0,0.1,0.1,0.1,0.1,0.2c0,0.1,0,0.2,0,0.3
			c0,0.1-0.1,0.3-0.1,0.4c0,0.1-0.1,0.2-0.2,0.2c-0.1,0.1-0.1,0.1-0.2,0.1c-0.1,0.1-0.1,0.3-0.1,0.4s-0.1,0.2-0.1,0.3
			c0,0.1-0.1,0.2-0.2,0.2l-0.2,0.2L14,11.5c0,0.1-0.1,0.1-0.1,0.2c0,0.1-0.1,0.2-0.1,0.3c0,0.1,0,0.3,0,0.4c0,0.1,0,0.3,0.1,0.4
			c0.1,0.1,0.2,0.3,0.3,0.4c0.2,0.1,0.3,0.2,0.5,0.3h0.1v0.9h-1c-0.8,0-1.1,0.3-1.1,0.9L12.6,16.1z M18.8,15.4
			c0.1,0.1,0.2,0.2,0.2,0.4c0,0.1,0,0.3-0.1,0.3c-0.1,0.1-0.3,0.2-0.6,0.4l-0.7,0.4l-0.7,0.5c-0.2,0.1-0.4,0.3-0.6,0.4
			C16.1,17.9,16,18,15.8,18c-0.1,0-0.1-0.1-0.1-0.4v-0.6c0-0.1,0-0.2-0.1-0.3c-0.1-0.1-0.2-0.1-0.3-0.1h-1.5c-0.1,0-0.2,0-0.3-0.1
			c-0.1-0.1-0.2-0.2-0.1-0.3v-0.6c0-0.2,0-0.4,0.1-0.5c0.1-0.1,0.3-0.1,0.4-0.1h1.3c0.2,0,0.3-0.1,0.4-0.2c0.1-0.1,0.1-0.3,0.1-0.4
			v-0.6c0-0.2,0-0.3,0.1-0.3s0.2,0,0.3,0.1c0.2,0.1,0.4,0.3,0.6,0.4l0.8,0.4l0.8,0.5C18.4,15.1,18.6,15.2,18.8,15.4z"/>
	</defs>
	<clipPath id="SVGID_4_">
		<use xlink:href="#SVGID_3_"  style="overflow:visible;"/>
	</clipPath>
	<g class="st2">
		<g>
			<defs>
				<rect id="SVGID_5_" x="-830" y="-421" width="1360" height="1096"/>
			</defs>
			<clipPath id="SVGID_6_">
				<use xlink:href="#SVGID_5_"  style="overflow:visible;"/>
			</clipPath>
			<g class="st3">
				<rect x="2" y="0" class="st4" width="22" height="23"/>
			</g>
		</g>
	</g>
</g>
</svg>
