<?xml version="1.0" encoding="utf-8"?>
<!-- Generator: Adobe Illustrator 22.1.0, SVG Export Plug-In . SVG Version: 6.00 Build 0)  -->
<svg version="1.1" id="图层_1" xmlns="http://www.w3.org/2000/svg" xmlns:xlink="http://www.w3.org/1999/xlink" x="0px" y="0px"
	 viewBox="0 0 24 24" style="enable-background:new 0 0 24 24;" xml:space="preserve">
<style type="text/css">
	.st0{clip-path:url(#SVGID_2_);}
	.st1{clip-path:url(#SVGID_4_);}
	.st2{fill:#9AD320;}
	.st3{clip-path:url(#SVGID_6_);}
	.st4{clip-path:url(#SVGID_8_);}
	.st5{fill:#FFFFFF;}
</style>
<g>
	<g>
		<defs>
			<circle id="SVGID_1_" cx="12" cy="12" r="12"/>
		</defs>
		<clipPath id="SVGID_2_">
			<use xlink:href="#SVGID_1_"  style="overflow:visible;"/>
		</clipPath>
		<g class="st0">
			<g>
				<g>
					<defs>
						<rect id="SVGID_3_" x="-524" y="-422" width="1360" height="1096"/>
					</defs>
					<clipPath id="SVGID_4_">
						<use xlink:href="#SVGID_3_"  style="overflow:visible;"/>
					</clipPath>
					<g class="st1">
						<rect x="-5" y="-5" class="st2" width="34" height="34"/>
					</g>
				</g>
				<g>
					<g>
						<defs>
							<path id="SVGID_5_" d="M13.2,7h-2.4c-0.3,0-0.5,0.3-0.5,0.6l0,0c0,0.3,0.2,0.6,0.5,0.6h2.4c0.3-0.1,0.5-0.4,0.5-0.7
								C13.6,7.3,13.4,7.1,13.2,7 M14.6,7.4c0,0.1,0,0.1,0,0.2c0,0.5-0.4,1-0.8,1h-3.6c-0.5-0.1-0.8-0.5-0.8-1c0-0.1,0-0.1,0-0.2
								H8.2C7.3,7.4,7,8,7,8.8v7.9C7,17.5,7.4,18,8.3,18h7.4c0.9,0,1.4-0.4,1.4-1.3V8.8c0.1-0.7-0.4-1.3-1.1-1.4c-0.1,0-0.2,0-0.2,0
								H14.6z M14.6,15.2H9.4C9.2,15.2,9,15,9,14.8s0.1-0.3,0.3-0.4h5.1c0.2,0,0.4,0.2,0.4,0.4C14.8,15,14.7,15.2,14.6,15.2
								 M14.5,13.1H9.4c-0.2,0-0.3-0.2-0.3-0.4s0.1-0.4,0.3-0.4h5.1c0.2,0,0.4,0.2,0.4,0.4C14.9,12.9,14.7,13.1,14.5,13.1 M14.5,11
								H9.4c-0.2,0-0.3-0.2-0.3-0.4s0.1-0.4,0.3-0.4h5.1c0.2,0,0.4,0.2,0.4,0.4S14.7,11,14.5,11"/>
						</defs>
						<clipPath id="SVGID_6_">
							<use xlink:href="#SVGID_5_"  style="overflow:visible;"/>
						</clipPath>
						<g class="st3">
							<g>
								<g>
									<defs>
										<rect id="SVGID_7_" x="-524" y="-422" width="1360" height="1096"/>
									</defs>
									<clipPath id="SVGID_8_">
										<use xlink:href="#SVGID_7_"  style="overflow:visible;"/>
									</clipPath>
									<g class="st4">
										<rect x="2" y="2" class="st5" width="20" height="21"/>
									</g>
								</g>
							</g>
						</g>
					</g>
				</g>
			</g>
		</g>
	</g>
</g>
</svg>
