<svg id="图层_1" data-name="图层 1" xmlns="http://www.w3.org/2000/svg" xmlns:xlink="http://www.w3.org/1999/xlink" viewBox="0 0 62.88 50.41"><defs><style>.cls-1{fill:#fff;}.cls-2{mask:url(#mask);}.cls-3{fill:#999;}</style><mask id="mask" x="0" y="0" width="62.88" height="50.41" maskUnits="userSpaceOnUse"><g transform="translate(-5.56 -10.92)"><g id="mask-2"><polygon id="path-1" class="cls-1" points="5.56 10.92 68.44 10.92 68.44 61.33 5.56 61.33 5.56 10.92"/></g></g></mask></defs><title>编辑图片</title><g id="Page-1"><g id="类目管理-新增一级类目弹窗_上传一张图片时_" data-name="类目管理-新增一级类目弹窗（上传一张图片时）"><g id="Group-2-Copy"><g id="Page-1-2" data-name="Page-1"><g id="Group-3"><g class="cls-2"><path id="Fill-1" class="cls-3" d="M64.51,55.37a2,2,0,0,1-1.84,2.08H11.33a2,2,0,0,1-1.84-2.08V24.17a2,2,0,0,1,1.84-2.09H22.47a2,2,0,0,0,1.84-1.28c1.56-4.24,3.25-6,3.81-6H45.88c.74,0,2.38,1.84,3.73,5.94a2,2,0,0,0,1.87,1.34H62.67a2,2,0,0,1,1.84,2.09ZM62.67,18.21H52.88c-1.36-3.59-3.6-7.29-7-7.29H28.12c-3.22,0-5.53,3.71-7,7.29H11.33a5.87,5.87,0,0,0-5.77,6v31.2a5.87,5.87,0,0,0,5.77,6H62.67a5.87,5.87,0,0,0,5.77-6V24.17A5.87,5.87,0,0,0,62.67,18.21Z" transform="translate(-5.56 -10.92)"/></g></g><path id="Fill-4" class="cls-3" d="M54.51,24.62a1.75,1.75,0,1,0,1.75,1.75,1.74,1.74,0,0,0-1.75-1.75" transform="translate(-5.56 -10.92)"/><path id="Fill-6" class="cls-3" d="M36.16,45.31a7.58,7.58,0,1,1,7.57-7.58,7.59,7.59,0,0,1-7.57,7.58m0-18.94A11.36,11.36,0,1,0,47.52,37.73,11.38,11.38,0,0,0,36.16,26.37" transform="translate(-5.56 -10.92)"/></g></g></g></g></svg>