<?xml version="1.0" encoding="utf-8"?>
<!-- Generator: Adobe Illustrator 21.0.0, SVG Export Plug-In . SVG Version: 6.00 Build 0)  -->
<svg version="1.1" id="图层_1" xmlns="http://www.w3.org/2000/svg" xmlns:xlink="http://www.w3.org/1999/xlink" x="0px" y="0px"
	 viewBox="0 0 18 18" style="enable-background:new 0 0 18 18;" xml:space="preserve">
<style type="text/css">
	.st0{clip-path:url(#SVGID_2_);}
	.st1{clip-path:url(#SVGID_4_);fill:#4391FF;}
</style>
<g>
	<defs>
		<path id="SVGID_1_" d="M7,11.2l0.9-1.9l4.2-4.2l1,1l-4.2,4.2L7,11.2z M12.9,4.2l0.7-0.7l1,1l-0.7,0.7L12.9,4.2z M5.8,13
			C5.9,13,5.9,13,6,13h0l3.6-1.7l0,0l6-6.1C15.9,5,16,4.8,16,4.5c0-0.3-0.1-0.6-0.3-0.8l-1.2-1.2c-0.2-0.2-0.5-0.3-0.8-0.3
			c-0.3,0-0.6,0.1-0.8,0.3l-6,6l0,0l0,0l-1.7,3.5c-0.1,0.2-0.1,0.4,0,0.6C5.3,12.9,5.6,13,5.8,13z M15.4,14.9H2.6
			c-0.3,0-0.6,0.3-0.6,0.6c0,0.3,0.3,0.6,0.6,0.6h12.8c0.3,0,0.6-0.3,0.6-0.6C16,15.2,15.7,14.9,15.4,14.9z"/>
	</defs>
	<clipPath id="SVGID_2_">
		<use xlink:href="#SVGID_1_"  style="overflow:visible;"/>
	</clipPath>
	<g class="st0">
		<defs>
			<rect id="SVGID_3_" x="-509" y="-273.8" width="1360" height="1031"/>
		</defs>
		<clipPath id="SVGID_4_">
			<use xlink:href="#SVGID_3_"  style="overflow:visible;"/>
		</clipPath>
		<rect x="-3" y="-2.8" class="st1" width="24" height="24"/>
	</g>
</g>
</svg>
