<?xml version="1.0" encoding="utf-8"?>
<!-- Generator: Adobe Illustrator 21.0.0, SVG Export Plug-In . SVG Version: 6.00 Build 0)  -->
<svg version="1.1" id="图层_1" xmlns="http://www.w3.org/2000/svg" xmlns:xlink="http://www.w3.org/1999/xlink" x="0px" y="0px"
	 viewBox="0 0 200 200" style="enable-background:new 0 0 200 200;" xml:space="preserve">
<style type="text/css">
	.st0{fill:#FA8C16;}
</style>
<g>
	<path class="st0" d="M73.5,50.2h48.2c14.9,0,26.3-32.4,26.3-32.4c0-9.7-1-17-17.5-17.5C113.9-0.2,110,11.9,98.1,11.9
		c-12.2,0-18.3-9.5-33.3-11.6S47.3,8.2,47.3,17.8C47.2,17.8,58.6,50.2,73.5,50.2L73.5,50.2z"/>
	<path class="st0" d="M124.4,60.2H73.5c-56.3,0-70.2,110.7-70.2,110.7c0,14.5,11.8,29.1,26.3,29.1h138.6c14.5,0,26.3-14.6,26.3-29.1
		C194.5,170.9,180.7,60.2,124.4,60.2L124.4,60.2z M130.1,145.2c3.4,0,6.1,2.8,6.1,6.1s-2.8,6.1-6.1,6.1h-24.9v16.1
		c0,3.4-2.7,6.1-6.1,6.1s-6.1-2.8-6.1-6.1v-16.1H67.8c-3.4,0-6.1-2.8-6.1-6.1s2.8-6.1,6.1-6.1h25.1v-7.8H67.8
		c-3.4,0-6.1-2.7-6.1-6.1l0,0c0-3.4,2.8-6.2,6.1-6.2h17L67.4,94.3c-1.7-2.9-0.7-6.7,2.2-8.4c2.9-1.7,6.7-0.7,8.4,2.2l20.9,37h1.1
		l20.9-37c1.7-2.9,5.5-3.9,8.4-2.2l0,0c2.9,1.7,4,5.5,2.3,8.4l0,0l-17.4,30.9h15.9c3.4,0,6.1,2.8,6.1,6.2c0,3.4-2.8,6.1-6.1,6.1
		h-24.9v7.8L130.1,145.2L130.1,145.2z"/>
</g>
</svg>
