<?xml version="1.0" encoding="UTF-8"?>
<svg width="22px" height="14px" viewBox="0 0 22 14" version="1.1" xmlns="http://www.w3.org/2000/svg" xmlns:xlink="http://www.w3.org/1999/xlink">
    <!-- Generator: Sketch 49.3 (51167) - http://www.bohemiancoding.com/sketch -->
    <title>Group 6@2x</title>
    <desc>Created with Sketch.</desc>
    <defs></defs>
    <g id="Page-1" stroke="none" stroke-width="1" fill="none" fill-rule="evenodd">
        <g id="账户-商城流水" transform="translate(-362.000000, -192.000000)" fill="#999999">
            <g id="Group-7" transform="translate(262.000000, 192.000000)">
                <g id="Group-6" transform="translate(100.000000, 0.000000)">
                    <path d="M11.0000551,12.4953651 C6.57540636,12.4953651 2.84919479,8.4202228 1.68414021,6.99875865 C2.8453348,5.57481178 6.554783,1.50474778 11.0000551,1.50474778 C15.4247039,1.50474778 19.1508052,5.57989005 20.3159701,7.00124135 C19.1547755,8.42530107 15.4453273,12.4953651 11.0000551,12.4953651 M21.8804782,6.59497977 C21.8804782,6.59497977 17.1686464,0 11.0000551,0 C4.83091249,0 0.119521763,6.59497977 0.119521763,6.59497977 C-0.0398405875,6.81763369 -0.0398405875,7.18236631 0.119521763,7.40513308 C0.119521763,7.40513308 4.83135363,14 11.0000551,14 C17.1691978,14 21.8804782,7.40513308 21.8804782,7.40513308 C22.0398406,7.18236631 22.0398406,6.81763369 21.8804782,6.59497977" id="Fill-1"></path>
                    <path d="M11,8.60348439 C10.1159218,8.60348439 9.39661313,7.88474967 9.39661313,7.00020948 C9.39661313,6.11577404 10.1159218,5.39651561 11,5.39651561 C11.8839735,5.39651561 12.6033869,6.116193 12.6033869,7.00020948 C12.6033869,7.88422596 11.8839735,8.60348439 11,8.60348439 M11,4 C9.34581006,4 8,5.34571608 8,7.00020948 C8.00178073,8.656274 9.34381983,9.9982194 11,10 C12.6560754,9.99790517 13.997905,8.65616926 14,7.00020948 C14,5.34571608 12.6540852,4 11,4" id="Fill-4"></path>
                </g>
            </g>
        </g>
    </g>
</svg>