<?xml version="1.0" encoding="utf-8"?>
<!-- Generator: Adobe Illustrator 22.1.0, SVG Export Plug-In . SVG Version: 6.00 Build 0)  -->
<svg version="1.1" id="图层_1" xmlns="http://www.w3.org/2000/svg" xmlns:xlink="http://www.w3.org/1999/xlink" x="0px" y="0px"
	 viewBox="0 0 24 24" style="enable-background:new 0 0 24 24;" xml:space="preserve">
<style type="text/css">
	.st0{clip-path:url(#SVGID_2_);}
	.st1{fill:#FF7971;}
	.st2{clip-path:url(#SVGID_4_);}
	.st3{clip-path:url(#SVGID_6_);}
	.st4{fill:#FFFFFF;}
</style>
<g>
	<g>
		<defs>
			<circle id="SVGID_1_" cx="12" cy="12" r="12"/>
		</defs>
		<clipPath id="SVGID_2_">
			<use xlink:href="#SVGID_1_"  style="overflow:visible;"/>
		</clipPath>
		<g class="st0">
			<rect x="-5" y="-5" class="st1" width="34" height="34"/>
		</g>
	</g>
</g>
<g>
	<g>
		<defs>
			<path id="SVGID_3_" d="M14.5,6C12.6,6,11,6.5,11,7.1v1.8V9c0.2,0.5,1.7,1,3.5,1c1.8,0,3.4-0.5,3.6-1V8.9V7.1
				C18,6.5,16.4,6,14.5,6 M17.4,7.2c-0.2,0.1-0.4,0.2-0.6,0.3c-0.7,0.2-1.5,0.3-2.3,0.3S13,7.7,12.2,7.5c-0.2,0-0.4-0.1-0.6-0.3
				c-0.1,0-0.1-0.1-0.2-0.1c0,0,0.1-0.1,0.2-0.1c0.2-0.1,0.4-0.2,0.6-0.3c0.7-0.2,1.5-0.3,2.3-0.3s1.5,0.1,2.3,0.3
				C17,6.8,17.2,6.9,17.4,7c0.1,0,0.1,0.1,0.2,0.1C17.5,7.2,17.5,7.3,17.4,7.2 M16.1,10.1c-1.1,0.2-2.2,0.2-3.2,0
				C11.7,9.9,11,9.6,11,9.2v0.7c-0.5-0.1-1-0.1-1.4-0.1c-2,0-3.6,0.5-3.6,1.1v1.8v0.1c0.2,0.5,1.7,1,3.5,1c0.5,0,0.9,0,1.4-0.1h0.5
				c0.9-0.2,1.5-0.5,1.6-0.8v-0.1V13c0,0.3-0.5,0.6-1.3,0.8l-0.4,0.1h-0.5c-0.3,0-0.8,0.1-1.2,0.1c-0.5,0-1.1,0-1.6-0.1
				c-1.2-0.1-2-0.4-2-0.9v1.8v0.1c0.2,0.5,1.7,1,3.5,1c0.6,0,1.3,0,1.9-0.2c0.9-0.2,1.5-0.5,1.6-0.8v-0.1v0.3c0,0.3-0.5,0.6-1.3,0.8
				C11.6,16,11.3,16,11.1,16c-0.5,0.1-1.1,0.1-1.6,0.1s-1-0.1-1.6-0.2C6.8,15.8,6,15.5,6,15.1V17c0.2,0.5,1.7,1,3.5,1s3.4-0.4,3.5-1
				v-0.1v-0.8c0.5,0.1,0.9,0.1,1.4,0.1c1.8,0,3.4-0.4,3.5-0.9v-0.1v-1.8c0,0.4-0.8,0.7-1.9,0.9c-0.5,0.1-1.1,0.1-1.6,0.1
				s-0.9,0-1.4-0.1v-0.2c0.5,0.1,0.9,0.1,1.4,0.1c1.8,0,3.3-0.4,3.5-1v-0.1v-1.8c0,0.4-0.8,0.7-1.9,0.9c-0.5,0.1-1.1,0.1-1.6,0.1
				s-0.9,0-1.4-0.1V12c0.5,0.1,0.9,0.1,1.4,0.1c1.8,0,3.3-0.4,3.5-1V11V9.2C18,9.6,17.2,9.9,16.1,10.1 M12.3,11.1
				c-0.2,0.1-0.4,0.2-0.6,0.3l-0.6,0.1h-0.3c-0.5,0.1-0.9,0.1-1.4,0.1c-0.8,0-1.5-0.1-2.3-0.3c-0.2-0.1-0.4-0.2-0.6-0.3
				c-0.1,0-0.1-0.1-0.2-0.1c0-0.1,0.1-0.1,0.2-0.2c0.2-0.1,0.4-0.2,0.6-0.3c0.7-0.2,1.5-0.3,2.3-0.3c0.5,0,0.9,0,1.4,0.1
				c0.3,0,0.6,0.1,0.9,0.2c0.2,0.1,0.4,0.1,0.6,0.3c0.1,0,0.1,0.1,0.2,0.2C12.5,11,12.4,11,12.3,11.1"/>
		</defs>
		<clipPath id="SVGID_4_">
			<use xlink:href="#SVGID_3_"  style="overflow:visible;"/>
		</clipPath>
		<g class="st2">
			<g>
				<g>
					<defs>
						<rect id="SVGID_5_" x="-530" y="-593" width="1360" height="1096"/>
					</defs>
					<clipPath id="SVGID_6_">
						<use xlink:href="#SVGID_5_"  style="overflow:visible;"/>
					</clipPath>
					<g class="st3">
						<rect x="1" y="1" class="st4" width="22" height="22"/>
					</g>
				</g>
			</g>
		</g>
	</g>
</g>
</svg>
