<svg id="图层_1" data-name="图层 1" xmlns="http://www.w3.org/2000/svg" viewBox="0 0 13.5 13.36">
  <defs>
    <style>
      .cls-1 {
        fill: #4391ff;
      }
    </style>
  </defs>
  <title>修改备注</title>
  <path class="cls-1" d="M2.68,15H15.32a.43.43,0,0,1,.43.43.43.43,0,0,1-.43.43H2.68a.43.43,0,0,1-.43-.43A.43.43,0,0,1,2.68,15ZM13.19,3.85a1.28,1.28,0,0,1,0,1.82L5.66,13.5a.84.84,0,0,1-.53.26l-1.69.16a.85.85,0,0,1-.93-.77V11.26a.83.83,0,0,1,.24-.6L10.3,2.84a1.28,1.28,0,0,1,1.81,0Zm-3.32.67L3.36,11.26v1.81l1.69-.16,6.52-6.75Zm.6-.62,1.69,1.64.45-.46a.44.44,0,0,0,0-.61l-1.08-1a.43.43,0,0,0-.61,0Z" transform="translate(-2.25 -2.45)"/>
</svg>
