<?xml version="1.0" encoding="utf-8"?>
<!-- Generator: Adobe Illustrator 21.0.0, SVG Export Plug-In . SVG Version: 6.00 Build 0)  -->
<svg version="1.1" id="图层_1" xmlns="http://www.w3.org/2000/svg" xmlns:xlink="http://www.w3.org/1999/xlink" x="0px" y="0px"
	 viewBox="0 0 18 18" style="enable-background:new 0 0 18 18;" xml:space="preserve">
<style type="text/css">
	.st0{fill:#4391FF;}
</style>
<g>
	<circle class="st0" cx="9" cy="9" r="1.1"/>
	<path class="st0" d="M17.1,9c-2.4-4-5.1-6-8.1-6s-5.7,2-8.1,6l0,0l0,0c2.4,4,5.1,6,8.1,6S14.7,13.1,17.1,9L17.1,9L17.1,9z M9,13.9
		c-2.4,0-4.6-1.6-6.7-4.9C4.4,5.7,6.6,4.1,9,4.1s4.6,1.6,6.7,4.9C13.6,12.3,11.4,13.9,9,13.9z"/>
	<path class="st0" d="M9,5.6C7.1,5.6,5.6,7.1,5.6,9s1.5,3.4,3.4,3.4c0.9,0,1.8-0.4,2.4-1c0.6-0.6,1-1.5,1-2.4
		C12.4,7.1,10.9,5.6,9,5.6z M9,11.2c-1.2,0-2.2-1-2.2-2.2s1-2.2,2.2-2.2s2.2,1,2.2,2.2S10.2,11.2,9,11.2z"/>
</g>
</svg>
