<?xml version="1.0" encoding="utf-8"?>
<!-- Generator: Adobe Illustrator 21.0.0, SVG Export Plug-In . SVG Version: 6.00 Build 0)  -->
<svg version="1.1" id="图层_1" xmlns="http://www.w3.org/2000/svg" xmlns:xlink="http://www.w3.org/1999/xlink" x="0px" y="0px"
	 viewBox="0 0 200 188.2" style="enable-background:new 0 0 200 188.2;" xml:space="preserve">
<style type="text/css">
	.st0{fill:#999999;}
</style>
<path class="st0" d="M175.1,88.6c-1.2-1.7-29.4-41.5-75.1-41.5c-45.7,0-73.9,39.8-75.1,41.5c-1.8,2.6-1.8,6.1,0,8.7
	c1.2,1.7,29.4,41.5,75.1,41.5c45.7,0,73.9-39.8,75.1-41.5C176.9,94.7,176.9,91.2,175.1,88.6z M100,131.2
	c-42.2,0-68.8-38.2-68.8-38.2S57.8,54.7,100,54.7s68.8,38.2,68.8,38.2S142.2,131.2,100,131.2L100,131.2z M100,62.4
	c-16.9,0-30.6,13.7-30.6,30.6s13.7,30.6,30.6,30.6s30.6-13.7,30.6-30.6S116.9,62.4,100,62.4z M100,115.9
	c-12.7,0-22.9-10.3-22.9-22.9C77.1,80.3,87.4,70,100,70s22.9,10.3,22.9,22.9S112.6,115.9,100,115.9L100,115.9z"/>
</svg>
