<?xml version="1.0" encoding="utf-8"?>
<!-- Generator: Adobe Illustrator 21.0.0, SVG Export Plug-In . SVG Version: 6.00 Build 0)  -->
<svg version="1.1" id="图层_1" xmlns="http://www.w3.org/2000/svg" xmlns:xlink="http://www.w3.org/1999/xlink" x="0px" y="0px"
	 viewBox="0 0 200 200" style="enable-background:new 0 0 200 200;" xml:space="preserve">
<style type="text/css">
	.st0{fill:#999999;}
</style>
<path class="st0" d="M159.8,79.1c-5.2-1.4-17.4-1.3-35.3-1.8c0.8-3.9,1-7.4,1-13.7c0-14.9-10.9-28-20.5-28
	c-6.8,0-12.4,5.5-12.5,12.4c-0.1,8.4-2.7,22.8-16.6,30.1c-1,0.5-3.9,2-4.4,2.2l0.2,0.2c-2.2-1.9-5.2-3.3-8.3-3.3H51.1
	c-6.9,0-12.5,5.6-12.5,12.5v66.5c0,6.9,5.6,12.5,12.5,12.5h12.5c4.9,0,9.1-3,11.1-7.2c0,0,0.1,0,0.2,0c0.3,0.1,0.6,0.2,1,0.3
	c0.1,0,0.1,0,0.2,0c2.4,0.6,7,1.7,16.8,4c2.1,0.5,13.3,2.9,24.8,2.9h22.7c6.9,0,12.1-2.6,14.9-8c2.8-4.8,16.3-30.7,16.3-67.2
	C171.5,88.1,167.9,81.4,159.8,79.1L159.8,79.1L159.8,79.1z M67.7,156.1c0,2.3-1.9,4.2-4.2,4.2H51.1c-2.3,0-4.2-1.9-4.2-4.2V89.6
	c0-2.3,1.9-4.2,4.2-4.2h12.5c2.3,0,4.2,1.9,4.2,4.2V156.1z M163.1,96c-1.7,41.7-15.2,60.6-15.2,60.6c-1.3,2.3-3.3,3.6-7.6,3.6h-22.7
	c-11.4,0-22.7-2.6-23-2.7c-17.3-4-18.2-4.3-19.2-4.6l0.6-61c0-6.3,0.1-4.7,0-4.6c19-7.9,24.8-25.1,24.9-39.2c0-2,1.6-4.2,4.2-4.2
	c4.4,0,12.2,8.8,12.2,19.7c0,9.8-0.4,11.6-3.8,21.8c41.5,0,41.2,0.6,44.9,1.6c4.5,1.3,4.9,5.1,4.9,6.4
	C163.2,94.8,163.2,94.6,163.1,96L163.1,96L163.1,96L163.1,96z"/>
</svg>
